G04 #@! TF.GenerationSoftware,KiCad,Pcbnew,(5.1.8)-1*
G04 #@! TF.CreationDate,2020-12-30T11:10:38+09:00*
G04 #@! TF.ProjectId,JetsonXavierNX_UPS,4a657473-6f6e-4586-9176-6965724e585f,rev?*
G04 #@! TF.SameCoordinates,Original*
G04 #@! TF.FileFunction,Copper,L2,Bot*
G04 #@! TF.FilePolarity,Positive*
%FSLAX46Y46*%
G04 Gerber Fmt 4.6, Leading zero omitted, Abs format (unit mm)*
G04 Created by KiCad (PCBNEW (5.1.8)-1) date 2020-12-30 11:10:38*
%MOMM*%
%LPD*%
G01*
G04 APERTURE LIST*
G04 #@! TA.AperFunction,ComponentPad*
%ADD10O,1.700000X1.200000*%
G04 #@! TD*
G04 #@! TA.AperFunction,ComponentPad*
%ADD11R,1.700000X1.200000*%
G04 #@! TD*
G04 #@! TA.AperFunction,ComponentPad*
%ADD12C,3.540000*%
G04 #@! TD*
G04 #@! TA.AperFunction,ComponentPad*
%ADD13C,1.750000*%
G04 #@! TD*
G04 #@! TA.AperFunction,ComponentPad*
%ADD14R,1.750000X1.750000*%
G04 #@! TD*
G04 #@! TA.AperFunction,ComponentPad*
%ADD15O,2.250000X4.500000*%
G04 #@! TD*
G04 #@! TA.AperFunction,ComponentPad*
%ADD16O,4.500000X2.250000*%
G04 #@! TD*
G04 #@! TA.AperFunction,ComponentPad*
%ADD17O,5.000000X2.500000*%
G04 #@! TD*
G04 #@! TA.AperFunction,ComponentPad*
%ADD18R,1.200000X1.700000*%
G04 #@! TD*
G04 #@! TA.AperFunction,ComponentPad*
%ADD19O,1.200000X1.700000*%
G04 #@! TD*
G04 #@! TA.AperFunction,ComponentPad*
%ADD20R,1.350000X1.350000*%
G04 #@! TD*
G04 #@! TA.AperFunction,ComponentPad*
%ADD21O,1.350000X1.350000*%
G04 #@! TD*
G04 #@! TA.AperFunction,ComponentPad*
%ADD22C,2.100000*%
G04 #@! TD*
G04 #@! TA.AperFunction,ComponentPad*
%ADD23C,0.300000*%
G04 #@! TD*
G04 #@! TA.AperFunction,ComponentPad*
%ADD24C,1.700000*%
G04 #@! TD*
G04 #@! TA.AperFunction,ComponentPad*
%ADD25C,1.350000*%
G04 #@! TD*
G04 #@! TA.AperFunction,ViaPad*
%ADD26C,0.900000*%
G04 #@! TD*
G04 #@! TA.AperFunction,ViaPad*
%ADD27C,0.600000*%
G04 #@! TD*
G04 #@! TA.AperFunction,ViaPad*
%ADD28C,1.200000*%
G04 #@! TD*
G04 #@! TA.AperFunction,Conductor*
%ADD29C,3.000000*%
G04 #@! TD*
G04 #@! TA.AperFunction,Conductor*
%ADD30C,2.000000*%
G04 #@! TD*
G04 #@! TA.AperFunction,Conductor*
%ADD31C,0.200000*%
G04 #@! TD*
G04 #@! TA.AperFunction,Conductor*
%ADD32C,0.400000*%
G04 #@! TD*
G04 #@! TA.AperFunction,Conductor*
%ADD33C,0.254000*%
G04 #@! TD*
G04 #@! TA.AperFunction,Conductor*
%ADD34C,0.152400*%
G04 #@! TD*
G04 APERTURE END LIST*
D10*
X206800000Y-124300000D03*
X206800000Y-126300000D03*
X206800000Y-128300000D03*
X206800000Y-130300000D03*
D11*
X206800000Y-132300000D03*
D12*
X147640000Y-139840000D03*
X147640000Y-160160000D03*
X147640000Y-150000000D03*
X193360000Y-142380000D03*
X193360000Y-147460000D03*
X193360000Y-157620000D03*
D13*
X206200000Y-109400000D03*
X206200000Y-111900000D03*
X206200000Y-114400000D03*
D14*
X206200000Y-116900000D03*
D15*
X208600000Y-152700000D03*
D16*
X203900000Y-155700000D03*
D17*
X203900000Y-149700000D03*
D13*
X207200000Y-144300000D03*
D14*
X207200000Y-141800000D03*
D18*
X136600000Y-159500000D03*
D19*
X138600000Y-159500000D03*
X140600000Y-159500000D03*
X142600000Y-159500000D03*
D14*
X113000000Y-140100000D03*
D13*
X113000000Y-137600000D03*
D17*
X114900000Y-150000000D03*
D16*
X114900000Y-156000000D03*
D15*
X119600000Y-153000000D03*
D14*
X206200000Y-116900000D03*
D13*
X206200000Y-114400000D03*
X206200000Y-111900000D03*
X206200000Y-109400000D03*
D20*
X195700000Y-86700000D03*
D21*
X195700000Y-88700000D03*
D22*
X127950000Y-157510000D03*
D13*
X126700000Y-160000000D03*
X122200000Y-160000000D03*
D22*
X120940000Y-157510000D03*
D23*
X168700000Y-130925000D03*
X167925000Y-130925000D03*
X169475000Y-130925000D03*
X168700000Y-129875000D03*
X167925000Y-129875000D03*
X169475000Y-129875000D03*
X168700000Y-131675000D03*
X168700000Y-129125000D03*
D24*
X160200000Y-123560000D03*
D25*
X181300000Y-132600000D03*
D24*
X160200000Y-126100000D03*
X181300000Y-126100000D03*
X181300000Y-123560000D03*
D25*
X181300000Y-134600000D03*
D26*
X199600000Y-135400000D03*
X201125000Y-133725000D03*
X198075000Y-133725000D03*
X198075000Y-137075000D03*
X201125000Y-137075000D03*
D27*
X128000000Y-152500000D03*
X129000000Y-152500000D03*
X130000000Y-152500000D03*
X130000000Y-153500000D03*
X129000000Y-153500000D03*
X128000000Y-153500000D03*
X129000000Y-151500000D03*
X128000000Y-151500000D03*
X130000000Y-151500000D03*
X197700000Y-90600000D03*
X190200000Y-127100000D03*
X187400000Y-126400000D03*
X198800000Y-126200000D03*
X177400000Y-134200000D03*
X172200000Y-136000000D03*
X167700000Y-134700000D03*
X165500000Y-133700000D03*
D28*
X161700000Y-122300000D03*
D27*
X148600000Y-125800000D03*
X144900000Y-129100000D03*
X140800000Y-122400000D03*
X206500000Y-90200000D03*
X207800000Y-90200000D03*
X209000000Y-90200000D03*
X209000000Y-89500000D03*
X207800000Y-89500000D03*
X206500000Y-89500000D03*
X149000000Y-124100000D03*
X196200000Y-126300000D03*
X128900000Y-162100000D03*
X143000000Y-154000000D03*
X201100000Y-130100000D03*
X146400000Y-120500000D03*
X197147679Y-124350009D03*
X202100000Y-106500000D03*
X196230428Y-98706027D03*
X198800000Y-99000000D03*
X196600000Y-116200000D03*
X200899990Y-102800924D03*
X195900000Y-113600000D03*
X201039058Y-101737504D03*
X200159755Y-101804611D03*
X196176456Y-106275000D03*
X201500000Y-109200000D03*
X201735971Y-98980342D03*
X172200000Y-129900000D03*
X174100000Y-126800000D03*
X152000000Y-122300000D03*
X170300000Y-133800000D03*
X172263962Y-131856902D03*
X191700000Y-127500000D03*
X194800000Y-126400000D03*
X190100000Y-122500000D03*
X126325001Y-127625001D03*
X202000000Y-96900000D03*
X203300000Y-104200000D03*
X209400000Y-104500000D03*
X202300000Y-93100000D03*
X165200000Y-130500000D03*
X170400000Y-128000000D03*
X164100000Y-129200000D03*
X166900000Y-127900000D03*
X182900000Y-121600000D03*
X122800000Y-123200000D03*
D29*
X199290010Y-135709989D02*
X199600000Y-135400000D01*
X198075000Y-133725000D02*
X198075000Y-133725000D01*
X201125000Y-133725000D02*
X201125000Y-133725000D01*
X201125000Y-137075000D02*
X198075000Y-137075000D01*
X199600000Y-135400000D02*
X199600000Y-135400000D01*
X201125000Y-133725000D02*
X201125000Y-137075000D01*
X198075000Y-133725000D02*
X201125000Y-133725000D01*
X198075000Y-137075000D02*
X198075000Y-137075000D01*
X201125000Y-137075000D02*
X201125000Y-137075000D01*
D30*
X168700000Y-131675000D02*
X168700000Y-129125000D01*
X167925000Y-129875000D02*
X169475000Y-129875000D01*
X169475000Y-130925000D02*
X167925000Y-130925000D01*
X113000000Y-140100000D02*
X113000000Y-142500000D01*
X114900000Y-156000000D02*
X114900000Y-153400000D01*
X114900000Y-153400000D02*
X114900000Y-158500000D01*
D31*
X146400000Y-120500000D02*
X193197670Y-120500000D01*
X197147679Y-126147679D02*
X201100000Y-130100000D01*
X197147679Y-124350009D02*
X197147679Y-126147679D01*
X193297670Y-120500000D02*
X193197670Y-120500000D01*
X197147679Y-124350009D02*
X193297670Y-120500000D01*
X203300000Y-106500000D02*
X206200000Y-109400000D01*
X202100000Y-106500000D02*
X203300000Y-106500000D01*
X198506027Y-98706027D02*
X198800000Y-99000000D01*
X196230428Y-98706027D02*
X198506027Y-98706027D01*
X200899990Y-111900010D02*
X200899990Y-102800924D01*
X196600000Y-116200000D02*
X200899990Y-111900010D01*
X201039058Y-101773852D02*
X201039058Y-101737504D01*
X200299988Y-102512922D02*
X201039058Y-101773852D01*
X195900000Y-113600000D02*
X200299988Y-109200012D01*
X200299988Y-109200012D02*
X200299988Y-102512922D01*
X200159755Y-101804611D02*
X196176456Y-105787910D01*
X196176456Y-105787910D02*
X196176456Y-106275000D01*
X201399999Y-109099999D02*
X201500000Y-109200000D01*
X201399999Y-106187001D02*
X201399999Y-109099999D01*
X201735971Y-105851029D02*
X201399999Y-106187001D01*
X201735971Y-98980342D02*
X201735971Y-105851029D01*
X174100000Y-128000000D02*
X174100000Y-126800000D01*
X172200000Y-129900000D02*
X174100000Y-128000000D01*
X153260000Y-123560000D02*
X160200000Y-123560000D01*
X152000000Y-122300000D02*
X153260000Y-123560000D01*
X170300000Y-133800000D02*
X172243098Y-131856902D01*
X172243098Y-131856902D02*
X172263962Y-131856902D01*
X191700000Y-127500000D02*
X193600000Y-127500000D01*
X193700000Y-127500000D02*
X193600000Y-127500000D01*
X194800000Y-126400000D02*
X193700000Y-127500000D01*
X189100000Y-123500000D02*
X186600000Y-123500000D01*
X186600000Y-123500000D02*
X184400000Y-125700000D01*
X184400000Y-125700000D02*
X184400000Y-127500000D01*
X184400000Y-127500000D02*
X182400000Y-129500000D01*
X190100000Y-122500000D02*
X189100000Y-123500000D01*
X182400000Y-129500000D02*
X180300000Y-129500000D01*
X180300000Y-129500000D02*
X172100000Y-137700000D01*
X172100000Y-137700000D02*
X153800000Y-137700000D01*
X153800000Y-137700000D02*
X148300000Y-132200000D01*
X130900000Y-132200000D02*
X126325001Y-127625001D01*
X148300000Y-132200000D02*
X130900000Y-132200000D01*
X203300000Y-98200000D02*
X203300000Y-104200000D01*
X202000000Y-96900000D02*
X203300000Y-98200000D01*
D32*
X209400000Y-100200000D02*
X202300000Y-93100000D01*
X209400000Y-104500000D02*
X209400000Y-100200000D01*
D31*
X165200000Y-130500000D02*
X167999999Y-127700001D01*
X167999999Y-127700001D02*
X170100001Y-127700001D01*
X170100001Y-127700001D02*
X170400000Y-128000000D01*
X165400000Y-127900000D02*
X166900000Y-127900000D01*
X164100000Y-129200000D02*
X165400000Y-127900000D01*
D29*
X203900000Y-155700000D02*
X196464398Y-155700000D01*
X196464398Y-155700000D02*
X189889999Y-149125601D01*
X189889999Y-149125601D02*
X189889999Y-140714399D01*
X198199501Y-141724999D02*
X207124999Y-141724999D01*
X189889999Y-140714399D02*
X191694399Y-138909999D01*
X191694399Y-138909999D02*
X195384501Y-138909999D01*
X195384501Y-138909999D02*
X198199501Y-141724999D01*
D32*
X182900000Y-121600000D02*
X182599999Y-121299999D01*
X182599999Y-121299999D02*
X129000001Y-121299999D01*
X124700001Y-121299999D02*
X122800000Y-123200000D01*
X129000001Y-121299999D02*
X124700001Y-121299999D01*
D33*
X209340001Y-98959133D02*
X203192655Y-92811788D01*
X203128586Y-92657111D01*
X203026262Y-92503972D01*
X202896028Y-92373738D01*
X202742889Y-92271414D01*
X202572729Y-92200932D01*
X202392089Y-92165000D01*
X202207911Y-92165000D01*
X202027271Y-92200932D01*
X201857111Y-92271414D01*
X201703972Y-92373738D01*
X201573738Y-92503972D01*
X201471414Y-92657111D01*
X201400932Y-92827271D01*
X201365000Y-93007911D01*
X201365000Y-93192089D01*
X201400932Y-93372729D01*
X201471414Y-93542889D01*
X201573738Y-93696028D01*
X201703972Y-93826262D01*
X201857111Y-93928586D01*
X202011788Y-93992655D01*
X208565001Y-100545869D01*
X208565000Y-104072596D01*
X208500932Y-104227271D01*
X208465000Y-104407911D01*
X208465000Y-104592089D01*
X208500932Y-104772729D01*
X208571414Y-104942889D01*
X208673738Y-105096028D01*
X208803972Y-105226262D01*
X208957111Y-105328586D01*
X209127271Y-105399068D01*
X209307911Y-105435000D01*
X209340001Y-105435000D01*
X209340000Y-137773000D01*
X204027000Y-137773000D01*
X204027000Y-132900000D01*
X205311928Y-132900000D01*
X205324188Y-133024482D01*
X205360498Y-133144180D01*
X205419463Y-133254494D01*
X205498815Y-133351185D01*
X205595506Y-133430537D01*
X205705820Y-133489502D01*
X205825518Y-133525812D01*
X205950000Y-133538072D01*
X206514250Y-133535000D01*
X206673000Y-133376250D01*
X206673000Y-132427000D01*
X206927000Y-132427000D01*
X206927000Y-133376250D01*
X207085750Y-133535000D01*
X207650000Y-133538072D01*
X207774482Y-133525812D01*
X207894180Y-133489502D01*
X208004494Y-133430537D01*
X208101185Y-133351185D01*
X208180537Y-133254494D01*
X208239502Y-133144180D01*
X208275812Y-133024482D01*
X208288072Y-132900000D01*
X208285000Y-132585750D01*
X208126250Y-132427000D01*
X206927000Y-132427000D01*
X206673000Y-132427000D01*
X205473750Y-132427000D01*
X205315000Y-132585750D01*
X205311928Y-132900000D01*
X204027000Y-132900000D01*
X204027000Y-131800000D01*
X204024560Y-131775224D01*
X204017333Y-131751399D01*
X204005597Y-131729443D01*
X203989803Y-131710197D01*
X203970557Y-131694403D01*
X203948601Y-131682667D01*
X203924776Y-131675440D01*
X203900000Y-131673000D01*
X201715309Y-131673000D01*
X201543533Y-131620892D01*
X201229882Y-131590000D01*
X201125000Y-131579670D01*
X201020118Y-131590000D01*
X197970118Y-131590000D01*
X197656467Y-131620892D01*
X197484691Y-131673000D01*
X183927000Y-131673000D01*
X183927000Y-131100000D01*
X183924636Y-131075608D01*
X183917482Y-131051762D01*
X183905814Y-131029769D01*
X183890079Y-131010475D01*
X183870883Y-130994622D01*
X183848963Y-130982818D01*
X183825161Y-130975517D01*
X183800392Y-130973001D01*
X183775608Y-130975364D01*
X183751762Y-130982518D01*
X183729769Y-130994186D01*
X183710475Y-131009921D01*
X183694622Y-131029117D01*
X183682818Y-131051037D01*
X183675517Y-131074839D01*
X183673001Y-131099608D01*
X183577012Y-162200000D01*
X148915811Y-162200000D01*
X149173098Y-162028086D01*
X149508086Y-161693098D01*
X149771284Y-161299195D01*
X149952577Y-160861513D01*
X150045000Y-160396872D01*
X150045000Y-159923128D01*
X149952577Y-159458487D01*
X149771284Y-159020805D01*
X149508086Y-158626902D01*
X149173098Y-158291914D01*
X148779195Y-158028716D01*
X148341513Y-157847423D01*
X147876872Y-157755000D01*
X147403128Y-157755000D01*
X146938487Y-157847423D01*
X146500805Y-158028716D01*
X146106902Y-158291914D01*
X145771914Y-158626902D01*
X145508716Y-159020805D01*
X145327423Y-159458487D01*
X145235000Y-159923128D01*
X145235000Y-160396872D01*
X145327423Y-160861513D01*
X145508716Y-161299195D01*
X145771914Y-161693098D01*
X146106902Y-162028086D01*
X146364189Y-162200000D01*
X110810000Y-162200000D01*
X110810000Y-156400043D01*
X112061067Y-156400043D01*
X112100371Y-156556190D01*
X112241056Y-156872207D01*
X112440689Y-157154705D01*
X112691599Y-157392829D01*
X112984144Y-157577427D01*
X113307081Y-157701406D01*
X113648000Y-157760000D01*
X114773000Y-157760000D01*
X114773000Y-156127000D01*
X115027000Y-156127000D01*
X115027000Y-157760000D01*
X116152000Y-157760000D01*
X116492919Y-157701406D01*
X116815856Y-157577427D01*
X117108401Y-157392829D01*
X117159807Y-157344042D01*
X119255000Y-157344042D01*
X119255000Y-157675958D01*
X119319754Y-158001496D01*
X119446772Y-158308147D01*
X119631175Y-158584125D01*
X119865875Y-158818825D01*
X120141853Y-159003228D01*
X120448504Y-159130246D01*
X120774042Y-159195000D01*
X120921823Y-159195000D01*
X120861856Y-159284747D01*
X120748029Y-159559549D01*
X120690000Y-159851278D01*
X120690000Y-160148722D01*
X120748029Y-160440451D01*
X120861856Y-160715253D01*
X121027107Y-160962569D01*
X121237431Y-161172893D01*
X121484747Y-161338144D01*
X121759549Y-161451971D01*
X122051278Y-161510000D01*
X122348722Y-161510000D01*
X122640451Y-161451971D01*
X122915253Y-161338144D01*
X123162569Y-161172893D01*
X123289222Y-161046240D01*
X125833365Y-161046240D01*
X125914025Y-161297868D01*
X126182329Y-161426267D01*
X126470526Y-161499855D01*
X126767543Y-161515804D01*
X127061963Y-161473501D01*
X127342474Y-161374572D01*
X127485975Y-161297868D01*
X127566635Y-161046240D01*
X126700000Y-160179605D01*
X125833365Y-161046240D01*
X123289222Y-161046240D01*
X123372893Y-160962569D01*
X123538144Y-160715253D01*
X123651971Y-160440451D01*
X123710000Y-160148722D01*
X123710000Y-160067543D01*
X125184196Y-160067543D01*
X125226499Y-160361963D01*
X125325428Y-160642474D01*
X125402132Y-160785975D01*
X125653760Y-160866635D01*
X126520395Y-160000000D01*
X125653760Y-159133365D01*
X125402132Y-159214025D01*
X125273733Y-159482329D01*
X125200145Y-159770526D01*
X125184196Y-160067543D01*
X123710000Y-160067543D01*
X123710000Y-159851278D01*
X123651971Y-159559549D01*
X123538144Y-159284747D01*
X123372893Y-159037431D01*
X123289222Y-158953760D01*
X125833365Y-158953760D01*
X126700000Y-159820395D01*
X126714143Y-159806253D01*
X126893748Y-159985858D01*
X126879605Y-160000000D01*
X127746240Y-160866635D01*
X127997868Y-160785975D01*
X128126267Y-160517671D01*
X128169079Y-160350000D01*
X135361928Y-160350000D01*
X135374188Y-160474482D01*
X135410498Y-160594180D01*
X135469463Y-160704494D01*
X135548815Y-160801185D01*
X135645506Y-160880537D01*
X135755820Y-160939502D01*
X135875518Y-160975812D01*
X136000000Y-160988072D01*
X136314250Y-160985000D01*
X136473000Y-160826250D01*
X136473000Y-159627000D01*
X135523750Y-159627000D01*
X135365000Y-159785750D01*
X135361928Y-160350000D01*
X128169079Y-160350000D01*
X128199855Y-160229474D01*
X128215804Y-159932457D01*
X128173501Y-159638037D01*
X128074572Y-159357526D01*
X127997868Y-159214025D01*
X127938517Y-159195000D01*
X128115958Y-159195000D01*
X128441496Y-159130246D01*
X128748147Y-159003228D01*
X129024125Y-158818825D01*
X129192950Y-158650000D01*
X135361928Y-158650000D01*
X135365000Y-159214250D01*
X135523750Y-159373000D01*
X136473000Y-159373000D01*
X136473000Y-158173750D01*
X136727000Y-158173750D01*
X136727000Y-159373000D01*
X136747000Y-159373000D01*
X136747000Y-159627000D01*
X136727000Y-159627000D01*
X136727000Y-160826250D01*
X136885750Y-160985000D01*
X137200000Y-160988072D01*
X137324482Y-160975812D01*
X137444180Y-160939502D01*
X137554494Y-160880537D01*
X137651185Y-160801185D01*
X137730537Y-160704494D01*
X137756692Y-160655563D01*
X137910552Y-160781833D01*
X138125100Y-160896511D01*
X138357899Y-160967130D01*
X138600000Y-160990975D01*
X138842102Y-160967130D01*
X139074901Y-160896511D01*
X139289449Y-160781833D01*
X139477502Y-160627502D01*
X139594432Y-160485022D01*
X139604991Y-160502276D01*
X139770872Y-160681938D01*
X139968616Y-160825786D01*
X140190623Y-160928292D01*
X140282391Y-160943462D01*
X140473000Y-160818731D01*
X140473000Y-159627000D01*
X140453000Y-159627000D01*
X140453000Y-159373000D01*
X140473000Y-159373000D01*
X140473000Y-158181269D01*
X140727000Y-158181269D01*
X140727000Y-159373000D01*
X140747000Y-159373000D01*
X140747000Y-159627000D01*
X140727000Y-159627000D01*
X140727000Y-160818731D01*
X140917609Y-160943462D01*
X141009377Y-160928292D01*
X141231384Y-160825786D01*
X141429128Y-160681938D01*
X141595009Y-160502276D01*
X141605568Y-160485022D01*
X141722499Y-160627502D01*
X141910552Y-160781833D01*
X142125100Y-160896511D01*
X142357899Y-160967130D01*
X142600000Y-160990975D01*
X142842102Y-160967130D01*
X143074901Y-160896511D01*
X143289449Y-160781833D01*
X143477502Y-160627502D01*
X143631833Y-160439449D01*
X143746511Y-160224900D01*
X143817130Y-159992101D01*
X143835000Y-159810664D01*
X143835000Y-159189335D01*
X143817130Y-159007898D01*
X143746511Y-158775099D01*
X143631833Y-158560551D01*
X143477502Y-158372498D01*
X143289448Y-158218167D01*
X143074900Y-158103489D01*
X142842101Y-158032870D01*
X142600000Y-158009025D01*
X142357898Y-158032870D01*
X142125099Y-158103489D01*
X141910551Y-158218167D01*
X141722498Y-158372498D01*
X141605568Y-158514978D01*
X141595009Y-158497724D01*
X141429128Y-158318062D01*
X141231384Y-158174214D01*
X141009377Y-158071708D01*
X140917609Y-158056538D01*
X140727000Y-158181269D01*
X140473000Y-158181269D01*
X140282391Y-158056538D01*
X140190623Y-158071708D01*
X139968616Y-158174214D01*
X139770872Y-158318062D01*
X139604991Y-158497724D01*
X139594432Y-158514978D01*
X139477502Y-158372498D01*
X139289448Y-158218167D01*
X139074900Y-158103489D01*
X138842101Y-158032870D01*
X138600000Y-158009025D01*
X138357898Y-158032870D01*
X138125099Y-158103489D01*
X137910551Y-158218167D01*
X137756691Y-158344436D01*
X137730537Y-158295506D01*
X137651185Y-158198815D01*
X137554494Y-158119463D01*
X137444180Y-158060498D01*
X137324482Y-158024188D01*
X137200000Y-158011928D01*
X136885750Y-158015000D01*
X136727000Y-158173750D01*
X136473000Y-158173750D01*
X136314250Y-158015000D01*
X136000000Y-158011928D01*
X135875518Y-158024188D01*
X135755820Y-158060498D01*
X135645506Y-158119463D01*
X135548815Y-158198815D01*
X135469463Y-158295506D01*
X135410498Y-158405820D01*
X135374188Y-158525518D01*
X135361928Y-158650000D01*
X129192950Y-158650000D01*
X129258825Y-158584125D01*
X129443228Y-158308147D01*
X129570246Y-158001496D01*
X129635000Y-157675958D01*
X129635000Y-157344042D01*
X129570246Y-157018504D01*
X129443228Y-156711853D01*
X129258825Y-156435875D01*
X129024125Y-156201175D01*
X128748147Y-156016772D01*
X128441496Y-155889754D01*
X128115958Y-155825000D01*
X127784042Y-155825000D01*
X127458504Y-155889754D01*
X127151853Y-156016772D01*
X126875875Y-156201175D01*
X126641175Y-156435875D01*
X126456772Y-156711853D01*
X126329754Y-157018504D01*
X126265000Y-157344042D01*
X126265000Y-157675958D01*
X126329754Y-158001496D01*
X126456772Y-158308147D01*
X126579490Y-158491806D01*
X126338037Y-158526499D01*
X126057526Y-158625428D01*
X125914025Y-158702132D01*
X125833365Y-158953760D01*
X123289222Y-158953760D01*
X123162569Y-158827107D01*
X122915253Y-158661856D01*
X122640451Y-158548029D01*
X122348722Y-158490000D01*
X122311717Y-158490000D01*
X122433228Y-158308147D01*
X122560246Y-158001496D01*
X122625000Y-157675958D01*
X122625000Y-157344042D01*
X122560246Y-157018504D01*
X122433228Y-156711853D01*
X122248825Y-156435875D01*
X122014125Y-156201175D01*
X121738147Y-156016772D01*
X121431496Y-155889754D01*
X121105958Y-155825000D01*
X120774042Y-155825000D01*
X120448504Y-155889754D01*
X120141853Y-156016772D01*
X119865875Y-156201175D01*
X119631175Y-156435875D01*
X119446772Y-156711853D01*
X119319754Y-157018504D01*
X119255000Y-157344042D01*
X117159807Y-157344042D01*
X117359311Y-157154705D01*
X117558944Y-156872207D01*
X117699629Y-156556190D01*
X117738933Y-156400043D01*
X117621206Y-156127000D01*
X115027000Y-156127000D01*
X114773000Y-156127000D01*
X112178794Y-156127000D01*
X112061067Y-156400043D01*
X110810000Y-156400043D01*
X110810000Y-155599957D01*
X112061067Y-155599957D01*
X112178794Y-155873000D01*
X114773000Y-155873000D01*
X114773000Y-154240000D01*
X115027000Y-154240000D01*
X115027000Y-155873000D01*
X117621206Y-155873000D01*
X117738933Y-155599957D01*
X117699629Y-155443810D01*
X117558944Y-155127793D01*
X117359311Y-154845295D01*
X117108401Y-154607171D01*
X116815856Y-154422573D01*
X116492919Y-154298594D01*
X116152000Y-154240000D01*
X115027000Y-154240000D01*
X114773000Y-154240000D01*
X113648000Y-154240000D01*
X113307081Y-154298594D01*
X112984144Y-154422573D01*
X112691599Y-154607171D01*
X112440689Y-154845295D01*
X112241056Y-155127793D01*
X112100371Y-155443810D01*
X112061067Y-155599957D01*
X110810000Y-155599957D01*
X110810000Y-154211452D01*
X117840000Y-154211452D01*
X117865467Y-154470019D01*
X117966105Y-154801780D01*
X118129534Y-155107533D01*
X118349471Y-155375529D01*
X118617466Y-155595466D01*
X118923219Y-155758895D01*
X119254980Y-155859533D01*
X119600000Y-155893515D01*
X119945019Y-155859533D01*
X120276780Y-155758895D01*
X120582533Y-155595466D01*
X120850529Y-155375529D01*
X121070466Y-155107534D01*
X121233895Y-154801781D01*
X121334533Y-154470020D01*
X121360000Y-154211453D01*
X121360000Y-151788547D01*
X121349688Y-151683842D01*
X146135763Y-151683842D01*
X146324244Y-152027047D01*
X146744983Y-152244789D01*
X147200117Y-152376265D01*
X147672156Y-152416422D01*
X148142958Y-152363718D01*
X148594432Y-152220177D01*
X148955756Y-152027047D01*
X149144237Y-151683842D01*
X147640000Y-150179605D01*
X146135763Y-151683842D01*
X121349688Y-151683842D01*
X121334533Y-151529980D01*
X121233895Y-151198219D01*
X121070466Y-150892466D01*
X120850529Y-150624471D01*
X120582534Y-150404534D01*
X120276781Y-150241105D01*
X119945020Y-150140467D01*
X119600000Y-150106485D01*
X119254981Y-150140467D01*
X118923220Y-150241105D01*
X118617467Y-150404534D01*
X118349472Y-150624471D01*
X118129535Y-150892466D01*
X117966106Y-151198219D01*
X117865468Y-151529980D01*
X117840001Y-151788547D01*
X117840000Y-154211452D01*
X110810000Y-154211452D01*
X110810000Y-150000000D01*
X111755880Y-150000000D01*
X111792275Y-150369524D01*
X111900061Y-150724848D01*
X112075097Y-151052317D01*
X112310655Y-151339345D01*
X112597683Y-151574903D01*
X112925152Y-151749939D01*
X113280476Y-151857725D01*
X113557403Y-151885000D01*
X116242597Y-151885000D01*
X116519524Y-151857725D01*
X116874848Y-151749939D01*
X117202317Y-151574903D01*
X117489345Y-151339345D01*
X117724903Y-151052317D01*
X117899939Y-150724848D01*
X118007725Y-150369524D01*
X118040952Y-150032156D01*
X145223578Y-150032156D01*
X145276282Y-150502958D01*
X145419823Y-150954432D01*
X145612953Y-151315756D01*
X145956158Y-151504237D01*
X147460395Y-150000000D01*
X147819605Y-150000000D01*
X149323842Y-151504237D01*
X149667047Y-151315756D01*
X149884789Y-150895017D01*
X150016265Y-150439883D01*
X150056422Y-149967844D01*
X150003718Y-149497042D01*
X149860177Y-149045568D01*
X149667047Y-148684244D01*
X149323842Y-148495763D01*
X147819605Y-150000000D01*
X147460395Y-150000000D01*
X145956158Y-148495763D01*
X145612953Y-148684244D01*
X145395211Y-149104983D01*
X145263735Y-149560117D01*
X145223578Y-150032156D01*
X118040952Y-150032156D01*
X118044120Y-150000000D01*
X118007725Y-149630476D01*
X117899939Y-149275152D01*
X117724903Y-148947683D01*
X117489345Y-148660655D01*
X117202317Y-148425097D01*
X116998507Y-148316158D01*
X146135763Y-148316158D01*
X147640000Y-149820395D01*
X149144237Y-148316158D01*
X148955756Y-147972953D01*
X148535017Y-147755211D01*
X148079883Y-147623735D01*
X147607844Y-147583578D01*
X147137042Y-147636282D01*
X146685568Y-147779823D01*
X146324244Y-147972953D01*
X146135763Y-148316158D01*
X116998507Y-148316158D01*
X116874848Y-148250061D01*
X116519524Y-148142275D01*
X116242597Y-148115000D01*
X113557403Y-148115000D01*
X113280476Y-148142275D01*
X112925152Y-148250061D01*
X112597683Y-148425097D01*
X112310655Y-148660655D01*
X112075097Y-148947683D01*
X111900061Y-149275152D01*
X111792275Y-149630476D01*
X111755880Y-150000000D01*
X110810000Y-150000000D01*
X110810000Y-145726223D01*
X111955257Y-145726223D01*
X111955257Y-146143777D01*
X112036717Y-146553306D01*
X112196508Y-146939075D01*
X112428488Y-147286258D01*
X112723742Y-147581512D01*
X113070925Y-147813492D01*
X113456694Y-147973283D01*
X113866223Y-148054743D01*
X114283777Y-148054743D01*
X114693306Y-147973283D01*
X115079075Y-147813492D01*
X115426258Y-147581512D01*
X115721512Y-147286258D01*
X115953492Y-146939075D01*
X116113283Y-146553306D01*
X116194743Y-146143777D01*
X116194743Y-145726223D01*
X116113283Y-145316694D01*
X115953492Y-144930925D01*
X115721512Y-144583742D01*
X115426258Y-144288488D01*
X115079075Y-144056508D01*
X114693306Y-143896717D01*
X114283777Y-143815257D01*
X113866223Y-143815257D01*
X113456694Y-143896717D01*
X113070925Y-144056508D01*
X112723742Y-144288488D01*
X112428488Y-144583742D01*
X112196508Y-144930925D01*
X112036717Y-145316694D01*
X111955257Y-145726223D01*
X110810000Y-145726223D01*
X110810000Y-140975000D01*
X111486928Y-140975000D01*
X111499188Y-141099482D01*
X111535498Y-141219180D01*
X111594463Y-141329494D01*
X111673815Y-141426185D01*
X111770506Y-141505537D01*
X111880820Y-141564502D01*
X112000518Y-141600812D01*
X112125000Y-141613072D01*
X112714250Y-141610000D01*
X112873000Y-141451250D01*
X112873000Y-140227000D01*
X113127000Y-140227000D01*
X113127000Y-141451250D01*
X113285750Y-141610000D01*
X113875000Y-141613072D01*
X113999482Y-141600812D01*
X114119180Y-141564502D01*
X114229494Y-141505537D01*
X114326185Y-141426185D01*
X114405537Y-141329494D01*
X114464502Y-141219180D01*
X114500812Y-141099482D01*
X114513072Y-140975000D01*
X114510000Y-140385750D01*
X114351250Y-140227000D01*
X113127000Y-140227000D01*
X112873000Y-140227000D01*
X111648750Y-140227000D01*
X111490000Y-140385750D01*
X111486928Y-140975000D01*
X110810000Y-140975000D01*
X110810000Y-139225000D01*
X111486928Y-139225000D01*
X111490000Y-139814250D01*
X111648750Y-139973000D01*
X112873000Y-139973000D01*
X112873000Y-139953000D01*
X113127000Y-139953000D01*
X113127000Y-139973000D01*
X114351250Y-139973000D01*
X114510000Y-139814250D01*
X114511100Y-139603128D01*
X145235000Y-139603128D01*
X145235000Y-140076872D01*
X145327423Y-140541513D01*
X145508716Y-140979195D01*
X145771914Y-141373098D01*
X146106902Y-141708086D01*
X146500805Y-141971284D01*
X146938487Y-142152577D01*
X147403128Y-142245000D01*
X147876872Y-142245000D01*
X148341513Y-142152577D01*
X148779195Y-141971284D01*
X149173098Y-141708086D01*
X149508086Y-141373098D01*
X149771284Y-140979195D01*
X149952577Y-140541513D01*
X150045000Y-140076872D01*
X150045000Y-139603128D01*
X149952577Y-139138487D01*
X149771284Y-138700805D01*
X149508086Y-138306902D01*
X149173098Y-137971914D01*
X148779195Y-137708716D01*
X148341513Y-137527423D01*
X147876872Y-137435000D01*
X147403128Y-137435000D01*
X146938487Y-137527423D01*
X146500805Y-137708716D01*
X146106902Y-137971914D01*
X145771914Y-138306902D01*
X145508716Y-138700805D01*
X145327423Y-139138487D01*
X145235000Y-139603128D01*
X114511100Y-139603128D01*
X114513072Y-139225000D01*
X114500812Y-139100518D01*
X114464502Y-138980820D01*
X114405537Y-138870506D01*
X114326185Y-138773815D01*
X114229494Y-138694463D01*
X114119180Y-138635498D01*
X114104436Y-138631026D01*
X114172893Y-138562569D01*
X114338144Y-138315253D01*
X114451971Y-138040451D01*
X114510000Y-137748722D01*
X114510000Y-137451278D01*
X114451971Y-137159549D01*
X114338144Y-136884747D01*
X114172893Y-136637431D01*
X113962569Y-136427107D01*
X113715253Y-136261856D01*
X113440451Y-136148029D01*
X113148722Y-136090000D01*
X112851278Y-136090000D01*
X112559549Y-136148029D01*
X112284747Y-136261856D01*
X112037431Y-136427107D01*
X111827107Y-136637431D01*
X111661856Y-136884747D01*
X111548029Y-137159549D01*
X111490000Y-137451278D01*
X111490000Y-137748722D01*
X111548029Y-138040451D01*
X111661856Y-138315253D01*
X111827107Y-138562569D01*
X111895564Y-138631026D01*
X111880820Y-138635498D01*
X111770506Y-138694463D01*
X111673815Y-138773815D01*
X111594463Y-138870506D01*
X111535498Y-138980820D01*
X111499188Y-139100518D01*
X111486928Y-139225000D01*
X110810000Y-139225000D01*
X110810000Y-127532912D01*
X125390001Y-127532912D01*
X125390001Y-127717090D01*
X125425933Y-127897730D01*
X125496415Y-128067890D01*
X125598739Y-128221029D01*
X125728973Y-128351263D01*
X125882112Y-128453587D01*
X126052272Y-128524069D01*
X126217487Y-128556933D01*
X130354746Y-132694193D01*
X130377762Y-132722238D01*
X130447664Y-132779605D01*
X130489680Y-132814087D01*
X130617366Y-132882337D01*
X130755915Y-132924365D01*
X130900000Y-132938556D01*
X130936105Y-132935000D01*
X147995554Y-132935000D01*
X153254746Y-138194193D01*
X153277762Y-138222238D01*
X153380925Y-138306902D01*
X153389680Y-138314087D01*
X153517366Y-138382337D01*
X153655915Y-138424365D01*
X153800000Y-138438556D01*
X153836105Y-138435000D01*
X172063895Y-138435000D01*
X172100000Y-138438556D01*
X172136105Y-138435000D01*
X172244085Y-138424365D01*
X172382633Y-138382337D01*
X172510320Y-138314087D01*
X172622238Y-138222238D01*
X172645259Y-138194187D01*
X176368470Y-134470976D01*
X179990000Y-134470976D01*
X179990000Y-134729024D01*
X180040342Y-134982113D01*
X180139093Y-135220518D01*
X180282456Y-135435077D01*
X180464923Y-135617544D01*
X180679482Y-135760907D01*
X180917887Y-135859658D01*
X181170976Y-135910000D01*
X181429024Y-135910000D01*
X181682113Y-135859658D01*
X181920518Y-135760907D01*
X182135077Y-135617544D01*
X182317544Y-135435077D01*
X182460907Y-135220518D01*
X182559658Y-134982113D01*
X182610000Y-134729024D01*
X182610000Y-134470976D01*
X182559658Y-134217887D01*
X182460907Y-133979482D01*
X182317544Y-133764923D01*
X182135077Y-133582456D01*
X182022809Y-133507441D01*
X182023795Y-133503400D01*
X181300000Y-132779605D01*
X180576205Y-133503400D01*
X180577191Y-133507441D01*
X180464923Y-133582456D01*
X180282456Y-133764923D01*
X180139093Y-133979482D01*
X180040342Y-134217887D01*
X179990000Y-134470976D01*
X176368470Y-134470976D01*
X178163981Y-132675465D01*
X179985826Y-132675465D01*
X180025800Y-132930398D01*
X180114741Y-133172633D01*
X180165379Y-133267370D01*
X180396600Y-133323795D01*
X181120395Y-132600000D01*
X181479605Y-132600000D01*
X182203400Y-133323795D01*
X182434621Y-133267370D01*
X182543017Y-133033192D01*
X182603645Y-132782367D01*
X182614174Y-132524535D01*
X182574200Y-132269602D01*
X182485259Y-132027367D01*
X182434621Y-131932630D01*
X182203400Y-131876205D01*
X181479605Y-132600000D01*
X181120395Y-132600000D01*
X180396600Y-131876205D01*
X180165379Y-131932630D01*
X180056983Y-132166808D01*
X179996355Y-132417633D01*
X179985826Y-132675465D01*
X178163981Y-132675465D01*
X179142846Y-131696600D01*
X180576205Y-131696600D01*
X181300000Y-132420395D01*
X182023795Y-131696600D01*
X181967370Y-131465379D01*
X181733192Y-131356983D01*
X181482367Y-131296355D01*
X181224535Y-131285826D01*
X180969602Y-131325800D01*
X180727367Y-131414741D01*
X180632630Y-131465379D01*
X180576205Y-131696600D01*
X179142846Y-131696600D01*
X180604447Y-130235000D01*
X182363895Y-130235000D01*
X182400000Y-130238556D01*
X182436105Y-130235000D01*
X182544085Y-130224365D01*
X182682633Y-130182337D01*
X182810320Y-130114087D01*
X182922238Y-130022238D01*
X182945258Y-129994188D01*
X184894194Y-128045253D01*
X184922238Y-128022238D01*
X185014087Y-127910320D01*
X185082337Y-127782633D01*
X185124365Y-127644085D01*
X185135000Y-127536105D01*
X185135000Y-127536098D01*
X185138555Y-127500001D01*
X185135000Y-127463904D01*
X185135000Y-127407911D01*
X190765000Y-127407911D01*
X190765000Y-127592089D01*
X190800932Y-127772729D01*
X190871414Y-127942889D01*
X190973738Y-128096028D01*
X191103972Y-128226262D01*
X191257111Y-128328586D01*
X191427271Y-128399068D01*
X191607911Y-128435000D01*
X191792089Y-128435000D01*
X191972729Y-128399068D01*
X192142889Y-128328586D01*
X192282951Y-128235000D01*
X193663895Y-128235000D01*
X193700000Y-128238556D01*
X193736105Y-128235000D01*
X193844085Y-128224365D01*
X193982633Y-128182337D01*
X194110320Y-128114087D01*
X194222238Y-128022238D01*
X194245258Y-127994188D01*
X194907515Y-127331932D01*
X195072729Y-127299068D01*
X195242889Y-127228586D01*
X195396028Y-127126262D01*
X195526262Y-126996028D01*
X195628586Y-126842889D01*
X195699068Y-126672729D01*
X195735000Y-126492089D01*
X195735000Y-126307911D01*
X195699068Y-126127271D01*
X195628586Y-125957111D01*
X195526262Y-125803972D01*
X195396028Y-125673738D01*
X195242889Y-125571414D01*
X195072729Y-125500932D01*
X194892089Y-125465000D01*
X194707911Y-125465000D01*
X194527271Y-125500932D01*
X194357111Y-125571414D01*
X194203972Y-125673738D01*
X194073738Y-125803972D01*
X193971414Y-125957111D01*
X193900932Y-126127271D01*
X193868068Y-126292485D01*
X193395554Y-126765000D01*
X192282951Y-126765000D01*
X192142889Y-126671414D01*
X191972729Y-126600932D01*
X191792089Y-126565000D01*
X191607911Y-126565000D01*
X191427271Y-126600932D01*
X191257111Y-126671414D01*
X191103972Y-126773738D01*
X190973738Y-126903972D01*
X190871414Y-127057111D01*
X190800932Y-127227271D01*
X190765000Y-127407911D01*
X185135000Y-127407911D01*
X185135000Y-126004446D01*
X186904447Y-124235000D01*
X189063895Y-124235000D01*
X189100000Y-124238556D01*
X189136105Y-124235000D01*
X189244085Y-124224365D01*
X189382633Y-124182337D01*
X189510320Y-124114087D01*
X189622238Y-124022238D01*
X189645258Y-123994188D01*
X190207515Y-123431932D01*
X190372729Y-123399068D01*
X190542889Y-123328586D01*
X190696028Y-123226262D01*
X190826262Y-123096028D01*
X190928586Y-122942889D01*
X190999068Y-122772729D01*
X191035000Y-122592089D01*
X191035000Y-122407911D01*
X190999068Y-122227271D01*
X190928586Y-122057111D01*
X190826262Y-121903972D01*
X190696028Y-121773738D01*
X190542889Y-121671414D01*
X190372729Y-121600932D01*
X190192089Y-121565000D01*
X190007911Y-121565000D01*
X189827271Y-121600932D01*
X189657111Y-121671414D01*
X189503972Y-121773738D01*
X189373738Y-121903972D01*
X189271414Y-122057111D01*
X189200932Y-122227271D01*
X189168068Y-122392485D01*
X188795554Y-122765000D01*
X186636105Y-122765000D01*
X186600000Y-122761444D01*
X186563895Y-122765000D01*
X186455915Y-122775635D01*
X186317367Y-122817663D01*
X186189680Y-122885913D01*
X186077762Y-122977762D01*
X186054746Y-123005807D01*
X183905808Y-125154746D01*
X183877762Y-125177763D01*
X183785913Y-125289681D01*
X183717663Y-125417368D01*
X183708823Y-125446511D01*
X183675635Y-125555915D01*
X183661444Y-125700000D01*
X183665000Y-125736105D01*
X183665001Y-127195552D01*
X182095554Y-128765000D01*
X180336094Y-128765000D01*
X180299999Y-128761445D01*
X180263904Y-128765000D01*
X180263895Y-128765000D01*
X180155915Y-128775635D01*
X180017367Y-128817663D01*
X179889680Y-128885913D01*
X179777762Y-128977762D01*
X179754746Y-129005807D01*
X171795554Y-136965000D01*
X154104447Y-136965000D01*
X150847358Y-133707911D01*
X169365000Y-133707911D01*
X169365000Y-133892089D01*
X169400932Y-134072729D01*
X169471414Y-134242889D01*
X169573738Y-134396028D01*
X169703972Y-134526262D01*
X169857111Y-134628586D01*
X170027271Y-134699068D01*
X170207911Y-134735000D01*
X170392089Y-134735000D01*
X170572729Y-134699068D01*
X170742889Y-134628586D01*
X170896028Y-134526262D01*
X171026262Y-134396028D01*
X171128586Y-134242889D01*
X171199068Y-134072729D01*
X171231932Y-133907515D01*
X172347545Y-132791902D01*
X172356051Y-132791902D01*
X172536691Y-132755970D01*
X172706851Y-132685488D01*
X172859990Y-132583164D01*
X172990224Y-132452930D01*
X173092548Y-132299791D01*
X173163030Y-132129631D01*
X173198962Y-131948991D01*
X173198962Y-131764813D01*
X173163030Y-131584173D01*
X173092548Y-131414013D01*
X172990224Y-131260874D01*
X172859990Y-131130640D01*
X172706851Y-131028316D01*
X172536691Y-130957834D01*
X172356051Y-130921902D01*
X172171873Y-130921902D01*
X171991233Y-130957834D01*
X171821073Y-131028316D01*
X171667934Y-131130640D01*
X171537700Y-131260874D01*
X171435376Y-131414013D01*
X171364894Y-131584173D01*
X171337211Y-131723342D01*
X170192485Y-132868068D01*
X170027271Y-132900932D01*
X169857111Y-132971414D01*
X169703972Y-133073738D01*
X169573738Y-133203972D01*
X169471414Y-133357111D01*
X169400932Y-133527271D01*
X169365000Y-133707911D01*
X150847358Y-133707911D01*
X148845259Y-131705813D01*
X148822238Y-131677762D01*
X148710320Y-131585913D01*
X148582633Y-131517663D01*
X148444085Y-131475635D01*
X148336105Y-131465000D01*
X148300000Y-131461444D01*
X148263895Y-131465000D01*
X131204447Y-131465000D01*
X128847358Y-129107911D01*
X163165000Y-129107911D01*
X163165000Y-129292089D01*
X163200932Y-129472729D01*
X163271414Y-129642889D01*
X163373738Y-129796028D01*
X163503972Y-129926262D01*
X163657111Y-130028586D01*
X163827271Y-130099068D01*
X164007911Y-130135000D01*
X164192089Y-130135000D01*
X164352356Y-130103120D01*
X164300932Y-130227271D01*
X164265000Y-130407911D01*
X164265000Y-130592089D01*
X164300932Y-130772729D01*
X164371414Y-130942889D01*
X164473738Y-131096028D01*
X164603972Y-131226262D01*
X164757111Y-131328586D01*
X164927271Y-131399068D01*
X165107911Y-131435000D01*
X165292089Y-131435000D01*
X165472729Y-131399068D01*
X165642889Y-131328586D01*
X165796028Y-131226262D01*
X165926262Y-131096028D01*
X166028586Y-130942889D01*
X166099068Y-130772729D01*
X166131932Y-130607515D01*
X167230410Y-129509037D01*
X167199333Y-129565789D01*
X167152953Y-129713302D01*
X167136241Y-129867027D01*
X167149842Y-130021059D01*
X167193231Y-130169479D01*
X167264741Y-130306582D01*
X167273601Y-130319839D01*
X167463522Y-130303951D01*
X167481219Y-130286254D01*
X167490735Y-130400000D01*
X167481219Y-130513746D01*
X167463522Y-130496049D01*
X167273601Y-130480161D01*
X167199333Y-130615789D01*
X167152953Y-130763302D01*
X167136241Y-130917027D01*
X167149842Y-131071059D01*
X167193231Y-131219479D01*
X167264741Y-131356582D01*
X167273601Y-131369839D01*
X167463522Y-131353951D01*
X167892473Y-130925000D01*
X167510467Y-130542994D01*
X167615789Y-130600667D01*
X167641176Y-130608649D01*
X167914998Y-130882471D01*
X167911241Y-130917027D01*
X167915643Y-130966884D01*
X167496049Y-131386478D01*
X167480161Y-131576399D01*
X167615789Y-131650667D01*
X167763302Y-131697047D01*
X167915351Y-131713577D01*
X167924842Y-131821059D01*
X167968231Y-131969479D01*
X168039741Y-132106582D01*
X168048601Y-132119839D01*
X168238522Y-132103951D01*
X168634922Y-131707551D01*
X168692027Y-131713759D01*
X168693937Y-131713590D01*
X168271049Y-132136478D01*
X168255161Y-132326399D01*
X168390789Y-132400667D01*
X168538302Y-132447047D01*
X168692027Y-132463759D01*
X168846059Y-132450158D01*
X168994479Y-132406769D01*
X169131582Y-132335259D01*
X169144839Y-132326399D01*
X169128951Y-132136478D01*
X168705079Y-131712606D01*
X168764855Y-131707328D01*
X169161478Y-132103951D01*
X169351399Y-132119839D01*
X169425667Y-131984211D01*
X169472047Y-131836698D01*
X169485590Y-131712120D01*
X169621059Y-131700158D01*
X169769479Y-131656769D01*
X169906582Y-131585259D01*
X169919839Y-131576399D01*
X169903951Y-131386478D01*
X169485002Y-130967529D01*
X169488759Y-130932973D01*
X169484357Y-130883116D01*
X169757079Y-130610394D01*
X169769479Y-130606769D01*
X169887114Y-130545413D01*
X169507527Y-130925000D01*
X169936478Y-131353951D01*
X170126399Y-131369839D01*
X170200667Y-131234211D01*
X170247047Y-131086698D01*
X170263759Y-130932973D01*
X170250158Y-130778941D01*
X170206769Y-130630521D01*
X170135259Y-130493418D01*
X170126399Y-130480161D01*
X169936478Y-130496049D01*
X169918781Y-130513746D01*
X169909265Y-130400000D01*
X169918781Y-130286254D01*
X169936478Y-130303951D01*
X170126399Y-130319839D01*
X170200667Y-130184211D01*
X170247047Y-130036698D01*
X170263759Y-129882973D01*
X170257132Y-129807911D01*
X171265000Y-129807911D01*
X171265000Y-129992089D01*
X171300932Y-130172729D01*
X171371414Y-130342889D01*
X171473738Y-130496028D01*
X171603972Y-130626262D01*
X171757111Y-130728586D01*
X171927271Y-130799068D01*
X172107911Y-130835000D01*
X172292089Y-130835000D01*
X172472729Y-130799068D01*
X172642889Y-130728586D01*
X172796028Y-130626262D01*
X172926262Y-130496028D01*
X173028586Y-130342889D01*
X173099068Y-130172729D01*
X173131932Y-130007515D01*
X174594197Y-128545250D01*
X174622237Y-128522238D01*
X174645250Y-128494197D01*
X174645253Y-128494194D01*
X174714087Y-128410320D01*
X174720101Y-128399068D01*
X174782337Y-128282633D01*
X174824365Y-128144085D01*
X174835000Y-128036105D01*
X174835000Y-128036104D01*
X174838556Y-128000000D01*
X174835000Y-127963895D01*
X174835000Y-127382951D01*
X174928586Y-127242889D01*
X174976009Y-127128397D01*
X180451208Y-127128397D01*
X180528843Y-127377472D01*
X180792883Y-127503371D01*
X181076411Y-127575339D01*
X181368531Y-127590611D01*
X181658019Y-127548599D01*
X181933747Y-127450919D01*
X182071157Y-127377472D01*
X182148792Y-127128397D01*
X181300000Y-126279605D01*
X180451208Y-127128397D01*
X174976009Y-127128397D01*
X174999068Y-127072729D01*
X175035000Y-126892089D01*
X175035000Y-126707911D01*
X174999068Y-126527271D01*
X174928586Y-126357111D01*
X174826262Y-126203972D01*
X174790821Y-126168531D01*
X179809389Y-126168531D01*
X179851401Y-126458019D01*
X179949081Y-126733747D01*
X180022528Y-126871157D01*
X180271603Y-126948792D01*
X181120395Y-126100000D01*
X181479605Y-126100000D01*
X182328397Y-126948792D01*
X182577472Y-126871157D01*
X182703371Y-126607117D01*
X182775339Y-126323589D01*
X182790611Y-126031469D01*
X182748599Y-125741981D01*
X182650919Y-125466253D01*
X182577472Y-125328843D01*
X182328397Y-125251208D01*
X181479605Y-126100000D01*
X181120395Y-126100000D01*
X180271603Y-125251208D01*
X180022528Y-125328843D01*
X179896629Y-125592883D01*
X179824661Y-125876411D01*
X179809389Y-126168531D01*
X174790821Y-126168531D01*
X174696028Y-126073738D01*
X174542889Y-125971414D01*
X174372729Y-125900932D01*
X174192089Y-125865000D01*
X174007911Y-125865000D01*
X173827271Y-125900932D01*
X173657111Y-125971414D01*
X173503972Y-126073738D01*
X173373738Y-126203972D01*
X173271414Y-126357111D01*
X173200932Y-126527271D01*
X173165000Y-126707911D01*
X173165000Y-126892089D01*
X173200932Y-127072729D01*
X173271414Y-127242889D01*
X173365001Y-127382951D01*
X173365000Y-127695553D01*
X172092485Y-128968068D01*
X171927271Y-129000932D01*
X171757111Y-129071414D01*
X171603972Y-129173738D01*
X171473738Y-129303972D01*
X171371414Y-129457111D01*
X171300932Y-129627271D01*
X171265000Y-129807911D01*
X170257132Y-129807911D01*
X170250158Y-129728941D01*
X170206769Y-129580521D01*
X170135259Y-129443418D01*
X170126399Y-129430161D01*
X169936478Y-129446049D01*
X169507527Y-129875000D01*
X169889533Y-130257006D01*
X169784211Y-130199333D01*
X169758824Y-130191351D01*
X169485002Y-129917529D01*
X169488759Y-129882973D01*
X169484357Y-129833116D01*
X169903951Y-129413522D01*
X169919839Y-129223601D01*
X169784211Y-129149333D01*
X169636698Y-129102953D01*
X169484649Y-129086423D01*
X169475158Y-128978941D01*
X169431769Y-128830521D01*
X169360259Y-128693418D01*
X169351399Y-128680161D01*
X169161478Y-128696049D01*
X168765078Y-129092449D01*
X168707973Y-129086241D01*
X168706063Y-129086410D01*
X169128951Y-128663522D01*
X169144839Y-128473601D01*
X169074348Y-128435001D01*
X169568147Y-128435001D01*
X169571414Y-128442889D01*
X169673738Y-128596028D01*
X169803972Y-128726262D01*
X169957111Y-128828586D01*
X170127271Y-128899068D01*
X170307911Y-128935000D01*
X170492089Y-128935000D01*
X170672729Y-128899068D01*
X170842889Y-128828586D01*
X170996028Y-128726262D01*
X171126262Y-128596028D01*
X171228586Y-128442889D01*
X171299068Y-128272729D01*
X171335000Y-128092089D01*
X171335000Y-127907911D01*
X171299068Y-127727271D01*
X171228586Y-127557111D01*
X171126262Y-127403972D01*
X170996028Y-127273738D01*
X170842889Y-127171414D01*
X170672729Y-127100932D01*
X170492089Y-127065000D01*
X170471194Y-127065000D01*
X170382634Y-127017664D01*
X170244086Y-126975636D01*
X170136106Y-126965001D01*
X170100001Y-126961445D01*
X170063896Y-126965001D01*
X168036104Y-126965001D01*
X167999999Y-126961445D01*
X167855914Y-126975636D01*
X167717365Y-127017664D01*
X167614346Y-127072729D01*
X167589679Y-127085914D01*
X167488662Y-127168816D01*
X167342889Y-127071414D01*
X167172729Y-127000932D01*
X166992089Y-126965000D01*
X166807911Y-126965000D01*
X166627271Y-127000932D01*
X166457111Y-127071414D01*
X166317049Y-127165000D01*
X165436105Y-127165000D01*
X165400000Y-127161444D01*
X165255915Y-127175635D01*
X165117366Y-127217663D01*
X165096931Y-127228586D01*
X164989680Y-127285913D01*
X164877762Y-127377762D01*
X164854746Y-127405807D01*
X163992485Y-128268068D01*
X163827271Y-128300932D01*
X163657111Y-128371414D01*
X163503972Y-128473738D01*
X163373738Y-128603972D01*
X163271414Y-128757111D01*
X163200932Y-128927271D01*
X163165000Y-129107911D01*
X128847358Y-129107911D01*
X127256933Y-127517487D01*
X127224069Y-127352272D01*
X127153587Y-127182112D01*
X127117696Y-127128397D01*
X159351208Y-127128397D01*
X159428843Y-127377472D01*
X159692883Y-127503371D01*
X159976411Y-127575339D01*
X160268531Y-127590611D01*
X160558019Y-127548599D01*
X160833747Y-127450919D01*
X160971157Y-127377472D01*
X161048792Y-127128397D01*
X160200000Y-126279605D01*
X159351208Y-127128397D01*
X127117696Y-127128397D01*
X127051263Y-127028973D01*
X126921029Y-126898739D01*
X126767890Y-126796415D01*
X126597730Y-126725933D01*
X126417090Y-126690001D01*
X126232912Y-126690001D01*
X126052272Y-126725933D01*
X125882112Y-126796415D01*
X125728973Y-126898739D01*
X125598739Y-127028973D01*
X125496415Y-127182112D01*
X125425933Y-127352272D01*
X125390001Y-127532912D01*
X110810000Y-127532912D01*
X110810000Y-126168531D01*
X158709389Y-126168531D01*
X158751401Y-126458019D01*
X158849081Y-126733747D01*
X158922528Y-126871157D01*
X159171603Y-126948792D01*
X160020395Y-126100000D01*
X160379605Y-126100000D01*
X161228397Y-126948792D01*
X161477472Y-126871157D01*
X161603371Y-126607117D01*
X161675339Y-126323589D01*
X161690611Y-126031469D01*
X161648599Y-125741981D01*
X161550919Y-125466253D01*
X161477472Y-125328843D01*
X161228397Y-125251208D01*
X160379605Y-126100000D01*
X160020395Y-126100000D01*
X159171603Y-125251208D01*
X158922528Y-125328843D01*
X158796629Y-125592883D01*
X158724661Y-125876411D01*
X158709389Y-126168531D01*
X110810000Y-126168531D01*
X110810000Y-123107911D01*
X121865000Y-123107911D01*
X121865000Y-123292089D01*
X121900932Y-123472729D01*
X121971414Y-123642889D01*
X122073738Y-123796028D01*
X122203972Y-123926262D01*
X122357111Y-124028586D01*
X122527271Y-124099068D01*
X122707911Y-124135000D01*
X122892089Y-124135000D01*
X123072729Y-124099068D01*
X123242889Y-124028586D01*
X123396028Y-123926262D01*
X123526262Y-123796028D01*
X123628586Y-123642889D01*
X123692655Y-123488213D01*
X125045869Y-122134999D01*
X151079503Y-122134999D01*
X151065000Y-122207911D01*
X151065000Y-122392089D01*
X151100932Y-122572729D01*
X151171414Y-122742889D01*
X151273738Y-122896028D01*
X151403972Y-123026262D01*
X151557111Y-123128586D01*
X151727271Y-123199068D01*
X151892485Y-123231932D01*
X152714746Y-124054193D01*
X152737762Y-124082238D01*
X152849680Y-124174087D01*
X152977367Y-124242337D01*
X153046839Y-124263411D01*
X153115914Y-124284365D01*
X153130132Y-124285765D01*
X153223895Y-124295000D01*
X153223902Y-124295000D01*
X153259999Y-124298555D01*
X153296096Y-124295000D01*
X158905117Y-124295000D01*
X159046525Y-124506632D01*
X159253368Y-124713475D01*
X159426729Y-124829311D01*
X159351208Y-125071603D01*
X160200000Y-125920395D01*
X161048792Y-125071603D01*
X160973271Y-124829311D01*
X161146632Y-124713475D01*
X161353475Y-124506632D01*
X161515990Y-124263411D01*
X161627932Y-123993158D01*
X161685000Y-123706260D01*
X161685000Y-123413740D01*
X161627932Y-123126842D01*
X161515990Y-122856589D01*
X161353475Y-122613368D01*
X161146632Y-122406525D01*
X160903411Y-122244010D01*
X160640234Y-122134999D01*
X180859766Y-122134999D01*
X180596589Y-122244010D01*
X180353368Y-122406525D01*
X180146525Y-122613368D01*
X179984010Y-122856589D01*
X179872068Y-123126842D01*
X179815000Y-123413740D01*
X179815000Y-123706260D01*
X179872068Y-123993158D01*
X179984010Y-124263411D01*
X180146525Y-124506632D01*
X180353368Y-124713475D01*
X180526729Y-124829311D01*
X180451208Y-125071603D01*
X181300000Y-125920395D01*
X182148792Y-125071603D01*
X182073271Y-124829311D01*
X182246632Y-124713475D01*
X182453475Y-124506632D01*
X182615990Y-124263411D01*
X182727932Y-123993158D01*
X182785000Y-123706260D01*
X182785000Y-123413740D01*
X182727932Y-123126842D01*
X182615990Y-122856589D01*
X182453475Y-122613368D01*
X182246632Y-122406525D01*
X182003411Y-122244010D01*
X181740234Y-122134999D01*
X182132960Y-122134999D01*
X182173738Y-122196028D01*
X182303972Y-122326262D01*
X182457111Y-122428586D01*
X182627271Y-122499068D01*
X182807911Y-122535000D01*
X182992089Y-122535000D01*
X183172729Y-122499068D01*
X183342889Y-122428586D01*
X183496028Y-122326262D01*
X183626262Y-122196028D01*
X183728586Y-122042889D01*
X183799068Y-121872729D01*
X183835000Y-121692089D01*
X183835000Y-121507911D01*
X183799068Y-121327271D01*
X183760848Y-121235000D01*
X192993224Y-121235000D01*
X196215748Y-124457524D01*
X196248611Y-124622738D01*
X196319093Y-124792898D01*
X196412679Y-124932960D01*
X196412680Y-126111564D01*
X196409123Y-126147679D01*
X196423314Y-126291764D01*
X196453017Y-126389680D01*
X196465343Y-126430312D01*
X196533593Y-126557999D01*
X196625442Y-126669917D01*
X196653487Y-126692933D01*
X200168069Y-130207515D01*
X200200932Y-130372729D01*
X200271414Y-130542889D01*
X200373738Y-130696028D01*
X200503972Y-130826262D01*
X200657111Y-130928586D01*
X200827271Y-130999068D01*
X201007911Y-131035000D01*
X201192089Y-131035000D01*
X201372729Y-130999068D01*
X201542889Y-130928586D01*
X201696028Y-130826262D01*
X201826262Y-130696028D01*
X201928586Y-130542889D01*
X201999068Y-130372729D01*
X202035000Y-130192089D01*
X202035000Y-130007911D01*
X201999068Y-129827271D01*
X201928586Y-129657111D01*
X201826262Y-129503972D01*
X201696028Y-129373738D01*
X201542889Y-129271414D01*
X201372729Y-129200932D01*
X201207515Y-129168069D01*
X197882679Y-125843233D01*
X197882679Y-124932960D01*
X197976265Y-124792898D01*
X198046747Y-124622738D01*
X198082679Y-124442098D01*
X198082679Y-124300000D01*
X205309025Y-124300000D01*
X205332870Y-124542102D01*
X205403489Y-124774901D01*
X205518167Y-124989449D01*
X205672498Y-125177502D01*
X205821762Y-125300000D01*
X205672498Y-125422498D01*
X205518167Y-125610551D01*
X205403489Y-125825099D01*
X205332870Y-126057898D01*
X205309025Y-126300000D01*
X205332870Y-126542102D01*
X205403489Y-126774901D01*
X205518167Y-126989449D01*
X205672498Y-127177502D01*
X205821762Y-127300000D01*
X205672498Y-127422498D01*
X205518167Y-127610551D01*
X205403489Y-127825099D01*
X205332870Y-128057898D01*
X205309025Y-128300000D01*
X205332870Y-128542102D01*
X205403489Y-128774901D01*
X205518167Y-128989449D01*
X205672498Y-129177502D01*
X205821762Y-129300000D01*
X205672498Y-129422498D01*
X205518167Y-129610551D01*
X205403489Y-129825099D01*
X205332870Y-130057898D01*
X205309025Y-130300000D01*
X205332870Y-130542102D01*
X205403489Y-130774901D01*
X205518167Y-130989449D01*
X205644436Y-131143309D01*
X205595506Y-131169463D01*
X205498815Y-131248815D01*
X205419463Y-131345506D01*
X205360498Y-131455820D01*
X205324188Y-131575518D01*
X205311928Y-131700000D01*
X205315000Y-132014250D01*
X205473750Y-132173000D01*
X206673000Y-132173000D01*
X206673000Y-132153000D01*
X206927000Y-132153000D01*
X206927000Y-132173000D01*
X208126250Y-132173000D01*
X208285000Y-132014250D01*
X208288072Y-131700000D01*
X208275812Y-131575518D01*
X208239502Y-131455820D01*
X208180537Y-131345506D01*
X208101185Y-131248815D01*
X208004494Y-131169463D01*
X207955564Y-131143309D01*
X208081833Y-130989449D01*
X208196511Y-130774901D01*
X208267130Y-130542102D01*
X208290975Y-130300000D01*
X208267130Y-130057898D01*
X208196511Y-129825099D01*
X208081833Y-129610551D01*
X207927502Y-129422498D01*
X207778238Y-129300000D01*
X207927502Y-129177502D01*
X208081833Y-128989449D01*
X208196511Y-128774901D01*
X208267130Y-128542102D01*
X208290975Y-128300000D01*
X208267130Y-128057898D01*
X208196511Y-127825099D01*
X208081833Y-127610551D01*
X207927502Y-127422498D01*
X207778238Y-127300000D01*
X207927502Y-127177502D01*
X208081833Y-126989449D01*
X208196511Y-126774901D01*
X208267130Y-126542102D01*
X208290975Y-126300000D01*
X208267130Y-126057898D01*
X208196511Y-125825099D01*
X208081833Y-125610551D01*
X207927502Y-125422498D01*
X207778238Y-125300000D01*
X207927502Y-125177502D01*
X208081833Y-124989449D01*
X208196511Y-124774901D01*
X208267130Y-124542102D01*
X208290975Y-124300000D01*
X208267130Y-124057898D01*
X208196511Y-123825099D01*
X208081833Y-123610551D01*
X207927502Y-123422498D01*
X207739449Y-123268167D01*
X207524901Y-123153489D01*
X207292102Y-123082870D01*
X207110665Y-123065000D01*
X206489335Y-123065000D01*
X206307898Y-123082870D01*
X206075099Y-123153489D01*
X205860551Y-123268167D01*
X205672498Y-123422498D01*
X205518167Y-123610551D01*
X205403489Y-123825099D01*
X205332870Y-124057898D01*
X205309025Y-124300000D01*
X198082679Y-124300000D01*
X198082679Y-124257920D01*
X198046747Y-124077280D01*
X197976265Y-123907120D01*
X197873941Y-123753981D01*
X197743707Y-123623747D01*
X197590568Y-123521423D01*
X197420408Y-123450941D01*
X197255194Y-123418078D01*
X193842929Y-120005813D01*
X193819908Y-119977762D01*
X193707990Y-119885913D01*
X193580303Y-119817663D01*
X193441755Y-119775635D01*
X193333775Y-119765000D01*
X193297670Y-119761444D01*
X193261565Y-119765000D01*
X146982951Y-119765000D01*
X146842889Y-119671414D01*
X146672729Y-119600932D01*
X146492089Y-119565000D01*
X146307911Y-119565000D01*
X146127271Y-119600932D01*
X145957111Y-119671414D01*
X145803972Y-119773738D01*
X145673738Y-119903972D01*
X145571414Y-120057111D01*
X145500932Y-120227271D01*
X145465000Y-120407911D01*
X145465000Y-120464999D01*
X124741019Y-120464999D01*
X124700000Y-120460959D01*
X124658982Y-120464999D01*
X124536312Y-120477081D01*
X124378914Y-120524827D01*
X124233855Y-120602363D01*
X124106710Y-120706708D01*
X124080560Y-120738572D01*
X122511787Y-122307345D01*
X122357111Y-122371414D01*
X122203972Y-122473738D01*
X122073738Y-122603972D01*
X121971414Y-122757111D01*
X121900932Y-122927271D01*
X121865000Y-123107911D01*
X110810000Y-123107911D01*
X110810000Y-113507911D01*
X194965000Y-113507911D01*
X194965000Y-113692089D01*
X195000932Y-113872729D01*
X195071414Y-114042889D01*
X195173738Y-114196028D01*
X195303972Y-114326262D01*
X195457111Y-114428586D01*
X195627271Y-114499068D01*
X195807911Y-114535000D01*
X195992089Y-114535000D01*
X196172729Y-114499068D01*
X196342889Y-114428586D01*
X196496028Y-114326262D01*
X196626262Y-114196028D01*
X196728586Y-114042889D01*
X196799068Y-113872729D01*
X196831932Y-113707514D01*
X200164990Y-110374457D01*
X200164990Y-111595563D01*
X196492486Y-115268068D01*
X196327271Y-115300932D01*
X196157111Y-115371414D01*
X196003972Y-115473738D01*
X195873738Y-115603972D01*
X195771414Y-115757111D01*
X195700932Y-115927271D01*
X195665000Y-116107911D01*
X195665000Y-116292089D01*
X195700932Y-116472729D01*
X195771414Y-116642889D01*
X195873738Y-116796028D01*
X196003972Y-116926262D01*
X196157111Y-117028586D01*
X196327271Y-117099068D01*
X196507911Y-117135000D01*
X196692089Y-117135000D01*
X196872729Y-117099068D01*
X197042889Y-117028586D01*
X197196028Y-116926262D01*
X197326262Y-116796028D01*
X197428586Y-116642889D01*
X197499068Y-116472729D01*
X197531932Y-116307514D01*
X201394187Y-112445260D01*
X201422227Y-112422248D01*
X201445240Y-112394207D01*
X201445243Y-112394204D01*
X201514076Y-112310331D01*
X201514077Y-112310330D01*
X201582327Y-112182643D01*
X201611606Y-112086124D01*
X201624355Y-112044096D01*
X201625755Y-112029878D01*
X201634990Y-111936115D01*
X201634990Y-111936108D01*
X201638545Y-111900011D01*
X201634990Y-111863914D01*
X201634990Y-110126466D01*
X201772729Y-110099068D01*
X201942889Y-110028586D01*
X202096028Y-109926262D01*
X202226262Y-109796028D01*
X202328586Y-109642889D01*
X202399068Y-109472729D01*
X202435000Y-109292089D01*
X202435000Y-109107911D01*
X202399068Y-108927271D01*
X202328586Y-108757111D01*
X202226262Y-108603972D01*
X202134999Y-108512709D01*
X202134999Y-107435000D01*
X202192089Y-107435000D01*
X202372729Y-107399068D01*
X202542889Y-107328586D01*
X202682951Y-107235000D01*
X202995554Y-107235000D01*
X204743396Y-108982842D01*
X204690000Y-109251278D01*
X204690000Y-109548722D01*
X204748029Y-109840451D01*
X204861856Y-110115253D01*
X205027107Y-110362569D01*
X205237431Y-110572893D01*
X205352830Y-110650000D01*
X205237431Y-110727107D01*
X205027107Y-110937431D01*
X204861856Y-111184747D01*
X204748029Y-111459549D01*
X204690000Y-111751278D01*
X204690000Y-112048722D01*
X204748029Y-112340451D01*
X204861856Y-112615253D01*
X205027107Y-112862569D01*
X205237431Y-113072893D01*
X205352830Y-113150000D01*
X205237431Y-113227107D01*
X205027107Y-113437431D01*
X204861856Y-113684747D01*
X204748029Y-113959549D01*
X204690000Y-114251278D01*
X204690000Y-114548722D01*
X204748029Y-114840451D01*
X204861856Y-115115253D01*
X205027107Y-115362569D01*
X205095564Y-115431026D01*
X205080820Y-115435498D01*
X204970506Y-115494463D01*
X204873815Y-115573815D01*
X204794463Y-115670506D01*
X204735498Y-115780820D01*
X204699188Y-115900518D01*
X204686928Y-116025000D01*
X204686928Y-117775000D01*
X204699188Y-117899482D01*
X204735498Y-118019180D01*
X204794463Y-118129494D01*
X204873815Y-118226185D01*
X204970506Y-118305537D01*
X205080820Y-118364502D01*
X205200518Y-118400812D01*
X205325000Y-118413072D01*
X207075000Y-118413072D01*
X207199482Y-118400812D01*
X207319180Y-118364502D01*
X207429494Y-118305537D01*
X207526185Y-118226185D01*
X207605537Y-118129494D01*
X207664502Y-118019180D01*
X207700812Y-117899482D01*
X207713072Y-117775000D01*
X207713072Y-116025000D01*
X207700812Y-115900518D01*
X207664502Y-115780820D01*
X207605537Y-115670506D01*
X207526185Y-115573815D01*
X207429494Y-115494463D01*
X207319180Y-115435498D01*
X207304436Y-115431026D01*
X207372893Y-115362569D01*
X207538144Y-115115253D01*
X207651971Y-114840451D01*
X207710000Y-114548722D01*
X207710000Y-114251278D01*
X207651971Y-113959549D01*
X207538144Y-113684747D01*
X207372893Y-113437431D01*
X207162569Y-113227107D01*
X207047170Y-113150000D01*
X207162569Y-113072893D01*
X207372893Y-112862569D01*
X207538144Y-112615253D01*
X207651971Y-112340451D01*
X207710000Y-112048722D01*
X207710000Y-111751278D01*
X207651971Y-111459549D01*
X207538144Y-111184747D01*
X207372893Y-110937431D01*
X207162569Y-110727107D01*
X207047170Y-110650000D01*
X207162569Y-110572893D01*
X207372893Y-110362569D01*
X207538144Y-110115253D01*
X207651971Y-109840451D01*
X207710000Y-109548722D01*
X207710000Y-109251278D01*
X207651971Y-108959549D01*
X207538144Y-108684747D01*
X207372893Y-108437431D01*
X207162569Y-108227107D01*
X206915253Y-108061856D01*
X206640451Y-107948029D01*
X206348722Y-107890000D01*
X206051278Y-107890000D01*
X205782842Y-107943396D01*
X203845259Y-106005813D01*
X203822238Y-105977762D01*
X203710320Y-105885913D01*
X203582633Y-105817663D01*
X203444085Y-105775635D01*
X203336105Y-105765000D01*
X203300000Y-105761444D01*
X203263895Y-105765000D01*
X202682951Y-105765000D01*
X202542889Y-105671414D01*
X202470971Y-105641625D01*
X202470971Y-104641819D01*
X202471414Y-104642889D01*
X202573738Y-104796028D01*
X202703972Y-104926262D01*
X202857111Y-105028586D01*
X203027271Y-105099068D01*
X203207911Y-105135000D01*
X203392089Y-105135000D01*
X203572729Y-105099068D01*
X203742889Y-105028586D01*
X203896028Y-104926262D01*
X204026262Y-104796028D01*
X204128586Y-104642889D01*
X204199068Y-104472729D01*
X204235000Y-104292089D01*
X204235000Y-104107911D01*
X204199068Y-103927271D01*
X204128586Y-103757111D01*
X204035000Y-103617049D01*
X204035000Y-98236105D01*
X204038556Y-98200000D01*
X204024365Y-98055915D01*
X203982337Y-97917366D01*
X203914087Y-97789680D01*
X203845253Y-97705806D01*
X203845250Y-97705803D01*
X203822237Y-97677762D01*
X203794197Y-97654750D01*
X202931932Y-96792485D01*
X202899068Y-96627271D01*
X202828586Y-96457111D01*
X202726262Y-96303972D01*
X202596028Y-96173738D01*
X202442889Y-96071414D01*
X202272729Y-96000932D01*
X202092089Y-95965000D01*
X201907911Y-95965000D01*
X201727271Y-96000932D01*
X201557111Y-96071414D01*
X201403972Y-96173738D01*
X201273738Y-96303972D01*
X201171414Y-96457111D01*
X201100932Y-96627271D01*
X201065000Y-96807911D01*
X201065000Y-96992089D01*
X201100932Y-97172729D01*
X201171414Y-97342889D01*
X201273738Y-97496028D01*
X201403972Y-97626262D01*
X201557111Y-97728586D01*
X201727271Y-97799068D01*
X201892485Y-97831932D01*
X202279665Y-98219112D01*
X202178860Y-98151756D01*
X202008700Y-98081274D01*
X201828060Y-98045342D01*
X201643882Y-98045342D01*
X201463242Y-98081274D01*
X201293082Y-98151756D01*
X201139943Y-98254080D01*
X201009709Y-98384314D01*
X200907385Y-98537453D01*
X200836903Y-98707613D01*
X200800971Y-98888253D01*
X200800971Y-99072431D01*
X200836903Y-99253071D01*
X200907385Y-99423231D01*
X201000971Y-99563293D01*
X201000971Y-100802504D01*
X200946969Y-100802504D01*
X200766329Y-100838436D01*
X200596169Y-100908918D01*
X200536648Y-100948689D01*
X200432484Y-100905543D01*
X200251844Y-100869611D01*
X200067666Y-100869611D01*
X199887026Y-100905543D01*
X199716866Y-100976025D01*
X199563727Y-101078349D01*
X199433493Y-101208583D01*
X199331169Y-101361722D01*
X199260687Y-101531882D01*
X199227824Y-101697096D01*
X195682264Y-105242656D01*
X195654218Y-105265673D01*
X195562369Y-105377591D01*
X195494119Y-105505278D01*
X195473602Y-105572914D01*
X195452091Y-105643825D01*
X195448359Y-105681718D01*
X195347870Y-105832111D01*
X195277388Y-106002271D01*
X195241456Y-106182911D01*
X195241456Y-106367089D01*
X195277388Y-106547729D01*
X195347870Y-106717889D01*
X195450194Y-106871028D01*
X195580428Y-107001262D01*
X195733567Y-107103586D01*
X195903727Y-107174068D01*
X196084367Y-107210000D01*
X196268545Y-107210000D01*
X196449185Y-107174068D01*
X196619345Y-107103586D01*
X196772484Y-107001262D01*
X196902718Y-106871028D01*
X197005042Y-106717889D01*
X197075524Y-106547729D01*
X197111456Y-106367089D01*
X197111456Y-106182911D01*
X197075524Y-106002271D01*
X197053855Y-105949957D01*
X199564989Y-103438824D01*
X199564988Y-108895565D01*
X195792486Y-112668068D01*
X195627271Y-112700932D01*
X195457111Y-112771414D01*
X195303972Y-112873738D01*
X195173738Y-113003972D01*
X195071414Y-113157111D01*
X195000932Y-113327271D01*
X194965000Y-113507911D01*
X110810000Y-113507911D01*
X110810000Y-98613938D01*
X195295428Y-98613938D01*
X195295428Y-98798116D01*
X195331360Y-98978756D01*
X195401842Y-99148916D01*
X195504166Y-99302055D01*
X195634400Y-99432289D01*
X195787539Y-99534613D01*
X195957699Y-99605095D01*
X196138339Y-99641027D01*
X196322517Y-99641027D01*
X196503157Y-99605095D01*
X196673317Y-99534613D01*
X196813379Y-99441027D01*
X197970643Y-99441027D01*
X197971414Y-99442889D01*
X198073738Y-99596028D01*
X198203972Y-99726262D01*
X198357111Y-99828586D01*
X198527271Y-99899068D01*
X198707911Y-99935000D01*
X198892089Y-99935000D01*
X199072729Y-99899068D01*
X199242889Y-99828586D01*
X199396028Y-99726262D01*
X199526262Y-99596028D01*
X199628586Y-99442889D01*
X199699068Y-99272729D01*
X199735000Y-99092089D01*
X199735000Y-98907911D01*
X199699068Y-98727271D01*
X199628586Y-98557111D01*
X199526262Y-98403972D01*
X199396028Y-98273738D01*
X199242889Y-98171414D01*
X199072729Y-98100932D01*
X198892089Y-98065000D01*
X198865946Y-98065000D01*
X198788660Y-98023690D01*
X198650112Y-97981662D01*
X198542132Y-97971027D01*
X198506027Y-97967471D01*
X198469922Y-97971027D01*
X196813379Y-97971027D01*
X196673317Y-97877441D01*
X196503157Y-97806959D01*
X196322517Y-97771027D01*
X196138339Y-97771027D01*
X195957699Y-97806959D01*
X195787539Y-97877441D01*
X195634400Y-97979765D01*
X195504166Y-98109999D01*
X195401842Y-98263138D01*
X195331360Y-98433298D01*
X195295428Y-98613938D01*
X110810000Y-98613938D01*
X110810000Y-87726222D01*
X111955257Y-87726222D01*
X111955257Y-88143776D01*
X112036717Y-88553305D01*
X112196508Y-88939074D01*
X112428488Y-89286257D01*
X112723742Y-89581511D01*
X113070925Y-89813491D01*
X113456694Y-89973282D01*
X113866223Y-90054742D01*
X114283777Y-90054742D01*
X114693306Y-89973282D01*
X115079075Y-89813491D01*
X115426258Y-89581511D01*
X115721512Y-89286257D01*
X115953492Y-88939074D01*
X116113283Y-88553305D01*
X116194743Y-88143776D01*
X116194743Y-87726222D01*
X116113283Y-87316693D01*
X115953492Y-86930924D01*
X115721512Y-86583741D01*
X115426258Y-86288487D01*
X115079075Y-86056507D01*
X115003011Y-86025000D01*
X194386928Y-86025000D01*
X194386928Y-87375000D01*
X194399188Y-87499482D01*
X194435498Y-87619180D01*
X194494463Y-87729494D01*
X194573815Y-87826185D01*
X194660697Y-87897487D01*
X194539093Y-88079482D01*
X194440342Y-88317887D01*
X194390000Y-88570976D01*
X194390000Y-88829024D01*
X194440342Y-89082113D01*
X194539093Y-89320518D01*
X194682456Y-89535077D01*
X194864923Y-89717544D01*
X195079482Y-89860907D01*
X195317887Y-89959658D01*
X195570976Y-90010000D01*
X195829024Y-90010000D01*
X196082113Y-89959658D01*
X196320518Y-89860907D01*
X196535077Y-89717544D01*
X196717544Y-89535077D01*
X196860907Y-89320518D01*
X196959658Y-89082113D01*
X197010000Y-88829024D01*
X197010000Y-88570976D01*
X196959658Y-88317887D01*
X196860907Y-88079482D01*
X196739303Y-87897487D01*
X196826185Y-87826185D01*
X196905537Y-87729494D01*
X196907285Y-87726222D01*
X197955256Y-87726222D01*
X197955256Y-88143776D01*
X198036716Y-88553305D01*
X198196507Y-88939074D01*
X198428487Y-89286257D01*
X198723741Y-89581511D01*
X199070924Y-89813491D01*
X199456693Y-89973282D01*
X199866222Y-90054742D01*
X200283776Y-90054742D01*
X200693305Y-89973282D01*
X201079074Y-89813491D01*
X201426257Y-89581511D01*
X201721511Y-89286257D01*
X201953491Y-88939074D01*
X202113282Y-88553305D01*
X202194742Y-88143776D01*
X202194742Y-87726222D01*
X202113282Y-87316693D01*
X201953491Y-86930924D01*
X201721511Y-86583741D01*
X201426257Y-86288487D01*
X201079074Y-86056507D01*
X200693305Y-85896716D01*
X200283776Y-85815256D01*
X199866222Y-85815256D01*
X199456693Y-85896716D01*
X199070924Y-86056507D01*
X198723741Y-86288487D01*
X198428487Y-86583741D01*
X198196507Y-86930924D01*
X198036716Y-87316693D01*
X197955256Y-87726222D01*
X196907285Y-87726222D01*
X196964502Y-87619180D01*
X197000812Y-87499482D01*
X197013072Y-87375000D01*
X197013072Y-86025000D01*
X197000812Y-85900518D01*
X196964502Y-85780820D01*
X196905537Y-85670506D01*
X196826185Y-85573815D01*
X196729494Y-85494463D01*
X196619180Y-85435498D01*
X196499482Y-85399188D01*
X196375000Y-85386928D01*
X195025000Y-85386928D01*
X194900518Y-85399188D01*
X194780820Y-85435498D01*
X194670506Y-85494463D01*
X194573815Y-85573815D01*
X194494463Y-85670506D01*
X194435498Y-85780820D01*
X194399188Y-85900518D01*
X194386928Y-86025000D01*
X115003011Y-86025000D01*
X114693306Y-85896716D01*
X114283777Y-85815256D01*
X113866223Y-85815256D01*
X113456694Y-85896716D01*
X113070925Y-86056507D01*
X112723742Y-86288487D01*
X112428488Y-86583741D01*
X112196508Y-86930924D01*
X112036717Y-87316693D01*
X111955257Y-87726222D01*
X110810000Y-87726222D01*
X110810000Y-84670000D01*
X209340001Y-84670000D01*
X209340001Y-98959133D01*
G04 #@! TA.AperFunction,Conductor*
D34*
G36*
X209340001Y-98959133D02*
G01*
X203192655Y-92811788D01*
X203128586Y-92657111D01*
X203026262Y-92503972D01*
X202896028Y-92373738D01*
X202742889Y-92271414D01*
X202572729Y-92200932D01*
X202392089Y-92165000D01*
X202207911Y-92165000D01*
X202027271Y-92200932D01*
X201857111Y-92271414D01*
X201703972Y-92373738D01*
X201573738Y-92503972D01*
X201471414Y-92657111D01*
X201400932Y-92827271D01*
X201365000Y-93007911D01*
X201365000Y-93192089D01*
X201400932Y-93372729D01*
X201471414Y-93542889D01*
X201573738Y-93696028D01*
X201703972Y-93826262D01*
X201857111Y-93928586D01*
X202011788Y-93992655D01*
X208565001Y-100545869D01*
X208565000Y-104072596D01*
X208500932Y-104227271D01*
X208465000Y-104407911D01*
X208465000Y-104592089D01*
X208500932Y-104772729D01*
X208571414Y-104942889D01*
X208673738Y-105096028D01*
X208803972Y-105226262D01*
X208957111Y-105328586D01*
X209127271Y-105399068D01*
X209307911Y-105435000D01*
X209340001Y-105435000D01*
X209340000Y-137773000D01*
X204027000Y-137773000D01*
X204027000Y-132900000D01*
X205311928Y-132900000D01*
X205324188Y-133024482D01*
X205360498Y-133144180D01*
X205419463Y-133254494D01*
X205498815Y-133351185D01*
X205595506Y-133430537D01*
X205705820Y-133489502D01*
X205825518Y-133525812D01*
X205950000Y-133538072D01*
X206514250Y-133535000D01*
X206673000Y-133376250D01*
X206673000Y-132427000D01*
X206927000Y-132427000D01*
X206927000Y-133376250D01*
X207085750Y-133535000D01*
X207650000Y-133538072D01*
X207774482Y-133525812D01*
X207894180Y-133489502D01*
X208004494Y-133430537D01*
X208101185Y-133351185D01*
X208180537Y-133254494D01*
X208239502Y-133144180D01*
X208275812Y-133024482D01*
X208288072Y-132900000D01*
X208285000Y-132585750D01*
X208126250Y-132427000D01*
X206927000Y-132427000D01*
X206673000Y-132427000D01*
X205473750Y-132427000D01*
X205315000Y-132585750D01*
X205311928Y-132900000D01*
X204027000Y-132900000D01*
X204027000Y-131800000D01*
X204024560Y-131775224D01*
X204017333Y-131751399D01*
X204005597Y-131729443D01*
X203989803Y-131710197D01*
X203970557Y-131694403D01*
X203948601Y-131682667D01*
X203924776Y-131675440D01*
X203900000Y-131673000D01*
X201715309Y-131673000D01*
X201543533Y-131620892D01*
X201229882Y-131590000D01*
X201125000Y-131579670D01*
X201020118Y-131590000D01*
X197970118Y-131590000D01*
X197656467Y-131620892D01*
X197484691Y-131673000D01*
X183927000Y-131673000D01*
X183927000Y-131100000D01*
X183924636Y-131075608D01*
X183917482Y-131051762D01*
X183905814Y-131029769D01*
X183890079Y-131010475D01*
X183870883Y-130994622D01*
X183848963Y-130982818D01*
X183825161Y-130975517D01*
X183800392Y-130973001D01*
X183775608Y-130975364D01*
X183751762Y-130982518D01*
X183729769Y-130994186D01*
X183710475Y-131009921D01*
X183694622Y-131029117D01*
X183682818Y-131051037D01*
X183675517Y-131074839D01*
X183673001Y-131099608D01*
X183577012Y-162200000D01*
X148915811Y-162200000D01*
X149173098Y-162028086D01*
X149508086Y-161693098D01*
X149771284Y-161299195D01*
X149952577Y-160861513D01*
X150045000Y-160396872D01*
X150045000Y-159923128D01*
X149952577Y-159458487D01*
X149771284Y-159020805D01*
X149508086Y-158626902D01*
X149173098Y-158291914D01*
X148779195Y-158028716D01*
X148341513Y-157847423D01*
X147876872Y-157755000D01*
X147403128Y-157755000D01*
X146938487Y-157847423D01*
X146500805Y-158028716D01*
X146106902Y-158291914D01*
X145771914Y-158626902D01*
X145508716Y-159020805D01*
X145327423Y-159458487D01*
X145235000Y-159923128D01*
X145235000Y-160396872D01*
X145327423Y-160861513D01*
X145508716Y-161299195D01*
X145771914Y-161693098D01*
X146106902Y-162028086D01*
X146364189Y-162200000D01*
X110810000Y-162200000D01*
X110810000Y-156400043D01*
X112061067Y-156400043D01*
X112100371Y-156556190D01*
X112241056Y-156872207D01*
X112440689Y-157154705D01*
X112691599Y-157392829D01*
X112984144Y-157577427D01*
X113307081Y-157701406D01*
X113648000Y-157760000D01*
X114773000Y-157760000D01*
X114773000Y-156127000D01*
X115027000Y-156127000D01*
X115027000Y-157760000D01*
X116152000Y-157760000D01*
X116492919Y-157701406D01*
X116815856Y-157577427D01*
X117108401Y-157392829D01*
X117159807Y-157344042D01*
X119255000Y-157344042D01*
X119255000Y-157675958D01*
X119319754Y-158001496D01*
X119446772Y-158308147D01*
X119631175Y-158584125D01*
X119865875Y-158818825D01*
X120141853Y-159003228D01*
X120448504Y-159130246D01*
X120774042Y-159195000D01*
X120921823Y-159195000D01*
X120861856Y-159284747D01*
X120748029Y-159559549D01*
X120690000Y-159851278D01*
X120690000Y-160148722D01*
X120748029Y-160440451D01*
X120861856Y-160715253D01*
X121027107Y-160962569D01*
X121237431Y-161172893D01*
X121484747Y-161338144D01*
X121759549Y-161451971D01*
X122051278Y-161510000D01*
X122348722Y-161510000D01*
X122640451Y-161451971D01*
X122915253Y-161338144D01*
X123162569Y-161172893D01*
X123289222Y-161046240D01*
X125833365Y-161046240D01*
X125914025Y-161297868D01*
X126182329Y-161426267D01*
X126470526Y-161499855D01*
X126767543Y-161515804D01*
X127061963Y-161473501D01*
X127342474Y-161374572D01*
X127485975Y-161297868D01*
X127566635Y-161046240D01*
X126700000Y-160179605D01*
X125833365Y-161046240D01*
X123289222Y-161046240D01*
X123372893Y-160962569D01*
X123538144Y-160715253D01*
X123651971Y-160440451D01*
X123710000Y-160148722D01*
X123710000Y-160067543D01*
X125184196Y-160067543D01*
X125226499Y-160361963D01*
X125325428Y-160642474D01*
X125402132Y-160785975D01*
X125653760Y-160866635D01*
X126520395Y-160000000D01*
X125653760Y-159133365D01*
X125402132Y-159214025D01*
X125273733Y-159482329D01*
X125200145Y-159770526D01*
X125184196Y-160067543D01*
X123710000Y-160067543D01*
X123710000Y-159851278D01*
X123651971Y-159559549D01*
X123538144Y-159284747D01*
X123372893Y-159037431D01*
X123289222Y-158953760D01*
X125833365Y-158953760D01*
X126700000Y-159820395D01*
X126714143Y-159806253D01*
X126893748Y-159985858D01*
X126879605Y-160000000D01*
X127746240Y-160866635D01*
X127997868Y-160785975D01*
X128126267Y-160517671D01*
X128169079Y-160350000D01*
X135361928Y-160350000D01*
X135374188Y-160474482D01*
X135410498Y-160594180D01*
X135469463Y-160704494D01*
X135548815Y-160801185D01*
X135645506Y-160880537D01*
X135755820Y-160939502D01*
X135875518Y-160975812D01*
X136000000Y-160988072D01*
X136314250Y-160985000D01*
X136473000Y-160826250D01*
X136473000Y-159627000D01*
X135523750Y-159627000D01*
X135365000Y-159785750D01*
X135361928Y-160350000D01*
X128169079Y-160350000D01*
X128199855Y-160229474D01*
X128215804Y-159932457D01*
X128173501Y-159638037D01*
X128074572Y-159357526D01*
X127997868Y-159214025D01*
X127938517Y-159195000D01*
X128115958Y-159195000D01*
X128441496Y-159130246D01*
X128748147Y-159003228D01*
X129024125Y-158818825D01*
X129192950Y-158650000D01*
X135361928Y-158650000D01*
X135365000Y-159214250D01*
X135523750Y-159373000D01*
X136473000Y-159373000D01*
X136473000Y-158173750D01*
X136727000Y-158173750D01*
X136727000Y-159373000D01*
X136747000Y-159373000D01*
X136747000Y-159627000D01*
X136727000Y-159627000D01*
X136727000Y-160826250D01*
X136885750Y-160985000D01*
X137200000Y-160988072D01*
X137324482Y-160975812D01*
X137444180Y-160939502D01*
X137554494Y-160880537D01*
X137651185Y-160801185D01*
X137730537Y-160704494D01*
X137756692Y-160655563D01*
X137910552Y-160781833D01*
X138125100Y-160896511D01*
X138357899Y-160967130D01*
X138600000Y-160990975D01*
X138842102Y-160967130D01*
X139074901Y-160896511D01*
X139289449Y-160781833D01*
X139477502Y-160627502D01*
X139594432Y-160485022D01*
X139604991Y-160502276D01*
X139770872Y-160681938D01*
X139968616Y-160825786D01*
X140190623Y-160928292D01*
X140282391Y-160943462D01*
X140473000Y-160818731D01*
X140473000Y-159627000D01*
X140453000Y-159627000D01*
X140453000Y-159373000D01*
X140473000Y-159373000D01*
X140473000Y-158181269D01*
X140727000Y-158181269D01*
X140727000Y-159373000D01*
X140747000Y-159373000D01*
X140747000Y-159627000D01*
X140727000Y-159627000D01*
X140727000Y-160818731D01*
X140917609Y-160943462D01*
X141009377Y-160928292D01*
X141231384Y-160825786D01*
X141429128Y-160681938D01*
X141595009Y-160502276D01*
X141605568Y-160485022D01*
X141722499Y-160627502D01*
X141910552Y-160781833D01*
X142125100Y-160896511D01*
X142357899Y-160967130D01*
X142600000Y-160990975D01*
X142842102Y-160967130D01*
X143074901Y-160896511D01*
X143289449Y-160781833D01*
X143477502Y-160627502D01*
X143631833Y-160439449D01*
X143746511Y-160224900D01*
X143817130Y-159992101D01*
X143835000Y-159810664D01*
X143835000Y-159189335D01*
X143817130Y-159007898D01*
X143746511Y-158775099D01*
X143631833Y-158560551D01*
X143477502Y-158372498D01*
X143289448Y-158218167D01*
X143074900Y-158103489D01*
X142842101Y-158032870D01*
X142600000Y-158009025D01*
X142357898Y-158032870D01*
X142125099Y-158103489D01*
X141910551Y-158218167D01*
X141722498Y-158372498D01*
X141605568Y-158514978D01*
X141595009Y-158497724D01*
X141429128Y-158318062D01*
X141231384Y-158174214D01*
X141009377Y-158071708D01*
X140917609Y-158056538D01*
X140727000Y-158181269D01*
X140473000Y-158181269D01*
X140282391Y-158056538D01*
X140190623Y-158071708D01*
X139968616Y-158174214D01*
X139770872Y-158318062D01*
X139604991Y-158497724D01*
X139594432Y-158514978D01*
X139477502Y-158372498D01*
X139289448Y-158218167D01*
X139074900Y-158103489D01*
X138842101Y-158032870D01*
X138600000Y-158009025D01*
X138357898Y-158032870D01*
X138125099Y-158103489D01*
X137910551Y-158218167D01*
X137756691Y-158344436D01*
X137730537Y-158295506D01*
X137651185Y-158198815D01*
X137554494Y-158119463D01*
X137444180Y-158060498D01*
X137324482Y-158024188D01*
X137200000Y-158011928D01*
X136885750Y-158015000D01*
X136727000Y-158173750D01*
X136473000Y-158173750D01*
X136314250Y-158015000D01*
X136000000Y-158011928D01*
X135875518Y-158024188D01*
X135755820Y-158060498D01*
X135645506Y-158119463D01*
X135548815Y-158198815D01*
X135469463Y-158295506D01*
X135410498Y-158405820D01*
X135374188Y-158525518D01*
X135361928Y-158650000D01*
X129192950Y-158650000D01*
X129258825Y-158584125D01*
X129443228Y-158308147D01*
X129570246Y-158001496D01*
X129635000Y-157675958D01*
X129635000Y-157344042D01*
X129570246Y-157018504D01*
X129443228Y-156711853D01*
X129258825Y-156435875D01*
X129024125Y-156201175D01*
X128748147Y-156016772D01*
X128441496Y-155889754D01*
X128115958Y-155825000D01*
X127784042Y-155825000D01*
X127458504Y-155889754D01*
X127151853Y-156016772D01*
X126875875Y-156201175D01*
X126641175Y-156435875D01*
X126456772Y-156711853D01*
X126329754Y-157018504D01*
X126265000Y-157344042D01*
X126265000Y-157675958D01*
X126329754Y-158001496D01*
X126456772Y-158308147D01*
X126579490Y-158491806D01*
X126338037Y-158526499D01*
X126057526Y-158625428D01*
X125914025Y-158702132D01*
X125833365Y-158953760D01*
X123289222Y-158953760D01*
X123162569Y-158827107D01*
X122915253Y-158661856D01*
X122640451Y-158548029D01*
X122348722Y-158490000D01*
X122311717Y-158490000D01*
X122433228Y-158308147D01*
X122560246Y-158001496D01*
X122625000Y-157675958D01*
X122625000Y-157344042D01*
X122560246Y-157018504D01*
X122433228Y-156711853D01*
X122248825Y-156435875D01*
X122014125Y-156201175D01*
X121738147Y-156016772D01*
X121431496Y-155889754D01*
X121105958Y-155825000D01*
X120774042Y-155825000D01*
X120448504Y-155889754D01*
X120141853Y-156016772D01*
X119865875Y-156201175D01*
X119631175Y-156435875D01*
X119446772Y-156711853D01*
X119319754Y-157018504D01*
X119255000Y-157344042D01*
X117159807Y-157344042D01*
X117359311Y-157154705D01*
X117558944Y-156872207D01*
X117699629Y-156556190D01*
X117738933Y-156400043D01*
X117621206Y-156127000D01*
X115027000Y-156127000D01*
X114773000Y-156127000D01*
X112178794Y-156127000D01*
X112061067Y-156400043D01*
X110810000Y-156400043D01*
X110810000Y-155599957D01*
X112061067Y-155599957D01*
X112178794Y-155873000D01*
X114773000Y-155873000D01*
X114773000Y-154240000D01*
X115027000Y-154240000D01*
X115027000Y-155873000D01*
X117621206Y-155873000D01*
X117738933Y-155599957D01*
X117699629Y-155443810D01*
X117558944Y-155127793D01*
X117359311Y-154845295D01*
X117108401Y-154607171D01*
X116815856Y-154422573D01*
X116492919Y-154298594D01*
X116152000Y-154240000D01*
X115027000Y-154240000D01*
X114773000Y-154240000D01*
X113648000Y-154240000D01*
X113307081Y-154298594D01*
X112984144Y-154422573D01*
X112691599Y-154607171D01*
X112440689Y-154845295D01*
X112241056Y-155127793D01*
X112100371Y-155443810D01*
X112061067Y-155599957D01*
X110810000Y-155599957D01*
X110810000Y-154211452D01*
X117840000Y-154211452D01*
X117865467Y-154470019D01*
X117966105Y-154801780D01*
X118129534Y-155107533D01*
X118349471Y-155375529D01*
X118617466Y-155595466D01*
X118923219Y-155758895D01*
X119254980Y-155859533D01*
X119600000Y-155893515D01*
X119945019Y-155859533D01*
X120276780Y-155758895D01*
X120582533Y-155595466D01*
X120850529Y-155375529D01*
X121070466Y-155107534D01*
X121233895Y-154801781D01*
X121334533Y-154470020D01*
X121360000Y-154211453D01*
X121360000Y-151788547D01*
X121349688Y-151683842D01*
X146135763Y-151683842D01*
X146324244Y-152027047D01*
X146744983Y-152244789D01*
X147200117Y-152376265D01*
X147672156Y-152416422D01*
X148142958Y-152363718D01*
X148594432Y-152220177D01*
X148955756Y-152027047D01*
X149144237Y-151683842D01*
X147640000Y-150179605D01*
X146135763Y-151683842D01*
X121349688Y-151683842D01*
X121334533Y-151529980D01*
X121233895Y-151198219D01*
X121070466Y-150892466D01*
X120850529Y-150624471D01*
X120582534Y-150404534D01*
X120276781Y-150241105D01*
X119945020Y-150140467D01*
X119600000Y-150106485D01*
X119254981Y-150140467D01*
X118923220Y-150241105D01*
X118617467Y-150404534D01*
X118349472Y-150624471D01*
X118129535Y-150892466D01*
X117966106Y-151198219D01*
X117865468Y-151529980D01*
X117840001Y-151788547D01*
X117840000Y-154211452D01*
X110810000Y-154211452D01*
X110810000Y-150000000D01*
X111755880Y-150000000D01*
X111792275Y-150369524D01*
X111900061Y-150724848D01*
X112075097Y-151052317D01*
X112310655Y-151339345D01*
X112597683Y-151574903D01*
X112925152Y-151749939D01*
X113280476Y-151857725D01*
X113557403Y-151885000D01*
X116242597Y-151885000D01*
X116519524Y-151857725D01*
X116874848Y-151749939D01*
X117202317Y-151574903D01*
X117489345Y-151339345D01*
X117724903Y-151052317D01*
X117899939Y-150724848D01*
X118007725Y-150369524D01*
X118040952Y-150032156D01*
X145223578Y-150032156D01*
X145276282Y-150502958D01*
X145419823Y-150954432D01*
X145612953Y-151315756D01*
X145956158Y-151504237D01*
X147460395Y-150000000D01*
X147819605Y-150000000D01*
X149323842Y-151504237D01*
X149667047Y-151315756D01*
X149884789Y-150895017D01*
X150016265Y-150439883D01*
X150056422Y-149967844D01*
X150003718Y-149497042D01*
X149860177Y-149045568D01*
X149667047Y-148684244D01*
X149323842Y-148495763D01*
X147819605Y-150000000D01*
X147460395Y-150000000D01*
X145956158Y-148495763D01*
X145612953Y-148684244D01*
X145395211Y-149104983D01*
X145263735Y-149560117D01*
X145223578Y-150032156D01*
X118040952Y-150032156D01*
X118044120Y-150000000D01*
X118007725Y-149630476D01*
X117899939Y-149275152D01*
X117724903Y-148947683D01*
X117489345Y-148660655D01*
X117202317Y-148425097D01*
X116998507Y-148316158D01*
X146135763Y-148316158D01*
X147640000Y-149820395D01*
X149144237Y-148316158D01*
X148955756Y-147972953D01*
X148535017Y-147755211D01*
X148079883Y-147623735D01*
X147607844Y-147583578D01*
X147137042Y-147636282D01*
X146685568Y-147779823D01*
X146324244Y-147972953D01*
X146135763Y-148316158D01*
X116998507Y-148316158D01*
X116874848Y-148250061D01*
X116519524Y-148142275D01*
X116242597Y-148115000D01*
X113557403Y-148115000D01*
X113280476Y-148142275D01*
X112925152Y-148250061D01*
X112597683Y-148425097D01*
X112310655Y-148660655D01*
X112075097Y-148947683D01*
X111900061Y-149275152D01*
X111792275Y-149630476D01*
X111755880Y-150000000D01*
X110810000Y-150000000D01*
X110810000Y-145726223D01*
X111955257Y-145726223D01*
X111955257Y-146143777D01*
X112036717Y-146553306D01*
X112196508Y-146939075D01*
X112428488Y-147286258D01*
X112723742Y-147581512D01*
X113070925Y-147813492D01*
X113456694Y-147973283D01*
X113866223Y-148054743D01*
X114283777Y-148054743D01*
X114693306Y-147973283D01*
X115079075Y-147813492D01*
X115426258Y-147581512D01*
X115721512Y-147286258D01*
X115953492Y-146939075D01*
X116113283Y-146553306D01*
X116194743Y-146143777D01*
X116194743Y-145726223D01*
X116113283Y-145316694D01*
X115953492Y-144930925D01*
X115721512Y-144583742D01*
X115426258Y-144288488D01*
X115079075Y-144056508D01*
X114693306Y-143896717D01*
X114283777Y-143815257D01*
X113866223Y-143815257D01*
X113456694Y-143896717D01*
X113070925Y-144056508D01*
X112723742Y-144288488D01*
X112428488Y-144583742D01*
X112196508Y-144930925D01*
X112036717Y-145316694D01*
X111955257Y-145726223D01*
X110810000Y-145726223D01*
X110810000Y-140975000D01*
X111486928Y-140975000D01*
X111499188Y-141099482D01*
X111535498Y-141219180D01*
X111594463Y-141329494D01*
X111673815Y-141426185D01*
X111770506Y-141505537D01*
X111880820Y-141564502D01*
X112000518Y-141600812D01*
X112125000Y-141613072D01*
X112714250Y-141610000D01*
X112873000Y-141451250D01*
X112873000Y-140227000D01*
X113127000Y-140227000D01*
X113127000Y-141451250D01*
X113285750Y-141610000D01*
X113875000Y-141613072D01*
X113999482Y-141600812D01*
X114119180Y-141564502D01*
X114229494Y-141505537D01*
X114326185Y-141426185D01*
X114405537Y-141329494D01*
X114464502Y-141219180D01*
X114500812Y-141099482D01*
X114513072Y-140975000D01*
X114510000Y-140385750D01*
X114351250Y-140227000D01*
X113127000Y-140227000D01*
X112873000Y-140227000D01*
X111648750Y-140227000D01*
X111490000Y-140385750D01*
X111486928Y-140975000D01*
X110810000Y-140975000D01*
X110810000Y-139225000D01*
X111486928Y-139225000D01*
X111490000Y-139814250D01*
X111648750Y-139973000D01*
X112873000Y-139973000D01*
X112873000Y-139953000D01*
X113127000Y-139953000D01*
X113127000Y-139973000D01*
X114351250Y-139973000D01*
X114510000Y-139814250D01*
X114511100Y-139603128D01*
X145235000Y-139603128D01*
X145235000Y-140076872D01*
X145327423Y-140541513D01*
X145508716Y-140979195D01*
X145771914Y-141373098D01*
X146106902Y-141708086D01*
X146500805Y-141971284D01*
X146938487Y-142152577D01*
X147403128Y-142245000D01*
X147876872Y-142245000D01*
X148341513Y-142152577D01*
X148779195Y-141971284D01*
X149173098Y-141708086D01*
X149508086Y-141373098D01*
X149771284Y-140979195D01*
X149952577Y-140541513D01*
X150045000Y-140076872D01*
X150045000Y-139603128D01*
X149952577Y-139138487D01*
X149771284Y-138700805D01*
X149508086Y-138306902D01*
X149173098Y-137971914D01*
X148779195Y-137708716D01*
X148341513Y-137527423D01*
X147876872Y-137435000D01*
X147403128Y-137435000D01*
X146938487Y-137527423D01*
X146500805Y-137708716D01*
X146106902Y-137971914D01*
X145771914Y-138306902D01*
X145508716Y-138700805D01*
X145327423Y-139138487D01*
X145235000Y-139603128D01*
X114511100Y-139603128D01*
X114513072Y-139225000D01*
X114500812Y-139100518D01*
X114464502Y-138980820D01*
X114405537Y-138870506D01*
X114326185Y-138773815D01*
X114229494Y-138694463D01*
X114119180Y-138635498D01*
X114104436Y-138631026D01*
X114172893Y-138562569D01*
X114338144Y-138315253D01*
X114451971Y-138040451D01*
X114510000Y-137748722D01*
X114510000Y-137451278D01*
X114451971Y-137159549D01*
X114338144Y-136884747D01*
X114172893Y-136637431D01*
X113962569Y-136427107D01*
X113715253Y-136261856D01*
X113440451Y-136148029D01*
X113148722Y-136090000D01*
X112851278Y-136090000D01*
X112559549Y-136148029D01*
X112284747Y-136261856D01*
X112037431Y-136427107D01*
X111827107Y-136637431D01*
X111661856Y-136884747D01*
X111548029Y-137159549D01*
X111490000Y-137451278D01*
X111490000Y-137748722D01*
X111548029Y-138040451D01*
X111661856Y-138315253D01*
X111827107Y-138562569D01*
X111895564Y-138631026D01*
X111880820Y-138635498D01*
X111770506Y-138694463D01*
X111673815Y-138773815D01*
X111594463Y-138870506D01*
X111535498Y-138980820D01*
X111499188Y-139100518D01*
X111486928Y-139225000D01*
X110810000Y-139225000D01*
X110810000Y-127532912D01*
X125390001Y-127532912D01*
X125390001Y-127717090D01*
X125425933Y-127897730D01*
X125496415Y-128067890D01*
X125598739Y-128221029D01*
X125728973Y-128351263D01*
X125882112Y-128453587D01*
X126052272Y-128524069D01*
X126217487Y-128556933D01*
X130354746Y-132694193D01*
X130377762Y-132722238D01*
X130447664Y-132779605D01*
X130489680Y-132814087D01*
X130617366Y-132882337D01*
X130755915Y-132924365D01*
X130900000Y-132938556D01*
X130936105Y-132935000D01*
X147995554Y-132935000D01*
X153254746Y-138194193D01*
X153277762Y-138222238D01*
X153380925Y-138306902D01*
X153389680Y-138314087D01*
X153517366Y-138382337D01*
X153655915Y-138424365D01*
X153800000Y-138438556D01*
X153836105Y-138435000D01*
X172063895Y-138435000D01*
X172100000Y-138438556D01*
X172136105Y-138435000D01*
X172244085Y-138424365D01*
X172382633Y-138382337D01*
X172510320Y-138314087D01*
X172622238Y-138222238D01*
X172645259Y-138194187D01*
X176368470Y-134470976D01*
X179990000Y-134470976D01*
X179990000Y-134729024D01*
X180040342Y-134982113D01*
X180139093Y-135220518D01*
X180282456Y-135435077D01*
X180464923Y-135617544D01*
X180679482Y-135760907D01*
X180917887Y-135859658D01*
X181170976Y-135910000D01*
X181429024Y-135910000D01*
X181682113Y-135859658D01*
X181920518Y-135760907D01*
X182135077Y-135617544D01*
X182317544Y-135435077D01*
X182460907Y-135220518D01*
X182559658Y-134982113D01*
X182610000Y-134729024D01*
X182610000Y-134470976D01*
X182559658Y-134217887D01*
X182460907Y-133979482D01*
X182317544Y-133764923D01*
X182135077Y-133582456D01*
X182022809Y-133507441D01*
X182023795Y-133503400D01*
X181300000Y-132779605D01*
X180576205Y-133503400D01*
X180577191Y-133507441D01*
X180464923Y-133582456D01*
X180282456Y-133764923D01*
X180139093Y-133979482D01*
X180040342Y-134217887D01*
X179990000Y-134470976D01*
X176368470Y-134470976D01*
X178163981Y-132675465D01*
X179985826Y-132675465D01*
X180025800Y-132930398D01*
X180114741Y-133172633D01*
X180165379Y-133267370D01*
X180396600Y-133323795D01*
X181120395Y-132600000D01*
X181479605Y-132600000D01*
X182203400Y-133323795D01*
X182434621Y-133267370D01*
X182543017Y-133033192D01*
X182603645Y-132782367D01*
X182614174Y-132524535D01*
X182574200Y-132269602D01*
X182485259Y-132027367D01*
X182434621Y-131932630D01*
X182203400Y-131876205D01*
X181479605Y-132600000D01*
X181120395Y-132600000D01*
X180396600Y-131876205D01*
X180165379Y-131932630D01*
X180056983Y-132166808D01*
X179996355Y-132417633D01*
X179985826Y-132675465D01*
X178163981Y-132675465D01*
X179142846Y-131696600D01*
X180576205Y-131696600D01*
X181300000Y-132420395D01*
X182023795Y-131696600D01*
X181967370Y-131465379D01*
X181733192Y-131356983D01*
X181482367Y-131296355D01*
X181224535Y-131285826D01*
X180969602Y-131325800D01*
X180727367Y-131414741D01*
X180632630Y-131465379D01*
X180576205Y-131696600D01*
X179142846Y-131696600D01*
X180604447Y-130235000D01*
X182363895Y-130235000D01*
X182400000Y-130238556D01*
X182436105Y-130235000D01*
X182544085Y-130224365D01*
X182682633Y-130182337D01*
X182810320Y-130114087D01*
X182922238Y-130022238D01*
X182945258Y-129994188D01*
X184894194Y-128045253D01*
X184922238Y-128022238D01*
X185014087Y-127910320D01*
X185082337Y-127782633D01*
X185124365Y-127644085D01*
X185135000Y-127536105D01*
X185135000Y-127536098D01*
X185138555Y-127500001D01*
X185135000Y-127463904D01*
X185135000Y-127407911D01*
X190765000Y-127407911D01*
X190765000Y-127592089D01*
X190800932Y-127772729D01*
X190871414Y-127942889D01*
X190973738Y-128096028D01*
X191103972Y-128226262D01*
X191257111Y-128328586D01*
X191427271Y-128399068D01*
X191607911Y-128435000D01*
X191792089Y-128435000D01*
X191972729Y-128399068D01*
X192142889Y-128328586D01*
X192282951Y-128235000D01*
X193663895Y-128235000D01*
X193700000Y-128238556D01*
X193736105Y-128235000D01*
X193844085Y-128224365D01*
X193982633Y-128182337D01*
X194110320Y-128114087D01*
X194222238Y-128022238D01*
X194245258Y-127994188D01*
X194907515Y-127331932D01*
X195072729Y-127299068D01*
X195242889Y-127228586D01*
X195396028Y-127126262D01*
X195526262Y-126996028D01*
X195628586Y-126842889D01*
X195699068Y-126672729D01*
X195735000Y-126492089D01*
X195735000Y-126307911D01*
X195699068Y-126127271D01*
X195628586Y-125957111D01*
X195526262Y-125803972D01*
X195396028Y-125673738D01*
X195242889Y-125571414D01*
X195072729Y-125500932D01*
X194892089Y-125465000D01*
X194707911Y-125465000D01*
X194527271Y-125500932D01*
X194357111Y-125571414D01*
X194203972Y-125673738D01*
X194073738Y-125803972D01*
X193971414Y-125957111D01*
X193900932Y-126127271D01*
X193868068Y-126292485D01*
X193395554Y-126765000D01*
X192282951Y-126765000D01*
X192142889Y-126671414D01*
X191972729Y-126600932D01*
X191792089Y-126565000D01*
X191607911Y-126565000D01*
X191427271Y-126600932D01*
X191257111Y-126671414D01*
X191103972Y-126773738D01*
X190973738Y-126903972D01*
X190871414Y-127057111D01*
X190800932Y-127227271D01*
X190765000Y-127407911D01*
X185135000Y-127407911D01*
X185135000Y-126004446D01*
X186904447Y-124235000D01*
X189063895Y-124235000D01*
X189100000Y-124238556D01*
X189136105Y-124235000D01*
X189244085Y-124224365D01*
X189382633Y-124182337D01*
X189510320Y-124114087D01*
X189622238Y-124022238D01*
X189645258Y-123994188D01*
X190207515Y-123431932D01*
X190372729Y-123399068D01*
X190542889Y-123328586D01*
X190696028Y-123226262D01*
X190826262Y-123096028D01*
X190928586Y-122942889D01*
X190999068Y-122772729D01*
X191035000Y-122592089D01*
X191035000Y-122407911D01*
X190999068Y-122227271D01*
X190928586Y-122057111D01*
X190826262Y-121903972D01*
X190696028Y-121773738D01*
X190542889Y-121671414D01*
X190372729Y-121600932D01*
X190192089Y-121565000D01*
X190007911Y-121565000D01*
X189827271Y-121600932D01*
X189657111Y-121671414D01*
X189503972Y-121773738D01*
X189373738Y-121903972D01*
X189271414Y-122057111D01*
X189200932Y-122227271D01*
X189168068Y-122392485D01*
X188795554Y-122765000D01*
X186636105Y-122765000D01*
X186600000Y-122761444D01*
X186563895Y-122765000D01*
X186455915Y-122775635D01*
X186317367Y-122817663D01*
X186189680Y-122885913D01*
X186077762Y-122977762D01*
X186054746Y-123005807D01*
X183905808Y-125154746D01*
X183877762Y-125177763D01*
X183785913Y-125289681D01*
X183717663Y-125417368D01*
X183708823Y-125446511D01*
X183675635Y-125555915D01*
X183661444Y-125700000D01*
X183665000Y-125736105D01*
X183665001Y-127195552D01*
X182095554Y-128765000D01*
X180336094Y-128765000D01*
X180299999Y-128761445D01*
X180263904Y-128765000D01*
X180263895Y-128765000D01*
X180155915Y-128775635D01*
X180017367Y-128817663D01*
X179889680Y-128885913D01*
X179777762Y-128977762D01*
X179754746Y-129005807D01*
X171795554Y-136965000D01*
X154104447Y-136965000D01*
X150847358Y-133707911D01*
X169365000Y-133707911D01*
X169365000Y-133892089D01*
X169400932Y-134072729D01*
X169471414Y-134242889D01*
X169573738Y-134396028D01*
X169703972Y-134526262D01*
X169857111Y-134628586D01*
X170027271Y-134699068D01*
X170207911Y-134735000D01*
X170392089Y-134735000D01*
X170572729Y-134699068D01*
X170742889Y-134628586D01*
X170896028Y-134526262D01*
X171026262Y-134396028D01*
X171128586Y-134242889D01*
X171199068Y-134072729D01*
X171231932Y-133907515D01*
X172347545Y-132791902D01*
X172356051Y-132791902D01*
X172536691Y-132755970D01*
X172706851Y-132685488D01*
X172859990Y-132583164D01*
X172990224Y-132452930D01*
X173092548Y-132299791D01*
X173163030Y-132129631D01*
X173198962Y-131948991D01*
X173198962Y-131764813D01*
X173163030Y-131584173D01*
X173092548Y-131414013D01*
X172990224Y-131260874D01*
X172859990Y-131130640D01*
X172706851Y-131028316D01*
X172536691Y-130957834D01*
X172356051Y-130921902D01*
X172171873Y-130921902D01*
X171991233Y-130957834D01*
X171821073Y-131028316D01*
X171667934Y-131130640D01*
X171537700Y-131260874D01*
X171435376Y-131414013D01*
X171364894Y-131584173D01*
X171337211Y-131723342D01*
X170192485Y-132868068D01*
X170027271Y-132900932D01*
X169857111Y-132971414D01*
X169703972Y-133073738D01*
X169573738Y-133203972D01*
X169471414Y-133357111D01*
X169400932Y-133527271D01*
X169365000Y-133707911D01*
X150847358Y-133707911D01*
X148845259Y-131705813D01*
X148822238Y-131677762D01*
X148710320Y-131585913D01*
X148582633Y-131517663D01*
X148444085Y-131475635D01*
X148336105Y-131465000D01*
X148300000Y-131461444D01*
X148263895Y-131465000D01*
X131204447Y-131465000D01*
X128847358Y-129107911D01*
X163165000Y-129107911D01*
X163165000Y-129292089D01*
X163200932Y-129472729D01*
X163271414Y-129642889D01*
X163373738Y-129796028D01*
X163503972Y-129926262D01*
X163657111Y-130028586D01*
X163827271Y-130099068D01*
X164007911Y-130135000D01*
X164192089Y-130135000D01*
X164352356Y-130103120D01*
X164300932Y-130227271D01*
X164265000Y-130407911D01*
X164265000Y-130592089D01*
X164300932Y-130772729D01*
X164371414Y-130942889D01*
X164473738Y-131096028D01*
X164603972Y-131226262D01*
X164757111Y-131328586D01*
X164927271Y-131399068D01*
X165107911Y-131435000D01*
X165292089Y-131435000D01*
X165472729Y-131399068D01*
X165642889Y-131328586D01*
X165796028Y-131226262D01*
X165926262Y-131096028D01*
X166028586Y-130942889D01*
X166099068Y-130772729D01*
X166131932Y-130607515D01*
X167230410Y-129509037D01*
X167199333Y-129565789D01*
X167152953Y-129713302D01*
X167136241Y-129867027D01*
X167149842Y-130021059D01*
X167193231Y-130169479D01*
X167264741Y-130306582D01*
X167273601Y-130319839D01*
X167463522Y-130303951D01*
X167481219Y-130286254D01*
X167490735Y-130400000D01*
X167481219Y-130513746D01*
X167463522Y-130496049D01*
X167273601Y-130480161D01*
X167199333Y-130615789D01*
X167152953Y-130763302D01*
X167136241Y-130917027D01*
X167149842Y-131071059D01*
X167193231Y-131219479D01*
X167264741Y-131356582D01*
X167273601Y-131369839D01*
X167463522Y-131353951D01*
X167892473Y-130925000D01*
X167510467Y-130542994D01*
X167615789Y-130600667D01*
X167641176Y-130608649D01*
X167914998Y-130882471D01*
X167911241Y-130917027D01*
X167915643Y-130966884D01*
X167496049Y-131386478D01*
X167480161Y-131576399D01*
X167615789Y-131650667D01*
X167763302Y-131697047D01*
X167915351Y-131713577D01*
X167924842Y-131821059D01*
X167968231Y-131969479D01*
X168039741Y-132106582D01*
X168048601Y-132119839D01*
X168238522Y-132103951D01*
X168634922Y-131707551D01*
X168692027Y-131713759D01*
X168693937Y-131713590D01*
X168271049Y-132136478D01*
X168255161Y-132326399D01*
X168390789Y-132400667D01*
X168538302Y-132447047D01*
X168692027Y-132463759D01*
X168846059Y-132450158D01*
X168994479Y-132406769D01*
X169131582Y-132335259D01*
X169144839Y-132326399D01*
X169128951Y-132136478D01*
X168705079Y-131712606D01*
X168764855Y-131707328D01*
X169161478Y-132103951D01*
X169351399Y-132119839D01*
X169425667Y-131984211D01*
X169472047Y-131836698D01*
X169485590Y-131712120D01*
X169621059Y-131700158D01*
X169769479Y-131656769D01*
X169906582Y-131585259D01*
X169919839Y-131576399D01*
X169903951Y-131386478D01*
X169485002Y-130967529D01*
X169488759Y-130932973D01*
X169484357Y-130883116D01*
X169757079Y-130610394D01*
X169769479Y-130606769D01*
X169887114Y-130545413D01*
X169507527Y-130925000D01*
X169936478Y-131353951D01*
X170126399Y-131369839D01*
X170200667Y-131234211D01*
X170247047Y-131086698D01*
X170263759Y-130932973D01*
X170250158Y-130778941D01*
X170206769Y-130630521D01*
X170135259Y-130493418D01*
X170126399Y-130480161D01*
X169936478Y-130496049D01*
X169918781Y-130513746D01*
X169909265Y-130400000D01*
X169918781Y-130286254D01*
X169936478Y-130303951D01*
X170126399Y-130319839D01*
X170200667Y-130184211D01*
X170247047Y-130036698D01*
X170263759Y-129882973D01*
X170257132Y-129807911D01*
X171265000Y-129807911D01*
X171265000Y-129992089D01*
X171300932Y-130172729D01*
X171371414Y-130342889D01*
X171473738Y-130496028D01*
X171603972Y-130626262D01*
X171757111Y-130728586D01*
X171927271Y-130799068D01*
X172107911Y-130835000D01*
X172292089Y-130835000D01*
X172472729Y-130799068D01*
X172642889Y-130728586D01*
X172796028Y-130626262D01*
X172926262Y-130496028D01*
X173028586Y-130342889D01*
X173099068Y-130172729D01*
X173131932Y-130007515D01*
X174594197Y-128545250D01*
X174622237Y-128522238D01*
X174645250Y-128494197D01*
X174645253Y-128494194D01*
X174714087Y-128410320D01*
X174720101Y-128399068D01*
X174782337Y-128282633D01*
X174824365Y-128144085D01*
X174835000Y-128036105D01*
X174835000Y-128036104D01*
X174838556Y-128000000D01*
X174835000Y-127963895D01*
X174835000Y-127382951D01*
X174928586Y-127242889D01*
X174976009Y-127128397D01*
X180451208Y-127128397D01*
X180528843Y-127377472D01*
X180792883Y-127503371D01*
X181076411Y-127575339D01*
X181368531Y-127590611D01*
X181658019Y-127548599D01*
X181933747Y-127450919D01*
X182071157Y-127377472D01*
X182148792Y-127128397D01*
X181300000Y-126279605D01*
X180451208Y-127128397D01*
X174976009Y-127128397D01*
X174999068Y-127072729D01*
X175035000Y-126892089D01*
X175035000Y-126707911D01*
X174999068Y-126527271D01*
X174928586Y-126357111D01*
X174826262Y-126203972D01*
X174790821Y-126168531D01*
X179809389Y-126168531D01*
X179851401Y-126458019D01*
X179949081Y-126733747D01*
X180022528Y-126871157D01*
X180271603Y-126948792D01*
X181120395Y-126100000D01*
X181479605Y-126100000D01*
X182328397Y-126948792D01*
X182577472Y-126871157D01*
X182703371Y-126607117D01*
X182775339Y-126323589D01*
X182790611Y-126031469D01*
X182748599Y-125741981D01*
X182650919Y-125466253D01*
X182577472Y-125328843D01*
X182328397Y-125251208D01*
X181479605Y-126100000D01*
X181120395Y-126100000D01*
X180271603Y-125251208D01*
X180022528Y-125328843D01*
X179896629Y-125592883D01*
X179824661Y-125876411D01*
X179809389Y-126168531D01*
X174790821Y-126168531D01*
X174696028Y-126073738D01*
X174542889Y-125971414D01*
X174372729Y-125900932D01*
X174192089Y-125865000D01*
X174007911Y-125865000D01*
X173827271Y-125900932D01*
X173657111Y-125971414D01*
X173503972Y-126073738D01*
X173373738Y-126203972D01*
X173271414Y-126357111D01*
X173200932Y-126527271D01*
X173165000Y-126707911D01*
X173165000Y-126892089D01*
X173200932Y-127072729D01*
X173271414Y-127242889D01*
X173365001Y-127382951D01*
X173365000Y-127695553D01*
X172092485Y-128968068D01*
X171927271Y-129000932D01*
X171757111Y-129071414D01*
X171603972Y-129173738D01*
X171473738Y-129303972D01*
X171371414Y-129457111D01*
X171300932Y-129627271D01*
X171265000Y-129807911D01*
X170257132Y-129807911D01*
X170250158Y-129728941D01*
X170206769Y-129580521D01*
X170135259Y-129443418D01*
X170126399Y-129430161D01*
X169936478Y-129446049D01*
X169507527Y-129875000D01*
X169889533Y-130257006D01*
X169784211Y-130199333D01*
X169758824Y-130191351D01*
X169485002Y-129917529D01*
X169488759Y-129882973D01*
X169484357Y-129833116D01*
X169903951Y-129413522D01*
X169919839Y-129223601D01*
X169784211Y-129149333D01*
X169636698Y-129102953D01*
X169484649Y-129086423D01*
X169475158Y-128978941D01*
X169431769Y-128830521D01*
X169360259Y-128693418D01*
X169351399Y-128680161D01*
X169161478Y-128696049D01*
X168765078Y-129092449D01*
X168707973Y-129086241D01*
X168706063Y-129086410D01*
X169128951Y-128663522D01*
X169144839Y-128473601D01*
X169074348Y-128435001D01*
X169568147Y-128435001D01*
X169571414Y-128442889D01*
X169673738Y-128596028D01*
X169803972Y-128726262D01*
X169957111Y-128828586D01*
X170127271Y-128899068D01*
X170307911Y-128935000D01*
X170492089Y-128935000D01*
X170672729Y-128899068D01*
X170842889Y-128828586D01*
X170996028Y-128726262D01*
X171126262Y-128596028D01*
X171228586Y-128442889D01*
X171299068Y-128272729D01*
X171335000Y-128092089D01*
X171335000Y-127907911D01*
X171299068Y-127727271D01*
X171228586Y-127557111D01*
X171126262Y-127403972D01*
X170996028Y-127273738D01*
X170842889Y-127171414D01*
X170672729Y-127100932D01*
X170492089Y-127065000D01*
X170471194Y-127065000D01*
X170382634Y-127017664D01*
X170244086Y-126975636D01*
X170136106Y-126965001D01*
X170100001Y-126961445D01*
X170063896Y-126965001D01*
X168036104Y-126965001D01*
X167999999Y-126961445D01*
X167855914Y-126975636D01*
X167717365Y-127017664D01*
X167614346Y-127072729D01*
X167589679Y-127085914D01*
X167488662Y-127168816D01*
X167342889Y-127071414D01*
X167172729Y-127000932D01*
X166992089Y-126965000D01*
X166807911Y-126965000D01*
X166627271Y-127000932D01*
X166457111Y-127071414D01*
X166317049Y-127165000D01*
X165436105Y-127165000D01*
X165400000Y-127161444D01*
X165255915Y-127175635D01*
X165117366Y-127217663D01*
X165096931Y-127228586D01*
X164989680Y-127285913D01*
X164877762Y-127377762D01*
X164854746Y-127405807D01*
X163992485Y-128268068D01*
X163827271Y-128300932D01*
X163657111Y-128371414D01*
X163503972Y-128473738D01*
X163373738Y-128603972D01*
X163271414Y-128757111D01*
X163200932Y-128927271D01*
X163165000Y-129107911D01*
X128847358Y-129107911D01*
X127256933Y-127517487D01*
X127224069Y-127352272D01*
X127153587Y-127182112D01*
X127117696Y-127128397D01*
X159351208Y-127128397D01*
X159428843Y-127377472D01*
X159692883Y-127503371D01*
X159976411Y-127575339D01*
X160268531Y-127590611D01*
X160558019Y-127548599D01*
X160833747Y-127450919D01*
X160971157Y-127377472D01*
X161048792Y-127128397D01*
X160200000Y-126279605D01*
X159351208Y-127128397D01*
X127117696Y-127128397D01*
X127051263Y-127028973D01*
X126921029Y-126898739D01*
X126767890Y-126796415D01*
X126597730Y-126725933D01*
X126417090Y-126690001D01*
X126232912Y-126690001D01*
X126052272Y-126725933D01*
X125882112Y-126796415D01*
X125728973Y-126898739D01*
X125598739Y-127028973D01*
X125496415Y-127182112D01*
X125425933Y-127352272D01*
X125390001Y-127532912D01*
X110810000Y-127532912D01*
X110810000Y-126168531D01*
X158709389Y-126168531D01*
X158751401Y-126458019D01*
X158849081Y-126733747D01*
X158922528Y-126871157D01*
X159171603Y-126948792D01*
X160020395Y-126100000D01*
X160379605Y-126100000D01*
X161228397Y-126948792D01*
X161477472Y-126871157D01*
X161603371Y-126607117D01*
X161675339Y-126323589D01*
X161690611Y-126031469D01*
X161648599Y-125741981D01*
X161550919Y-125466253D01*
X161477472Y-125328843D01*
X161228397Y-125251208D01*
X160379605Y-126100000D01*
X160020395Y-126100000D01*
X159171603Y-125251208D01*
X158922528Y-125328843D01*
X158796629Y-125592883D01*
X158724661Y-125876411D01*
X158709389Y-126168531D01*
X110810000Y-126168531D01*
X110810000Y-123107911D01*
X121865000Y-123107911D01*
X121865000Y-123292089D01*
X121900932Y-123472729D01*
X121971414Y-123642889D01*
X122073738Y-123796028D01*
X122203972Y-123926262D01*
X122357111Y-124028586D01*
X122527271Y-124099068D01*
X122707911Y-124135000D01*
X122892089Y-124135000D01*
X123072729Y-124099068D01*
X123242889Y-124028586D01*
X123396028Y-123926262D01*
X123526262Y-123796028D01*
X123628586Y-123642889D01*
X123692655Y-123488213D01*
X125045869Y-122134999D01*
X151079503Y-122134999D01*
X151065000Y-122207911D01*
X151065000Y-122392089D01*
X151100932Y-122572729D01*
X151171414Y-122742889D01*
X151273738Y-122896028D01*
X151403972Y-123026262D01*
X151557111Y-123128586D01*
X151727271Y-123199068D01*
X151892485Y-123231932D01*
X152714746Y-124054193D01*
X152737762Y-124082238D01*
X152849680Y-124174087D01*
X152977367Y-124242337D01*
X153046839Y-124263411D01*
X153115914Y-124284365D01*
X153130132Y-124285765D01*
X153223895Y-124295000D01*
X153223902Y-124295000D01*
X153259999Y-124298555D01*
X153296096Y-124295000D01*
X158905117Y-124295000D01*
X159046525Y-124506632D01*
X159253368Y-124713475D01*
X159426729Y-124829311D01*
X159351208Y-125071603D01*
X160200000Y-125920395D01*
X161048792Y-125071603D01*
X160973271Y-124829311D01*
X161146632Y-124713475D01*
X161353475Y-124506632D01*
X161515990Y-124263411D01*
X161627932Y-123993158D01*
X161685000Y-123706260D01*
X161685000Y-123413740D01*
X161627932Y-123126842D01*
X161515990Y-122856589D01*
X161353475Y-122613368D01*
X161146632Y-122406525D01*
X160903411Y-122244010D01*
X160640234Y-122134999D01*
X180859766Y-122134999D01*
X180596589Y-122244010D01*
X180353368Y-122406525D01*
X180146525Y-122613368D01*
X179984010Y-122856589D01*
X179872068Y-123126842D01*
X179815000Y-123413740D01*
X179815000Y-123706260D01*
X179872068Y-123993158D01*
X179984010Y-124263411D01*
X180146525Y-124506632D01*
X180353368Y-124713475D01*
X180526729Y-124829311D01*
X180451208Y-125071603D01*
X181300000Y-125920395D01*
X182148792Y-125071603D01*
X182073271Y-124829311D01*
X182246632Y-124713475D01*
X182453475Y-124506632D01*
X182615990Y-124263411D01*
X182727932Y-123993158D01*
X182785000Y-123706260D01*
X182785000Y-123413740D01*
X182727932Y-123126842D01*
X182615990Y-122856589D01*
X182453475Y-122613368D01*
X182246632Y-122406525D01*
X182003411Y-122244010D01*
X181740234Y-122134999D01*
X182132960Y-122134999D01*
X182173738Y-122196028D01*
X182303972Y-122326262D01*
X182457111Y-122428586D01*
X182627271Y-122499068D01*
X182807911Y-122535000D01*
X182992089Y-122535000D01*
X183172729Y-122499068D01*
X183342889Y-122428586D01*
X183496028Y-122326262D01*
X183626262Y-122196028D01*
X183728586Y-122042889D01*
X183799068Y-121872729D01*
X183835000Y-121692089D01*
X183835000Y-121507911D01*
X183799068Y-121327271D01*
X183760848Y-121235000D01*
X192993224Y-121235000D01*
X196215748Y-124457524D01*
X196248611Y-124622738D01*
X196319093Y-124792898D01*
X196412679Y-124932960D01*
X196412680Y-126111564D01*
X196409123Y-126147679D01*
X196423314Y-126291764D01*
X196453017Y-126389680D01*
X196465343Y-126430312D01*
X196533593Y-126557999D01*
X196625442Y-126669917D01*
X196653487Y-126692933D01*
X200168069Y-130207515D01*
X200200932Y-130372729D01*
X200271414Y-130542889D01*
X200373738Y-130696028D01*
X200503972Y-130826262D01*
X200657111Y-130928586D01*
X200827271Y-130999068D01*
X201007911Y-131035000D01*
X201192089Y-131035000D01*
X201372729Y-130999068D01*
X201542889Y-130928586D01*
X201696028Y-130826262D01*
X201826262Y-130696028D01*
X201928586Y-130542889D01*
X201999068Y-130372729D01*
X202035000Y-130192089D01*
X202035000Y-130007911D01*
X201999068Y-129827271D01*
X201928586Y-129657111D01*
X201826262Y-129503972D01*
X201696028Y-129373738D01*
X201542889Y-129271414D01*
X201372729Y-129200932D01*
X201207515Y-129168069D01*
X197882679Y-125843233D01*
X197882679Y-124932960D01*
X197976265Y-124792898D01*
X198046747Y-124622738D01*
X198082679Y-124442098D01*
X198082679Y-124300000D01*
X205309025Y-124300000D01*
X205332870Y-124542102D01*
X205403489Y-124774901D01*
X205518167Y-124989449D01*
X205672498Y-125177502D01*
X205821762Y-125300000D01*
X205672498Y-125422498D01*
X205518167Y-125610551D01*
X205403489Y-125825099D01*
X205332870Y-126057898D01*
X205309025Y-126300000D01*
X205332870Y-126542102D01*
X205403489Y-126774901D01*
X205518167Y-126989449D01*
X205672498Y-127177502D01*
X205821762Y-127300000D01*
X205672498Y-127422498D01*
X205518167Y-127610551D01*
X205403489Y-127825099D01*
X205332870Y-128057898D01*
X205309025Y-128300000D01*
X205332870Y-128542102D01*
X205403489Y-128774901D01*
X205518167Y-128989449D01*
X205672498Y-129177502D01*
X205821762Y-129300000D01*
X205672498Y-129422498D01*
X205518167Y-129610551D01*
X205403489Y-129825099D01*
X205332870Y-130057898D01*
X205309025Y-130300000D01*
X205332870Y-130542102D01*
X205403489Y-130774901D01*
X205518167Y-130989449D01*
X205644436Y-131143309D01*
X205595506Y-131169463D01*
X205498815Y-131248815D01*
X205419463Y-131345506D01*
X205360498Y-131455820D01*
X205324188Y-131575518D01*
X205311928Y-131700000D01*
X205315000Y-132014250D01*
X205473750Y-132173000D01*
X206673000Y-132173000D01*
X206673000Y-132153000D01*
X206927000Y-132153000D01*
X206927000Y-132173000D01*
X208126250Y-132173000D01*
X208285000Y-132014250D01*
X208288072Y-131700000D01*
X208275812Y-131575518D01*
X208239502Y-131455820D01*
X208180537Y-131345506D01*
X208101185Y-131248815D01*
X208004494Y-131169463D01*
X207955564Y-131143309D01*
X208081833Y-130989449D01*
X208196511Y-130774901D01*
X208267130Y-130542102D01*
X208290975Y-130300000D01*
X208267130Y-130057898D01*
X208196511Y-129825099D01*
X208081833Y-129610551D01*
X207927502Y-129422498D01*
X207778238Y-129300000D01*
X207927502Y-129177502D01*
X208081833Y-128989449D01*
X208196511Y-128774901D01*
X208267130Y-128542102D01*
X208290975Y-128300000D01*
X208267130Y-128057898D01*
X208196511Y-127825099D01*
X208081833Y-127610551D01*
X207927502Y-127422498D01*
X207778238Y-127300000D01*
X207927502Y-127177502D01*
X208081833Y-126989449D01*
X208196511Y-126774901D01*
X208267130Y-126542102D01*
X208290975Y-126300000D01*
X208267130Y-126057898D01*
X208196511Y-125825099D01*
X208081833Y-125610551D01*
X207927502Y-125422498D01*
X207778238Y-125300000D01*
X207927502Y-125177502D01*
X208081833Y-124989449D01*
X208196511Y-124774901D01*
X208267130Y-124542102D01*
X208290975Y-124300000D01*
X208267130Y-124057898D01*
X208196511Y-123825099D01*
X208081833Y-123610551D01*
X207927502Y-123422498D01*
X207739449Y-123268167D01*
X207524901Y-123153489D01*
X207292102Y-123082870D01*
X207110665Y-123065000D01*
X206489335Y-123065000D01*
X206307898Y-123082870D01*
X206075099Y-123153489D01*
X205860551Y-123268167D01*
X205672498Y-123422498D01*
X205518167Y-123610551D01*
X205403489Y-123825099D01*
X205332870Y-124057898D01*
X205309025Y-124300000D01*
X198082679Y-124300000D01*
X198082679Y-124257920D01*
X198046747Y-124077280D01*
X197976265Y-123907120D01*
X197873941Y-123753981D01*
X197743707Y-123623747D01*
X197590568Y-123521423D01*
X197420408Y-123450941D01*
X197255194Y-123418078D01*
X193842929Y-120005813D01*
X193819908Y-119977762D01*
X193707990Y-119885913D01*
X193580303Y-119817663D01*
X193441755Y-119775635D01*
X193333775Y-119765000D01*
X193297670Y-119761444D01*
X193261565Y-119765000D01*
X146982951Y-119765000D01*
X146842889Y-119671414D01*
X146672729Y-119600932D01*
X146492089Y-119565000D01*
X146307911Y-119565000D01*
X146127271Y-119600932D01*
X145957111Y-119671414D01*
X145803972Y-119773738D01*
X145673738Y-119903972D01*
X145571414Y-120057111D01*
X145500932Y-120227271D01*
X145465000Y-120407911D01*
X145465000Y-120464999D01*
X124741019Y-120464999D01*
X124700000Y-120460959D01*
X124658982Y-120464999D01*
X124536312Y-120477081D01*
X124378914Y-120524827D01*
X124233855Y-120602363D01*
X124106710Y-120706708D01*
X124080560Y-120738572D01*
X122511787Y-122307345D01*
X122357111Y-122371414D01*
X122203972Y-122473738D01*
X122073738Y-122603972D01*
X121971414Y-122757111D01*
X121900932Y-122927271D01*
X121865000Y-123107911D01*
X110810000Y-123107911D01*
X110810000Y-113507911D01*
X194965000Y-113507911D01*
X194965000Y-113692089D01*
X195000932Y-113872729D01*
X195071414Y-114042889D01*
X195173738Y-114196028D01*
X195303972Y-114326262D01*
X195457111Y-114428586D01*
X195627271Y-114499068D01*
X195807911Y-114535000D01*
X195992089Y-114535000D01*
X196172729Y-114499068D01*
X196342889Y-114428586D01*
X196496028Y-114326262D01*
X196626262Y-114196028D01*
X196728586Y-114042889D01*
X196799068Y-113872729D01*
X196831932Y-113707514D01*
X200164990Y-110374457D01*
X200164990Y-111595563D01*
X196492486Y-115268068D01*
X196327271Y-115300932D01*
X196157111Y-115371414D01*
X196003972Y-115473738D01*
X195873738Y-115603972D01*
X195771414Y-115757111D01*
X195700932Y-115927271D01*
X195665000Y-116107911D01*
X195665000Y-116292089D01*
X195700932Y-116472729D01*
X195771414Y-116642889D01*
X195873738Y-116796028D01*
X196003972Y-116926262D01*
X196157111Y-117028586D01*
X196327271Y-117099068D01*
X196507911Y-117135000D01*
X196692089Y-117135000D01*
X196872729Y-117099068D01*
X197042889Y-117028586D01*
X197196028Y-116926262D01*
X197326262Y-116796028D01*
X197428586Y-116642889D01*
X197499068Y-116472729D01*
X197531932Y-116307514D01*
X201394187Y-112445260D01*
X201422227Y-112422248D01*
X201445240Y-112394207D01*
X201445243Y-112394204D01*
X201514076Y-112310331D01*
X201514077Y-112310330D01*
X201582327Y-112182643D01*
X201611606Y-112086124D01*
X201624355Y-112044096D01*
X201625755Y-112029878D01*
X201634990Y-111936115D01*
X201634990Y-111936108D01*
X201638545Y-111900011D01*
X201634990Y-111863914D01*
X201634990Y-110126466D01*
X201772729Y-110099068D01*
X201942889Y-110028586D01*
X202096028Y-109926262D01*
X202226262Y-109796028D01*
X202328586Y-109642889D01*
X202399068Y-109472729D01*
X202435000Y-109292089D01*
X202435000Y-109107911D01*
X202399068Y-108927271D01*
X202328586Y-108757111D01*
X202226262Y-108603972D01*
X202134999Y-108512709D01*
X202134999Y-107435000D01*
X202192089Y-107435000D01*
X202372729Y-107399068D01*
X202542889Y-107328586D01*
X202682951Y-107235000D01*
X202995554Y-107235000D01*
X204743396Y-108982842D01*
X204690000Y-109251278D01*
X204690000Y-109548722D01*
X204748029Y-109840451D01*
X204861856Y-110115253D01*
X205027107Y-110362569D01*
X205237431Y-110572893D01*
X205352830Y-110650000D01*
X205237431Y-110727107D01*
X205027107Y-110937431D01*
X204861856Y-111184747D01*
X204748029Y-111459549D01*
X204690000Y-111751278D01*
X204690000Y-112048722D01*
X204748029Y-112340451D01*
X204861856Y-112615253D01*
X205027107Y-112862569D01*
X205237431Y-113072893D01*
X205352830Y-113150000D01*
X205237431Y-113227107D01*
X205027107Y-113437431D01*
X204861856Y-113684747D01*
X204748029Y-113959549D01*
X204690000Y-114251278D01*
X204690000Y-114548722D01*
X204748029Y-114840451D01*
X204861856Y-115115253D01*
X205027107Y-115362569D01*
X205095564Y-115431026D01*
X205080820Y-115435498D01*
X204970506Y-115494463D01*
X204873815Y-115573815D01*
X204794463Y-115670506D01*
X204735498Y-115780820D01*
X204699188Y-115900518D01*
X204686928Y-116025000D01*
X204686928Y-117775000D01*
X204699188Y-117899482D01*
X204735498Y-118019180D01*
X204794463Y-118129494D01*
X204873815Y-118226185D01*
X204970506Y-118305537D01*
X205080820Y-118364502D01*
X205200518Y-118400812D01*
X205325000Y-118413072D01*
X207075000Y-118413072D01*
X207199482Y-118400812D01*
X207319180Y-118364502D01*
X207429494Y-118305537D01*
X207526185Y-118226185D01*
X207605537Y-118129494D01*
X207664502Y-118019180D01*
X207700812Y-117899482D01*
X207713072Y-117775000D01*
X207713072Y-116025000D01*
X207700812Y-115900518D01*
X207664502Y-115780820D01*
X207605537Y-115670506D01*
X207526185Y-115573815D01*
X207429494Y-115494463D01*
X207319180Y-115435498D01*
X207304436Y-115431026D01*
X207372893Y-115362569D01*
X207538144Y-115115253D01*
X207651971Y-114840451D01*
X207710000Y-114548722D01*
X207710000Y-114251278D01*
X207651971Y-113959549D01*
X207538144Y-113684747D01*
X207372893Y-113437431D01*
X207162569Y-113227107D01*
X207047170Y-113150000D01*
X207162569Y-113072893D01*
X207372893Y-112862569D01*
X207538144Y-112615253D01*
X207651971Y-112340451D01*
X207710000Y-112048722D01*
X207710000Y-111751278D01*
X207651971Y-111459549D01*
X207538144Y-111184747D01*
X207372893Y-110937431D01*
X207162569Y-110727107D01*
X207047170Y-110650000D01*
X207162569Y-110572893D01*
X207372893Y-110362569D01*
X207538144Y-110115253D01*
X207651971Y-109840451D01*
X207710000Y-109548722D01*
X207710000Y-109251278D01*
X207651971Y-108959549D01*
X207538144Y-108684747D01*
X207372893Y-108437431D01*
X207162569Y-108227107D01*
X206915253Y-108061856D01*
X206640451Y-107948029D01*
X206348722Y-107890000D01*
X206051278Y-107890000D01*
X205782842Y-107943396D01*
X203845259Y-106005813D01*
X203822238Y-105977762D01*
X203710320Y-105885913D01*
X203582633Y-105817663D01*
X203444085Y-105775635D01*
X203336105Y-105765000D01*
X203300000Y-105761444D01*
X203263895Y-105765000D01*
X202682951Y-105765000D01*
X202542889Y-105671414D01*
X202470971Y-105641625D01*
X202470971Y-104641819D01*
X202471414Y-104642889D01*
X202573738Y-104796028D01*
X202703972Y-104926262D01*
X202857111Y-105028586D01*
X203027271Y-105099068D01*
X203207911Y-105135000D01*
X203392089Y-105135000D01*
X203572729Y-105099068D01*
X203742889Y-105028586D01*
X203896028Y-104926262D01*
X204026262Y-104796028D01*
X204128586Y-104642889D01*
X204199068Y-104472729D01*
X204235000Y-104292089D01*
X204235000Y-104107911D01*
X204199068Y-103927271D01*
X204128586Y-103757111D01*
X204035000Y-103617049D01*
X204035000Y-98236105D01*
X204038556Y-98200000D01*
X204024365Y-98055915D01*
X203982337Y-97917366D01*
X203914087Y-97789680D01*
X203845253Y-97705806D01*
X203845250Y-97705803D01*
X203822237Y-97677762D01*
X203794197Y-97654750D01*
X202931932Y-96792485D01*
X202899068Y-96627271D01*
X202828586Y-96457111D01*
X202726262Y-96303972D01*
X202596028Y-96173738D01*
X202442889Y-96071414D01*
X202272729Y-96000932D01*
X202092089Y-95965000D01*
X201907911Y-95965000D01*
X201727271Y-96000932D01*
X201557111Y-96071414D01*
X201403972Y-96173738D01*
X201273738Y-96303972D01*
X201171414Y-96457111D01*
X201100932Y-96627271D01*
X201065000Y-96807911D01*
X201065000Y-96992089D01*
X201100932Y-97172729D01*
X201171414Y-97342889D01*
X201273738Y-97496028D01*
X201403972Y-97626262D01*
X201557111Y-97728586D01*
X201727271Y-97799068D01*
X201892485Y-97831932D01*
X202279665Y-98219112D01*
X202178860Y-98151756D01*
X202008700Y-98081274D01*
X201828060Y-98045342D01*
X201643882Y-98045342D01*
X201463242Y-98081274D01*
X201293082Y-98151756D01*
X201139943Y-98254080D01*
X201009709Y-98384314D01*
X200907385Y-98537453D01*
X200836903Y-98707613D01*
X200800971Y-98888253D01*
X200800971Y-99072431D01*
X200836903Y-99253071D01*
X200907385Y-99423231D01*
X201000971Y-99563293D01*
X201000971Y-100802504D01*
X200946969Y-100802504D01*
X200766329Y-100838436D01*
X200596169Y-100908918D01*
X200536648Y-100948689D01*
X200432484Y-100905543D01*
X200251844Y-100869611D01*
X200067666Y-100869611D01*
X199887026Y-100905543D01*
X199716866Y-100976025D01*
X199563727Y-101078349D01*
X199433493Y-101208583D01*
X199331169Y-101361722D01*
X199260687Y-101531882D01*
X199227824Y-101697096D01*
X195682264Y-105242656D01*
X195654218Y-105265673D01*
X195562369Y-105377591D01*
X195494119Y-105505278D01*
X195473602Y-105572914D01*
X195452091Y-105643825D01*
X195448359Y-105681718D01*
X195347870Y-105832111D01*
X195277388Y-106002271D01*
X195241456Y-106182911D01*
X195241456Y-106367089D01*
X195277388Y-106547729D01*
X195347870Y-106717889D01*
X195450194Y-106871028D01*
X195580428Y-107001262D01*
X195733567Y-107103586D01*
X195903727Y-107174068D01*
X196084367Y-107210000D01*
X196268545Y-107210000D01*
X196449185Y-107174068D01*
X196619345Y-107103586D01*
X196772484Y-107001262D01*
X196902718Y-106871028D01*
X197005042Y-106717889D01*
X197075524Y-106547729D01*
X197111456Y-106367089D01*
X197111456Y-106182911D01*
X197075524Y-106002271D01*
X197053855Y-105949957D01*
X199564989Y-103438824D01*
X199564988Y-108895565D01*
X195792486Y-112668068D01*
X195627271Y-112700932D01*
X195457111Y-112771414D01*
X195303972Y-112873738D01*
X195173738Y-113003972D01*
X195071414Y-113157111D01*
X195000932Y-113327271D01*
X194965000Y-113507911D01*
X110810000Y-113507911D01*
X110810000Y-98613938D01*
X195295428Y-98613938D01*
X195295428Y-98798116D01*
X195331360Y-98978756D01*
X195401842Y-99148916D01*
X195504166Y-99302055D01*
X195634400Y-99432289D01*
X195787539Y-99534613D01*
X195957699Y-99605095D01*
X196138339Y-99641027D01*
X196322517Y-99641027D01*
X196503157Y-99605095D01*
X196673317Y-99534613D01*
X196813379Y-99441027D01*
X197970643Y-99441027D01*
X197971414Y-99442889D01*
X198073738Y-99596028D01*
X198203972Y-99726262D01*
X198357111Y-99828586D01*
X198527271Y-99899068D01*
X198707911Y-99935000D01*
X198892089Y-99935000D01*
X199072729Y-99899068D01*
X199242889Y-99828586D01*
X199396028Y-99726262D01*
X199526262Y-99596028D01*
X199628586Y-99442889D01*
X199699068Y-99272729D01*
X199735000Y-99092089D01*
X199735000Y-98907911D01*
X199699068Y-98727271D01*
X199628586Y-98557111D01*
X199526262Y-98403972D01*
X199396028Y-98273738D01*
X199242889Y-98171414D01*
X199072729Y-98100932D01*
X198892089Y-98065000D01*
X198865946Y-98065000D01*
X198788660Y-98023690D01*
X198650112Y-97981662D01*
X198542132Y-97971027D01*
X198506027Y-97967471D01*
X198469922Y-97971027D01*
X196813379Y-97971027D01*
X196673317Y-97877441D01*
X196503157Y-97806959D01*
X196322517Y-97771027D01*
X196138339Y-97771027D01*
X195957699Y-97806959D01*
X195787539Y-97877441D01*
X195634400Y-97979765D01*
X195504166Y-98109999D01*
X195401842Y-98263138D01*
X195331360Y-98433298D01*
X195295428Y-98613938D01*
X110810000Y-98613938D01*
X110810000Y-87726222D01*
X111955257Y-87726222D01*
X111955257Y-88143776D01*
X112036717Y-88553305D01*
X112196508Y-88939074D01*
X112428488Y-89286257D01*
X112723742Y-89581511D01*
X113070925Y-89813491D01*
X113456694Y-89973282D01*
X113866223Y-90054742D01*
X114283777Y-90054742D01*
X114693306Y-89973282D01*
X115079075Y-89813491D01*
X115426258Y-89581511D01*
X115721512Y-89286257D01*
X115953492Y-88939074D01*
X116113283Y-88553305D01*
X116194743Y-88143776D01*
X116194743Y-87726222D01*
X116113283Y-87316693D01*
X115953492Y-86930924D01*
X115721512Y-86583741D01*
X115426258Y-86288487D01*
X115079075Y-86056507D01*
X115003011Y-86025000D01*
X194386928Y-86025000D01*
X194386928Y-87375000D01*
X194399188Y-87499482D01*
X194435498Y-87619180D01*
X194494463Y-87729494D01*
X194573815Y-87826185D01*
X194660697Y-87897487D01*
X194539093Y-88079482D01*
X194440342Y-88317887D01*
X194390000Y-88570976D01*
X194390000Y-88829024D01*
X194440342Y-89082113D01*
X194539093Y-89320518D01*
X194682456Y-89535077D01*
X194864923Y-89717544D01*
X195079482Y-89860907D01*
X195317887Y-89959658D01*
X195570976Y-90010000D01*
X195829024Y-90010000D01*
X196082113Y-89959658D01*
X196320518Y-89860907D01*
X196535077Y-89717544D01*
X196717544Y-89535077D01*
X196860907Y-89320518D01*
X196959658Y-89082113D01*
X197010000Y-88829024D01*
X197010000Y-88570976D01*
X196959658Y-88317887D01*
X196860907Y-88079482D01*
X196739303Y-87897487D01*
X196826185Y-87826185D01*
X196905537Y-87729494D01*
X196907285Y-87726222D01*
X197955256Y-87726222D01*
X197955256Y-88143776D01*
X198036716Y-88553305D01*
X198196507Y-88939074D01*
X198428487Y-89286257D01*
X198723741Y-89581511D01*
X199070924Y-89813491D01*
X199456693Y-89973282D01*
X199866222Y-90054742D01*
X200283776Y-90054742D01*
X200693305Y-89973282D01*
X201079074Y-89813491D01*
X201426257Y-89581511D01*
X201721511Y-89286257D01*
X201953491Y-88939074D01*
X202113282Y-88553305D01*
X202194742Y-88143776D01*
X202194742Y-87726222D01*
X202113282Y-87316693D01*
X201953491Y-86930924D01*
X201721511Y-86583741D01*
X201426257Y-86288487D01*
X201079074Y-86056507D01*
X200693305Y-85896716D01*
X200283776Y-85815256D01*
X199866222Y-85815256D01*
X199456693Y-85896716D01*
X199070924Y-86056507D01*
X198723741Y-86288487D01*
X198428487Y-86583741D01*
X198196507Y-86930924D01*
X198036716Y-87316693D01*
X197955256Y-87726222D01*
X196907285Y-87726222D01*
X196964502Y-87619180D01*
X197000812Y-87499482D01*
X197013072Y-87375000D01*
X197013072Y-86025000D01*
X197000812Y-85900518D01*
X196964502Y-85780820D01*
X196905537Y-85670506D01*
X196826185Y-85573815D01*
X196729494Y-85494463D01*
X196619180Y-85435498D01*
X196499482Y-85399188D01*
X196375000Y-85386928D01*
X195025000Y-85386928D01*
X194900518Y-85399188D01*
X194780820Y-85435498D01*
X194670506Y-85494463D01*
X194573815Y-85573815D01*
X194494463Y-85670506D01*
X194435498Y-85780820D01*
X194399188Y-85900518D01*
X194386928Y-86025000D01*
X115003011Y-86025000D01*
X114693306Y-85896716D01*
X114283777Y-85815256D01*
X113866223Y-85815256D01*
X113456694Y-85896716D01*
X113070925Y-86056507D01*
X112723742Y-86288487D01*
X112428488Y-86583741D01*
X112196508Y-86930924D01*
X112036717Y-87316693D01*
X111955257Y-87726222D01*
X110810000Y-87726222D01*
X110810000Y-84670000D01*
X209340001Y-84670000D01*
X209340001Y-98959133D01*
G37*
G04 #@! TD.AperFunction*
D33*
X167914998Y-129832471D02*
X167911241Y-129867027D01*
X167915643Y-129916884D01*
X167642921Y-130189606D01*
X167630521Y-130193231D01*
X167512886Y-130254587D01*
X167892473Y-129875000D01*
X167804792Y-129787319D01*
X167837319Y-129754792D01*
X167914998Y-129832471D01*
G04 #@! TA.AperFunction,Conductor*
D34*
G36*
X167914998Y-129832471D02*
G01*
X167911241Y-129867027D01*
X167915643Y-129916884D01*
X167642921Y-130189606D01*
X167630521Y-130193231D01*
X167512886Y-130254587D01*
X167892473Y-129875000D01*
X167804792Y-129787319D01*
X167837319Y-129754792D01*
X167914998Y-129832471D01*
G37*
G04 #@! TD.AperFunction*
D33*
X168694921Y-129087394D02*
X168635145Y-129092672D01*
X168579792Y-129037319D01*
X168612319Y-129004792D01*
X168694921Y-129087394D01*
G04 #@! TA.AperFunction,Conductor*
D34*
G36*
X168694921Y-129087394D02*
G01*
X168635145Y-129092672D01*
X168579792Y-129037319D01*
X168612319Y-129004792D01*
X168694921Y-129087394D01*
G37*
G04 #@! TD.AperFunction*
M02*
