G04 #@! TF.GenerationSoftware,KiCad,Pcbnew,(5.1.8)-1*
G04 #@! TF.CreationDate,2020-12-30T11:10:38+09:00*
G04 #@! TF.ProjectId,JetsonXavierNX_UPS,4a657473-6f6e-4586-9176-6965724e585f,rev?*
G04 #@! TF.SameCoordinates,Original*
G04 #@! TF.FileFunction,Legend,Top*
G04 #@! TF.FilePolarity,Positive*
%FSLAX46Y46*%
G04 Gerber Fmt 4.6, Leading zero omitted, Abs format (unit mm)*
G04 Created by KiCad (PCBNEW (5.1.8)-1) date 2020-12-30 11:10:38*
%MOMM*%
%LPD*%
G01*
G04 APERTURE LIST*
%ADD10C,0.120000*%
%ADD11C,0.150000*%
%ADD12C,0.152400*%
%ADD13C,0.127000*%
%ADD14C,0.300000*%
%ADD15C,0.400000*%
%ADD16C,0.200000*%
G04 APERTURE END LIST*
D10*
X124000000Y-126380000D02*
X123000000Y-126380000D01*
X123000000Y-125020000D02*
X124000000Y-125020000D01*
X124000000Y-124880000D02*
X123000000Y-124880000D01*
X123000000Y-123520000D02*
X124000000Y-123520000D01*
X191120000Y-126860000D02*
X192880000Y-126860000D01*
X192880000Y-123790000D02*
X190450000Y-123790000D01*
X204700000Y-134650000D02*
X205950000Y-134650000D01*
X204700000Y-133400000D02*
X204700000Y-134650000D01*
X209100000Y-125300000D02*
X208600000Y-125300000D01*
X208600000Y-125200000D02*
X209100000Y-125200000D01*
X208600000Y-125400000D02*
X208600000Y-125200000D01*
X209100000Y-125400000D02*
X208600000Y-125400000D01*
X209100000Y-127300000D02*
X208600000Y-127300000D01*
X208600000Y-127200000D02*
X209100000Y-127200000D01*
X208600000Y-127400000D02*
X208600000Y-127200000D01*
X209100000Y-127400000D02*
X208600000Y-127400000D01*
X209100000Y-129300000D02*
X208600000Y-129300000D01*
X208600000Y-129200000D02*
X209100000Y-129200000D01*
X208600000Y-129400000D02*
X208600000Y-129200000D01*
X209100000Y-129400000D02*
X208600000Y-129400000D01*
X209100000Y-131300000D02*
X208600000Y-131300000D01*
X208600000Y-131200000D02*
X209100000Y-131200000D01*
X208600000Y-131400000D02*
X208600000Y-131200000D01*
X209100000Y-131400000D02*
X208600000Y-131400000D01*
X204900000Y-132600000D02*
X204900000Y-132900000D01*
X204800000Y-132900000D02*
X205000000Y-132900000D01*
X204800000Y-132600000D02*
X204800000Y-132900000D01*
X205000000Y-132600000D02*
X204800000Y-132600000D01*
X207600000Y-122250000D02*
X207600000Y-122850000D01*
X206300000Y-122250000D02*
X206300000Y-122850000D01*
X207600000Y-134350000D02*
X207600000Y-133750000D01*
X206300000Y-134350000D02*
X206300000Y-133750000D01*
X205600000Y-124800000D02*
X205000000Y-124800000D01*
X205600000Y-122850000D02*
X205600000Y-124800000D01*
X209100000Y-122850000D02*
X205600000Y-122850000D01*
X209100000Y-133750000D02*
X209100000Y-122850000D01*
X205600000Y-133750000D02*
X209100000Y-133750000D01*
X205600000Y-131800000D02*
X205600000Y-133750000D01*
X205000000Y-131800000D02*
X205600000Y-131800000D01*
X205000000Y-122250000D02*
X205000000Y-134350000D01*
X209700000Y-122250000D02*
X205000000Y-122250000D01*
X209700000Y-134350000D02*
X209700000Y-122250000D01*
X205000000Y-134350000D02*
X209700000Y-134350000D01*
D11*
X195900000Y-162700000D02*
X145100000Y-162700000D01*
X145100000Y-137300000D02*
X195900000Y-137300000D01*
X145100000Y-162700000D02*
X145100000Y-137300000D01*
X195900000Y-162700000D02*
X195900000Y-137300000D01*
D12*
X136376200Y-143737301D02*
G75*
G03*
X136376200Y-143737301I-76200J0D01*
G01*
X137378840Y-155883200D02*
X141583200Y-155883200D01*
X135221160Y-145316800D02*
X131016800Y-145316800D01*
X141583200Y-145316800D02*
X137378840Y-145316800D01*
X141583200Y-155883200D02*
X141583200Y-145316800D01*
X131016800Y-155883200D02*
X135221160Y-155883200D01*
X131016800Y-145316800D02*
X131016800Y-155883200D01*
D13*
X209700000Y-90925000D02*
X209550000Y-90925000D01*
D14*
X209800000Y-90150000D02*
G75*
G03*
X209800000Y-90150000I-100000J0D01*
G01*
D13*
X204500000Y-90925000D02*
X204500000Y-92750000D01*
X204700000Y-90925000D02*
X204500000Y-90925000D01*
X204500000Y-95250000D02*
X204500000Y-93950000D01*
X204500000Y-97075000D02*
X204500000Y-96400000D01*
X204650000Y-97075000D02*
X204500000Y-97075000D01*
X209700000Y-97075000D02*
X209550000Y-97075000D01*
X209700000Y-96400000D02*
X209700000Y-97075000D01*
X209700000Y-93950000D02*
X209700000Y-95200000D01*
X209700000Y-90925000D02*
X209700000Y-92700000D01*
X204500000Y-103775000D02*
X204500000Y-102000000D01*
X204500000Y-100750000D02*
X204500000Y-99500000D01*
X204500000Y-98300000D02*
X204500000Y-97625000D01*
X204500000Y-97625000D02*
X204650000Y-97625000D01*
X209550000Y-97625000D02*
X209700000Y-97625000D01*
X209700000Y-97625000D02*
X209700000Y-98300000D01*
X209700000Y-99450000D02*
X209700000Y-100750000D01*
X209500000Y-103775000D02*
X209700000Y-103775000D01*
X209700000Y-103775000D02*
X209700000Y-101950000D01*
D14*
X204200000Y-103700000D02*
G75*
G03*
X204200000Y-103700000I-100000J0D01*
G01*
D13*
X204500000Y-103775000D02*
X204650000Y-103775000D01*
D11*
X117300000Y-86700000D02*
X117300000Y-119700000D01*
X117300000Y-119700000D02*
X194300000Y-119700000D01*
X194300000Y-119700000D02*
X194300000Y-86700000D01*
X194300000Y-86700000D02*
X117300000Y-86700000D01*
D12*
X196076200Y-134500000D02*
G75*
G03*
X196076200Y-134500000I-76200J0D01*
G01*
X188371000Y-134213740D02*
X188371000Y-136929000D01*
X195229000Y-132786260D02*
X195229000Y-130071000D01*
X195229000Y-136929000D02*
X195229000Y-134213740D01*
X188371000Y-136929000D02*
X195229000Y-136929000D01*
X188371000Y-130071000D02*
X188371000Y-132786260D01*
X195229000Y-130071000D02*
X188371000Y-130071000D01*
D10*
X164050000Y-124400000D02*
X164050000Y-123400000D01*
X162350000Y-123400000D02*
X162350000Y-124400000D01*
X177750000Y-123400000D02*
X177750000Y-124400000D01*
X179450000Y-124400000D02*
X179450000Y-123400000D01*
X174600000Y-126250000D02*
X175600000Y-126250000D01*
X175600000Y-124550000D02*
X174600000Y-124550000D01*
D13*
X124575000Y-132000000D02*
X122800000Y-132000000D01*
X121550000Y-132000000D02*
X120300000Y-132000000D01*
X119100000Y-132000000D02*
X118425000Y-132000000D01*
X118425000Y-132000000D02*
X118425000Y-131850000D01*
X118425000Y-126950000D02*
X118425000Y-126800000D01*
X118425000Y-126800000D02*
X119100000Y-126800000D01*
X120250000Y-126800000D02*
X121550000Y-126800000D01*
X124575000Y-127000000D02*
X124575000Y-126800000D01*
X124575000Y-126800000D02*
X122750000Y-126800000D01*
D14*
X125450000Y-131450000D02*
G75*
G03*
X125450000Y-131450000I-100000J0D01*
G01*
D13*
X124575000Y-132000000D02*
X124575000Y-131850000D01*
D10*
X132750000Y-131500000D02*
X132050000Y-131500000D01*
X132050000Y-130300000D02*
X132750000Y-130300000D01*
X132250000Y-140900000D02*
X132950000Y-140900000D01*
X132950000Y-142100000D02*
X132250000Y-142100000D01*
X195250000Y-124700000D02*
X195950000Y-124700000D01*
X195950000Y-125900000D02*
X195250000Y-125900000D01*
X189700000Y-127150000D02*
X189700000Y-127850000D01*
X188500000Y-127850000D02*
X188500000Y-127150000D01*
X201250000Y-103600000D02*
X201950000Y-103600000D01*
X201950000Y-104800000D02*
X201250000Y-104800000D01*
X201250000Y-105000000D02*
X201950000Y-105000000D01*
X201950000Y-106200000D02*
X201250000Y-106200000D01*
X198200000Y-115450000D02*
X198200000Y-116150000D01*
X197000000Y-116150000D02*
X197000000Y-115450000D01*
X197000000Y-113250000D02*
X197000000Y-112550000D01*
X198200000Y-112550000D02*
X198200000Y-113250000D01*
X198200000Y-109650000D02*
X198200000Y-110350000D01*
X197000000Y-110350000D02*
X197000000Y-109650000D01*
X199450000Y-108600000D02*
X200150000Y-108600000D01*
X200150000Y-109800000D02*
X199450000Y-109800000D01*
X169050000Y-134400000D02*
X168350000Y-134400000D01*
X168350000Y-133200000D02*
X169050000Y-133200000D01*
X176500000Y-129715001D02*
X176500000Y-130415001D01*
X175300000Y-130415001D02*
X175300000Y-129715001D01*
X173800000Y-129550000D02*
X173800000Y-130250000D01*
X172600000Y-130250000D02*
X172600000Y-129550000D01*
X161400000Y-134950000D02*
X161400000Y-134250000D01*
X162600000Y-134250000D02*
X162600000Y-134950000D01*
X139900000Y-124650000D02*
X139900000Y-125350000D01*
X138700000Y-125350000D02*
X138700000Y-124650000D01*
X144880000Y-149700000D02*
X144880000Y-147700000D01*
X141920000Y-147700000D02*
X141920000Y-149700000D01*
X160900000Y-129100000D02*
X158800000Y-129100000D01*
X160900000Y-128100000D02*
X158800000Y-128100000D01*
X160900000Y-129100000D02*
X160900000Y-128100000D01*
X129500000Y-161600000D02*
X129500000Y-162600000D01*
X129500000Y-162600000D02*
X131600000Y-162600000D01*
X129500000Y-161600000D02*
X131600000Y-161600000D01*
X167480000Y-123140000D02*
X166550000Y-123140000D01*
X164320000Y-123140000D02*
X165250000Y-123140000D01*
X164320000Y-123140000D02*
X164320000Y-125300000D01*
X167480000Y-123140000D02*
X167480000Y-124600000D01*
X144150000Y-130700000D02*
X140250000Y-130700000D01*
X144150000Y-128700000D02*
X140250000Y-128700000D01*
X144150000Y-130700000D02*
X144150000Y-128700000D01*
X160900000Y-130600000D02*
X160900000Y-129600000D01*
X160900000Y-129600000D02*
X158800000Y-129600000D01*
X160900000Y-130600000D02*
X158800000Y-130600000D01*
X198570000Y-158000000D02*
X198570000Y-160000000D01*
X196430000Y-160000000D02*
X196430000Y-158000000D01*
X113770000Y-129800000D02*
X113770000Y-131800000D01*
X111630000Y-131800000D02*
X111630000Y-129800000D01*
D15*
X204100000Y-147700000D02*
G75*
G03*
X204100000Y-147700000I-200000J0D01*
G01*
D13*
X206450000Y-149000000D02*
X208400000Y-149000000D01*
X208400000Y-155250000D02*
X208400000Y-163400000D01*
X199400000Y-149000000D02*
X201250000Y-149000000D01*
X208400000Y-149000000D02*
X208400000Y-150150000D01*
X199400000Y-163400000D02*
X199400000Y-149000000D01*
X208400000Y-163400000D02*
X199400000Y-163400000D01*
D10*
X209650000Y-139250000D02*
X203700000Y-139250000D01*
X203700000Y-139250000D02*
X203700000Y-146850000D01*
X203700000Y-146850000D02*
X209650000Y-146850000D01*
X209650000Y-146850000D02*
X209650000Y-139250000D01*
X209650000Y-142550000D02*
X208900000Y-142550000D01*
X208900000Y-142550000D02*
X208900000Y-143550000D01*
X208900000Y-143550000D02*
X209650000Y-143550000D01*
X209650000Y-143550000D02*
X209650000Y-142550000D01*
X209650000Y-139250000D02*
X208900000Y-139250000D01*
X208900000Y-139250000D02*
X208900000Y-141050000D01*
X208900000Y-141050000D02*
X209650000Y-141050000D01*
X209650000Y-141050000D02*
X209650000Y-139250000D01*
X209650000Y-145050000D02*
X208900000Y-145050000D01*
X208900000Y-145050000D02*
X208900000Y-146850000D01*
X208900000Y-146850000D02*
X209650000Y-146850000D01*
X209650000Y-146850000D02*
X209650000Y-145050000D01*
X207400000Y-139250000D02*
X207400000Y-140000000D01*
X207400000Y-140000000D02*
X204450000Y-140000000D01*
X204450000Y-140000000D02*
X204450000Y-143050000D01*
X207400000Y-146850000D02*
X207400000Y-146100000D01*
X207400000Y-146100000D02*
X204450000Y-146100000D01*
X204450000Y-146100000D02*
X204450000Y-143050000D01*
X209950000Y-141450000D02*
X209950000Y-138950000D01*
X209950000Y-138950000D02*
X207450000Y-138950000D01*
X134250000Y-157400000D02*
X134250000Y-158650000D01*
X135500000Y-157400000D02*
X134250000Y-157400000D01*
X141600000Y-161800000D02*
X141600000Y-161300000D01*
X141700000Y-161300000D02*
X141700000Y-161800000D01*
X141500000Y-161300000D02*
X141700000Y-161300000D01*
X141500000Y-161800000D02*
X141500000Y-161300000D01*
X139600000Y-161800000D02*
X139600000Y-161300000D01*
X139700000Y-161300000D02*
X139700000Y-161800000D01*
X139500000Y-161300000D02*
X139700000Y-161300000D01*
X139500000Y-161800000D02*
X139500000Y-161300000D01*
X137600000Y-161800000D02*
X137600000Y-161300000D01*
X137700000Y-161300000D02*
X137700000Y-161800000D01*
X137500000Y-161300000D02*
X137700000Y-161300000D01*
X137500000Y-161800000D02*
X137500000Y-161300000D01*
X136300000Y-157600000D02*
X136000000Y-157600000D01*
X136000000Y-157500000D02*
X136000000Y-157700000D01*
X136300000Y-157500000D02*
X136000000Y-157500000D01*
X136300000Y-157700000D02*
X136300000Y-157500000D01*
X144650000Y-160300000D02*
X144050000Y-160300000D01*
X144650000Y-159000000D02*
X144050000Y-159000000D01*
X134550000Y-160300000D02*
X135150000Y-160300000D01*
X134550000Y-159000000D02*
X135150000Y-159000000D01*
X142100000Y-158300000D02*
X142100000Y-157700000D01*
X144050000Y-158300000D02*
X142100000Y-158300000D01*
X144050000Y-161800000D02*
X144050000Y-158300000D01*
X135150000Y-161800000D02*
X144050000Y-161800000D01*
X135150000Y-158300000D02*
X135150000Y-161800000D01*
X137100000Y-158300000D02*
X135150000Y-158300000D01*
X137100000Y-157700000D02*
X137100000Y-158300000D01*
X144650000Y-157700000D02*
X134550000Y-157700000D01*
X144650000Y-162400000D02*
X144650000Y-157700000D01*
X134550000Y-162400000D02*
X144650000Y-162400000D01*
X134550000Y-157700000D02*
X134550000Y-162400000D01*
X110250000Y-142950000D02*
X112750000Y-142950000D01*
X110250000Y-140450000D02*
X110250000Y-142950000D01*
X115750000Y-135800000D02*
X115750000Y-138850000D01*
X112800000Y-135800000D02*
X115750000Y-135800000D01*
X112800000Y-135050000D02*
X112800000Y-135800000D01*
X115750000Y-141900000D02*
X115750000Y-138850000D01*
X112800000Y-141900000D02*
X115750000Y-141900000D01*
X112800000Y-142650000D02*
X112800000Y-141900000D01*
X110550000Y-135050000D02*
X110550000Y-136850000D01*
X111300000Y-135050000D02*
X110550000Y-135050000D01*
X111300000Y-136850000D02*
X111300000Y-135050000D01*
X110550000Y-136850000D02*
X111300000Y-136850000D01*
X110550000Y-140850000D02*
X110550000Y-142650000D01*
X111300000Y-140850000D02*
X110550000Y-140850000D01*
X111300000Y-142650000D02*
X111300000Y-140850000D01*
X110550000Y-142650000D02*
X111300000Y-142650000D01*
X110550000Y-138350000D02*
X110550000Y-139350000D01*
X111300000Y-138350000D02*
X110550000Y-138350000D01*
X111300000Y-139350000D02*
X111300000Y-138350000D01*
X110550000Y-139350000D02*
X111300000Y-139350000D01*
X110550000Y-135050000D02*
X110550000Y-142650000D01*
X116500000Y-135050000D02*
X110550000Y-135050000D01*
X116500000Y-142650000D02*
X116500000Y-135050000D01*
X110550000Y-142650000D02*
X116500000Y-142650000D01*
D13*
X119400000Y-163700000D02*
X110400000Y-163700000D01*
X110400000Y-163700000D02*
X110400000Y-149300000D01*
X119400000Y-149300000D02*
X119400000Y-150450000D01*
X110400000Y-149300000D02*
X112250000Y-149300000D01*
X119400000Y-155550000D02*
X119400000Y-163700000D01*
X117450000Y-149300000D02*
X119400000Y-149300000D01*
D15*
X115100000Y-148000000D02*
G75*
G03*
X115100000Y-148000000I-200000J0D01*
G01*
D10*
X203450000Y-119750000D02*
X205950000Y-119750000D01*
X203450000Y-117250000D02*
X203450000Y-119750000D01*
X208950000Y-107600000D02*
X208950000Y-113150000D01*
X206000000Y-107600000D02*
X208950000Y-107600000D01*
X206000000Y-106850000D02*
X206000000Y-107600000D01*
X208950000Y-118700000D02*
X208950000Y-113150000D01*
X206000000Y-118700000D02*
X208950000Y-118700000D01*
X206000000Y-119450000D02*
X206000000Y-118700000D01*
X203750000Y-106850000D02*
X203750000Y-108650000D01*
X204500000Y-106850000D02*
X203750000Y-106850000D01*
X204500000Y-108650000D02*
X204500000Y-106850000D01*
X203750000Y-108650000D02*
X204500000Y-108650000D01*
X203750000Y-117650000D02*
X203750000Y-119450000D01*
X204500000Y-117650000D02*
X203750000Y-117650000D01*
X204500000Y-119450000D02*
X204500000Y-117650000D01*
X203750000Y-119450000D02*
X204500000Y-119450000D01*
X203750000Y-110150000D02*
X203750000Y-116150000D01*
X204500000Y-110150000D02*
X203750000Y-110150000D01*
X204500000Y-116150000D02*
X204500000Y-110150000D01*
X203750000Y-116150000D02*
X204500000Y-116150000D01*
X203750000Y-106850000D02*
X203750000Y-119450000D01*
X209700000Y-106850000D02*
X203750000Y-106850000D01*
X209700000Y-119450000D02*
X209700000Y-106850000D01*
X203750000Y-119450000D02*
X209700000Y-119450000D01*
X194640000Y-85640000D02*
X195700000Y-85640000D01*
X194640000Y-86700000D02*
X194640000Y-85640000D01*
X194640000Y-87700000D02*
X196760000Y-87700000D01*
X196760000Y-87700000D02*
X196760000Y-89760000D01*
X194640000Y-87700000D02*
X194640000Y-89760000D01*
X194640000Y-89760000D02*
X196760000Y-89760000D01*
D11*
X167950000Y-122350000D02*
X173050000Y-122350000D01*
X167950000Y-127450000D02*
X173050000Y-127450000D01*
D10*
X160900000Y-132100000D02*
X158800000Y-132100000D01*
X160900000Y-131100000D02*
X158800000Y-131100000D01*
X160900000Y-132100000D02*
X160900000Y-131100000D01*
D13*
X135775000Y-126600000D02*
X135775000Y-126450000D01*
D14*
X136650000Y-126050000D02*
G75*
G03*
X136650000Y-126050000I-100000J0D01*
G01*
D13*
X135775000Y-121400000D02*
X133950000Y-121400000D01*
X135775000Y-121600000D02*
X135775000Y-121400000D01*
X131450000Y-121400000D02*
X132750000Y-121400000D01*
X129625000Y-121400000D02*
X130300000Y-121400000D01*
X129625000Y-121550000D02*
X129625000Y-121400000D01*
X129625000Y-126600000D02*
X129625000Y-126450000D01*
X130300000Y-126600000D02*
X129625000Y-126600000D01*
X132750000Y-126600000D02*
X131500000Y-126600000D01*
X135775000Y-126600000D02*
X134000000Y-126600000D01*
X135775000Y-137200000D02*
X135775000Y-137050000D01*
D14*
X136650000Y-136650000D02*
G75*
G03*
X136650000Y-136650000I-100000J0D01*
G01*
D13*
X135775000Y-132000000D02*
X133950000Y-132000000D01*
X135775000Y-132200000D02*
X135775000Y-132000000D01*
X131450000Y-132000000D02*
X132750000Y-132000000D01*
X129625000Y-132000000D02*
X130300000Y-132000000D01*
X129625000Y-132150000D02*
X129625000Y-132000000D01*
X129625000Y-137200000D02*
X129625000Y-137050000D01*
X130300000Y-137200000D02*
X129625000Y-137200000D01*
X132750000Y-137200000D02*
X131500000Y-137200000D01*
X135775000Y-137200000D02*
X134000000Y-137200000D01*
X146975000Y-136500000D02*
X146975000Y-136350000D01*
D14*
X147850000Y-135950000D02*
G75*
G03*
X147850000Y-135950000I-100000J0D01*
G01*
D13*
X146975000Y-131300000D02*
X145150000Y-131300000D01*
X146975000Y-131500000D02*
X146975000Y-131300000D01*
X142650000Y-131300000D02*
X143950000Y-131300000D01*
X140825000Y-131300000D02*
X141500000Y-131300000D01*
X140825000Y-131450000D02*
X140825000Y-131300000D01*
X140825000Y-136500000D02*
X140825000Y-136350000D01*
X141500000Y-136500000D02*
X140825000Y-136500000D01*
X143950000Y-136500000D02*
X142700000Y-136500000D01*
X146975000Y-136500000D02*
X145200000Y-136500000D01*
D10*
X151750000Y-126550000D02*
X151750000Y-128950000D01*
X151750000Y-128950000D02*
X150700000Y-128950000D01*
X148450000Y-127150000D02*
X148450000Y-128950000D01*
X148450000Y-128950000D02*
X149500000Y-128950000D01*
X147250000Y-130750000D02*
X147250000Y-129700000D01*
X145450000Y-130750000D02*
X147250000Y-130750000D01*
X147250000Y-127450000D02*
X147250000Y-128500000D01*
X144850000Y-127450000D02*
X147250000Y-127450000D01*
X143320000Y-155500000D02*
X143320000Y-154500000D01*
X144680000Y-154500000D02*
X144680000Y-155500000D01*
X189680000Y-122800000D02*
X189680000Y-123800000D01*
X188320000Y-123800000D02*
X188320000Y-122800000D01*
X188000000Y-124620000D02*
X189000000Y-124620000D01*
X189000000Y-125980000D02*
X188000000Y-125980000D01*
X195680000Y-122800000D02*
X195680000Y-123800000D01*
X194320000Y-123800000D02*
X194320000Y-122800000D01*
X131100000Y-161280000D02*
X130100000Y-161280000D01*
X130100000Y-159920000D02*
X131100000Y-159920000D01*
X131100000Y-159780000D02*
X130100000Y-159780000D01*
X130100000Y-158420000D02*
X131100000Y-158420000D01*
X203800000Y-125180000D02*
X202800000Y-125180000D01*
X202800000Y-123820000D02*
X203800000Y-123820000D01*
X203800000Y-130380000D02*
X202800000Y-130380000D01*
X202800000Y-129020000D02*
X203800000Y-129020000D01*
X199320000Y-129800000D02*
X199320000Y-128800000D01*
X200680000Y-128800000D02*
X200680000Y-129800000D01*
X199320000Y-127200000D02*
X199320000Y-126200000D01*
X200680000Y-126200000D02*
X200680000Y-127200000D01*
X145200000Y-124520000D02*
X146200000Y-124520000D01*
X146200000Y-125880000D02*
X145200000Y-125880000D01*
X200150000Y-117680000D02*
X199150000Y-117680000D01*
X199150000Y-116320000D02*
X200150000Y-116320000D01*
X195880000Y-103200000D02*
X195880000Y-104200000D01*
X194520000Y-104200000D02*
X194520000Y-103200000D01*
X199150000Y-114820000D02*
X200150000Y-114820000D01*
X200150000Y-116180000D02*
X199150000Y-116180000D01*
X195880000Y-100600000D02*
X195880000Y-101600000D01*
X194520000Y-101600000D02*
X194520000Y-100600000D01*
X200150000Y-114680000D02*
X199150000Y-114680000D01*
X199150000Y-113320000D02*
X200150000Y-113320000D01*
X195880000Y-98000000D02*
X195880000Y-99000000D01*
X194520000Y-99000000D02*
X194520000Y-98000000D01*
X195880000Y-95400000D02*
X195880000Y-96400000D01*
X194520000Y-96400000D02*
X194520000Y-95400000D01*
X199150000Y-111720000D02*
X200150000Y-111720000D01*
X200150000Y-113080000D02*
X199150000Y-113080000D01*
X202400000Y-93620000D02*
X203400000Y-93620000D01*
X203400000Y-94980000D02*
X202400000Y-94980000D01*
X197600000Y-93620000D02*
X198600000Y-93620000D01*
X198600000Y-94980000D02*
X197600000Y-94980000D01*
X204080000Y-91700000D02*
X204080000Y-92700000D01*
X202720000Y-92700000D02*
X202720000Y-91700000D01*
X200080000Y-91700000D02*
X200080000Y-92700000D01*
X198720000Y-92700000D02*
X198720000Y-91700000D01*
X197220000Y-92700000D02*
X197220000Y-91700000D01*
X198580000Y-91700000D02*
X198580000Y-92700000D01*
X200150000Y-111480000D02*
X199150000Y-111480000D01*
X199150000Y-110120000D02*
X200150000Y-110120000D01*
X207200000Y-106370000D02*
X205200000Y-106370000D01*
X205200000Y-104230000D02*
X207200000Y-104230000D01*
X195880000Y-91000000D02*
X195880000Y-92000000D01*
X194520000Y-92000000D02*
X194520000Y-91000000D01*
X182220000Y-134100000D02*
X182220000Y-133100000D01*
X183580000Y-133100000D02*
X183580000Y-134100000D01*
X174500000Y-122230000D02*
X176500000Y-122230000D01*
X176500000Y-124370000D02*
X174500000Y-124370000D01*
X161900000Y-130920000D02*
X162900000Y-130920000D01*
X162900000Y-132280000D02*
X161900000Y-132280000D01*
X161900000Y-129420000D02*
X162900000Y-129420000D01*
X162900000Y-130780000D02*
X161900000Y-130780000D01*
X162900000Y-129280000D02*
X161900000Y-129280000D01*
X161900000Y-127920000D02*
X162900000Y-127920000D01*
X176720000Y-130500000D02*
X176720000Y-129500000D01*
X178080000Y-129500000D02*
X178080000Y-130500000D01*
X173880000Y-132200000D02*
X173880000Y-133200000D01*
X172520000Y-133200000D02*
X172520000Y-132200000D01*
X164500000Y-134480000D02*
X163500000Y-134480000D01*
X163500000Y-133120000D02*
X164500000Y-133120000D01*
X164600000Y-135980000D02*
X163600000Y-135980000D01*
X163600000Y-134620000D02*
X164600000Y-134620000D01*
X178080000Y-132100000D02*
X178080000Y-133100000D01*
X176720000Y-133100000D02*
X176720000Y-132100000D01*
X172520000Y-135800000D02*
X172520000Y-134800000D01*
X173880000Y-134800000D02*
X173880000Y-135800000D01*
X150280000Y-130700000D02*
X150280000Y-131700000D01*
X148920000Y-131700000D02*
X148920000Y-130700000D01*
X147420000Y-131700000D02*
X147420000Y-130700000D01*
X148780000Y-130700000D02*
X148780000Y-131700000D01*
X150200000Y-124620000D02*
X151200000Y-124620000D01*
X151200000Y-125980000D02*
X150200000Y-125980000D01*
X150200000Y-123120000D02*
X151200000Y-123120000D01*
X151200000Y-124480000D02*
X150200000Y-124480000D01*
X146200000Y-123880000D02*
X145200000Y-123880000D01*
X145200000Y-122520000D02*
X146200000Y-122520000D01*
X142920000Y-127700000D02*
X142920000Y-126700000D01*
X144280000Y-126700000D02*
X144280000Y-127700000D01*
X144600000Y-122380000D02*
X143600000Y-122380000D01*
X143600000Y-121020000D02*
X144600000Y-121020000D01*
X127790000Y-159030000D02*
X127790000Y-158800000D01*
X128310000Y-162700000D02*
X120590000Y-162700000D01*
X120590000Y-162700000D02*
X120590000Y-158800000D01*
X128310000Y-155690000D02*
X127790000Y-155690000D01*
X128310000Y-162700000D02*
X128310000Y-158800000D01*
X121110000Y-159030000D02*
X121110000Y-158800000D01*
X127790000Y-156200000D02*
X127790000Y-155690000D01*
X128310000Y-156200000D02*
X128310000Y-155690000D01*
X121650000Y-159030000D02*
X121110000Y-159030000D01*
X121110000Y-156200000D02*
X121110000Y-155690000D01*
X121110000Y-155690000D02*
X120590000Y-155690000D01*
X120590000Y-156200000D02*
X120590000Y-155690000D01*
X127790000Y-159030000D02*
X127250000Y-159030000D01*
X126150000Y-159030000D02*
X122750000Y-159030000D01*
D12*
X135150000Y-130149999D02*
X131449999Y-130150002D01*
X133349998Y-127050003D02*
X131449999Y-127050003D01*
X133549998Y-137650003D02*
X131649999Y-137650003D01*
X135350000Y-140749999D02*
X131649999Y-140750002D01*
D10*
X201800000Y-128710000D02*
X203600000Y-128710000D01*
X203600000Y-125490000D02*
X201150000Y-125490000D01*
D11*
X197975000Y-103325000D02*
X197975000Y-103300000D01*
X197975000Y-95275000D02*
X197975000Y-95300000D01*
X202625000Y-95275000D02*
X202625000Y-95300000D01*
X203700000Y-103375000D02*
X197975000Y-103375000D01*
X202625000Y-95275000D02*
X197975000Y-95275000D01*
D16*
X166850000Y-127900000D02*
G75*
G03*
X166850000Y-127900000I-100000J0D01*
G01*
D13*
X170450000Y-132650000D02*
X170450000Y-132500000D01*
X169800000Y-132650000D02*
X170450000Y-132650000D01*
X166950000Y-132650000D02*
X167600000Y-132650000D01*
X166950000Y-132500000D02*
X166950000Y-132650000D01*
X170450000Y-128150000D02*
X170450000Y-128300000D01*
X169800000Y-128150000D02*
X170450000Y-128150000D01*
X166950000Y-128150000D02*
X167600000Y-128150000D01*
X166950000Y-128300000D02*
X166950000Y-128150000D01*
D10*
X141334999Y-125674999D02*
X143764999Y-125674999D01*
X143094999Y-122604999D02*
X141334999Y-122604999D01*
X196150000Y-139970000D02*
X196420000Y-139970000D01*
X203050000Y-139970000D02*
X202780000Y-139970000D01*
X202780000Y-139970000D02*
X202780000Y-141070000D01*
X203050000Y-138470000D02*
X203050000Y-139970000D01*
X196420000Y-139970000D02*
X196420000Y-142800000D01*
X196150000Y-138470000D02*
X196150000Y-139970000D01*
D11*
X183300000Y-121600000D02*
X158300000Y-121600000D01*
X183300000Y-136600000D02*
X183300000Y-121600000D01*
X158300000Y-136600000D02*
X183300000Y-136600000D01*
X158300000Y-121600000D02*
X158300000Y-136600000D01*
X121033333Y-126152380D02*
X120700000Y-125676190D01*
X120461904Y-126152380D02*
X120461904Y-125152380D01*
X120842857Y-125152380D01*
X120938095Y-125200000D01*
X120985714Y-125247619D01*
X121033333Y-125342857D01*
X121033333Y-125485714D01*
X120985714Y-125580952D01*
X120938095Y-125628571D01*
X120842857Y-125676190D01*
X120461904Y-125676190D01*
X121938095Y-125152380D02*
X121461904Y-125152380D01*
X121414285Y-125628571D01*
X121461904Y-125580952D01*
X121557142Y-125533333D01*
X121795238Y-125533333D01*
X121890476Y-125580952D01*
X121938095Y-125628571D01*
X121985714Y-125723809D01*
X121985714Y-125961904D01*
X121938095Y-126057142D01*
X121890476Y-126104761D01*
X121795238Y-126152380D01*
X121557142Y-126152380D01*
X121461904Y-126104761D01*
X121414285Y-126057142D01*
X121033333Y-124752380D02*
X120700000Y-124276190D01*
X120461904Y-124752380D02*
X120461904Y-123752380D01*
X120842857Y-123752380D01*
X120938095Y-123800000D01*
X120985714Y-123847619D01*
X121033333Y-123942857D01*
X121033333Y-124085714D01*
X120985714Y-124180952D01*
X120938095Y-124228571D01*
X120842857Y-124276190D01*
X120461904Y-124276190D01*
X121890476Y-124085714D02*
X121890476Y-124752380D01*
X121652380Y-123704761D02*
X121414285Y-124419047D01*
X122033333Y-124419047D01*
X191238095Y-122302380D02*
X191238095Y-123111904D01*
X191285714Y-123207142D01*
X191333333Y-123254761D01*
X191428571Y-123302380D01*
X191619047Y-123302380D01*
X191714285Y-123254761D01*
X191761904Y-123207142D01*
X191809523Y-123111904D01*
X191809523Y-122302380D01*
X192714285Y-122635714D02*
X192714285Y-123302380D01*
X192476190Y-122254761D02*
X192238095Y-122969047D01*
X192857142Y-122969047D01*
X203452380Y-131133333D02*
X204166666Y-131133333D01*
X204309523Y-131180952D01*
X204404761Y-131276190D01*
X204452380Y-131419047D01*
X204452380Y-131514285D01*
X203452380Y-130228571D02*
X203452380Y-130419047D01*
X203500000Y-130514285D01*
X203547619Y-130561904D01*
X203690476Y-130657142D01*
X203880952Y-130704761D01*
X204261904Y-130704761D01*
X204357142Y-130657142D01*
X204404761Y-130609523D01*
X204452380Y-130514285D01*
X204452380Y-130323809D01*
X204404761Y-130228571D01*
X204357142Y-130180952D01*
X204261904Y-130133333D01*
X204023809Y-130133333D01*
X203928571Y-130180952D01*
X203880952Y-130228571D01*
X203833333Y-130323809D01*
X203833333Y-130514285D01*
X203880952Y-130609523D01*
X203928571Y-130657142D01*
X204023809Y-130704761D01*
X185238095Y-135952380D02*
X185238095Y-136761904D01*
X185285714Y-136857142D01*
X185333333Y-136904761D01*
X185428571Y-136952380D01*
X185619047Y-136952380D01*
X185714285Y-136904761D01*
X185761904Y-136857142D01*
X185809523Y-136761904D01*
X185809523Y-135952380D01*
X186809523Y-136952380D02*
X186238095Y-136952380D01*
X186523809Y-136952380D02*
X186523809Y-135952380D01*
X186428571Y-136095238D01*
X186333333Y-136190476D01*
X186238095Y-136238095D01*
X132957142Y-144957142D02*
X132909523Y-145004761D01*
X132766666Y-145052380D01*
X132671428Y-145052380D01*
X132528571Y-145004761D01*
X132433333Y-144909523D01*
X132385714Y-144814285D01*
X132338095Y-144623809D01*
X132338095Y-144480952D01*
X132385714Y-144290476D01*
X132433333Y-144195238D01*
X132528571Y-144100000D01*
X132671428Y-144052380D01*
X132766666Y-144052380D01*
X132909523Y-144100000D01*
X132957142Y-144147619D01*
X133338095Y-144147619D02*
X133385714Y-144100000D01*
X133480952Y-144052380D01*
X133719047Y-144052380D01*
X133814285Y-144100000D01*
X133861904Y-144147619D01*
X133909523Y-144242857D01*
X133909523Y-144338095D01*
X133861904Y-144480952D01*
X133290476Y-145052380D01*
X133909523Y-145052380D01*
X134385714Y-145052380D02*
X134576190Y-145052380D01*
X134671428Y-145004761D01*
X134719047Y-144957142D01*
X134814285Y-144814285D01*
X134861904Y-144623809D01*
X134861904Y-144242857D01*
X134814285Y-144147619D01*
X134766666Y-144100000D01*
X134671428Y-144052380D01*
X134480952Y-144052380D01*
X134385714Y-144100000D01*
X134338095Y-144147619D01*
X134290476Y-144242857D01*
X134290476Y-144480952D01*
X134338095Y-144576190D01*
X134385714Y-144623809D01*
X134480952Y-144671428D01*
X134671428Y-144671428D01*
X134766666Y-144623809D01*
X134814285Y-144576190D01*
X134861904Y-144480952D01*
X137652380Y-144600000D02*
X137890476Y-144600000D01*
X137795238Y-144838095D02*
X137890476Y-144600000D01*
X137795238Y-144361904D01*
X138080952Y-144742857D02*
X137890476Y-144600000D01*
X138080952Y-144457142D01*
X205004587Y-89348623D02*
X204909174Y-89300917D01*
X204813761Y-89205504D01*
X204670642Y-89062385D01*
X204575229Y-89014678D01*
X204479816Y-89014678D01*
X204527522Y-89253211D02*
X204432110Y-89205504D01*
X204336697Y-89110091D01*
X204288990Y-88919266D01*
X204288990Y-88585321D01*
X204336697Y-88394495D01*
X204432110Y-88299082D01*
X204527522Y-88251376D01*
X204718348Y-88251376D01*
X204813761Y-88299082D01*
X204909174Y-88394495D01*
X204956880Y-88585321D01*
X204956880Y-88919266D01*
X204909174Y-89110091D01*
X204813761Y-89205504D01*
X204718348Y-89253211D01*
X204527522Y-89253211D01*
X205863302Y-88251376D02*
X205386238Y-88251376D01*
X205338532Y-88728440D01*
X205386238Y-88680733D01*
X205481651Y-88633027D01*
X205720183Y-88633027D01*
X205815596Y-88680733D01*
X205863302Y-88728440D01*
X205911009Y-88823853D01*
X205911009Y-89062385D01*
X205863302Y-89157798D01*
X205815596Y-89205504D01*
X205720183Y-89253211D01*
X205481651Y-89253211D01*
X205386238Y-89205504D01*
X205338532Y-89157798D01*
X205004587Y-90548623D02*
X204909174Y-90500917D01*
X204813761Y-90405504D01*
X204670642Y-90262385D01*
X204575229Y-90214678D01*
X204479816Y-90214678D01*
X204527522Y-90453211D02*
X204432110Y-90405504D01*
X204336697Y-90310091D01*
X204288990Y-90119266D01*
X204288990Y-89785321D01*
X204336697Y-89594495D01*
X204432110Y-89499082D01*
X204527522Y-89451376D01*
X204718348Y-89451376D01*
X204813761Y-89499082D01*
X204909174Y-89594495D01*
X204956880Y-89785321D01*
X204956880Y-90119266D01*
X204909174Y-90310091D01*
X204813761Y-90405504D01*
X204718348Y-90453211D01*
X204527522Y-90453211D01*
X205815596Y-89785321D02*
X205815596Y-90453211D01*
X205577064Y-89403669D02*
X205338532Y-90119266D01*
X205958715Y-90119266D01*
X122314285Y-85628571D02*
X122457142Y-85676190D01*
X122504761Y-85723809D01*
X122552380Y-85819047D01*
X122552380Y-85961904D01*
X122504761Y-86057142D01*
X122457142Y-86104761D01*
X122361904Y-86152380D01*
X121980952Y-86152380D01*
X121980952Y-85152380D01*
X122314285Y-85152380D01*
X122409523Y-85200000D01*
X122457142Y-85247619D01*
X122504761Y-85342857D01*
X122504761Y-85438095D01*
X122457142Y-85533333D01*
X122409523Y-85580952D01*
X122314285Y-85628571D01*
X121980952Y-85628571D01*
X122838095Y-85152380D02*
X123409523Y-85152380D01*
X123123809Y-86152380D02*
X123123809Y-85152380D01*
X124266666Y-86152380D02*
X123695238Y-86152380D01*
X123980952Y-86152380D02*
X123980952Y-85152380D01*
X123885714Y-85295238D01*
X123790476Y-85390476D01*
X123695238Y-85438095D01*
X187133333Y-131357142D02*
X187085714Y-131404761D01*
X186942857Y-131452380D01*
X186847619Y-131452380D01*
X186704761Y-131404761D01*
X186609523Y-131309523D01*
X186561904Y-131214285D01*
X186514285Y-131023809D01*
X186514285Y-130880952D01*
X186561904Y-130690476D01*
X186609523Y-130595238D01*
X186704761Y-130500000D01*
X186847619Y-130452380D01*
X186942857Y-130452380D01*
X187085714Y-130500000D01*
X187133333Y-130547619D01*
X188085714Y-131452380D02*
X187514285Y-131452380D01*
X187800000Y-131452380D02*
X187800000Y-130452380D01*
X187704761Y-130595238D01*
X187609523Y-130690476D01*
X187514285Y-130738095D01*
X188880952Y-138352380D02*
X188309523Y-138352380D01*
X188595238Y-138352380D02*
X188595238Y-137352380D01*
X188500000Y-137495238D01*
X188404761Y-137590476D01*
X188309523Y-137638095D01*
X189500000Y-137352380D02*
X189595238Y-137352380D01*
X189690476Y-137400000D01*
X189738095Y-137447619D01*
X189785714Y-137542857D01*
X189833333Y-137733333D01*
X189833333Y-137971428D01*
X189785714Y-138161904D01*
X189738095Y-138257142D01*
X189690476Y-138304761D01*
X189595238Y-138352380D01*
X189500000Y-138352380D01*
X189404761Y-138304761D01*
X189357142Y-138257142D01*
X189309523Y-138161904D01*
X189261904Y-137971428D01*
X189261904Y-137733333D01*
X189309523Y-137542857D01*
X189357142Y-137447619D01*
X189404761Y-137400000D01*
X189500000Y-137352380D01*
X190452380Y-137352380D02*
X190547619Y-137352380D01*
X190642857Y-137400000D01*
X190690476Y-137447619D01*
X190738095Y-137542857D01*
X190785714Y-137733333D01*
X190785714Y-137971428D01*
X190738095Y-138161904D01*
X190690476Y-138257142D01*
X190642857Y-138304761D01*
X190547619Y-138352380D01*
X190452380Y-138352380D01*
X190357142Y-138304761D01*
X190309523Y-138257142D01*
X190261904Y-138161904D01*
X190214285Y-137971428D01*
X190214285Y-137733333D01*
X190261904Y-137542857D01*
X190309523Y-137447619D01*
X190357142Y-137400000D01*
X190452380Y-137352380D01*
X191642857Y-137685714D02*
X191642857Y-138352380D01*
X191214285Y-137685714D02*
X191214285Y-138209523D01*
X191261904Y-138304761D01*
X191357142Y-138352380D01*
X191500000Y-138352380D01*
X191595238Y-138304761D01*
X191642857Y-138257142D01*
X195700000Y-132152380D02*
X195700000Y-132390476D01*
X195461904Y-132295238D02*
X195700000Y-132390476D01*
X195938095Y-132295238D01*
X195557142Y-132580952D02*
X195700000Y-132390476D01*
X195842857Y-132580952D01*
X162057142Y-124542857D02*
X162104761Y-124590476D01*
X162152380Y-124733333D01*
X162152380Y-124828571D01*
X162104761Y-124971428D01*
X162009523Y-125066666D01*
X161914285Y-125114285D01*
X161723809Y-125161904D01*
X161580952Y-125161904D01*
X161390476Y-125114285D01*
X161295238Y-125066666D01*
X161200000Y-124971428D01*
X161152380Y-124828571D01*
X161152380Y-124733333D01*
X161200000Y-124590476D01*
X161247619Y-124542857D01*
X161247619Y-124161904D02*
X161200000Y-124114285D01*
X161152380Y-124019047D01*
X161152380Y-123780952D01*
X161200000Y-123685714D01*
X161247619Y-123638095D01*
X161342857Y-123590476D01*
X161438095Y-123590476D01*
X161580952Y-123638095D01*
X162152380Y-124209523D01*
X162152380Y-123590476D01*
X162152380Y-122638095D02*
X162152380Y-123209523D01*
X162152380Y-122923809D02*
X161152380Y-122923809D01*
X161295238Y-123019047D01*
X161390476Y-123114285D01*
X161438095Y-123209523D01*
X180257142Y-124442857D02*
X180304761Y-124490476D01*
X180352380Y-124633333D01*
X180352380Y-124728571D01*
X180304761Y-124871428D01*
X180209523Y-124966666D01*
X180114285Y-125014285D01*
X179923809Y-125061904D01*
X179780952Y-125061904D01*
X179590476Y-125014285D01*
X179495238Y-124966666D01*
X179400000Y-124871428D01*
X179352380Y-124728571D01*
X179352380Y-124633333D01*
X179400000Y-124490476D01*
X179447619Y-124442857D01*
X179447619Y-124061904D02*
X179400000Y-124014285D01*
X179352380Y-123919047D01*
X179352380Y-123680952D01*
X179400000Y-123585714D01*
X179447619Y-123538095D01*
X179542857Y-123490476D01*
X179638095Y-123490476D01*
X179780952Y-123538095D01*
X180352380Y-124109523D01*
X180352380Y-123490476D01*
X179352380Y-122871428D02*
X179352380Y-122776190D01*
X179400000Y-122680952D01*
X179447619Y-122633333D01*
X179542857Y-122585714D01*
X179733333Y-122538095D01*
X179971428Y-122538095D01*
X180161904Y-122585714D01*
X180257142Y-122633333D01*
X180304761Y-122680952D01*
X180352380Y-122776190D01*
X180352380Y-122871428D01*
X180304761Y-122966666D01*
X180257142Y-123014285D01*
X180161904Y-123061904D01*
X179971428Y-123109523D01*
X179733333Y-123109523D01*
X179542857Y-123061904D01*
X179447619Y-123014285D01*
X179400000Y-122966666D01*
X179352380Y-122871428D01*
X174457142Y-127357142D02*
X174409523Y-127404761D01*
X174266666Y-127452380D01*
X174171428Y-127452380D01*
X174028571Y-127404761D01*
X173933333Y-127309523D01*
X173885714Y-127214285D01*
X173838095Y-127023809D01*
X173838095Y-126880952D01*
X173885714Y-126690476D01*
X173933333Y-126595238D01*
X174028571Y-126500000D01*
X174171428Y-126452380D01*
X174266666Y-126452380D01*
X174409523Y-126500000D01*
X174457142Y-126547619D01*
X175409523Y-127452380D02*
X174838095Y-127452380D01*
X175123809Y-127452380D02*
X175123809Y-126452380D01*
X175028571Y-126595238D01*
X174933333Y-126690476D01*
X174838095Y-126738095D01*
X175885714Y-127452380D02*
X176076190Y-127452380D01*
X176171428Y-127404761D01*
X176219047Y-127357142D01*
X176314285Y-127214285D01*
X176361904Y-127023809D01*
X176361904Y-126642857D01*
X176314285Y-126547619D01*
X176266666Y-126500000D01*
X176171428Y-126452380D01*
X175980952Y-126452380D01*
X175885714Y-126500000D01*
X175838095Y-126547619D01*
X175790476Y-126642857D01*
X175790476Y-126880952D01*
X175838095Y-126976190D01*
X175885714Y-127023809D01*
X175980952Y-127071428D01*
X176171428Y-127071428D01*
X176266666Y-127023809D01*
X176314285Y-126976190D01*
X176361904Y-126880952D01*
X121279362Y-133840748D02*
X121183949Y-133793042D01*
X121088536Y-133697629D01*
X120945417Y-133554510D01*
X120850004Y-133506803D01*
X120754591Y-133506803D01*
X120802297Y-133745336D02*
X120706885Y-133697629D01*
X120611472Y-133602216D01*
X120563765Y-133411391D01*
X120563765Y-133077446D01*
X120611472Y-132886620D01*
X120706885Y-132791207D01*
X120802297Y-132743501D01*
X120993123Y-132743501D01*
X121088536Y-132791207D01*
X121183949Y-132886620D01*
X121231655Y-133077446D01*
X121231655Y-133411391D01*
X121183949Y-133602216D01*
X121088536Y-133697629D01*
X120993123Y-133745336D01*
X120802297Y-133745336D01*
X121565600Y-132743501D02*
X122185784Y-132743501D01*
X121851839Y-133125152D01*
X121994958Y-133125152D01*
X122090371Y-133172858D01*
X122138077Y-133220565D01*
X122185784Y-133315978D01*
X122185784Y-133554510D01*
X122138077Y-133649923D01*
X122090371Y-133697629D01*
X121994958Y-133745336D01*
X121708720Y-133745336D01*
X121613307Y-133697629D01*
X121565600Y-133649923D01*
X129833333Y-131257142D02*
X129785714Y-131304761D01*
X129642857Y-131352380D01*
X129547619Y-131352380D01*
X129404761Y-131304761D01*
X129309523Y-131209523D01*
X129261904Y-131114285D01*
X129214285Y-130923809D01*
X129214285Y-130780952D01*
X129261904Y-130590476D01*
X129309523Y-130495238D01*
X129404761Y-130400000D01*
X129547619Y-130352380D01*
X129642857Y-130352380D01*
X129785714Y-130400000D01*
X129833333Y-130447619D01*
X130214285Y-130447619D02*
X130261904Y-130400000D01*
X130357142Y-130352380D01*
X130595238Y-130352380D01*
X130690476Y-130400000D01*
X130738095Y-130447619D01*
X130785714Y-130542857D01*
X130785714Y-130638095D01*
X130738095Y-130780952D01*
X130166666Y-131352380D01*
X130785714Y-131352380D01*
X130033333Y-141857142D02*
X129985714Y-141904761D01*
X129842857Y-141952380D01*
X129747619Y-141952380D01*
X129604761Y-141904761D01*
X129509523Y-141809523D01*
X129461904Y-141714285D01*
X129414285Y-141523809D01*
X129414285Y-141380952D01*
X129461904Y-141190476D01*
X129509523Y-141095238D01*
X129604761Y-141000000D01*
X129747619Y-140952380D01*
X129842857Y-140952380D01*
X129985714Y-141000000D01*
X130033333Y-141047619D01*
X130366666Y-140952380D02*
X130985714Y-140952380D01*
X130652380Y-141333333D01*
X130795238Y-141333333D01*
X130890476Y-141380952D01*
X130938095Y-141428571D01*
X130985714Y-141523809D01*
X130985714Y-141761904D01*
X130938095Y-141857142D01*
X130890476Y-141904761D01*
X130795238Y-141952380D01*
X130509523Y-141952380D01*
X130414285Y-141904761D01*
X130366666Y-141857142D01*
X197957142Y-125366666D02*
X198004761Y-125414285D01*
X198052380Y-125557142D01*
X198052380Y-125652380D01*
X198004761Y-125795238D01*
X197909523Y-125890476D01*
X197814285Y-125938095D01*
X197623809Y-125985714D01*
X197480952Y-125985714D01*
X197290476Y-125938095D01*
X197195238Y-125890476D01*
X197100000Y-125795238D01*
X197052380Y-125652380D01*
X197052380Y-125557142D01*
X197100000Y-125414285D01*
X197147619Y-125366666D01*
X197385714Y-124509523D02*
X198052380Y-124509523D01*
X197004761Y-124747619D02*
X197719047Y-124985714D01*
X197719047Y-124366666D01*
X188257142Y-127666666D02*
X188304761Y-127714285D01*
X188352380Y-127857142D01*
X188352380Y-127952380D01*
X188304761Y-128095238D01*
X188209523Y-128190476D01*
X188114285Y-128238095D01*
X187923809Y-128285714D01*
X187780952Y-128285714D01*
X187590476Y-128238095D01*
X187495238Y-128190476D01*
X187400000Y-128095238D01*
X187352380Y-127952380D01*
X187352380Y-127857142D01*
X187400000Y-127714285D01*
X187447619Y-127666666D01*
X187352380Y-126761904D02*
X187352380Y-127238095D01*
X187828571Y-127285714D01*
X187780952Y-127238095D01*
X187733333Y-127142857D01*
X187733333Y-126904761D01*
X187780952Y-126809523D01*
X187828571Y-126761904D01*
X187923809Y-126714285D01*
X188161904Y-126714285D01*
X188257142Y-126761904D01*
X188304761Y-126809523D01*
X188352380Y-126904761D01*
X188352380Y-127142857D01*
X188304761Y-127238095D01*
X188257142Y-127285714D01*
X198157142Y-105657142D02*
X198109523Y-105704761D01*
X197966666Y-105752380D01*
X197871428Y-105752380D01*
X197728571Y-105704761D01*
X197633333Y-105609523D01*
X197585714Y-105514285D01*
X197538095Y-105323809D01*
X197538095Y-105180952D01*
X197585714Y-104990476D01*
X197633333Y-104895238D01*
X197728571Y-104800000D01*
X197871428Y-104752380D01*
X197966666Y-104752380D01*
X198109523Y-104800000D01*
X198157142Y-104847619D01*
X199109523Y-105752380D02*
X198538095Y-105752380D01*
X198823809Y-105752380D02*
X198823809Y-104752380D01*
X198728571Y-104895238D01*
X198633333Y-104990476D01*
X198538095Y-105038095D01*
X199442857Y-104752380D02*
X200061904Y-104752380D01*
X199728571Y-105133333D01*
X199871428Y-105133333D01*
X199966666Y-105180952D01*
X200014285Y-105228571D01*
X200061904Y-105323809D01*
X200061904Y-105561904D01*
X200014285Y-105657142D01*
X199966666Y-105704761D01*
X199871428Y-105752380D01*
X199585714Y-105752380D01*
X199490476Y-105704761D01*
X199442857Y-105657142D01*
X198157142Y-106857142D02*
X198109523Y-106904761D01*
X197966666Y-106952380D01*
X197871428Y-106952380D01*
X197728571Y-106904761D01*
X197633333Y-106809523D01*
X197585714Y-106714285D01*
X197538095Y-106523809D01*
X197538095Y-106380952D01*
X197585714Y-106190476D01*
X197633333Y-106095238D01*
X197728571Y-106000000D01*
X197871428Y-105952380D01*
X197966666Y-105952380D01*
X198109523Y-106000000D01*
X198157142Y-106047619D01*
X199109523Y-106952380D02*
X198538095Y-106952380D01*
X198823809Y-106952380D02*
X198823809Y-105952380D01*
X198728571Y-106095238D01*
X198633333Y-106190476D01*
X198538095Y-106238095D01*
X199966666Y-106285714D02*
X199966666Y-106952380D01*
X199728571Y-105904761D02*
X199490476Y-106619047D01*
X200109523Y-106619047D01*
X196457142Y-116442857D02*
X196504761Y-116490476D01*
X196552380Y-116633333D01*
X196552380Y-116728571D01*
X196504761Y-116871428D01*
X196409523Y-116966666D01*
X196314285Y-117014285D01*
X196123809Y-117061904D01*
X195980952Y-117061904D01*
X195790476Y-117014285D01*
X195695238Y-116966666D01*
X195600000Y-116871428D01*
X195552380Y-116728571D01*
X195552380Y-116633333D01*
X195600000Y-116490476D01*
X195647619Y-116442857D01*
X196552380Y-115490476D02*
X196552380Y-116061904D01*
X196552380Y-115776190D02*
X195552380Y-115776190D01*
X195695238Y-115871428D01*
X195790476Y-115966666D01*
X195838095Y-116061904D01*
X195552380Y-114585714D02*
X195552380Y-115061904D01*
X196028571Y-115109523D01*
X195980952Y-115061904D01*
X195933333Y-114966666D01*
X195933333Y-114728571D01*
X195980952Y-114633333D01*
X196028571Y-114585714D01*
X196123809Y-114538095D01*
X196361904Y-114538095D01*
X196457142Y-114585714D01*
X196504761Y-114633333D01*
X196552380Y-114728571D01*
X196552380Y-114966666D01*
X196504761Y-115061904D01*
X196457142Y-115109523D01*
X196457142Y-113542857D02*
X196504761Y-113590476D01*
X196552380Y-113733333D01*
X196552380Y-113828571D01*
X196504761Y-113971428D01*
X196409523Y-114066666D01*
X196314285Y-114114285D01*
X196123809Y-114161904D01*
X195980952Y-114161904D01*
X195790476Y-114114285D01*
X195695238Y-114066666D01*
X195600000Y-113971428D01*
X195552380Y-113828571D01*
X195552380Y-113733333D01*
X195600000Y-113590476D01*
X195647619Y-113542857D01*
X196552380Y-112590476D02*
X196552380Y-113161904D01*
X196552380Y-112876190D02*
X195552380Y-112876190D01*
X195695238Y-112971428D01*
X195790476Y-113066666D01*
X195838095Y-113161904D01*
X195552380Y-111733333D02*
X195552380Y-111923809D01*
X195600000Y-112019047D01*
X195647619Y-112066666D01*
X195790476Y-112161904D01*
X195980952Y-112209523D01*
X196361904Y-112209523D01*
X196457142Y-112161904D01*
X196504761Y-112114285D01*
X196552380Y-112019047D01*
X196552380Y-111828571D01*
X196504761Y-111733333D01*
X196457142Y-111685714D01*
X196361904Y-111638095D01*
X196123809Y-111638095D01*
X196028571Y-111685714D01*
X195980952Y-111733333D01*
X195933333Y-111828571D01*
X195933333Y-112019047D01*
X195980952Y-112114285D01*
X196028571Y-112161904D01*
X196123809Y-112209523D01*
X196457142Y-110642857D02*
X196504761Y-110690476D01*
X196552380Y-110833333D01*
X196552380Y-110928571D01*
X196504761Y-111071428D01*
X196409523Y-111166666D01*
X196314285Y-111214285D01*
X196123809Y-111261904D01*
X195980952Y-111261904D01*
X195790476Y-111214285D01*
X195695238Y-111166666D01*
X195600000Y-111071428D01*
X195552380Y-110928571D01*
X195552380Y-110833333D01*
X195600000Y-110690476D01*
X195647619Y-110642857D01*
X196552380Y-109690476D02*
X196552380Y-110261904D01*
X196552380Y-109976190D02*
X195552380Y-109976190D01*
X195695238Y-110071428D01*
X195790476Y-110166666D01*
X195838095Y-110261904D01*
X195552380Y-109357142D02*
X195552380Y-108690476D01*
X196552380Y-109119047D01*
X199157142Y-108357142D02*
X199109523Y-108404761D01*
X198966666Y-108452380D01*
X198871428Y-108452380D01*
X198728571Y-108404761D01*
X198633333Y-108309523D01*
X198585714Y-108214285D01*
X198538095Y-108023809D01*
X198538095Y-107880952D01*
X198585714Y-107690476D01*
X198633333Y-107595238D01*
X198728571Y-107500000D01*
X198871428Y-107452380D01*
X198966666Y-107452380D01*
X199109523Y-107500000D01*
X199157142Y-107547619D01*
X200109523Y-108452380D02*
X199538095Y-108452380D01*
X199823809Y-108452380D02*
X199823809Y-107452380D01*
X199728571Y-107595238D01*
X199633333Y-107690476D01*
X199538095Y-107738095D01*
X200680952Y-107880952D02*
X200585714Y-107833333D01*
X200538095Y-107785714D01*
X200490476Y-107690476D01*
X200490476Y-107642857D01*
X200538095Y-107547619D01*
X200585714Y-107500000D01*
X200680952Y-107452380D01*
X200871428Y-107452380D01*
X200966666Y-107500000D01*
X201014285Y-107547619D01*
X201061904Y-107642857D01*
X201061904Y-107690476D01*
X201014285Y-107785714D01*
X200966666Y-107833333D01*
X200871428Y-107880952D01*
X200680952Y-107880952D01*
X200585714Y-107928571D01*
X200538095Y-107976190D01*
X200490476Y-108071428D01*
X200490476Y-108261904D01*
X200538095Y-108357142D01*
X200585714Y-108404761D01*
X200680952Y-108452380D01*
X200871428Y-108452380D01*
X200966666Y-108404761D01*
X201014285Y-108357142D01*
X201061904Y-108261904D01*
X201061904Y-108071428D01*
X201014285Y-107976190D01*
X200966666Y-107928571D01*
X200871428Y-107880952D01*
X168657142Y-135457142D02*
X168609523Y-135504761D01*
X168466666Y-135552380D01*
X168371428Y-135552380D01*
X168228571Y-135504761D01*
X168133333Y-135409523D01*
X168085714Y-135314285D01*
X168038095Y-135123809D01*
X168038095Y-134980952D01*
X168085714Y-134790476D01*
X168133333Y-134695238D01*
X168228571Y-134600000D01*
X168371428Y-134552380D01*
X168466666Y-134552380D01*
X168609523Y-134600000D01*
X168657142Y-134647619D01*
X169038095Y-134647619D02*
X169085714Y-134600000D01*
X169180952Y-134552380D01*
X169419047Y-134552380D01*
X169514285Y-134600000D01*
X169561904Y-134647619D01*
X169609523Y-134742857D01*
X169609523Y-134838095D01*
X169561904Y-134980952D01*
X168990476Y-135552380D01*
X169609523Y-135552380D01*
X169990476Y-134647619D02*
X170038095Y-134600000D01*
X170133333Y-134552380D01*
X170371428Y-134552380D01*
X170466666Y-134600000D01*
X170514285Y-134647619D01*
X170561904Y-134742857D01*
X170561904Y-134838095D01*
X170514285Y-134980952D01*
X169942857Y-135552380D01*
X170561904Y-135552380D01*
X176357142Y-133242857D02*
X176404761Y-133290476D01*
X176452380Y-133433333D01*
X176452380Y-133528571D01*
X176404761Y-133671428D01*
X176309523Y-133766666D01*
X176214285Y-133814285D01*
X176023809Y-133861904D01*
X175880952Y-133861904D01*
X175690476Y-133814285D01*
X175595238Y-133766666D01*
X175500000Y-133671428D01*
X175452380Y-133528571D01*
X175452380Y-133433333D01*
X175500000Y-133290476D01*
X175547619Y-133242857D01*
X175547619Y-132861904D02*
X175500000Y-132814285D01*
X175452380Y-132719047D01*
X175452380Y-132480952D01*
X175500000Y-132385714D01*
X175547619Y-132338095D01*
X175642857Y-132290476D01*
X175738095Y-132290476D01*
X175880952Y-132338095D01*
X176452380Y-132909523D01*
X176452380Y-132290476D01*
X175452380Y-131957142D02*
X175452380Y-131338095D01*
X175833333Y-131671428D01*
X175833333Y-131528571D01*
X175880952Y-131433333D01*
X175928571Y-131385714D01*
X176023809Y-131338095D01*
X176261904Y-131338095D01*
X176357142Y-131385714D01*
X176404761Y-131433333D01*
X176452380Y-131528571D01*
X176452380Y-131814285D01*
X176404761Y-131909523D01*
X176357142Y-131957142D01*
X174957142Y-130442857D02*
X175004761Y-130490476D01*
X175052380Y-130633333D01*
X175052380Y-130728571D01*
X175004761Y-130871428D01*
X174909523Y-130966666D01*
X174814285Y-131014285D01*
X174623809Y-131061904D01*
X174480952Y-131061904D01*
X174290476Y-131014285D01*
X174195238Y-130966666D01*
X174100000Y-130871428D01*
X174052380Y-130728571D01*
X174052380Y-130633333D01*
X174100000Y-130490476D01*
X174147619Y-130442857D01*
X174147619Y-130061904D02*
X174100000Y-130014285D01*
X174052380Y-129919047D01*
X174052380Y-129680952D01*
X174100000Y-129585714D01*
X174147619Y-129538095D01*
X174242857Y-129490476D01*
X174338095Y-129490476D01*
X174480952Y-129538095D01*
X175052380Y-130109523D01*
X175052380Y-129490476D01*
X174385714Y-128633333D02*
X175052380Y-128633333D01*
X174004761Y-128871428D02*
X174719047Y-129109523D01*
X174719047Y-128490476D01*
X161057142Y-135142857D02*
X161104761Y-135190476D01*
X161152380Y-135333333D01*
X161152380Y-135428571D01*
X161104761Y-135571428D01*
X161009523Y-135666666D01*
X160914285Y-135714285D01*
X160723809Y-135761904D01*
X160580952Y-135761904D01*
X160390476Y-135714285D01*
X160295238Y-135666666D01*
X160200000Y-135571428D01*
X160152380Y-135428571D01*
X160152380Y-135333333D01*
X160200000Y-135190476D01*
X160247619Y-135142857D01*
X160247619Y-134761904D02*
X160200000Y-134714285D01*
X160152380Y-134619047D01*
X160152380Y-134380952D01*
X160200000Y-134285714D01*
X160247619Y-134238095D01*
X160342857Y-134190476D01*
X160438095Y-134190476D01*
X160580952Y-134238095D01*
X161152380Y-134809523D01*
X161152380Y-134190476D01*
X160152380Y-133285714D02*
X160152380Y-133761904D01*
X160628571Y-133809523D01*
X160580952Y-133761904D01*
X160533333Y-133666666D01*
X160533333Y-133428571D01*
X160580952Y-133333333D01*
X160628571Y-133285714D01*
X160723809Y-133238095D01*
X160961904Y-133238095D01*
X161057142Y-133285714D01*
X161104761Y-133333333D01*
X161152380Y-133428571D01*
X161152380Y-133666666D01*
X161104761Y-133761904D01*
X161057142Y-133809523D01*
X139557142Y-122842857D02*
X139604761Y-122890476D01*
X139652380Y-123033333D01*
X139652380Y-123128571D01*
X139604761Y-123271428D01*
X139509523Y-123366666D01*
X139414285Y-123414285D01*
X139223809Y-123461904D01*
X139080952Y-123461904D01*
X138890476Y-123414285D01*
X138795238Y-123366666D01*
X138700000Y-123271428D01*
X138652380Y-123128571D01*
X138652380Y-123033333D01*
X138700000Y-122890476D01*
X138747619Y-122842857D01*
X138747619Y-122461904D02*
X138700000Y-122414285D01*
X138652380Y-122319047D01*
X138652380Y-122080952D01*
X138700000Y-121985714D01*
X138747619Y-121938095D01*
X138842857Y-121890476D01*
X138938095Y-121890476D01*
X139080952Y-121938095D01*
X139652380Y-122509523D01*
X139652380Y-121890476D01*
X138652380Y-121033333D02*
X138652380Y-121223809D01*
X138700000Y-121319047D01*
X138747619Y-121366666D01*
X138890476Y-121461904D01*
X139080952Y-121509523D01*
X139461904Y-121509523D01*
X139557142Y-121461904D01*
X139604761Y-121414285D01*
X139652380Y-121319047D01*
X139652380Y-121128571D01*
X139604761Y-121033333D01*
X139557142Y-120985714D01*
X139461904Y-120938095D01*
X139223809Y-120938095D01*
X139128571Y-120985714D01*
X139080952Y-121033333D01*
X139033333Y-121128571D01*
X139033333Y-121319047D01*
X139080952Y-121414285D01*
X139128571Y-121461904D01*
X139223809Y-121509523D01*
X144657142Y-145642857D02*
X144704761Y-145690476D01*
X144752380Y-145833333D01*
X144752380Y-145928571D01*
X144704761Y-146071428D01*
X144609523Y-146166666D01*
X144514285Y-146214285D01*
X144323809Y-146261904D01*
X144180952Y-146261904D01*
X143990476Y-146214285D01*
X143895238Y-146166666D01*
X143800000Y-146071428D01*
X143752380Y-145928571D01*
X143752380Y-145833333D01*
X143800000Y-145690476D01*
X143847619Y-145642857D01*
X143847619Y-145261904D02*
X143800000Y-145214285D01*
X143752380Y-145119047D01*
X143752380Y-144880952D01*
X143800000Y-144785714D01*
X143847619Y-144738095D01*
X143942857Y-144690476D01*
X144038095Y-144690476D01*
X144180952Y-144738095D01*
X144752380Y-145309523D01*
X144752380Y-144690476D01*
X144180952Y-144119047D02*
X144133333Y-144214285D01*
X144085714Y-144261904D01*
X143990476Y-144309523D01*
X143942857Y-144309523D01*
X143847619Y-144261904D01*
X143800000Y-144214285D01*
X143752380Y-144119047D01*
X143752380Y-143928571D01*
X143800000Y-143833333D01*
X143847619Y-143785714D01*
X143942857Y-143738095D01*
X143990476Y-143738095D01*
X144085714Y-143785714D01*
X144133333Y-143833333D01*
X144180952Y-143928571D01*
X144180952Y-144119047D01*
X144228571Y-144214285D01*
X144276190Y-144261904D01*
X144371428Y-144309523D01*
X144561904Y-144309523D01*
X144657142Y-144261904D01*
X144704761Y-144214285D01*
X144752380Y-144119047D01*
X144752380Y-143928571D01*
X144704761Y-143833333D01*
X144657142Y-143785714D01*
X144561904Y-143738095D01*
X144371428Y-143738095D01*
X144276190Y-143785714D01*
X144228571Y-143833333D01*
X144180952Y-143928571D01*
X153338095Y-128857142D02*
X153290476Y-128904761D01*
X153147619Y-128952380D01*
X153052380Y-128952380D01*
X152909523Y-128904761D01*
X152814285Y-128809523D01*
X152766666Y-128714285D01*
X152719047Y-128523809D01*
X152719047Y-128380952D01*
X152766666Y-128190476D01*
X152814285Y-128095238D01*
X152909523Y-128000000D01*
X153052380Y-127952380D01*
X153147619Y-127952380D01*
X153290476Y-128000000D01*
X153338095Y-128047619D01*
X153766666Y-128952380D02*
X153766666Y-127952380D01*
X154195238Y-128952380D02*
X154195238Y-128428571D01*
X154147619Y-128333333D01*
X154052380Y-128285714D01*
X153909523Y-128285714D01*
X153814285Y-128333333D01*
X153766666Y-128380952D01*
X155100000Y-128952380D02*
X155100000Y-128428571D01*
X155052380Y-128333333D01*
X154957142Y-128285714D01*
X154766666Y-128285714D01*
X154671428Y-128333333D01*
X155100000Y-128904761D02*
X155004761Y-128952380D01*
X154766666Y-128952380D01*
X154671428Y-128904761D01*
X154623809Y-128809523D01*
X154623809Y-128714285D01*
X154671428Y-128619047D01*
X154766666Y-128571428D01*
X155004761Y-128571428D01*
X155100000Y-128523809D01*
X155576190Y-128952380D02*
X155576190Y-128285714D01*
X155576190Y-128476190D02*
X155623809Y-128380952D01*
X155671428Y-128333333D01*
X155766666Y-128285714D01*
X155861904Y-128285714D01*
X156623809Y-128285714D02*
X156623809Y-129095238D01*
X156576190Y-129190476D01*
X156528571Y-129238095D01*
X156433333Y-129285714D01*
X156290476Y-129285714D01*
X156195238Y-129238095D01*
X156623809Y-128904761D02*
X156528571Y-128952380D01*
X156338095Y-128952380D01*
X156242857Y-128904761D01*
X156195238Y-128857142D01*
X156147619Y-128761904D01*
X156147619Y-128476190D01*
X156195238Y-128380952D01*
X156242857Y-128333333D01*
X156338095Y-128285714D01*
X156528571Y-128285714D01*
X156623809Y-128333333D01*
X157480952Y-128904761D02*
X157385714Y-128952380D01*
X157195238Y-128952380D01*
X157100000Y-128904761D01*
X157052380Y-128809523D01*
X157052380Y-128428571D01*
X157100000Y-128333333D01*
X157195238Y-128285714D01*
X157385714Y-128285714D01*
X157480952Y-128333333D01*
X157528571Y-128428571D01*
X157528571Y-128523809D01*
X157052380Y-128619047D01*
X158480952Y-128952380D02*
X157909523Y-128952380D01*
X158195238Y-128952380D02*
X158195238Y-127952380D01*
X158100000Y-128095238D01*
X158004761Y-128190476D01*
X157909523Y-128238095D01*
X132461904Y-162652380D02*
X132461904Y-161652380D01*
X132700000Y-161652380D01*
X132842857Y-161700000D01*
X132938095Y-161795238D01*
X132985714Y-161890476D01*
X133033333Y-162080952D01*
X133033333Y-162223809D01*
X132985714Y-162414285D01*
X132938095Y-162509523D01*
X132842857Y-162604761D01*
X132700000Y-162652380D01*
X132461904Y-162652380D01*
X133414285Y-161747619D02*
X133461904Y-161700000D01*
X133557142Y-161652380D01*
X133795238Y-161652380D01*
X133890476Y-161700000D01*
X133938095Y-161747619D01*
X133985714Y-161842857D01*
X133985714Y-161938095D01*
X133938095Y-162080952D01*
X133366666Y-162652380D01*
X133985714Y-162652380D01*
X165161904Y-126452380D02*
X165161904Y-125452380D01*
X165400000Y-125452380D01*
X165542857Y-125500000D01*
X165638095Y-125595238D01*
X165685714Y-125690476D01*
X165733333Y-125880952D01*
X165733333Y-126023809D01*
X165685714Y-126214285D01*
X165638095Y-126309523D01*
X165542857Y-126404761D01*
X165400000Y-126452380D01*
X165161904Y-126452380D01*
X166066666Y-125452380D02*
X166733333Y-125452380D01*
X166304761Y-126452380D01*
X139861904Y-128452380D02*
X139861904Y-127452380D01*
X140100000Y-127452380D01*
X140242857Y-127500000D01*
X140338095Y-127595238D01*
X140385714Y-127690476D01*
X140433333Y-127880952D01*
X140433333Y-128023809D01*
X140385714Y-128214285D01*
X140338095Y-128309523D01*
X140242857Y-128404761D01*
X140100000Y-128452380D01*
X139861904Y-128452380D01*
X141004761Y-127880952D02*
X140909523Y-127833333D01*
X140861904Y-127785714D01*
X140814285Y-127690476D01*
X140814285Y-127642857D01*
X140861904Y-127547619D01*
X140909523Y-127500000D01*
X141004761Y-127452380D01*
X141195238Y-127452380D01*
X141290476Y-127500000D01*
X141338095Y-127547619D01*
X141385714Y-127642857D01*
X141385714Y-127690476D01*
X141338095Y-127785714D01*
X141290476Y-127833333D01*
X141195238Y-127880952D01*
X141004761Y-127880952D01*
X140909523Y-127928571D01*
X140861904Y-127976190D01*
X140814285Y-128071428D01*
X140814285Y-128261904D01*
X140861904Y-128357142D01*
X140909523Y-128404761D01*
X141004761Y-128452380D01*
X141195238Y-128452380D01*
X141290476Y-128404761D01*
X141338095Y-128357142D01*
X141385714Y-128261904D01*
X141385714Y-128071428D01*
X141338095Y-127976190D01*
X141290476Y-127928571D01*
X141195238Y-127880952D01*
X154228571Y-130452380D02*
X154228571Y-129452380D01*
X154466666Y-129452380D01*
X154609523Y-129500000D01*
X154704761Y-129595238D01*
X154752380Y-129690476D01*
X154800000Y-129880952D01*
X154800000Y-130023809D01*
X154752380Y-130214285D01*
X154704761Y-130309523D01*
X154609523Y-130404761D01*
X154466666Y-130452380D01*
X154228571Y-130452380D01*
X155371428Y-130452380D02*
X155276190Y-130404761D01*
X155228571Y-130357142D01*
X155180952Y-130261904D01*
X155180952Y-129976190D01*
X155228571Y-129880952D01*
X155276190Y-129833333D01*
X155371428Y-129785714D01*
X155514285Y-129785714D01*
X155609523Y-129833333D01*
X155657142Y-129880952D01*
X155704761Y-129976190D01*
X155704761Y-130261904D01*
X155657142Y-130357142D01*
X155609523Y-130404761D01*
X155514285Y-130452380D01*
X155371428Y-130452380D01*
X156133333Y-129785714D02*
X156133333Y-130452380D01*
X156133333Y-129880952D02*
X156180952Y-129833333D01*
X156276190Y-129785714D01*
X156419047Y-129785714D01*
X156514285Y-129833333D01*
X156561904Y-129928571D01*
X156561904Y-130452380D01*
X157419047Y-130404761D02*
X157323809Y-130452380D01*
X157133333Y-130452380D01*
X157038095Y-130404761D01*
X156990476Y-130309523D01*
X156990476Y-129928571D01*
X157038095Y-129833333D01*
X157133333Y-129785714D01*
X157323809Y-129785714D01*
X157419047Y-129833333D01*
X157466666Y-129928571D01*
X157466666Y-130023809D01*
X156990476Y-130119047D01*
X158419047Y-130452380D02*
X157847619Y-130452380D01*
X158133333Y-130452380D02*
X158133333Y-129452380D01*
X158038095Y-129595238D01*
X157942857Y-129690476D01*
X157847619Y-129738095D01*
X197528571Y-154933333D02*
X197528571Y-155266666D01*
X198052380Y-155266666D02*
X197052380Y-155266666D01*
X197052380Y-154790476D01*
X198052380Y-153885714D02*
X198052380Y-154457142D01*
X198052380Y-154171428D02*
X197052380Y-154171428D01*
X197195238Y-154266666D01*
X197290476Y-154361904D01*
X197338095Y-154457142D01*
X114828571Y-131083333D02*
X114828571Y-131416666D01*
X115352380Y-131416666D02*
X114352380Y-131416666D01*
X114352380Y-130940476D01*
X114447619Y-130607142D02*
X114400000Y-130559523D01*
X114352380Y-130464285D01*
X114352380Y-130226190D01*
X114400000Y-130130952D01*
X114447619Y-130083333D01*
X114542857Y-130035714D01*
X114638095Y-130035714D01*
X114780952Y-130083333D01*
X115352380Y-130654761D01*
X115352380Y-130035714D01*
X208652040Y-161933540D02*
X209366770Y-161933540D01*
X209509716Y-161981189D01*
X209605013Y-162076486D01*
X209652662Y-162219432D01*
X209652662Y-162314730D01*
X209652662Y-160932918D02*
X209652662Y-161504702D01*
X209652662Y-161218810D02*
X208652040Y-161218810D01*
X208794986Y-161314108D01*
X208890283Y-161409405D01*
X208937932Y-161504702D01*
X208652380Y-138333333D02*
X209366666Y-138333333D01*
X209509523Y-138380952D01*
X209604761Y-138476190D01*
X209652380Y-138619047D01*
X209652380Y-138714285D01*
X208747619Y-137904761D02*
X208700000Y-137857142D01*
X208652380Y-137761904D01*
X208652380Y-137523809D01*
X208700000Y-137428571D01*
X208747619Y-137380952D01*
X208842857Y-137333333D01*
X208938095Y-137333333D01*
X209080952Y-137380952D01*
X209652380Y-137952380D01*
X209652380Y-137333333D01*
X137666666Y-156452380D02*
X137666666Y-157166666D01*
X137619047Y-157309523D01*
X137523809Y-157404761D01*
X137380952Y-157452380D01*
X137285714Y-157452380D01*
X138047619Y-156452380D02*
X138666666Y-156452380D01*
X138333333Y-156833333D01*
X138476190Y-156833333D01*
X138571428Y-156880952D01*
X138619047Y-156928571D01*
X138666666Y-157023809D01*
X138666666Y-157261904D01*
X138619047Y-157357142D01*
X138571428Y-157404761D01*
X138476190Y-157452380D01*
X138190476Y-157452380D01*
X138095238Y-157404761D01*
X138047619Y-157357142D01*
X116952380Y-139133333D02*
X117666666Y-139133333D01*
X117809523Y-139180952D01*
X117904761Y-139276190D01*
X117952380Y-139419047D01*
X117952380Y-139514285D01*
X117285714Y-138228571D02*
X117952380Y-138228571D01*
X116904761Y-138466666D02*
X117619047Y-138704761D01*
X117619047Y-138085714D01*
X117866459Y-148052040D02*
X117866459Y-148766770D01*
X117818810Y-148909716D01*
X117723513Y-149005013D01*
X117580567Y-149052662D01*
X117485270Y-149052662D01*
X118819432Y-148052040D02*
X118342946Y-148052040D01*
X118295297Y-148528527D01*
X118342946Y-148480878D01*
X118438243Y-148433229D01*
X118676486Y-148433229D01*
X118771784Y-148480878D01*
X118819432Y-148528527D01*
X118867081Y-148623824D01*
X118867081Y-148862067D01*
X118819432Y-148957365D01*
X118771784Y-149005013D01*
X118676486Y-149052662D01*
X118438243Y-149052662D01*
X118342946Y-149005013D01*
X118295297Y-148957365D01*
X202552380Y-108809523D02*
X203266666Y-108809523D01*
X203409523Y-108857142D01*
X203504761Y-108952380D01*
X203552380Y-109095238D01*
X203552380Y-109190476D01*
X203552380Y-107809523D02*
X203552380Y-108380952D01*
X203552380Y-108095238D02*
X202552380Y-108095238D01*
X202695238Y-108190476D01*
X202790476Y-108285714D01*
X202838095Y-108380952D01*
X203552380Y-106857142D02*
X203552380Y-107428571D01*
X203552380Y-107142857D02*
X202552380Y-107142857D01*
X202695238Y-107238095D01*
X202790476Y-107333333D01*
X202838095Y-107428571D01*
X194890476Y-84092380D02*
X194890476Y-84806666D01*
X194842857Y-84949523D01*
X194747619Y-85044761D01*
X194604761Y-85092380D01*
X194509523Y-85092380D01*
X195890476Y-85092380D02*
X195319047Y-85092380D01*
X195604761Y-85092380D02*
X195604761Y-84092380D01*
X195509523Y-84235238D01*
X195414285Y-84330476D01*
X195319047Y-84378095D01*
X196271428Y-84187619D02*
X196319047Y-84140000D01*
X196414285Y-84092380D01*
X196652380Y-84092380D01*
X196747619Y-84140000D01*
X196795238Y-84187619D01*
X196842857Y-84282857D01*
X196842857Y-84378095D01*
X196795238Y-84520952D01*
X196223809Y-85092380D01*
X196842857Y-85092380D01*
X171933333Y-128652380D02*
X171457142Y-128652380D01*
X171457142Y-127652380D01*
X172790476Y-128652380D02*
X172219047Y-128652380D01*
X172504761Y-128652380D02*
X172504761Y-127652380D01*
X172409523Y-127795238D01*
X172314285Y-127890476D01*
X172219047Y-127938095D01*
X153447619Y-131952380D02*
X153447619Y-130952380D01*
X153828571Y-130952380D01*
X153923809Y-131000000D01*
X153971428Y-131047619D01*
X154019047Y-131142857D01*
X154019047Y-131285714D01*
X153971428Y-131380952D01*
X153923809Y-131428571D01*
X153828571Y-131476190D01*
X153447619Y-131476190D01*
X154590476Y-131952380D02*
X154495238Y-131904761D01*
X154447619Y-131857142D01*
X154400000Y-131761904D01*
X154400000Y-131476190D01*
X154447619Y-131380952D01*
X154495238Y-131333333D01*
X154590476Y-131285714D01*
X154733333Y-131285714D01*
X154828571Y-131333333D01*
X154876190Y-131380952D01*
X154923809Y-131476190D01*
X154923809Y-131761904D01*
X154876190Y-131857142D01*
X154828571Y-131904761D01*
X154733333Y-131952380D01*
X154590476Y-131952380D01*
X155257142Y-131285714D02*
X155447619Y-131952380D01*
X155638095Y-131476190D01*
X155828571Y-131952380D01*
X156019047Y-131285714D01*
X156780952Y-131904761D02*
X156685714Y-131952380D01*
X156495238Y-131952380D01*
X156400000Y-131904761D01*
X156352380Y-131809523D01*
X156352380Y-131428571D01*
X156400000Y-131333333D01*
X156495238Y-131285714D01*
X156685714Y-131285714D01*
X156780952Y-131333333D01*
X156828571Y-131428571D01*
X156828571Y-131523809D01*
X156352380Y-131619047D01*
X157257142Y-131952380D02*
X157257142Y-131285714D01*
X157257142Y-131476190D02*
X157304761Y-131380952D01*
X157352380Y-131333333D01*
X157447619Y-131285714D01*
X157542857Y-131285714D01*
X158400000Y-131952380D02*
X157828571Y-131952380D01*
X158114285Y-131952380D02*
X158114285Y-130952380D01*
X158019047Y-131095238D01*
X157923809Y-131190476D01*
X157828571Y-131238095D01*
X137248623Y-124595412D02*
X137200917Y-124690825D01*
X137105504Y-124786238D01*
X136962385Y-124929357D01*
X136914678Y-125024770D01*
X136914678Y-125120183D01*
X137153211Y-125072477D02*
X137105504Y-125167890D01*
X137010091Y-125263302D01*
X136819266Y-125311009D01*
X136485321Y-125311009D01*
X136294495Y-125263302D01*
X136199082Y-125167890D01*
X136151376Y-125072477D01*
X136151376Y-124881651D01*
X136199082Y-124786238D01*
X136294495Y-124690825D01*
X136485321Y-124643119D01*
X136819266Y-124643119D01*
X137010091Y-124690825D01*
X137105504Y-124786238D01*
X137153211Y-124881651D01*
X137153211Y-125072477D01*
X137153211Y-123688990D02*
X137153211Y-124261467D01*
X137153211Y-123975229D02*
X136151376Y-123975229D01*
X136294495Y-124070642D01*
X136389908Y-124166055D01*
X136437614Y-124261467D01*
X137248623Y-134895412D02*
X137200917Y-134990825D01*
X137105504Y-135086238D01*
X136962385Y-135229357D01*
X136914678Y-135324770D01*
X136914678Y-135420183D01*
X137153211Y-135372477D02*
X137105504Y-135467890D01*
X137010091Y-135563302D01*
X136819266Y-135611009D01*
X136485321Y-135611009D01*
X136294495Y-135563302D01*
X136199082Y-135467890D01*
X136151376Y-135372477D01*
X136151376Y-135181651D01*
X136199082Y-135086238D01*
X136294495Y-134990825D01*
X136485321Y-134943119D01*
X136819266Y-134943119D01*
X137010091Y-134990825D01*
X137105504Y-135086238D01*
X137153211Y-135181651D01*
X137153211Y-135372477D01*
X136246788Y-134561467D02*
X136199082Y-134513761D01*
X136151376Y-134418348D01*
X136151376Y-134179816D01*
X136199082Y-134084403D01*
X136246788Y-134036697D01*
X136342201Y-133988990D01*
X136437614Y-133988990D01*
X136580733Y-134036697D01*
X137153211Y-134609174D01*
X137153211Y-133988990D01*
X143679362Y-138340748D02*
X143583949Y-138293042D01*
X143488536Y-138197629D01*
X143345417Y-138054510D01*
X143250004Y-138006803D01*
X143154591Y-138006803D01*
X143202297Y-138245336D02*
X143106885Y-138197629D01*
X143011472Y-138102216D01*
X142963765Y-137911391D01*
X142963765Y-137577446D01*
X143011472Y-137386620D01*
X143106885Y-137291207D01*
X143202297Y-137243501D01*
X143393123Y-137243501D01*
X143488536Y-137291207D01*
X143583949Y-137386620D01*
X143631655Y-137577446D01*
X143631655Y-137911391D01*
X143583949Y-138102216D01*
X143488536Y-138197629D01*
X143393123Y-138245336D01*
X143202297Y-138245336D01*
X144490371Y-137243501D02*
X144299545Y-137243501D01*
X144204132Y-137291207D01*
X144156426Y-137338913D01*
X144061013Y-137482033D01*
X144013307Y-137672858D01*
X144013307Y-138054510D01*
X144061013Y-138149923D01*
X144108720Y-138197629D01*
X144204132Y-138245336D01*
X144394958Y-138245336D01*
X144490371Y-138197629D01*
X144538077Y-138149923D01*
X144585784Y-138054510D01*
X144585784Y-137815978D01*
X144538077Y-137720565D01*
X144490371Y-137672858D01*
X144394958Y-137625152D01*
X144204132Y-137625152D01*
X144108720Y-137672858D01*
X144061013Y-137720565D01*
X144013307Y-137815978D01*
X153047619Y-127495238D02*
X153000000Y-127590476D01*
X152904761Y-127685714D01*
X152761904Y-127828571D01*
X152714285Y-127923809D01*
X152714285Y-128019047D01*
X152952380Y-127971428D02*
X152904761Y-128066666D01*
X152809523Y-128161904D01*
X152619047Y-128209523D01*
X152285714Y-128209523D01*
X152095238Y-128161904D01*
X152000000Y-128066666D01*
X151952380Y-127971428D01*
X151952380Y-127780952D01*
X152000000Y-127685714D01*
X152095238Y-127590476D01*
X152285714Y-127542857D01*
X152619047Y-127542857D01*
X152809523Y-127590476D01*
X152904761Y-127685714D01*
X152952380Y-127780952D01*
X152952380Y-127971428D01*
X151952380Y-127209523D02*
X151952380Y-126542857D01*
X152952380Y-126971428D01*
X147304761Y-127147619D02*
X147209523Y-127100000D01*
X147114285Y-127004761D01*
X146971428Y-126861904D01*
X146876190Y-126814285D01*
X146780952Y-126814285D01*
X146828571Y-127052380D02*
X146733333Y-127004761D01*
X146638095Y-126909523D01*
X146590476Y-126719047D01*
X146590476Y-126385714D01*
X146638095Y-126195238D01*
X146733333Y-126100000D01*
X146828571Y-126052380D01*
X147019047Y-126052380D01*
X147114285Y-126100000D01*
X147209523Y-126195238D01*
X147257142Y-126385714D01*
X147257142Y-126719047D01*
X147209523Y-126909523D01*
X147114285Y-127004761D01*
X147019047Y-127052380D01*
X146828571Y-127052380D01*
X147828571Y-126480952D02*
X147733333Y-126433333D01*
X147685714Y-126385714D01*
X147638095Y-126290476D01*
X147638095Y-126242857D01*
X147685714Y-126147619D01*
X147733333Y-126100000D01*
X147828571Y-126052380D01*
X148019047Y-126052380D01*
X148114285Y-126100000D01*
X148161904Y-126147619D01*
X148209523Y-126242857D01*
X148209523Y-126290476D01*
X148161904Y-126385714D01*
X148114285Y-126433333D01*
X148019047Y-126480952D01*
X147828571Y-126480952D01*
X147733333Y-126528571D01*
X147685714Y-126576190D01*
X147638095Y-126671428D01*
X147638095Y-126861904D01*
X147685714Y-126957142D01*
X147733333Y-127004761D01*
X147828571Y-127052380D01*
X148019047Y-127052380D01*
X148114285Y-127004761D01*
X148161904Y-126957142D01*
X148209523Y-126861904D01*
X148209523Y-126671428D01*
X148161904Y-126576190D01*
X148114285Y-126528571D01*
X148019047Y-126480952D01*
X144552380Y-152966666D02*
X144076190Y-153300000D01*
X144552380Y-153538095D02*
X143552380Y-153538095D01*
X143552380Y-153157142D01*
X143600000Y-153061904D01*
X143647619Y-153014285D01*
X143742857Y-152966666D01*
X143885714Y-152966666D01*
X143980952Y-153014285D01*
X144028571Y-153061904D01*
X144076190Y-153157142D01*
X144076190Y-153538095D01*
X144552380Y-152014285D02*
X144552380Y-152585714D01*
X144552380Y-152300000D02*
X143552380Y-152300000D01*
X143695238Y-152395238D01*
X143790476Y-152490476D01*
X143838095Y-152585714D01*
X188152380Y-123366666D02*
X187676190Y-123700000D01*
X188152380Y-123938095D02*
X187152380Y-123938095D01*
X187152380Y-123557142D01*
X187200000Y-123461904D01*
X187247619Y-123414285D01*
X187342857Y-123366666D01*
X187485714Y-123366666D01*
X187580952Y-123414285D01*
X187628571Y-123461904D01*
X187676190Y-123557142D01*
X187676190Y-123938095D01*
X187247619Y-122985714D02*
X187200000Y-122938095D01*
X187152380Y-122842857D01*
X187152380Y-122604761D01*
X187200000Y-122509523D01*
X187247619Y-122461904D01*
X187342857Y-122414285D01*
X187438095Y-122414285D01*
X187580952Y-122461904D01*
X188152380Y-123033333D01*
X188152380Y-122414285D01*
X186133333Y-125852380D02*
X185800000Y-125376190D01*
X185561904Y-125852380D02*
X185561904Y-124852380D01*
X185942857Y-124852380D01*
X186038095Y-124900000D01*
X186085714Y-124947619D01*
X186133333Y-125042857D01*
X186133333Y-125185714D01*
X186085714Y-125280952D01*
X186038095Y-125328571D01*
X185942857Y-125376190D01*
X185561904Y-125376190D01*
X186466666Y-124852380D02*
X187085714Y-124852380D01*
X186752380Y-125233333D01*
X186895238Y-125233333D01*
X186990476Y-125280952D01*
X187038095Y-125328571D01*
X187085714Y-125423809D01*
X187085714Y-125661904D01*
X187038095Y-125757142D01*
X186990476Y-125804761D01*
X186895238Y-125852380D01*
X186609523Y-125852380D01*
X186514285Y-125804761D01*
X186466666Y-125757142D01*
X196852380Y-123366666D02*
X196376190Y-123700000D01*
X196852380Y-123938095D02*
X195852380Y-123938095D01*
X195852380Y-123557142D01*
X195900000Y-123461904D01*
X195947619Y-123414285D01*
X196042857Y-123366666D01*
X196185714Y-123366666D01*
X196280952Y-123414285D01*
X196328571Y-123461904D01*
X196376190Y-123557142D01*
X196376190Y-123938095D01*
X195852380Y-122509523D02*
X195852380Y-122700000D01*
X195900000Y-122795238D01*
X195947619Y-122842857D01*
X196090476Y-122938095D01*
X196280952Y-122985714D01*
X196661904Y-122985714D01*
X196757142Y-122938095D01*
X196804761Y-122890476D01*
X196852380Y-122795238D01*
X196852380Y-122604761D01*
X196804761Y-122509523D01*
X196757142Y-122461904D01*
X196661904Y-122414285D01*
X196423809Y-122414285D01*
X196328571Y-122461904D01*
X196280952Y-122509523D01*
X196233333Y-122604761D01*
X196233333Y-122795238D01*
X196280952Y-122890476D01*
X196328571Y-122938095D01*
X196423809Y-122985714D01*
X132633333Y-161052380D02*
X132300000Y-160576190D01*
X132061904Y-161052380D02*
X132061904Y-160052380D01*
X132442857Y-160052380D01*
X132538095Y-160100000D01*
X132585714Y-160147619D01*
X132633333Y-160242857D01*
X132633333Y-160385714D01*
X132585714Y-160480952D01*
X132538095Y-160528571D01*
X132442857Y-160576190D01*
X132061904Y-160576190D01*
X132966666Y-160052380D02*
X133633333Y-160052380D01*
X133204761Y-161052380D01*
X132633333Y-159552380D02*
X132300000Y-159076190D01*
X132061904Y-159552380D02*
X132061904Y-158552380D01*
X132442857Y-158552380D01*
X132538095Y-158600000D01*
X132585714Y-158647619D01*
X132633333Y-158742857D01*
X132633333Y-158885714D01*
X132585714Y-158980952D01*
X132538095Y-159028571D01*
X132442857Y-159076190D01*
X132061904Y-159076190D01*
X133204761Y-158980952D02*
X133109523Y-158933333D01*
X133061904Y-158885714D01*
X133014285Y-158790476D01*
X133014285Y-158742857D01*
X133061904Y-158647619D01*
X133109523Y-158600000D01*
X133204761Y-158552380D01*
X133395238Y-158552380D01*
X133490476Y-158600000D01*
X133538095Y-158647619D01*
X133585714Y-158742857D01*
X133585714Y-158790476D01*
X133538095Y-158885714D01*
X133490476Y-158933333D01*
X133395238Y-158980952D01*
X133204761Y-158980952D01*
X133109523Y-159028571D01*
X133061904Y-159076190D01*
X133014285Y-159171428D01*
X133014285Y-159361904D01*
X133061904Y-159457142D01*
X133109523Y-159504761D01*
X133204761Y-159552380D01*
X133395238Y-159552380D01*
X133490476Y-159504761D01*
X133538095Y-159457142D01*
X133585714Y-159361904D01*
X133585714Y-159171428D01*
X133538095Y-159076190D01*
X133490476Y-159028571D01*
X133395238Y-158980952D01*
X203133333Y-123652380D02*
X202800000Y-123176190D01*
X202561904Y-123652380D02*
X202561904Y-122652380D01*
X202942857Y-122652380D01*
X203038095Y-122700000D01*
X203085714Y-122747619D01*
X203133333Y-122842857D01*
X203133333Y-122985714D01*
X203085714Y-123080952D01*
X203038095Y-123128571D01*
X202942857Y-123176190D01*
X202561904Y-123176190D01*
X203609523Y-123652380D02*
X203800000Y-123652380D01*
X203895238Y-123604761D01*
X203942857Y-123557142D01*
X204038095Y-123414285D01*
X204085714Y-123223809D01*
X204085714Y-122842857D01*
X204038095Y-122747619D01*
X203990476Y-122700000D01*
X203895238Y-122652380D01*
X203704761Y-122652380D01*
X203609523Y-122700000D01*
X203561904Y-122747619D01*
X203514285Y-122842857D01*
X203514285Y-123080952D01*
X203561904Y-123176190D01*
X203609523Y-123223809D01*
X203704761Y-123271428D01*
X203895238Y-123271428D01*
X203990476Y-123223809D01*
X204038095Y-123176190D01*
X204085714Y-123080952D01*
X202657142Y-131552380D02*
X202323809Y-131076190D01*
X202085714Y-131552380D02*
X202085714Y-130552380D01*
X202466666Y-130552380D01*
X202561904Y-130600000D01*
X202609523Y-130647619D01*
X202657142Y-130742857D01*
X202657142Y-130885714D01*
X202609523Y-130980952D01*
X202561904Y-131028571D01*
X202466666Y-131076190D01*
X202085714Y-131076190D01*
X203609523Y-131552380D02*
X203038095Y-131552380D01*
X203323809Y-131552380D02*
X203323809Y-130552380D01*
X203228571Y-130695238D01*
X203133333Y-130790476D01*
X203038095Y-130838095D01*
X204228571Y-130552380D02*
X204323809Y-130552380D01*
X204419047Y-130600000D01*
X204466666Y-130647619D01*
X204514285Y-130742857D01*
X204561904Y-130933333D01*
X204561904Y-131171428D01*
X204514285Y-131361904D01*
X204466666Y-131457142D01*
X204419047Y-131504761D01*
X204323809Y-131552380D01*
X204228571Y-131552380D01*
X204133333Y-131504761D01*
X204085714Y-131457142D01*
X204038095Y-131361904D01*
X203990476Y-131171428D01*
X203990476Y-130933333D01*
X204038095Y-130742857D01*
X204085714Y-130647619D01*
X204133333Y-130600000D01*
X204228571Y-130552380D01*
X199152380Y-130042857D02*
X198676190Y-130376190D01*
X199152380Y-130614285D02*
X198152380Y-130614285D01*
X198152380Y-130233333D01*
X198200000Y-130138095D01*
X198247619Y-130090476D01*
X198342857Y-130042857D01*
X198485714Y-130042857D01*
X198580952Y-130090476D01*
X198628571Y-130138095D01*
X198676190Y-130233333D01*
X198676190Y-130614285D01*
X199152380Y-129090476D02*
X199152380Y-129661904D01*
X199152380Y-129376190D02*
X198152380Y-129376190D01*
X198295238Y-129471428D01*
X198390476Y-129566666D01*
X198438095Y-129661904D01*
X199152380Y-128138095D02*
X199152380Y-128709523D01*
X199152380Y-128423809D02*
X198152380Y-128423809D01*
X198295238Y-128519047D01*
X198390476Y-128614285D01*
X198438095Y-128709523D01*
X199152380Y-127242857D02*
X198676190Y-127576190D01*
X199152380Y-127814285D02*
X198152380Y-127814285D01*
X198152380Y-127433333D01*
X198200000Y-127338095D01*
X198247619Y-127290476D01*
X198342857Y-127242857D01*
X198485714Y-127242857D01*
X198580952Y-127290476D01*
X198628571Y-127338095D01*
X198676190Y-127433333D01*
X198676190Y-127814285D01*
X199152380Y-126290476D02*
X199152380Y-126861904D01*
X199152380Y-126576190D02*
X198152380Y-126576190D01*
X198295238Y-126671428D01*
X198390476Y-126766666D01*
X198438095Y-126861904D01*
X198247619Y-125909523D02*
X198200000Y-125861904D01*
X198152380Y-125766666D01*
X198152380Y-125528571D01*
X198200000Y-125433333D01*
X198247619Y-125385714D01*
X198342857Y-125338095D01*
X198438095Y-125338095D01*
X198580952Y-125385714D01*
X199152380Y-125957142D01*
X199152380Y-125338095D01*
X147557142Y-125552380D02*
X147223809Y-125076190D01*
X146985714Y-125552380D02*
X146985714Y-124552380D01*
X147366666Y-124552380D01*
X147461904Y-124600000D01*
X147509523Y-124647619D01*
X147557142Y-124742857D01*
X147557142Y-124885714D01*
X147509523Y-124980952D01*
X147461904Y-125028571D01*
X147366666Y-125076190D01*
X146985714Y-125076190D01*
X148509523Y-125552380D02*
X147938095Y-125552380D01*
X148223809Y-125552380D02*
X148223809Y-124552380D01*
X148128571Y-124695238D01*
X148033333Y-124790476D01*
X147938095Y-124838095D01*
X148985714Y-125552380D02*
X149176190Y-125552380D01*
X149271428Y-125504761D01*
X149319047Y-125457142D01*
X149414285Y-125314285D01*
X149461904Y-125123809D01*
X149461904Y-124742857D01*
X149414285Y-124647619D01*
X149366666Y-124600000D01*
X149271428Y-124552380D01*
X149080952Y-124552380D01*
X148985714Y-124600000D01*
X148938095Y-124647619D01*
X148890476Y-124742857D01*
X148890476Y-124980952D01*
X148938095Y-125076190D01*
X148985714Y-125123809D01*
X149080952Y-125171428D01*
X149271428Y-125171428D01*
X149366666Y-125123809D01*
X149414285Y-125076190D01*
X149461904Y-124980952D01*
X201557142Y-117452380D02*
X201223809Y-116976190D01*
X200985714Y-117452380D02*
X200985714Y-116452380D01*
X201366666Y-116452380D01*
X201461904Y-116500000D01*
X201509523Y-116547619D01*
X201557142Y-116642857D01*
X201557142Y-116785714D01*
X201509523Y-116880952D01*
X201461904Y-116928571D01*
X201366666Y-116976190D01*
X200985714Y-116976190D01*
X201938095Y-116547619D02*
X201985714Y-116500000D01*
X202080952Y-116452380D01*
X202319047Y-116452380D01*
X202414285Y-116500000D01*
X202461904Y-116547619D01*
X202509523Y-116642857D01*
X202509523Y-116738095D01*
X202461904Y-116880952D01*
X201890476Y-117452380D01*
X202509523Y-117452380D01*
X203461904Y-117452380D02*
X202890476Y-117452380D01*
X203176190Y-117452380D02*
X203176190Y-116452380D01*
X203080952Y-116595238D01*
X202985714Y-116690476D01*
X202890476Y-116738095D01*
X194052380Y-104542857D02*
X193576190Y-104876190D01*
X194052380Y-105114285D02*
X193052380Y-105114285D01*
X193052380Y-104733333D01*
X193100000Y-104638095D01*
X193147619Y-104590476D01*
X193242857Y-104542857D01*
X193385714Y-104542857D01*
X193480952Y-104590476D01*
X193528571Y-104638095D01*
X193576190Y-104733333D01*
X193576190Y-105114285D01*
X193147619Y-104161904D02*
X193100000Y-104114285D01*
X193052380Y-104019047D01*
X193052380Y-103780952D01*
X193100000Y-103685714D01*
X193147619Y-103638095D01*
X193242857Y-103590476D01*
X193338095Y-103590476D01*
X193480952Y-103638095D01*
X194052380Y-104209523D01*
X194052380Y-103590476D01*
X193147619Y-103209523D02*
X193100000Y-103161904D01*
X193052380Y-103066666D01*
X193052380Y-102828571D01*
X193100000Y-102733333D01*
X193147619Y-102685714D01*
X193242857Y-102638095D01*
X193338095Y-102638095D01*
X193480952Y-102685714D01*
X194052380Y-103257142D01*
X194052380Y-102638095D01*
X201557142Y-115852380D02*
X201223809Y-115376190D01*
X200985714Y-115852380D02*
X200985714Y-114852380D01*
X201366666Y-114852380D01*
X201461904Y-114900000D01*
X201509523Y-114947619D01*
X201557142Y-115042857D01*
X201557142Y-115185714D01*
X201509523Y-115280952D01*
X201461904Y-115328571D01*
X201366666Y-115376190D01*
X200985714Y-115376190D01*
X201938095Y-114947619D02*
X201985714Y-114900000D01*
X202080952Y-114852380D01*
X202319047Y-114852380D01*
X202414285Y-114900000D01*
X202461904Y-114947619D01*
X202509523Y-115042857D01*
X202509523Y-115138095D01*
X202461904Y-115280952D01*
X201890476Y-115852380D01*
X202509523Y-115852380D01*
X202842857Y-114852380D02*
X203461904Y-114852380D01*
X203128571Y-115233333D01*
X203271428Y-115233333D01*
X203366666Y-115280952D01*
X203414285Y-115328571D01*
X203461904Y-115423809D01*
X203461904Y-115661904D01*
X203414285Y-115757142D01*
X203366666Y-115804761D01*
X203271428Y-115852380D01*
X202985714Y-115852380D01*
X202890476Y-115804761D01*
X202842857Y-115757142D01*
X194052380Y-101842857D02*
X193576190Y-102176190D01*
X194052380Y-102414285D02*
X193052380Y-102414285D01*
X193052380Y-102033333D01*
X193100000Y-101938095D01*
X193147619Y-101890476D01*
X193242857Y-101842857D01*
X193385714Y-101842857D01*
X193480952Y-101890476D01*
X193528571Y-101938095D01*
X193576190Y-102033333D01*
X193576190Y-102414285D01*
X193147619Y-101461904D02*
X193100000Y-101414285D01*
X193052380Y-101319047D01*
X193052380Y-101080952D01*
X193100000Y-100985714D01*
X193147619Y-100938095D01*
X193242857Y-100890476D01*
X193338095Y-100890476D01*
X193480952Y-100938095D01*
X194052380Y-101509523D01*
X194052380Y-100890476D01*
X193385714Y-100033333D02*
X194052380Y-100033333D01*
X193004761Y-100271428D02*
X193719047Y-100509523D01*
X193719047Y-99890476D01*
X201557142Y-114452380D02*
X201223809Y-113976190D01*
X200985714Y-114452380D02*
X200985714Y-113452380D01*
X201366666Y-113452380D01*
X201461904Y-113500000D01*
X201509523Y-113547619D01*
X201557142Y-113642857D01*
X201557142Y-113785714D01*
X201509523Y-113880952D01*
X201461904Y-113928571D01*
X201366666Y-113976190D01*
X200985714Y-113976190D01*
X201938095Y-113547619D02*
X201985714Y-113500000D01*
X202080952Y-113452380D01*
X202319047Y-113452380D01*
X202414285Y-113500000D01*
X202461904Y-113547619D01*
X202509523Y-113642857D01*
X202509523Y-113738095D01*
X202461904Y-113880952D01*
X201890476Y-114452380D01*
X202509523Y-114452380D01*
X203414285Y-113452380D02*
X202938095Y-113452380D01*
X202890476Y-113928571D01*
X202938095Y-113880952D01*
X203033333Y-113833333D01*
X203271428Y-113833333D01*
X203366666Y-113880952D01*
X203414285Y-113928571D01*
X203461904Y-114023809D01*
X203461904Y-114261904D01*
X203414285Y-114357142D01*
X203366666Y-114404761D01*
X203271428Y-114452380D01*
X203033333Y-114452380D01*
X202938095Y-114404761D01*
X202890476Y-114357142D01*
X194052380Y-99142857D02*
X193576190Y-99476190D01*
X194052380Y-99714285D02*
X193052380Y-99714285D01*
X193052380Y-99333333D01*
X193100000Y-99238095D01*
X193147619Y-99190476D01*
X193242857Y-99142857D01*
X193385714Y-99142857D01*
X193480952Y-99190476D01*
X193528571Y-99238095D01*
X193576190Y-99333333D01*
X193576190Y-99714285D01*
X193147619Y-98761904D02*
X193100000Y-98714285D01*
X193052380Y-98619047D01*
X193052380Y-98380952D01*
X193100000Y-98285714D01*
X193147619Y-98238095D01*
X193242857Y-98190476D01*
X193338095Y-98190476D01*
X193480952Y-98238095D01*
X194052380Y-98809523D01*
X194052380Y-98190476D01*
X193052380Y-97333333D02*
X193052380Y-97523809D01*
X193100000Y-97619047D01*
X193147619Y-97666666D01*
X193290476Y-97761904D01*
X193480952Y-97809523D01*
X193861904Y-97809523D01*
X193957142Y-97761904D01*
X194004761Y-97714285D01*
X194052380Y-97619047D01*
X194052380Y-97428571D01*
X194004761Y-97333333D01*
X193957142Y-97285714D01*
X193861904Y-97238095D01*
X193623809Y-97238095D01*
X193528571Y-97285714D01*
X193480952Y-97333333D01*
X193433333Y-97428571D01*
X193433333Y-97619047D01*
X193480952Y-97714285D01*
X193528571Y-97761904D01*
X193623809Y-97809523D01*
X194052380Y-96442857D02*
X193576190Y-96776190D01*
X194052380Y-97014285D02*
X193052380Y-97014285D01*
X193052380Y-96633333D01*
X193100000Y-96538095D01*
X193147619Y-96490476D01*
X193242857Y-96442857D01*
X193385714Y-96442857D01*
X193480952Y-96490476D01*
X193528571Y-96538095D01*
X193576190Y-96633333D01*
X193576190Y-97014285D01*
X193147619Y-96061904D02*
X193100000Y-96014285D01*
X193052380Y-95919047D01*
X193052380Y-95680952D01*
X193100000Y-95585714D01*
X193147619Y-95538095D01*
X193242857Y-95490476D01*
X193338095Y-95490476D01*
X193480952Y-95538095D01*
X194052380Y-96109523D01*
X194052380Y-95490476D01*
X193052380Y-95157142D02*
X193052380Y-94490476D01*
X194052380Y-94919047D01*
X201557142Y-112752380D02*
X201223809Y-112276190D01*
X200985714Y-112752380D02*
X200985714Y-111752380D01*
X201366666Y-111752380D01*
X201461904Y-111800000D01*
X201509523Y-111847619D01*
X201557142Y-111942857D01*
X201557142Y-112085714D01*
X201509523Y-112180952D01*
X201461904Y-112228571D01*
X201366666Y-112276190D01*
X200985714Y-112276190D01*
X201938095Y-111847619D02*
X201985714Y-111800000D01*
X202080952Y-111752380D01*
X202319047Y-111752380D01*
X202414285Y-111800000D01*
X202461904Y-111847619D01*
X202509523Y-111942857D01*
X202509523Y-112038095D01*
X202461904Y-112180952D01*
X201890476Y-112752380D01*
X202509523Y-112752380D01*
X203080952Y-112180952D02*
X202985714Y-112133333D01*
X202938095Y-112085714D01*
X202890476Y-111990476D01*
X202890476Y-111942857D01*
X202938095Y-111847619D01*
X202985714Y-111800000D01*
X203080952Y-111752380D01*
X203271428Y-111752380D01*
X203366666Y-111800000D01*
X203414285Y-111847619D01*
X203461904Y-111942857D01*
X203461904Y-111990476D01*
X203414285Y-112085714D01*
X203366666Y-112133333D01*
X203271428Y-112180952D01*
X203080952Y-112180952D01*
X202985714Y-112228571D01*
X202938095Y-112276190D01*
X202890476Y-112371428D01*
X202890476Y-112561904D01*
X202938095Y-112657142D01*
X202985714Y-112704761D01*
X203080952Y-112752380D01*
X203271428Y-112752380D01*
X203366666Y-112704761D01*
X203414285Y-112657142D01*
X203461904Y-112561904D01*
X203461904Y-112371428D01*
X203414285Y-112276190D01*
X203366666Y-112228571D01*
X203271428Y-112180952D01*
X199857142Y-94752380D02*
X199523809Y-94276190D01*
X199285714Y-94752380D02*
X199285714Y-93752380D01*
X199666666Y-93752380D01*
X199761904Y-93800000D01*
X199809523Y-93847619D01*
X199857142Y-93942857D01*
X199857142Y-94085714D01*
X199809523Y-94180952D01*
X199761904Y-94228571D01*
X199666666Y-94276190D01*
X199285714Y-94276190D01*
X200238095Y-93847619D02*
X200285714Y-93800000D01*
X200380952Y-93752380D01*
X200619047Y-93752380D01*
X200714285Y-93800000D01*
X200761904Y-93847619D01*
X200809523Y-93942857D01*
X200809523Y-94038095D01*
X200761904Y-94180952D01*
X200190476Y-94752380D01*
X200809523Y-94752380D01*
X201285714Y-94752380D02*
X201476190Y-94752380D01*
X201571428Y-94704761D01*
X201619047Y-94657142D01*
X201714285Y-94514285D01*
X201761904Y-94323809D01*
X201761904Y-93942857D01*
X201714285Y-93847619D01*
X201666666Y-93800000D01*
X201571428Y-93752380D01*
X201380952Y-93752380D01*
X201285714Y-93800000D01*
X201238095Y-93847619D01*
X201190476Y-93942857D01*
X201190476Y-94180952D01*
X201238095Y-94276190D01*
X201285714Y-94323809D01*
X201380952Y-94371428D01*
X201571428Y-94371428D01*
X201666666Y-94323809D01*
X201714285Y-94276190D01*
X201761904Y-94180952D01*
X195057142Y-94752380D02*
X194723809Y-94276190D01*
X194485714Y-94752380D02*
X194485714Y-93752380D01*
X194866666Y-93752380D01*
X194961904Y-93800000D01*
X195009523Y-93847619D01*
X195057142Y-93942857D01*
X195057142Y-94085714D01*
X195009523Y-94180952D01*
X194961904Y-94228571D01*
X194866666Y-94276190D01*
X194485714Y-94276190D01*
X195390476Y-93752380D02*
X196009523Y-93752380D01*
X195676190Y-94133333D01*
X195819047Y-94133333D01*
X195914285Y-94180952D01*
X195961904Y-94228571D01*
X196009523Y-94323809D01*
X196009523Y-94561904D01*
X195961904Y-94657142D01*
X195914285Y-94704761D01*
X195819047Y-94752380D01*
X195533333Y-94752380D01*
X195438095Y-94704761D01*
X195390476Y-94657142D01*
X196628571Y-93752380D02*
X196723809Y-93752380D01*
X196819047Y-93800000D01*
X196866666Y-93847619D01*
X196914285Y-93942857D01*
X196961904Y-94133333D01*
X196961904Y-94371428D01*
X196914285Y-94561904D01*
X196866666Y-94657142D01*
X196819047Y-94704761D01*
X196723809Y-94752380D01*
X196628571Y-94752380D01*
X196533333Y-94704761D01*
X196485714Y-94657142D01*
X196438095Y-94561904D01*
X196390476Y-94371428D01*
X196390476Y-94133333D01*
X196438095Y-93942857D01*
X196485714Y-93847619D01*
X196533333Y-93800000D01*
X196628571Y-93752380D01*
X202552380Y-92642857D02*
X202076190Y-92976190D01*
X202552380Y-93214285D02*
X201552380Y-93214285D01*
X201552380Y-92833333D01*
X201600000Y-92738095D01*
X201647619Y-92690476D01*
X201742857Y-92642857D01*
X201885714Y-92642857D01*
X201980952Y-92690476D01*
X202028571Y-92738095D01*
X202076190Y-92833333D01*
X202076190Y-93214285D01*
X201552380Y-92309523D02*
X201552380Y-91690476D01*
X201933333Y-92023809D01*
X201933333Y-91880952D01*
X201980952Y-91785714D01*
X202028571Y-91738095D01*
X202123809Y-91690476D01*
X202361904Y-91690476D01*
X202457142Y-91738095D01*
X202504761Y-91785714D01*
X202552380Y-91880952D01*
X202552380Y-92166666D01*
X202504761Y-92261904D01*
X202457142Y-92309523D01*
X202552380Y-90738095D02*
X202552380Y-91309523D01*
X202552380Y-91023809D02*
X201552380Y-91023809D01*
X201695238Y-91119047D01*
X201790476Y-91214285D01*
X201838095Y-91309523D01*
X201302380Y-92842857D02*
X200826190Y-93176190D01*
X201302380Y-93414285D02*
X200302380Y-93414285D01*
X200302380Y-93033333D01*
X200350000Y-92938095D01*
X200397619Y-92890476D01*
X200492857Y-92842857D01*
X200635714Y-92842857D01*
X200730952Y-92890476D01*
X200778571Y-92938095D01*
X200826190Y-93033333D01*
X200826190Y-93414285D01*
X200302380Y-92509523D02*
X200302380Y-91890476D01*
X200683333Y-92223809D01*
X200683333Y-92080952D01*
X200730952Y-91985714D01*
X200778571Y-91938095D01*
X200873809Y-91890476D01*
X201111904Y-91890476D01*
X201207142Y-91938095D01*
X201254761Y-91985714D01*
X201302380Y-92080952D01*
X201302380Y-92366666D01*
X201254761Y-92461904D01*
X201207142Y-92509523D01*
X200397619Y-91509523D02*
X200350000Y-91461904D01*
X200302380Y-91366666D01*
X200302380Y-91128571D01*
X200350000Y-91033333D01*
X200397619Y-90985714D01*
X200492857Y-90938095D01*
X200588095Y-90938095D01*
X200730952Y-90985714D01*
X201302380Y-91557142D01*
X201302380Y-90938095D01*
X197052380Y-92842857D02*
X196576190Y-93176190D01*
X197052380Y-93414285D02*
X196052380Y-93414285D01*
X196052380Y-93033333D01*
X196100000Y-92938095D01*
X196147619Y-92890476D01*
X196242857Y-92842857D01*
X196385714Y-92842857D01*
X196480952Y-92890476D01*
X196528571Y-92938095D01*
X196576190Y-93033333D01*
X196576190Y-93414285D01*
X196052380Y-92509523D02*
X196052380Y-91890476D01*
X196433333Y-92223809D01*
X196433333Y-92080952D01*
X196480952Y-91985714D01*
X196528571Y-91938095D01*
X196623809Y-91890476D01*
X196861904Y-91890476D01*
X196957142Y-91938095D01*
X197004761Y-91985714D01*
X197052380Y-92080952D01*
X197052380Y-92366666D01*
X197004761Y-92461904D01*
X196957142Y-92509523D01*
X196052380Y-91557142D02*
X196052380Y-90938095D01*
X196433333Y-91271428D01*
X196433333Y-91128571D01*
X196480952Y-91033333D01*
X196528571Y-90985714D01*
X196623809Y-90938095D01*
X196861904Y-90938095D01*
X196957142Y-90985714D01*
X197004761Y-91033333D01*
X197052380Y-91128571D01*
X197052380Y-91414285D01*
X197004761Y-91509523D01*
X196957142Y-91557142D01*
X201557142Y-111252380D02*
X201223809Y-110776190D01*
X200985714Y-111252380D02*
X200985714Y-110252380D01*
X201366666Y-110252380D01*
X201461904Y-110300000D01*
X201509523Y-110347619D01*
X201557142Y-110442857D01*
X201557142Y-110585714D01*
X201509523Y-110680952D01*
X201461904Y-110728571D01*
X201366666Y-110776190D01*
X200985714Y-110776190D01*
X201890476Y-110252380D02*
X202509523Y-110252380D01*
X202176190Y-110633333D01*
X202319047Y-110633333D01*
X202414285Y-110680952D01*
X202461904Y-110728571D01*
X202509523Y-110823809D01*
X202509523Y-111061904D01*
X202461904Y-111157142D01*
X202414285Y-111204761D01*
X202319047Y-111252380D01*
X202033333Y-111252380D01*
X201938095Y-111204761D01*
X201890476Y-111157142D01*
X203366666Y-110585714D02*
X203366666Y-111252380D01*
X203128571Y-110204761D02*
X202890476Y-110919047D01*
X203509523Y-110919047D01*
X209552380Y-106042857D02*
X209076190Y-106376190D01*
X209552380Y-106614285D02*
X208552380Y-106614285D01*
X208552380Y-106233333D01*
X208600000Y-106138095D01*
X208647619Y-106090476D01*
X208742857Y-106042857D01*
X208885714Y-106042857D01*
X208980952Y-106090476D01*
X209028571Y-106138095D01*
X209076190Y-106233333D01*
X209076190Y-106614285D01*
X208552380Y-105709523D02*
X208552380Y-105090476D01*
X208933333Y-105423809D01*
X208933333Y-105280952D01*
X208980952Y-105185714D01*
X209028571Y-105138095D01*
X209123809Y-105090476D01*
X209361904Y-105090476D01*
X209457142Y-105138095D01*
X209504761Y-105185714D01*
X209552380Y-105280952D01*
X209552380Y-105566666D01*
X209504761Y-105661904D01*
X209457142Y-105709523D01*
X208552380Y-104185714D02*
X208552380Y-104661904D01*
X209028571Y-104709523D01*
X208980952Y-104661904D01*
X208933333Y-104566666D01*
X208933333Y-104328571D01*
X208980952Y-104233333D01*
X209028571Y-104185714D01*
X209123809Y-104138095D01*
X209361904Y-104138095D01*
X209457142Y-104185714D01*
X209504761Y-104233333D01*
X209552380Y-104328571D01*
X209552380Y-104566666D01*
X209504761Y-104661904D01*
X209457142Y-104709523D01*
X194052380Y-92142857D02*
X193576190Y-92476190D01*
X194052380Y-92714285D02*
X193052380Y-92714285D01*
X193052380Y-92333333D01*
X193100000Y-92238095D01*
X193147619Y-92190476D01*
X193242857Y-92142857D01*
X193385714Y-92142857D01*
X193480952Y-92190476D01*
X193528571Y-92238095D01*
X193576190Y-92333333D01*
X193576190Y-92714285D01*
X193052380Y-91809523D02*
X193052380Y-91190476D01*
X193433333Y-91523809D01*
X193433333Y-91380952D01*
X193480952Y-91285714D01*
X193528571Y-91238095D01*
X193623809Y-91190476D01*
X193861904Y-91190476D01*
X193957142Y-91238095D01*
X194004761Y-91285714D01*
X194052380Y-91380952D01*
X194052380Y-91666666D01*
X194004761Y-91761904D01*
X193957142Y-91809523D01*
X193052380Y-90333333D02*
X193052380Y-90523809D01*
X193100000Y-90619047D01*
X193147619Y-90666666D01*
X193290476Y-90761904D01*
X193480952Y-90809523D01*
X193861904Y-90809523D01*
X193957142Y-90761904D01*
X194004761Y-90714285D01*
X194052380Y-90619047D01*
X194052380Y-90428571D01*
X194004761Y-90333333D01*
X193957142Y-90285714D01*
X193861904Y-90238095D01*
X193623809Y-90238095D01*
X193528571Y-90285714D01*
X193480952Y-90333333D01*
X193433333Y-90428571D01*
X193433333Y-90619047D01*
X193480952Y-90714285D01*
X193528571Y-90761904D01*
X193623809Y-90809523D01*
X183352380Y-131642857D02*
X182876190Y-131976190D01*
X183352380Y-132214285D02*
X182352380Y-132214285D01*
X182352380Y-131833333D01*
X182400000Y-131738095D01*
X182447619Y-131690476D01*
X182542857Y-131642857D01*
X182685714Y-131642857D01*
X182780952Y-131690476D01*
X182828571Y-131738095D01*
X182876190Y-131833333D01*
X182876190Y-132214285D01*
X182352380Y-131309523D02*
X182352380Y-130690476D01*
X182733333Y-131023809D01*
X182733333Y-130880952D01*
X182780952Y-130785714D01*
X182828571Y-130738095D01*
X182923809Y-130690476D01*
X183161904Y-130690476D01*
X183257142Y-130738095D01*
X183304761Y-130785714D01*
X183352380Y-130880952D01*
X183352380Y-131166666D01*
X183304761Y-131261904D01*
X183257142Y-131309523D01*
X182352380Y-130357142D02*
X182352380Y-129690476D01*
X183352380Y-130119047D01*
X177557142Y-126852380D02*
X177223809Y-126376190D01*
X176985714Y-126852380D02*
X176985714Y-125852380D01*
X177366666Y-125852380D01*
X177461904Y-125900000D01*
X177509523Y-125947619D01*
X177557142Y-126042857D01*
X177557142Y-126185714D01*
X177509523Y-126280952D01*
X177461904Y-126328571D01*
X177366666Y-126376190D01*
X176985714Y-126376190D01*
X177890476Y-125852380D02*
X178509523Y-125852380D01*
X178176190Y-126233333D01*
X178319047Y-126233333D01*
X178414285Y-126280952D01*
X178461904Y-126328571D01*
X178509523Y-126423809D01*
X178509523Y-126661904D01*
X178461904Y-126757142D01*
X178414285Y-126804761D01*
X178319047Y-126852380D01*
X178033333Y-126852380D01*
X177938095Y-126804761D01*
X177890476Y-126757142D01*
X179080952Y-126280952D02*
X178985714Y-126233333D01*
X178938095Y-126185714D01*
X178890476Y-126090476D01*
X178890476Y-126042857D01*
X178938095Y-125947619D01*
X178985714Y-125900000D01*
X179080952Y-125852380D01*
X179271428Y-125852380D01*
X179366666Y-125900000D01*
X179414285Y-125947619D01*
X179461904Y-126042857D01*
X179461904Y-126090476D01*
X179414285Y-126185714D01*
X179366666Y-126233333D01*
X179271428Y-126280952D01*
X179080952Y-126280952D01*
X178985714Y-126328571D01*
X178938095Y-126376190D01*
X178890476Y-126471428D01*
X178890476Y-126661904D01*
X178938095Y-126757142D01*
X178985714Y-126804761D01*
X179080952Y-126852380D01*
X179271428Y-126852380D01*
X179366666Y-126804761D01*
X179414285Y-126757142D01*
X179461904Y-126661904D01*
X179461904Y-126471428D01*
X179414285Y-126376190D01*
X179366666Y-126328571D01*
X179271428Y-126280952D01*
X164357142Y-132052380D02*
X164023809Y-131576190D01*
X163785714Y-132052380D02*
X163785714Y-131052380D01*
X164166666Y-131052380D01*
X164261904Y-131100000D01*
X164309523Y-131147619D01*
X164357142Y-131242857D01*
X164357142Y-131385714D01*
X164309523Y-131480952D01*
X164261904Y-131528571D01*
X164166666Y-131576190D01*
X163785714Y-131576190D01*
X164690476Y-131052380D02*
X165309523Y-131052380D01*
X164976190Y-131433333D01*
X165119047Y-131433333D01*
X165214285Y-131480952D01*
X165261904Y-131528571D01*
X165309523Y-131623809D01*
X165309523Y-131861904D01*
X165261904Y-131957142D01*
X165214285Y-132004761D01*
X165119047Y-132052380D01*
X164833333Y-132052380D01*
X164738095Y-132004761D01*
X164690476Y-131957142D01*
X165785714Y-132052380D02*
X165976190Y-132052380D01*
X166071428Y-132004761D01*
X166119047Y-131957142D01*
X166214285Y-131814285D01*
X166261904Y-131623809D01*
X166261904Y-131242857D01*
X166214285Y-131147619D01*
X166166666Y-131100000D01*
X166071428Y-131052380D01*
X165880952Y-131052380D01*
X165785714Y-131100000D01*
X165738095Y-131147619D01*
X165690476Y-131242857D01*
X165690476Y-131480952D01*
X165738095Y-131576190D01*
X165785714Y-131623809D01*
X165880952Y-131671428D01*
X166071428Y-131671428D01*
X166166666Y-131623809D01*
X166214285Y-131576190D01*
X166261904Y-131480952D01*
X164357142Y-130652380D02*
X164023809Y-130176190D01*
X163785714Y-130652380D02*
X163785714Y-129652380D01*
X164166666Y-129652380D01*
X164261904Y-129700000D01*
X164309523Y-129747619D01*
X164357142Y-129842857D01*
X164357142Y-129985714D01*
X164309523Y-130080952D01*
X164261904Y-130128571D01*
X164166666Y-130176190D01*
X163785714Y-130176190D01*
X165214285Y-129985714D02*
X165214285Y-130652380D01*
X164976190Y-129604761D02*
X164738095Y-130319047D01*
X165357142Y-130319047D01*
X165928571Y-129652380D02*
X166023809Y-129652380D01*
X166119047Y-129700000D01*
X166166666Y-129747619D01*
X166214285Y-129842857D01*
X166261904Y-130033333D01*
X166261904Y-130271428D01*
X166214285Y-130461904D01*
X166166666Y-130557142D01*
X166119047Y-130604761D01*
X166023809Y-130652380D01*
X165928571Y-130652380D01*
X165833333Y-130604761D01*
X165785714Y-130557142D01*
X165738095Y-130461904D01*
X165690476Y-130271428D01*
X165690476Y-130033333D01*
X165738095Y-129842857D01*
X165785714Y-129747619D01*
X165833333Y-129700000D01*
X165928571Y-129652380D01*
X164357142Y-129052380D02*
X164023809Y-128576190D01*
X163785714Y-129052380D02*
X163785714Y-128052380D01*
X164166666Y-128052380D01*
X164261904Y-128100000D01*
X164309523Y-128147619D01*
X164357142Y-128242857D01*
X164357142Y-128385714D01*
X164309523Y-128480952D01*
X164261904Y-128528571D01*
X164166666Y-128576190D01*
X163785714Y-128576190D01*
X165214285Y-128385714D02*
X165214285Y-129052380D01*
X164976190Y-128004761D02*
X164738095Y-128719047D01*
X165357142Y-128719047D01*
X166261904Y-129052380D02*
X165690476Y-129052380D01*
X165976190Y-129052380D02*
X165976190Y-128052380D01*
X165880952Y-128195238D01*
X165785714Y-128290476D01*
X165690476Y-128338095D01*
X179302380Y-130642857D02*
X178826190Y-130976190D01*
X179302380Y-131214285D02*
X178302380Y-131214285D01*
X178302380Y-130833333D01*
X178350000Y-130738095D01*
X178397619Y-130690476D01*
X178492857Y-130642857D01*
X178635714Y-130642857D01*
X178730952Y-130690476D01*
X178778571Y-130738095D01*
X178826190Y-130833333D01*
X178826190Y-131214285D01*
X178635714Y-129785714D02*
X179302380Y-129785714D01*
X178254761Y-130023809D02*
X178969047Y-130261904D01*
X178969047Y-129642857D01*
X178397619Y-129309523D02*
X178350000Y-129261904D01*
X178302380Y-129166666D01*
X178302380Y-128928571D01*
X178350000Y-128833333D01*
X178397619Y-128785714D01*
X178492857Y-128738095D01*
X178588095Y-128738095D01*
X178730952Y-128785714D01*
X179302380Y-129357142D01*
X179302380Y-128738095D01*
X175102380Y-133342857D02*
X174626190Y-133676190D01*
X175102380Y-133914285D02*
X174102380Y-133914285D01*
X174102380Y-133533333D01*
X174150000Y-133438095D01*
X174197619Y-133390476D01*
X174292857Y-133342857D01*
X174435714Y-133342857D01*
X174530952Y-133390476D01*
X174578571Y-133438095D01*
X174626190Y-133533333D01*
X174626190Y-133914285D01*
X174435714Y-132485714D02*
X175102380Y-132485714D01*
X174054761Y-132723809D02*
X174769047Y-132961904D01*
X174769047Y-132342857D01*
X174102380Y-132057142D02*
X174102380Y-131438095D01*
X174483333Y-131771428D01*
X174483333Y-131628571D01*
X174530952Y-131533333D01*
X174578571Y-131485714D01*
X174673809Y-131438095D01*
X174911904Y-131438095D01*
X175007142Y-131485714D01*
X175054761Y-131533333D01*
X175102380Y-131628571D01*
X175102380Y-131914285D01*
X175054761Y-132009523D01*
X175007142Y-132057142D01*
X164357142Y-133252380D02*
X164023809Y-132776190D01*
X163785714Y-133252380D02*
X163785714Y-132252380D01*
X164166666Y-132252380D01*
X164261904Y-132300000D01*
X164309523Y-132347619D01*
X164357142Y-132442857D01*
X164357142Y-132585714D01*
X164309523Y-132680952D01*
X164261904Y-132728571D01*
X164166666Y-132776190D01*
X163785714Y-132776190D01*
X165214285Y-132585714D02*
X165214285Y-133252380D01*
X164976190Y-132204761D02*
X164738095Y-132919047D01*
X165357142Y-132919047D01*
X166166666Y-132585714D02*
X166166666Y-133252380D01*
X165928571Y-132204761D02*
X165690476Y-132919047D01*
X166309523Y-132919047D01*
X165957142Y-136452380D02*
X165623809Y-135976190D01*
X165385714Y-136452380D02*
X165385714Y-135452380D01*
X165766666Y-135452380D01*
X165861904Y-135500000D01*
X165909523Y-135547619D01*
X165957142Y-135642857D01*
X165957142Y-135785714D01*
X165909523Y-135880952D01*
X165861904Y-135928571D01*
X165766666Y-135976190D01*
X165385714Y-135976190D01*
X166814285Y-135785714D02*
X166814285Y-136452380D01*
X166576190Y-135404761D02*
X166338095Y-136119047D01*
X166957142Y-136119047D01*
X167814285Y-135452380D02*
X167338095Y-135452380D01*
X167290476Y-135928571D01*
X167338095Y-135880952D01*
X167433333Y-135833333D01*
X167671428Y-135833333D01*
X167766666Y-135880952D01*
X167814285Y-135928571D01*
X167861904Y-136023809D01*
X167861904Y-136261904D01*
X167814285Y-136357142D01*
X167766666Y-136404761D01*
X167671428Y-136452380D01*
X167433333Y-136452380D01*
X167338095Y-136404761D01*
X167290476Y-136357142D01*
X179302380Y-133242857D02*
X178826190Y-133576190D01*
X179302380Y-133814285D02*
X178302380Y-133814285D01*
X178302380Y-133433333D01*
X178350000Y-133338095D01*
X178397619Y-133290476D01*
X178492857Y-133242857D01*
X178635714Y-133242857D01*
X178730952Y-133290476D01*
X178778571Y-133338095D01*
X178826190Y-133433333D01*
X178826190Y-133814285D01*
X178635714Y-132385714D02*
X179302380Y-132385714D01*
X178254761Y-132623809D02*
X178969047Y-132861904D01*
X178969047Y-132242857D01*
X178302380Y-131433333D02*
X178302380Y-131623809D01*
X178350000Y-131719047D01*
X178397619Y-131766666D01*
X178540476Y-131861904D01*
X178730952Y-131909523D01*
X179111904Y-131909523D01*
X179207142Y-131861904D01*
X179254761Y-131814285D01*
X179302380Y-131719047D01*
X179302380Y-131528571D01*
X179254761Y-131433333D01*
X179207142Y-131385714D01*
X179111904Y-131338095D01*
X178873809Y-131338095D01*
X178778571Y-131385714D01*
X178730952Y-131433333D01*
X178683333Y-131528571D01*
X178683333Y-131719047D01*
X178730952Y-131814285D01*
X178778571Y-131861904D01*
X178873809Y-131909523D01*
X175102380Y-135942857D02*
X174626190Y-136276190D01*
X175102380Y-136514285D02*
X174102380Y-136514285D01*
X174102380Y-136133333D01*
X174150000Y-136038095D01*
X174197619Y-135990476D01*
X174292857Y-135942857D01*
X174435714Y-135942857D01*
X174530952Y-135990476D01*
X174578571Y-136038095D01*
X174626190Y-136133333D01*
X174626190Y-136514285D01*
X174435714Y-135085714D02*
X175102380Y-135085714D01*
X174054761Y-135323809D02*
X174769047Y-135561904D01*
X174769047Y-134942857D01*
X174102380Y-134657142D02*
X174102380Y-133990476D01*
X175102380Y-134419047D01*
X150052380Y-134442857D02*
X149576190Y-134776190D01*
X150052380Y-135014285D02*
X149052380Y-135014285D01*
X149052380Y-134633333D01*
X149100000Y-134538095D01*
X149147619Y-134490476D01*
X149242857Y-134442857D01*
X149385714Y-134442857D01*
X149480952Y-134490476D01*
X149528571Y-134538095D01*
X149576190Y-134633333D01*
X149576190Y-135014285D01*
X149385714Y-133585714D02*
X150052380Y-133585714D01*
X149004761Y-133823809D02*
X149719047Y-134061904D01*
X149719047Y-133442857D01*
X149480952Y-132919047D02*
X149433333Y-133014285D01*
X149385714Y-133061904D01*
X149290476Y-133109523D01*
X149242857Y-133109523D01*
X149147619Y-133061904D01*
X149100000Y-133014285D01*
X149052380Y-132919047D01*
X149052380Y-132728571D01*
X149100000Y-132633333D01*
X149147619Y-132585714D01*
X149242857Y-132538095D01*
X149290476Y-132538095D01*
X149385714Y-132585714D01*
X149433333Y-132633333D01*
X149480952Y-132728571D01*
X149480952Y-132919047D01*
X149528571Y-133014285D01*
X149576190Y-133061904D01*
X149671428Y-133109523D01*
X149861904Y-133109523D01*
X149957142Y-133061904D01*
X150004761Y-133014285D01*
X150052380Y-132919047D01*
X150052380Y-132728571D01*
X150004761Y-132633333D01*
X149957142Y-132585714D01*
X149861904Y-132538095D01*
X149671428Y-132538095D01*
X149576190Y-132585714D01*
X149528571Y-132633333D01*
X149480952Y-132728571D01*
X148552380Y-134442857D02*
X148076190Y-134776190D01*
X148552380Y-135014285D02*
X147552380Y-135014285D01*
X147552380Y-134633333D01*
X147600000Y-134538095D01*
X147647619Y-134490476D01*
X147742857Y-134442857D01*
X147885714Y-134442857D01*
X147980952Y-134490476D01*
X148028571Y-134538095D01*
X148076190Y-134633333D01*
X148076190Y-135014285D01*
X147885714Y-133585714D02*
X148552380Y-133585714D01*
X147504761Y-133823809D02*
X148219047Y-134061904D01*
X148219047Y-133442857D01*
X148552380Y-133014285D02*
X148552380Y-132823809D01*
X148504761Y-132728571D01*
X148457142Y-132680952D01*
X148314285Y-132585714D01*
X148123809Y-132538095D01*
X147742857Y-132538095D01*
X147647619Y-132585714D01*
X147600000Y-132633333D01*
X147552380Y-132728571D01*
X147552380Y-132919047D01*
X147600000Y-133014285D01*
X147647619Y-133061904D01*
X147742857Y-133109523D01*
X147980952Y-133109523D01*
X148076190Y-133061904D01*
X148123809Y-133014285D01*
X148171428Y-132919047D01*
X148171428Y-132728571D01*
X148123809Y-132633333D01*
X148076190Y-132585714D01*
X147980952Y-132538095D01*
X152657142Y-125752380D02*
X152323809Y-125276190D01*
X152085714Y-125752380D02*
X152085714Y-124752380D01*
X152466666Y-124752380D01*
X152561904Y-124800000D01*
X152609523Y-124847619D01*
X152657142Y-124942857D01*
X152657142Y-125085714D01*
X152609523Y-125180952D01*
X152561904Y-125228571D01*
X152466666Y-125276190D01*
X152085714Y-125276190D01*
X153561904Y-124752380D02*
X153085714Y-124752380D01*
X153038095Y-125228571D01*
X153085714Y-125180952D01*
X153180952Y-125133333D01*
X153419047Y-125133333D01*
X153514285Y-125180952D01*
X153561904Y-125228571D01*
X153609523Y-125323809D01*
X153609523Y-125561904D01*
X153561904Y-125657142D01*
X153514285Y-125704761D01*
X153419047Y-125752380D01*
X153180952Y-125752380D01*
X153085714Y-125704761D01*
X153038095Y-125657142D01*
X154228571Y-124752380D02*
X154323809Y-124752380D01*
X154419047Y-124800000D01*
X154466666Y-124847619D01*
X154514285Y-124942857D01*
X154561904Y-125133333D01*
X154561904Y-125371428D01*
X154514285Y-125561904D01*
X154466666Y-125657142D01*
X154419047Y-125704761D01*
X154323809Y-125752380D01*
X154228571Y-125752380D01*
X154133333Y-125704761D01*
X154085714Y-125657142D01*
X154038095Y-125561904D01*
X153990476Y-125371428D01*
X153990476Y-125133333D01*
X154038095Y-124942857D01*
X154085714Y-124847619D01*
X154133333Y-124800000D01*
X154228571Y-124752380D01*
X152657142Y-124252380D02*
X152323809Y-123776190D01*
X152085714Y-124252380D02*
X152085714Y-123252380D01*
X152466666Y-123252380D01*
X152561904Y-123300000D01*
X152609523Y-123347619D01*
X152657142Y-123442857D01*
X152657142Y-123585714D01*
X152609523Y-123680952D01*
X152561904Y-123728571D01*
X152466666Y-123776190D01*
X152085714Y-123776190D01*
X153561904Y-123252380D02*
X153085714Y-123252380D01*
X153038095Y-123728571D01*
X153085714Y-123680952D01*
X153180952Y-123633333D01*
X153419047Y-123633333D01*
X153514285Y-123680952D01*
X153561904Y-123728571D01*
X153609523Y-123823809D01*
X153609523Y-124061904D01*
X153561904Y-124157142D01*
X153514285Y-124204761D01*
X153419047Y-124252380D01*
X153180952Y-124252380D01*
X153085714Y-124204761D01*
X153038095Y-124157142D01*
X154561904Y-124252380D02*
X153990476Y-124252380D01*
X154276190Y-124252380D02*
X154276190Y-123252380D01*
X154180952Y-123395238D01*
X154085714Y-123490476D01*
X153990476Y-123538095D01*
X147657142Y-123652380D02*
X147323809Y-123176190D01*
X147085714Y-123652380D02*
X147085714Y-122652380D01*
X147466666Y-122652380D01*
X147561904Y-122700000D01*
X147609523Y-122747619D01*
X147657142Y-122842857D01*
X147657142Y-122985714D01*
X147609523Y-123080952D01*
X147561904Y-123128571D01*
X147466666Y-123176190D01*
X147085714Y-123176190D01*
X148561904Y-122652380D02*
X148085714Y-122652380D01*
X148038095Y-123128571D01*
X148085714Y-123080952D01*
X148180952Y-123033333D01*
X148419047Y-123033333D01*
X148514285Y-123080952D01*
X148561904Y-123128571D01*
X148609523Y-123223809D01*
X148609523Y-123461904D01*
X148561904Y-123557142D01*
X148514285Y-123604761D01*
X148419047Y-123652380D01*
X148180952Y-123652380D01*
X148085714Y-123604761D01*
X148038095Y-123557142D01*
X148990476Y-122747619D02*
X149038095Y-122700000D01*
X149133333Y-122652380D01*
X149371428Y-122652380D01*
X149466666Y-122700000D01*
X149514285Y-122747619D01*
X149561904Y-122842857D01*
X149561904Y-122938095D01*
X149514285Y-123080952D01*
X148942857Y-123652380D01*
X149561904Y-123652380D01*
X142602380Y-127842857D02*
X142126190Y-128176190D01*
X142602380Y-128414285D02*
X141602380Y-128414285D01*
X141602380Y-128033333D01*
X141650000Y-127938095D01*
X141697619Y-127890476D01*
X141792857Y-127842857D01*
X141935714Y-127842857D01*
X142030952Y-127890476D01*
X142078571Y-127938095D01*
X142126190Y-128033333D01*
X142126190Y-128414285D01*
X141602380Y-126938095D02*
X141602380Y-127414285D01*
X142078571Y-127461904D01*
X142030952Y-127414285D01*
X141983333Y-127319047D01*
X141983333Y-127080952D01*
X142030952Y-126985714D01*
X142078571Y-126938095D01*
X142173809Y-126890476D01*
X142411904Y-126890476D01*
X142507142Y-126938095D01*
X142554761Y-126985714D01*
X142602380Y-127080952D01*
X142602380Y-127319047D01*
X142554761Y-127414285D01*
X142507142Y-127461904D01*
X141602380Y-126557142D02*
X141602380Y-125938095D01*
X141983333Y-126271428D01*
X141983333Y-126128571D01*
X142030952Y-126033333D01*
X142078571Y-125985714D01*
X142173809Y-125938095D01*
X142411904Y-125938095D01*
X142507142Y-125985714D01*
X142554761Y-126033333D01*
X142602380Y-126128571D01*
X142602380Y-126414285D01*
X142554761Y-126509523D01*
X142507142Y-126557142D01*
X146057142Y-122252380D02*
X145723809Y-121776190D01*
X145485714Y-122252380D02*
X145485714Y-121252380D01*
X145866666Y-121252380D01*
X145961904Y-121300000D01*
X146009523Y-121347619D01*
X146057142Y-121442857D01*
X146057142Y-121585714D01*
X146009523Y-121680952D01*
X145961904Y-121728571D01*
X145866666Y-121776190D01*
X145485714Y-121776190D01*
X146961904Y-121252380D02*
X146485714Y-121252380D01*
X146438095Y-121728571D01*
X146485714Y-121680952D01*
X146580952Y-121633333D01*
X146819047Y-121633333D01*
X146914285Y-121680952D01*
X146961904Y-121728571D01*
X147009523Y-121823809D01*
X147009523Y-122061904D01*
X146961904Y-122157142D01*
X146914285Y-122204761D01*
X146819047Y-122252380D01*
X146580952Y-122252380D01*
X146485714Y-122204761D01*
X146438095Y-122157142D01*
X147866666Y-121585714D02*
X147866666Y-122252380D01*
X147628571Y-121204761D02*
X147390476Y-121919047D01*
X148009523Y-121919047D01*
X123116666Y-158724761D02*
X123259523Y-158772380D01*
X123497619Y-158772380D01*
X123592857Y-158724761D01*
X123640476Y-158677142D01*
X123688095Y-158581904D01*
X123688095Y-158486666D01*
X123640476Y-158391428D01*
X123592857Y-158343809D01*
X123497619Y-158296190D01*
X123307142Y-158248571D01*
X123211904Y-158200952D01*
X123164285Y-158153333D01*
X123116666Y-158058095D01*
X123116666Y-157962857D01*
X123164285Y-157867619D01*
X123211904Y-157820000D01*
X123307142Y-157772380D01*
X123545238Y-157772380D01*
X123688095Y-157820000D01*
X124021428Y-157772380D02*
X124259523Y-158772380D01*
X124450000Y-158058095D01*
X124640476Y-158772380D01*
X124878571Y-157772380D01*
X125783333Y-158772380D02*
X125211904Y-158772380D01*
X125497619Y-158772380D02*
X125497619Y-157772380D01*
X125402380Y-157915238D01*
X125307142Y-158010476D01*
X125211904Y-158058095D01*
X134138095Y-130452380D02*
X134138095Y-131261904D01*
X134185714Y-131357142D01*
X134233333Y-131404761D01*
X134328571Y-131452380D01*
X134519047Y-131452380D01*
X134614285Y-131404761D01*
X134661904Y-131357142D01*
X134709523Y-131261904D01*
X134709523Y-130452380D01*
X135138095Y-130547619D02*
X135185714Y-130500000D01*
X135280952Y-130452380D01*
X135519047Y-130452380D01*
X135614285Y-130500000D01*
X135661904Y-130547619D01*
X135709523Y-130642857D01*
X135709523Y-130738095D01*
X135661904Y-130880952D01*
X135090476Y-131452380D01*
X135709523Y-131452380D01*
X135600000Y-129852380D02*
X135600000Y-130090476D01*
X135361904Y-129995238D02*
X135600000Y-130090476D01*
X135838095Y-129995238D01*
X135457142Y-130280952D02*
X135600000Y-130090476D01*
X135742857Y-130280952D01*
X134338095Y-140952380D02*
X134338095Y-141761904D01*
X134385714Y-141857142D01*
X134433333Y-141904761D01*
X134528571Y-141952380D01*
X134719047Y-141952380D01*
X134814285Y-141904761D01*
X134861904Y-141857142D01*
X134909523Y-141761904D01*
X134909523Y-140952380D01*
X135290476Y-140952380D02*
X135909523Y-140952380D01*
X135576190Y-141333333D01*
X135719047Y-141333333D01*
X135814285Y-141380952D01*
X135861904Y-141428571D01*
X135909523Y-141523809D01*
X135909523Y-141761904D01*
X135861904Y-141857142D01*
X135814285Y-141904761D01*
X135719047Y-141952380D01*
X135433333Y-141952380D01*
X135338095Y-141904761D01*
X135290476Y-141857142D01*
X135700000Y-140352380D02*
X135700000Y-140590476D01*
X135461904Y-140495238D02*
X135700000Y-140590476D01*
X135938095Y-140495238D01*
X135557142Y-140780952D02*
X135700000Y-140590476D01*
X135842857Y-140780952D01*
X200238095Y-124152380D02*
X200238095Y-124961904D01*
X200285714Y-125057142D01*
X200333333Y-125104761D01*
X200428571Y-125152380D01*
X200619047Y-125152380D01*
X200714285Y-125104761D01*
X200761904Y-125057142D01*
X200809523Y-124961904D01*
X200809523Y-124152380D01*
X201714285Y-124152380D02*
X201523809Y-124152380D01*
X201428571Y-124200000D01*
X201380952Y-124247619D01*
X201285714Y-124390476D01*
X201238095Y-124580952D01*
X201238095Y-124961904D01*
X201285714Y-125057142D01*
X201333333Y-125104761D01*
X201428571Y-125152380D01*
X201619047Y-125152380D01*
X201714285Y-125104761D01*
X201761904Y-125057142D01*
X201809523Y-124961904D01*
X201809523Y-124723809D01*
X201761904Y-124628571D01*
X201714285Y-124580952D01*
X201619047Y-124533333D01*
X201428571Y-124533333D01*
X201333333Y-124580952D01*
X201285714Y-124628571D01*
X201238095Y-124723809D01*
X196861904Y-103552380D02*
X196861904Y-104361904D01*
X196909523Y-104457142D01*
X196957142Y-104504761D01*
X197052380Y-104552380D01*
X197242857Y-104552380D01*
X197338095Y-104504761D01*
X197385714Y-104457142D01*
X197433333Y-104361904D01*
X197433333Y-103552380D01*
X198433333Y-104552380D02*
X197861904Y-104552380D01*
X198147619Y-104552380D02*
X198147619Y-103552380D01*
X198052380Y-103695238D01*
X197957142Y-103790476D01*
X197861904Y-103838095D01*
X199385714Y-104552380D02*
X198814285Y-104552380D01*
X199100000Y-104552380D02*
X199100000Y-103552380D01*
X199004761Y-103695238D01*
X198909523Y-103790476D01*
X198814285Y-103838095D01*
X165261904Y-126652380D02*
X165261904Y-127461904D01*
X165309523Y-127557142D01*
X165357142Y-127604761D01*
X165452380Y-127652380D01*
X165642857Y-127652380D01*
X165738095Y-127604761D01*
X165785714Y-127557142D01*
X165833333Y-127461904D01*
X165833333Y-126652380D01*
X166833333Y-127652380D02*
X166261904Y-127652380D01*
X166547619Y-127652380D02*
X166547619Y-126652380D01*
X166452380Y-126795238D01*
X166357142Y-126890476D01*
X166261904Y-126938095D01*
X167214285Y-126747619D02*
X167261904Y-126700000D01*
X167357142Y-126652380D01*
X167595238Y-126652380D01*
X167690476Y-126700000D01*
X167738095Y-126747619D01*
X167785714Y-126842857D01*
X167785714Y-126938095D01*
X167738095Y-127080952D01*
X167166666Y-127652380D01*
X167785714Y-127652380D01*
X140061904Y-121352380D02*
X140061904Y-122161904D01*
X140109523Y-122257142D01*
X140157142Y-122304761D01*
X140252380Y-122352380D01*
X140442857Y-122352380D01*
X140538095Y-122304761D01*
X140585714Y-122257142D01*
X140633333Y-122161904D01*
X140633333Y-121352380D01*
X141633333Y-122352380D02*
X141061904Y-122352380D01*
X141347619Y-122352380D02*
X141347619Y-121352380D01*
X141252380Y-121495238D01*
X141157142Y-121590476D01*
X141061904Y-121638095D01*
X141966666Y-121352380D02*
X142585714Y-121352380D01*
X142252380Y-121733333D01*
X142395238Y-121733333D01*
X142490476Y-121780952D01*
X142538095Y-121828571D01*
X142585714Y-121923809D01*
X142585714Y-122161904D01*
X142538095Y-122257142D01*
X142490476Y-122304761D01*
X142395238Y-122352380D01*
X142109523Y-122352380D01*
X142014285Y-122304761D01*
X141966666Y-122257142D01*
X199061904Y-142052380D02*
X199061904Y-141052380D01*
X199300000Y-141052380D01*
X199442857Y-141100000D01*
X199538095Y-141195238D01*
X199585714Y-141290476D01*
X199633333Y-141480952D01*
X199633333Y-141623809D01*
X199585714Y-141814285D01*
X199538095Y-141909523D01*
X199442857Y-142004761D01*
X199300000Y-142052380D01*
X199061904Y-142052380D01*
X200585714Y-142052380D02*
X200014285Y-142052380D01*
X200300000Y-142052380D02*
X200300000Y-141052380D01*
X200204761Y-141195238D01*
X200109523Y-141290476D01*
X200014285Y-141338095D01*
X156538095Y-135452380D02*
X156538095Y-136261904D01*
X156585714Y-136357142D01*
X156633333Y-136404761D01*
X156728571Y-136452380D01*
X156919047Y-136452380D01*
X157014285Y-136404761D01*
X157061904Y-136357142D01*
X157109523Y-136261904D01*
X157109523Y-135452380D01*
X158061904Y-135452380D02*
X157585714Y-135452380D01*
X157538095Y-135928571D01*
X157585714Y-135880952D01*
X157680952Y-135833333D01*
X157919047Y-135833333D01*
X158014285Y-135880952D01*
X158061904Y-135928571D01*
X158109523Y-136023809D01*
X158109523Y-136261904D01*
X158061904Y-136357142D01*
X158014285Y-136404761D01*
X157919047Y-136452380D01*
X157680952Y-136452380D01*
X157585714Y-136404761D01*
X157538095Y-136357142D01*
M02*
