G04 #@! TF.GenerationSoftware,KiCad,Pcbnew,(5.1.8)-1*
G04 #@! TF.CreationDate,2020-12-30T11:10:38+09:00*
G04 #@! TF.ProjectId,JetsonXavierNX_UPS,4a657473-6f6e-4586-9176-6965724e585f,rev?*
G04 #@! TF.SameCoordinates,Original*
G04 #@! TF.FileFunction,Copper,L1,Top*
G04 #@! TF.FilePolarity,Positive*
%FSLAX46Y46*%
G04 Gerber Fmt 4.6, Leading zero omitted, Abs format (unit mm)*
G04 Created by KiCad (PCBNEW (5.1.8)-1) date 2020-12-30 11:10:38*
%MOMM*%
%LPD*%
G01*
G04 APERTURE LIST*
G04 #@! TA.AperFunction,EtchedComponent*
%ADD10C,0.001000*%
G04 #@! TD*
G04 #@! TA.AperFunction,EtchedComponent*
%ADD11C,0.010000*%
G04 #@! TD*
G04 #@! TA.AperFunction,SMDPad,CuDef*
%ADD12R,0.500000X0.900000*%
G04 #@! TD*
G04 #@! TA.AperFunction,SMDPad,CuDef*
%ADD13R,1.220000X0.400000*%
G04 #@! TD*
G04 #@! TA.AperFunction,ComponentPad*
%ADD14O,1.700000X1.200000*%
G04 #@! TD*
G04 #@! TA.AperFunction,ComponentPad*
%ADD15R,1.700000X1.200000*%
G04 #@! TD*
G04 #@! TA.AperFunction,ComponentPad*
%ADD16C,3.540000*%
G04 #@! TD*
G04 #@! TA.AperFunction,SMDPad,CuDef*
%ADD17R,1.492199X3.701999*%
G04 #@! TD*
G04 #@! TA.AperFunction,SMDPad,CuDef*
%ADD18R,0.620000X0.940000*%
G04 #@! TD*
G04 #@! TA.AperFunction,ComponentPad*
%ADD19C,1.750000*%
G04 #@! TD*
G04 #@! TA.AperFunction,ComponentPad*
%ADD20R,1.750000X1.750000*%
G04 #@! TD*
G04 #@! TA.AperFunction,SMDPad,CuDef*
%ADD21R,2.590800X0.762000*%
G04 #@! TD*
G04 #@! TA.AperFunction,SMDPad,CuDef*
%ADD22R,1.250000X1.000000*%
G04 #@! TD*
G04 #@! TA.AperFunction,SMDPad,CuDef*
%ADD23R,1.000000X1.250000*%
G04 #@! TD*
G04 #@! TA.AperFunction,SMDPad,CuDef*
%ADD24R,0.940000X0.620000*%
G04 #@! TD*
G04 #@! TA.AperFunction,SMDPad,CuDef*
%ADD25R,0.800000X0.750000*%
G04 #@! TD*
G04 #@! TA.AperFunction,SMDPad,CuDef*
%ADD26R,0.750000X0.800000*%
G04 #@! TD*
G04 #@! TA.AperFunction,SMDPad,CuDef*
%ADD27R,2.500000X1.000000*%
G04 #@! TD*
G04 #@! TA.AperFunction,SMDPad,CuDef*
%ADD28R,0.800000X0.800000*%
G04 #@! TD*
G04 #@! TA.AperFunction,SMDPad,CuDef*
%ADD29R,0.800000X0.900000*%
G04 #@! TD*
G04 #@! TA.AperFunction,SMDPad,CuDef*
%ADD30R,0.900000X1.200000*%
G04 #@! TD*
G04 #@! TA.AperFunction,SMDPad,CuDef*
%ADD31R,2.030000X2.650000*%
G04 #@! TD*
G04 #@! TA.AperFunction,ComponentPad*
%ADD32O,2.250000X4.500000*%
G04 #@! TD*
G04 #@! TA.AperFunction,ComponentPad*
%ADD33O,4.500000X2.250000*%
G04 #@! TD*
G04 #@! TA.AperFunction,ComponentPad*
%ADD34O,5.000000X2.500000*%
G04 #@! TD*
G04 #@! TA.AperFunction,ComponentPad*
%ADD35R,1.200000X1.700000*%
G04 #@! TD*
G04 #@! TA.AperFunction,ComponentPad*
%ADD36O,1.200000X1.700000*%
G04 #@! TD*
G04 #@! TA.AperFunction,ComponentPad*
%ADD37R,1.350000X1.350000*%
G04 #@! TD*
G04 #@! TA.AperFunction,ComponentPad*
%ADD38O,1.350000X1.350000*%
G04 #@! TD*
G04 #@! TA.AperFunction,SMDPad,CuDef*
%ADD39R,1.500000X4.200000*%
G04 #@! TD*
G04 #@! TA.AperFunction,SMDPad,CuDef*
%ADD40R,0.900000X0.800000*%
G04 #@! TD*
G04 #@! TA.AperFunction,SMDPad,CuDef*
%ADD41R,0.900000X0.500000*%
G04 #@! TD*
G04 #@! TA.AperFunction,SMDPad,CuDef*
%ADD42R,0.900000X1.700000*%
G04 #@! TD*
G04 #@! TA.AperFunction,ComponentPad*
%ADD43C,2.100000*%
G04 #@! TD*
G04 #@! TA.AperFunction,SMDPad,CuDef*
%ADD44O,1.350000X0.449999*%
G04 #@! TD*
G04 #@! TA.AperFunction,SMDPad,CuDef*
%ADD45R,1.060000X0.650000*%
G04 #@! TD*
G04 #@! TA.AperFunction,SMDPad,CuDef*
%ADD46R,1.100000X0.400000*%
G04 #@! TD*
G04 #@! TA.AperFunction,SMDPad,CuDef*
%ADD47R,0.240000X0.600000*%
G04 #@! TD*
G04 #@! TA.AperFunction,SMDPad,CuDef*
%ADD48R,0.600000X0.240000*%
G04 #@! TD*
G04 #@! TA.AperFunction,SMDPad,CuDef*
%ADD49R,2.050000X3.050000*%
G04 #@! TD*
G04 #@! TA.AperFunction,ComponentPad*
%ADD50C,0.300000*%
G04 #@! TD*
G04 #@! TA.AperFunction,SMDPad,CuDef*
%ADD51R,1.220000X0.650000*%
G04 #@! TD*
G04 #@! TA.AperFunction,SMDPad,CuDef*
%ADD52R,1.200000X2.200000*%
G04 #@! TD*
G04 #@! TA.AperFunction,SMDPad,CuDef*
%ADD53R,5.800000X6.400000*%
G04 #@! TD*
G04 #@! TA.AperFunction,SMDPad,CuDef*
%ADD54R,2.750000X3.050000*%
G04 #@! TD*
G04 #@! TA.AperFunction,ComponentPad*
%ADD55C,1.700000*%
G04 #@! TD*
G04 #@! TA.AperFunction,ComponentPad*
%ADD56C,1.350000*%
G04 #@! TD*
G04 #@! TA.AperFunction,ViaPad*
%ADD57C,0.900000*%
G04 #@! TD*
G04 #@! TA.AperFunction,ViaPad*
%ADD58C,0.600000*%
G04 #@! TD*
G04 #@! TA.AperFunction,ViaPad*
%ADD59C,1.200000*%
G04 #@! TD*
G04 #@! TA.AperFunction,Conductor*
%ADD60C,3.000000*%
G04 #@! TD*
G04 #@! TA.AperFunction,Conductor*
%ADD61C,0.200000*%
G04 #@! TD*
G04 #@! TA.AperFunction,Conductor*
%ADD62C,1.000000*%
G04 #@! TD*
G04 #@! TA.AperFunction,Conductor*
%ADD63C,1.200000*%
G04 #@! TD*
G04 #@! TA.AperFunction,Conductor*
%ADD64C,0.400000*%
G04 #@! TD*
G04 #@! TA.AperFunction,Conductor*
%ADD65C,2.000000*%
G04 #@! TD*
G04 #@! TA.AperFunction,Conductor*
%ADD66C,0.500000*%
G04 #@! TD*
G04 APERTURE END LIST*
D10*
G36*
X209305000Y-97120000D02*
G01*
X208700000Y-97120000D01*
X208700000Y-96655000D01*
X208040000Y-96655000D01*
X208040000Y-97120000D01*
X207430000Y-97120000D01*
X207430000Y-96655000D01*
X206770000Y-96655000D01*
X206770000Y-97120000D01*
X206160000Y-97120000D01*
X206160000Y-96655000D01*
X205500000Y-96655000D01*
X205500000Y-97120000D01*
X204895000Y-97120000D01*
X204895000Y-96195000D01*
X204425000Y-96195000D01*
X204425000Y-95395000D01*
X204895000Y-95395000D01*
X204895000Y-93745000D01*
X204425000Y-93745000D01*
X204425000Y-92945000D01*
X204895000Y-92945000D01*
X204895000Y-92795000D01*
X209305000Y-92795000D01*
X209305000Y-92945000D01*
X209775000Y-92945000D01*
X209775000Y-93745000D01*
X209305000Y-93745000D01*
X209305000Y-95395000D01*
X209775000Y-95395000D01*
X209775000Y-96195000D01*
X209305000Y-96195000D01*
X209305000Y-97120000D01*
G37*
X209305000Y-97120000D02*
X208700000Y-97120000D01*
X208700000Y-96655000D01*
X208040000Y-96655000D01*
X208040000Y-97120000D01*
X207430000Y-97120000D01*
X207430000Y-96655000D01*
X206770000Y-96655000D01*
X206770000Y-97120000D01*
X206160000Y-97120000D01*
X206160000Y-96655000D01*
X205500000Y-96655000D01*
X205500000Y-97120000D01*
X204895000Y-97120000D01*
X204895000Y-96195000D01*
X204425000Y-96195000D01*
X204425000Y-95395000D01*
X204895000Y-95395000D01*
X204895000Y-93745000D01*
X204425000Y-93745000D01*
X204425000Y-92945000D01*
X204895000Y-92945000D01*
X204895000Y-92795000D01*
X209305000Y-92795000D01*
X209305000Y-92945000D01*
X209775000Y-92945000D01*
X209775000Y-93745000D01*
X209305000Y-93745000D01*
X209305000Y-95395000D01*
X209775000Y-95395000D01*
X209775000Y-96195000D01*
X209305000Y-96195000D01*
X209305000Y-97120000D01*
G36*
X204895000Y-97580000D02*
G01*
X205500000Y-97580000D01*
X205500000Y-98045000D01*
X206160000Y-98045000D01*
X206160000Y-97580000D01*
X206770000Y-97580000D01*
X206770000Y-98045000D01*
X207430000Y-98045000D01*
X207430000Y-97580000D01*
X208040000Y-97580000D01*
X208040000Y-98045000D01*
X208700000Y-98045000D01*
X208700000Y-97580000D01*
X209305000Y-97580000D01*
X209305000Y-98505000D01*
X209775000Y-98505000D01*
X209775000Y-99305000D01*
X209305000Y-99305000D01*
X209305000Y-100955000D01*
X209775000Y-100955000D01*
X209775000Y-101755000D01*
X209305000Y-101755000D01*
X209305000Y-101905000D01*
X204895000Y-101905000D01*
X204895000Y-101755000D01*
X204425000Y-101755000D01*
X204425000Y-100955000D01*
X204895000Y-100955000D01*
X204895000Y-99305000D01*
X204425000Y-99305000D01*
X204425000Y-98505000D01*
X204895000Y-98505000D01*
X204895000Y-97580000D01*
G37*
X204895000Y-97580000D02*
X205500000Y-97580000D01*
X205500000Y-98045000D01*
X206160000Y-98045000D01*
X206160000Y-97580000D01*
X206770000Y-97580000D01*
X206770000Y-98045000D01*
X207430000Y-98045000D01*
X207430000Y-97580000D01*
X208040000Y-97580000D01*
X208040000Y-98045000D01*
X208700000Y-98045000D01*
X208700000Y-97580000D01*
X209305000Y-97580000D01*
X209305000Y-98505000D01*
X209775000Y-98505000D01*
X209775000Y-99305000D01*
X209305000Y-99305000D01*
X209305000Y-100955000D01*
X209775000Y-100955000D01*
X209775000Y-101755000D01*
X209305000Y-101755000D01*
X209305000Y-101905000D01*
X204895000Y-101905000D01*
X204895000Y-101755000D01*
X204425000Y-101755000D01*
X204425000Y-100955000D01*
X204895000Y-100955000D01*
X204895000Y-99305000D01*
X204425000Y-99305000D01*
X204425000Y-98505000D01*
X204895000Y-98505000D01*
X204895000Y-97580000D01*
G36*
X118380000Y-131605000D02*
G01*
X118380000Y-131000000D01*
X118845000Y-131000000D01*
X118845000Y-130340000D01*
X118380000Y-130340000D01*
X118380000Y-129730000D01*
X118845000Y-129730000D01*
X118845000Y-129070000D01*
X118380000Y-129070000D01*
X118380000Y-128460000D01*
X118845000Y-128460000D01*
X118845000Y-127800000D01*
X118380000Y-127800000D01*
X118380000Y-127195000D01*
X119305000Y-127195000D01*
X119305000Y-126725000D01*
X120105000Y-126725000D01*
X120105000Y-127195000D01*
X121755000Y-127195000D01*
X121755000Y-126725000D01*
X122555000Y-126725000D01*
X122555000Y-127195000D01*
X122705000Y-127195000D01*
X122705000Y-131605000D01*
X122555000Y-131605000D01*
X122555000Y-132075000D01*
X121755000Y-132075000D01*
X121755000Y-131605000D01*
X120105000Y-131605000D01*
X120105000Y-132075000D01*
X119305000Y-132075000D01*
X119305000Y-131605000D01*
X118380000Y-131605000D01*
G37*
X118380000Y-131605000D02*
X118380000Y-131000000D01*
X118845000Y-131000000D01*
X118845000Y-130340000D01*
X118380000Y-130340000D01*
X118380000Y-129730000D01*
X118845000Y-129730000D01*
X118845000Y-129070000D01*
X118380000Y-129070000D01*
X118380000Y-128460000D01*
X118845000Y-128460000D01*
X118845000Y-127800000D01*
X118380000Y-127800000D01*
X118380000Y-127195000D01*
X119305000Y-127195000D01*
X119305000Y-126725000D01*
X120105000Y-126725000D01*
X120105000Y-127195000D01*
X121755000Y-127195000D01*
X121755000Y-126725000D01*
X122555000Y-126725000D01*
X122555000Y-127195000D01*
X122705000Y-127195000D01*
X122705000Y-131605000D01*
X122555000Y-131605000D01*
X122555000Y-132075000D01*
X121755000Y-132075000D01*
X121755000Y-131605000D01*
X120105000Y-131605000D01*
X120105000Y-132075000D01*
X119305000Y-132075000D01*
X119305000Y-131605000D01*
X118380000Y-131605000D01*
G36*
X129580000Y-126205000D02*
G01*
X129580000Y-125600000D01*
X130045000Y-125600000D01*
X130045000Y-124940000D01*
X129580000Y-124940000D01*
X129580000Y-124330000D01*
X130045000Y-124330000D01*
X130045000Y-123670000D01*
X129580000Y-123670000D01*
X129580000Y-123060000D01*
X130045000Y-123060000D01*
X130045000Y-122400000D01*
X129580000Y-122400000D01*
X129580000Y-121795000D01*
X130505000Y-121795000D01*
X130505000Y-121325000D01*
X131305000Y-121325000D01*
X131305000Y-121795000D01*
X132955000Y-121795000D01*
X132955000Y-121325000D01*
X133755000Y-121325000D01*
X133755000Y-121795000D01*
X133905000Y-121795000D01*
X133905000Y-126205000D01*
X133755000Y-126205000D01*
X133755000Y-126675000D01*
X132955000Y-126675000D01*
X132955000Y-126205000D01*
X131305000Y-126205000D01*
X131305000Y-126675000D01*
X130505000Y-126675000D01*
X130505000Y-126205000D01*
X129580000Y-126205000D01*
G37*
X129580000Y-126205000D02*
X129580000Y-125600000D01*
X130045000Y-125600000D01*
X130045000Y-124940000D01*
X129580000Y-124940000D01*
X129580000Y-124330000D01*
X130045000Y-124330000D01*
X130045000Y-123670000D01*
X129580000Y-123670000D01*
X129580000Y-123060000D01*
X130045000Y-123060000D01*
X130045000Y-122400000D01*
X129580000Y-122400000D01*
X129580000Y-121795000D01*
X130505000Y-121795000D01*
X130505000Y-121325000D01*
X131305000Y-121325000D01*
X131305000Y-121795000D01*
X132955000Y-121795000D01*
X132955000Y-121325000D01*
X133755000Y-121325000D01*
X133755000Y-121795000D01*
X133905000Y-121795000D01*
X133905000Y-126205000D01*
X133755000Y-126205000D01*
X133755000Y-126675000D01*
X132955000Y-126675000D01*
X132955000Y-126205000D01*
X131305000Y-126205000D01*
X131305000Y-126675000D01*
X130505000Y-126675000D01*
X130505000Y-126205000D01*
X129580000Y-126205000D01*
G36*
X129580000Y-136805000D02*
G01*
X129580000Y-136200000D01*
X130045000Y-136200000D01*
X130045000Y-135540000D01*
X129580000Y-135540000D01*
X129580000Y-134930000D01*
X130045000Y-134930000D01*
X130045000Y-134270000D01*
X129580000Y-134270000D01*
X129580000Y-133660000D01*
X130045000Y-133660000D01*
X130045000Y-133000000D01*
X129580000Y-133000000D01*
X129580000Y-132395000D01*
X130505000Y-132395000D01*
X130505000Y-131925000D01*
X131305000Y-131925000D01*
X131305000Y-132395000D01*
X132955000Y-132395000D01*
X132955000Y-131925000D01*
X133755000Y-131925000D01*
X133755000Y-132395000D01*
X133905000Y-132395000D01*
X133905000Y-136805000D01*
X133755000Y-136805000D01*
X133755000Y-137275000D01*
X132955000Y-137275000D01*
X132955000Y-136805000D01*
X131305000Y-136805000D01*
X131305000Y-137275000D01*
X130505000Y-137275000D01*
X130505000Y-136805000D01*
X129580000Y-136805000D01*
G37*
X129580000Y-136805000D02*
X129580000Y-136200000D01*
X130045000Y-136200000D01*
X130045000Y-135540000D01*
X129580000Y-135540000D01*
X129580000Y-134930000D01*
X130045000Y-134930000D01*
X130045000Y-134270000D01*
X129580000Y-134270000D01*
X129580000Y-133660000D01*
X130045000Y-133660000D01*
X130045000Y-133000000D01*
X129580000Y-133000000D01*
X129580000Y-132395000D01*
X130505000Y-132395000D01*
X130505000Y-131925000D01*
X131305000Y-131925000D01*
X131305000Y-132395000D01*
X132955000Y-132395000D01*
X132955000Y-131925000D01*
X133755000Y-131925000D01*
X133755000Y-132395000D01*
X133905000Y-132395000D01*
X133905000Y-136805000D01*
X133755000Y-136805000D01*
X133755000Y-137275000D01*
X132955000Y-137275000D01*
X132955000Y-136805000D01*
X131305000Y-136805000D01*
X131305000Y-137275000D01*
X130505000Y-137275000D01*
X130505000Y-136805000D01*
X129580000Y-136805000D01*
G36*
X140780000Y-136105000D02*
G01*
X140780000Y-135500000D01*
X141245000Y-135500000D01*
X141245000Y-134840000D01*
X140780000Y-134840000D01*
X140780000Y-134230000D01*
X141245000Y-134230000D01*
X141245000Y-133570000D01*
X140780000Y-133570000D01*
X140780000Y-132960000D01*
X141245000Y-132960000D01*
X141245000Y-132300000D01*
X140780000Y-132300000D01*
X140780000Y-131695000D01*
X141705000Y-131695000D01*
X141705000Y-131225000D01*
X142505000Y-131225000D01*
X142505000Y-131695000D01*
X144155000Y-131695000D01*
X144155000Y-131225000D01*
X144955000Y-131225000D01*
X144955000Y-131695000D01*
X145105000Y-131695000D01*
X145105000Y-136105000D01*
X144955000Y-136105000D01*
X144955000Y-136575000D01*
X144155000Y-136575000D01*
X144155000Y-136105000D01*
X142505000Y-136105000D01*
X142505000Y-136575000D01*
X141705000Y-136575000D01*
X141705000Y-136105000D01*
X140780000Y-136105000D01*
G37*
X140780000Y-136105000D02*
X140780000Y-135500000D01*
X141245000Y-135500000D01*
X141245000Y-134840000D01*
X140780000Y-134840000D01*
X140780000Y-134230000D01*
X141245000Y-134230000D01*
X141245000Y-133570000D01*
X140780000Y-133570000D01*
X140780000Y-132960000D01*
X141245000Y-132960000D01*
X141245000Y-132300000D01*
X140780000Y-132300000D01*
X140780000Y-131695000D01*
X141705000Y-131695000D01*
X141705000Y-131225000D01*
X142505000Y-131225000D01*
X142505000Y-131695000D01*
X144155000Y-131695000D01*
X144155000Y-131225000D01*
X144955000Y-131225000D01*
X144955000Y-131695000D01*
X145105000Y-131695000D01*
X145105000Y-136105000D01*
X144955000Y-136105000D01*
X144955000Y-136575000D01*
X144155000Y-136575000D01*
X144155000Y-136105000D01*
X142505000Y-136105000D01*
X142505000Y-136575000D01*
X141705000Y-136575000D01*
X141705000Y-136105000D01*
X140780000Y-136105000D01*
D11*
G36*
X168325000Y-128875000D02*
G01*
X168325000Y-128000000D01*
X168325069Y-127997383D01*
X168325274Y-127994774D01*
X168325616Y-127992178D01*
X168326093Y-127989604D01*
X168326704Y-127987059D01*
X168327447Y-127984549D01*
X168328321Y-127982082D01*
X168329323Y-127979663D01*
X168330450Y-127977300D01*
X168331699Y-127975000D01*
X168333066Y-127972768D01*
X168334549Y-127970611D01*
X168336143Y-127968534D01*
X168337843Y-127966543D01*
X168339645Y-127964645D01*
X168341543Y-127962843D01*
X168343534Y-127961143D01*
X168345611Y-127959549D01*
X168347768Y-127958066D01*
X168350000Y-127956699D01*
X168352300Y-127955450D01*
X168354663Y-127954323D01*
X168357082Y-127953321D01*
X168359549Y-127952447D01*
X168362059Y-127951704D01*
X168364604Y-127951093D01*
X168367178Y-127950616D01*
X168369774Y-127950274D01*
X168372383Y-127950069D01*
X168375000Y-127950000D01*
X168475000Y-127950000D01*
X168477617Y-127950069D01*
X168480226Y-127950274D01*
X168482822Y-127950616D01*
X168485396Y-127951093D01*
X168487941Y-127951704D01*
X168490451Y-127952447D01*
X168492918Y-127953321D01*
X168495337Y-127954323D01*
X168497700Y-127955450D01*
X168500000Y-127956699D01*
X168502232Y-127958066D01*
X168504389Y-127959549D01*
X168506466Y-127961143D01*
X168508457Y-127962843D01*
X168510355Y-127964645D01*
X168512157Y-127966543D01*
X168513857Y-127968534D01*
X168515451Y-127970611D01*
X168516934Y-127972768D01*
X168518301Y-127975000D01*
X168519550Y-127977300D01*
X168520677Y-127979663D01*
X168521679Y-127982082D01*
X168522553Y-127984549D01*
X168523296Y-127987059D01*
X168523907Y-127989604D01*
X168524384Y-127992178D01*
X168524726Y-127994774D01*
X168524931Y-127997383D01*
X168525000Y-128000000D01*
X168525000Y-128475000D01*
X168875000Y-128475000D01*
X168875000Y-128000000D01*
X168875069Y-127997383D01*
X168875274Y-127994774D01*
X168875616Y-127992178D01*
X168876093Y-127989604D01*
X168876704Y-127987059D01*
X168877447Y-127984549D01*
X168878321Y-127982082D01*
X168879323Y-127979663D01*
X168880450Y-127977300D01*
X168881699Y-127975000D01*
X168883066Y-127972768D01*
X168884549Y-127970611D01*
X168886143Y-127968534D01*
X168887843Y-127966543D01*
X168889645Y-127964645D01*
X168891543Y-127962843D01*
X168893534Y-127961143D01*
X168895611Y-127959549D01*
X168897768Y-127958066D01*
X168900000Y-127956699D01*
X168902300Y-127955450D01*
X168904663Y-127954323D01*
X168907082Y-127953321D01*
X168909549Y-127952447D01*
X168912059Y-127951704D01*
X168914604Y-127951093D01*
X168917178Y-127950616D01*
X168919774Y-127950274D01*
X168922383Y-127950069D01*
X168925000Y-127950000D01*
X169025000Y-127950000D01*
X169027617Y-127950069D01*
X169030226Y-127950274D01*
X169032822Y-127950616D01*
X169035396Y-127951093D01*
X169037941Y-127951704D01*
X169040451Y-127952447D01*
X169042918Y-127953321D01*
X169045337Y-127954323D01*
X169047700Y-127955450D01*
X169050000Y-127956699D01*
X169052232Y-127958066D01*
X169054389Y-127959549D01*
X169056466Y-127961143D01*
X169058457Y-127962843D01*
X169060355Y-127964645D01*
X169062157Y-127966543D01*
X169063857Y-127968534D01*
X169065451Y-127970611D01*
X169066934Y-127972768D01*
X169068301Y-127975000D01*
X169069550Y-127977300D01*
X169070677Y-127979663D01*
X169071679Y-127982082D01*
X169072553Y-127984549D01*
X169073296Y-127987059D01*
X169073907Y-127989604D01*
X169074384Y-127992178D01*
X169074726Y-127994774D01*
X169074931Y-127997383D01*
X169075000Y-128000000D01*
X169075000Y-128875000D01*
X169675000Y-128875000D01*
X169677617Y-128875069D01*
X169680226Y-128875274D01*
X169682822Y-128875616D01*
X169685396Y-128876093D01*
X169687941Y-128876704D01*
X169690451Y-128877447D01*
X169692918Y-128878321D01*
X169695337Y-128879323D01*
X169697700Y-128880450D01*
X169700000Y-128881699D01*
X169702232Y-128883066D01*
X169704389Y-128884549D01*
X169706466Y-128886143D01*
X169708457Y-128887843D01*
X169710355Y-128889645D01*
X169712157Y-128891543D01*
X169713857Y-128893534D01*
X169715451Y-128895611D01*
X169716934Y-128897768D01*
X169718301Y-128900000D01*
X169719550Y-128902300D01*
X169720677Y-128904663D01*
X169721679Y-128907082D01*
X169722553Y-128909549D01*
X169723296Y-128912059D01*
X169723907Y-128914604D01*
X169724384Y-128917178D01*
X169724726Y-128919774D01*
X169724931Y-128922383D01*
X169725000Y-128925000D01*
X169725000Y-131875000D01*
X169724931Y-131877617D01*
X169724726Y-131880226D01*
X169724384Y-131882822D01*
X169723907Y-131885396D01*
X169723296Y-131887941D01*
X169722553Y-131890451D01*
X169721679Y-131892918D01*
X169720677Y-131895337D01*
X169719550Y-131897700D01*
X169718301Y-131900000D01*
X169716934Y-131902232D01*
X169715451Y-131904389D01*
X169713857Y-131906466D01*
X169712157Y-131908457D01*
X169710355Y-131910355D01*
X169708457Y-131912157D01*
X169706466Y-131913857D01*
X169704389Y-131915451D01*
X169702232Y-131916934D01*
X169700000Y-131918301D01*
X169697700Y-131919550D01*
X169695337Y-131920677D01*
X169692918Y-131921679D01*
X169690451Y-131922553D01*
X169687941Y-131923296D01*
X169685396Y-131923907D01*
X169682822Y-131924384D01*
X169680226Y-131924726D01*
X169677617Y-131924931D01*
X169675000Y-131925000D01*
X169075000Y-131925000D01*
X169075000Y-132800000D01*
X169074931Y-132802617D01*
X169074726Y-132805226D01*
X169074384Y-132807822D01*
X169073907Y-132810396D01*
X169073296Y-132812941D01*
X169072553Y-132815451D01*
X169071679Y-132817918D01*
X169070677Y-132820337D01*
X169069550Y-132822700D01*
X169068301Y-132825000D01*
X169066934Y-132827232D01*
X169065451Y-132829389D01*
X169063857Y-132831466D01*
X169062157Y-132833457D01*
X169060355Y-132835355D01*
X169058457Y-132837157D01*
X169056466Y-132838857D01*
X169054389Y-132840451D01*
X169052232Y-132841934D01*
X169050000Y-132843301D01*
X169047700Y-132844550D01*
X169045337Y-132845677D01*
X169042918Y-132846679D01*
X169040451Y-132847553D01*
X169037941Y-132848296D01*
X169035396Y-132848907D01*
X169032822Y-132849384D01*
X169030226Y-132849726D01*
X169027617Y-132849931D01*
X169025000Y-132850000D01*
X168925000Y-132850000D01*
X168922383Y-132849931D01*
X168919774Y-132849726D01*
X168917178Y-132849384D01*
X168914604Y-132848907D01*
X168912059Y-132848296D01*
X168909549Y-132847553D01*
X168907082Y-132846679D01*
X168904663Y-132845677D01*
X168902300Y-132844550D01*
X168900000Y-132843301D01*
X168897768Y-132841934D01*
X168895611Y-132840451D01*
X168893534Y-132838857D01*
X168891543Y-132837157D01*
X168889645Y-132835355D01*
X168887843Y-132833457D01*
X168886143Y-132831466D01*
X168884549Y-132829389D01*
X168883066Y-132827232D01*
X168881699Y-132825000D01*
X168880450Y-132822700D01*
X168879323Y-132820337D01*
X168878321Y-132817918D01*
X168877447Y-132815451D01*
X168876704Y-132812941D01*
X168876093Y-132810396D01*
X168875616Y-132807822D01*
X168875274Y-132805226D01*
X168875069Y-132802617D01*
X168875000Y-132800000D01*
X168875000Y-132325000D01*
X168525000Y-132325000D01*
X168525000Y-132800000D01*
X168524931Y-132802617D01*
X168524726Y-132805226D01*
X168524384Y-132807822D01*
X168523907Y-132810396D01*
X168523296Y-132812941D01*
X168522553Y-132815451D01*
X168521679Y-132817918D01*
X168520677Y-132820337D01*
X168519550Y-132822700D01*
X168518301Y-132825000D01*
X168516934Y-132827232D01*
X168515451Y-132829389D01*
X168513857Y-132831466D01*
X168512157Y-132833457D01*
X168510355Y-132835355D01*
X168508457Y-132837157D01*
X168506466Y-132838857D01*
X168504389Y-132840451D01*
X168502232Y-132841934D01*
X168500000Y-132843301D01*
X168497700Y-132844550D01*
X168495337Y-132845677D01*
X168492918Y-132846679D01*
X168490451Y-132847553D01*
X168487941Y-132848296D01*
X168485396Y-132848907D01*
X168482822Y-132849384D01*
X168480226Y-132849726D01*
X168477617Y-132849931D01*
X168475000Y-132850000D01*
X168375000Y-132850000D01*
X168372383Y-132849931D01*
X168369774Y-132849726D01*
X168367178Y-132849384D01*
X168364604Y-132848907D01*
X168362059Y-132848296D01*
X168359549Y-132847553D01*
X168357082Y-132846679D01*
X168354663Y-132845677D01*
X168352300Y-132844550D01*
X168350000Y-132843301D01*
X168347768Y-132841934D01*
X168345611Y-132840451D01*
X168343534Y-132838857D01*
X168341543Y-132837157D01*
X168339645Y-132835355D01*
X168337843Y-132833457D01*
X168336143Y-132831466D01*
X168334549Y-132829389D01*
X168333066Y-132827232D01*
X168331699Y-132825000D01*
X168330450Y-132822700D01*
X168329323Y-132820337D01*
X168328321Y-132817918D01*
X168327447Y-132815451D01*
X168326704Y-132812941D01*
X168326093Y-132810396D01*
X168325616Y-132807822D01*
X168325274Y-132805226D01*
X168325069Y-132802617D01*
X168325000Y-132800000D01*
X168325000Y-131925000D01*
X167725000Y-131925000D01*
X167722383Y-131924931D01*
X167719774Y-131924726D01*
X167717178Y-131924384D01*
X167714604Y-131923907D01*
X167712059Y-131923296D01*
X167709549Y-131922553D01*
X167707082Y-131921679D01*
X167704663Y-131920677D01*
X167702300Y-131919550D01*
X167700000Y-131918301D01*
X167697768Y-131916934D01*
X167695611Y-131915451D01*
X167693534Y-131913857D01*
X167691543Y-131912157D01*
X167689645Y-131910355D01*
X167687843Y-131908457D01*
X167686143Y-131906466D01*
X167684549Y-131904389D01*
X167683066Y-131902232D01*
X167681699Y-131900000D01*
X167680450Y-131897700D01*
X167679323Y-131895337D01*
X167678321Y-131892918D01*
X167677447Y-131890451D01*
X167676704Y-131887941D01*
X167676093Y-131885396D01*
X167675616Y-131882822D01*
X167675274Y-131880226D01*
X167675069Y-131877617D01*
X167675000Y-131875000D01*
X167675000Y-128925000D01*
X167675069Y-128922383D01*
X167675274Y-128919774D01*
X167675616Y-128917178D01*
X167676093Y-128914604D01*
X167676704Y-128912059D01*
X167677447Y-128909549D01*
X167678321Y-128907082D01*
X167679323Y-128904663D01*
X167680450Y-128902300D01*
X167681699Y-128900000D01*
X167683066Y-128897768D01*
X167684549Y-128895611D01*
X167686143Y-128893534D01*
X167687843Y-128891543D01*
X167689645Y-128889645D01*
X167691543Y-128887843D01*
X167693534Y-128886143D01*
X167695611Y-128884549D01*
X167697768Y-128883066D01*
X167700000Y-128881699D01*
X167702300Y-128880450D01*
X167704663Y-128879323D01*
X167707082Y-128878321D01*
X167709549Y-128877447D01*
X167712059Y-128876704D01*
X167714604Y-128876093D01*
X167717178Y-128875616D01*
X167719774Y-128875274D01*
X167722383Y-128875069D01*
X167725000Y-128875000D01*
X168325000Y-128875000D01*
G37*
X168325000Y-128875000D02*
X168325000Y-128000000D01*
X168325069Y-127997383D01*
X168325274Y-127994774D01*
X168325616Y-127992178D01*
X168326093Y-127989604D01*
X168326704Y-127987059D01*
X168327447Y-127984549D01*
X168328321Y-127982082D01*
X168329323Y-127979663D01*
X168330450Y-127977300D01*
X168331699Y-127975000D01*
X168333066Y-127972768D01*
X168334549Y-127970611D01*
X168336143Y-127968534D01*
X168337843Y-127966543D01*
X168339645Y-127964645D01*
X168341543Y-127962843D01*
X168343534Y-127961143D01*
X168345611Y-127959549D01*
X168347768Y-127958066D01*
X168350000Y-127956699D01*
X168352300Y-127955450D01*
X168354663Y-127954323D01*
X168357082Y-127953321D01*
X168359549Y-127952447D01*
X168362059Y-127951704D01*
X168364604Y-127951093D01*
X168367178Y-127950616D01*
X168369774Y-127950274D01*
X168372383Y-127950069D01*
X168375000Y-127950000D01*
X168475000Y-127950000D01*
X168477617Y-127950069D01*
X168480226Y-127950274D01*
X168482822Y-127950616D01*
X168485396Y-127951093D01*
X168487941Y-127951704D01*
X168490451Y-127952447D01*
X168492918Y-127953321D01*
X168495337Y-127954323D01*
X168497700Y-127955450D01*
X168500000Y-127956699D01*
X168502232Y-127958066D01*
X168504389Y-127959549D01*
X168506466Y-127961143D01*
X168508457Y-127962843D01*
X168510355Y-127964645D01*
X168512157Y-127966543D01*
X168513857Y-127968534D01*
X168515451Y-127970611D01*
X168516934Y-127972768D01*
X168518301Y-127975000D01*
X168519550Y-127977300D01*
X168520677Y-127979663D01*
X168521679Y-127982082D01*
X168522553Y-127984549D01*
X168523296Y-127987059D01*
X168523907Y-127989604D01*
X168524384Y-127992178D01*
X168524726Y-127994774D01*
X168524931Y-127997383D01*
X168525000Y-128000000D01*
X168525000Y-128475000D01*
X168875000Y-128475000D01*
X168875000Y-128000000D01*
X168875069Y-127997383D01*
X168875274Y-127994774D01*
X168875616Y-127992178D01*
X168876093Y-127989604D01*
X168876704Y-127987059D01*
X168877447Y-127984549D01*
X168878321Y-127982082D01*
X168879323Y-127979663D01*
X168880450Y-127977300D01*
X168881699Y-127975000D01*
X168883066Y-127972768D01*
X168884549Y-127970611D01*
X168886143Y-127968534D01*
X168887843Y-127966543D01*
X168889645Y-127964645D01*
X168891543Y-127962843D01*
X168893534Y-127961143D01*
X168895611Y-127959549D01*
X168897768Y-127958066D01*
X168900000Y-127956699D01*
X168902300Y-127955450D01*
X168904663Y-127954323D01*
X168907082Y-127953321D01*
X168909549Y-127952447D01*
X168912059Y-127951704D01*
X168914604Y-127951093D01*
X168917178Y-127950616D01*
X168919774Y-127950274D01*
X168922383Y-127950069D01*
X168925000Y-127950000D01*
X169025000Y-127950000D01*
X169027617Y-127950069D01*
X169030226Y-127950274D01*
X169032822Y-127950616D01*
X169035396Y-127951093D01*
X169037941Y-127951704D01*
X169040451Y-127952447D01*
X169042918Y-127953321D01*
X169045337Y-127954323D01*
X169047700Y-127955450D01*
X169050000Y-127956699D01*
X169052232Y-127958066D01*
X169054389Y-127959549D01*
X169056466Y-127961143D01*
X169058457Y-127962843D01*
X169060355Y-127964645D01*
X169062157Y-127966543D01*
X169063857Y-127968534D01*
X169065451Y-127970611D01*
X169066934Y-127972768D01*
X169068301Y-127975000D01*
X169069550Y-127977300D01*
X169070677Y-127979663D01*
X169071679Y-127982082D01*
X169072553Y-127984549D01*
X169073296Y-127987059D01*
X169073907Y-127989604D01*
X169074384Y-127992178D01*
X169074726Y-127994774D01*
X169074931Y-127997383D01*
X169075000Y-128000000D01*
X169075000Y-128875000D01*
X169675000Y-128875000D01*
X169677617Y-128875069D01*
X169680226Y-128875274D01*
X169682822Y-128875616D01*
X169685396Y-128876093D01*
X169687941Y-128876704D01*
X169690451Y-128877447D01*
X169692918Y-128878321D01*
X169695337Y-128879323D01*
X169697700Y-128880450D01*
X169700000Y-128881699D01*
X169702232Y-128883066D01*
X169704389Y-128884549D01*
X169706466Y-128886143D01*
X169708457Y-128887843D01*
X169710355Y-128889645D01*
X169712157Y-128891543D01*
X169713857Y-128893534D01*
X169715451Y-128895611D01*
X169716934Y-128897768D01*
X169718301Y-128900000D01*
X169719550Y-128902300D01*
X169720677Y-128904663D01*
X169721679Y-128907082D01*
X169722553Y-128909549D01*
X169723296Y-128912059D01*
X169723907Y-128914604D01*
X169724384Y-128917178D01*
X169724726Y-128919774D01*
X169724931Y-128922383D01*
X169725000Y-128925000D01*
X169725000Y-131875000D01*
X169724931Y-131877617D01*
X169724726Y-131880226D01*
X169724384Y-131882822D01*
X169723907Y-131885396D01*
X169723296Y-131887941D01*
X169722553Y-131890451D01*
X169721679Y-131892918D01*
X169720677Y-131895337D01*
X169719550Y-131897700D01*
X169718301Y-131900000D01*
X169716934Y-131902232D01*
X169715451Y-131904389D01*
X169713857Y-131906466D01*
X169712157Y-131908457D01*
X169710355Y-131910355D01*
X169708457Y-131912157D01*
X169706466Y-131913857D01*
X169704389Y-131915451D01*
X169702232Y-131916934D01*
X169700000Y-131918301D01*
X169697700Y-131919550D01*
X169695337Y-131920677D01*
X169692918Y-131921679D01*
X169690451Y-131922553D01*
X169687941Y-131923296D01*
X169685396Y-131923907D01*
X169682822Y-131924384D01*
X169680226Y-131924726D01*
X169677617Y-131924931D01*
X169675000Y-131925000D01*
X169075000Y-131925000D01*
X169075000Y-132800000D01*
X169074931Y-132802617D01*
X169074726Y-132805226D01*
X169074384Y-132807822D01*
X169073907Y-132810396D01*
X169073296Y-132812941D01*
X169072553Y-132815451D01*
X169071679Y-132817918D01*
X169070677Y-132820337D01*
X169069550Y-132822700D01*
X169068301Y-132825000D01*
X169066934Y-132827232D01*
X169065451Y-132829389D01*
X169063857Y-132831466D01*
X169062157Y-132833457D01*
X169060355Y-132835355D01*
X169058457Y-132837157D01*
X169056466Y-132838857D01*
X169054389Y-132840451D01*
X169052232Y-132841934D01*
X169050000Y-132843301D01*
X169047700Y-132844550D01*
X169045337Y-132845677D01*
X169042918Y-132846679D01*
X169040451Y-132847553D01*
X169037941Y-132848296D01*
X169035396Y-132848907D01*
X169032822Y-132849384D01*
X169030226Y-132849726D01*
X169027617Y-132849931D01*
X169025000Y-132850000D01*
X168925000Y-132850000D01*
X168922383Y-132849931D01*
X168919774Y-132849726D01*
X168917178Y-132849384D01*
X168914604Y-132848907D01*
X168912059Y-132848296D01*
X168909549Y-132847553D01*
X168907082Y-132846679D01*
X168904663Y-132845677D01*
X168902300Y-132844550D01*
X168900000Y-132843301D01*
X168897768Y-132841934D01*
X168895611Y-132840451D01*
X168893534Y-132838857D01*
X168891543Y-132837157D01*
X168889645Y-132835355D01*
X168887843Y-132833457D01*
X168886143Y-132831466D01*
X168884549Y-132829389D01*
X168883066Y-132827232D01*
X168881699Y-132825000D01*
X168880450Y-132822700D01*
X168879323Y-132820337D01*
X168878321Y-132817918D01*
X168877447Y-132815451D01*
X168876704Y-132812941D01*
X168876093Y-132810396D01*
X168875616Y-132807822D01*
X168875274Y-132805226D01*
X168875069Y-132802617D01*
X168875000Y-132800000D01*
X168875000Y-132325000D01*
X168525000Y-132325000D01*
X168525000Y-132800000D01*
X168524931Y-132802617D01*
X168524726Y-132805226D01*
X168524384Y-132807822D01*
X168523907Y-132810396D01*
X168523296Y-132812941D01*
X168522553Y-132815451D01*
X168521679Y-132817918D01*
X168520677Y-132820337D01*
X168519550Y-132822700D01*
X168518301Y-132825000D01*
X168516934Y-132827232D01*
X168515451Y-132829389D01*
X168513857Y-132831466D01*
X168512157Y-132833457D01*
X168510355Y-132835355D01*
X168508457Y-132837157D01*
X168506466Y-132838857D01*
X168504389Y-132840451D01*
X168502232Y-132841934D01*
X168500000Y-132843301D01*
X168497700Y-132844550D01*
X168495337Y-132845677D01*
X168492918Y-132846679D01*
X168490451Y-132847553D01*
X168487941Y-132848296D01*
X168485396Y-132848907D01*
X168482822Y-132849384D01*
X168480226Y-132849726D01*
X168477617Y-132849931D01*
X168475000Y-132850000D01*
X168375000Y-132850000D01*
X168372383Y-132849931D01*
X168369774Y-132849726D01*
X168367178Y-132849384D01*
X168364604Y-132848907D01*
X168362059Y-132848296D01*
X168359549Y-132847553D01*
X168357082Y-132846679D01*
X168354663Y-132845677D01*
X168352300Y-132844550D01*
X168350000Y-132843301D01*
X168347768Y-132841934D01*
X168345611Y-132840451D01*
X168343534Y-132838857D01*
X168341543Y-132837157D01*
X168339645Y-132835355D01*
X168337843Y-132833457D01*
X168336143Y-132831466D01*
X168334549Y-132829389D01*
X168333066Y-132827232D01*
X168331699Y-132825000D01*
X168330450Y-132822700D01*
X168329323Y-132820337D01*
X168328321Y-132817918D01*
X168327447Y-132815451D01*
X168326704Y-132812941D01*
X168326093Y-132810396D01*
X168325616Y-132807822D01*
X168325274Y-132805226D01*
X168325069Y-132802617D01*
X168325000Y-132800000D01*
X168325000Y-131925000D01*
X167725000Y-131925000D01*
X167722383Y-131924931D01*
X167719774Y-131924726D01*
X167717178Y-131924384D01*
X167714604Y-131923907D01*
X167712059Y-131923296D01*
X167709549Y-131922553D01*
X167707082Y-131921679D01*
X167704663Y-131920677D01*
X167702300Y-131919550D01*
X167700000Y-131918301D01*
X167697768Y-131916934D01*
X167695611Y-131915451D01*
X167693534Y-131913857D01*
X167691543Y-131912157D01*
X167689645Y-131910355D01*
X167687843Y-131908457D01*
X167686143Y-131906466D01*
X167684549Y-131904389D01*
X167683066Y-131902232D01*
X167681699Y-131900000D01*
X167680450Y-131897700D01*
X167679323Y-131895337D01*
X167678321Y-131892918D01*
X167677447Y-131890451D01*
X167676704Y-131887941D01*
X167676093Y-131885396D01*
X167675616Y-131882822D01*
X167675274Y-131880226D01*
X167675069Y-131877617D01*
X167675000Y-131875000D01*
X167675000Y-128925000D01*
X167675069Y-128922383D01*
X167675274Y-128919774D01*
X167675616Y-128917178D01*
X167676093Y-128914604D01*
X167676704Y-128912059D01*
X167677447Y-128909549D01*
X167678321Y-128907082D01*
X167679323Y-128904663D01*
X167680450Y-128902300D01*
X167681699Y-128900000D01*
X167683066Y-128897768D01*
X167684549Y-128895611D01*
X167686143Y-128893534D01*
X167687843Y-128891543D01*
X167689645Y-128889645D01*
X167691543Y-128887843D01*
X167693534Y-128886143D01*
X167695611Y-128884549D01*
X167697768Y-128883066D01*
X167700000Y-128881699D01*
X167702300Y-128880450D01*
X167704663Y-128879323D01*
X167707082Y-128878321D01*
X167709549Y-128877447D01*
X167712059Y-128876704D01*
X167714604Y-128876093D01*
X167717178Y-128875616D01*
X167719774Y-128875274D01*
X167722383Y-128875069D01*
X167725000Y-128875000D01*
X168325000Y-128875000D01*
D12*
X124250000Y-125700000D03*
X122750000Y-125700000D03*
X124250000Y-124200000D03*
X122750000Y-124200000D03*
D13*
X190690000Y-124330000D03*
X190690000Y-124970000D03*
X190690000Y-125630000D03*
X190690000Y-126270000D03*
X193310000Y-126270000D03*
X193310000Y-125630000D03*
X193310000Y-124970000D03*
X193310000Y-124330000D03*
D14*
X206800000Y-124300000D03*
X206800000Y-126300000D03*
X206800000Y-128300000D03*
X206800000Y-130300000D03*
D15*
X206800000Y-132300000D03*
D16*
X147640000Y-139840000D03*
X147640000Y-160160000D03*
X147640000Y-150000000D03*
X193360000Y-142380000D03*
X193360000Y-147460000D03*
X193360000Y-157620000D03*
D17*
X136300000Y-146350300D03*
X136300000Y-154849700D03*
D18*
X209005000Y-96655000D03*
X207735000Y-96655000D03*
X206465000Y-96655000D03*
X205195000Y-96655000D03*
X205195000Y-91345000D03*
X206465000Y-91345000D03*
X207735000Y-91345000D03*
X209005000Y-91345000D03*
X205195000Y-103355000D03*
X206465000Y-103355000D03*
X207735000Y-103355000D03*
X209005000Y-103355000D03*
X209005000Y-98045000D03*
X207735000Y-98045000D03*
X206465000Y-98045000D03*
X205195000Y-98045000D03*
D19*
X206200000Y-109400000D03*
X206200000Y-111900000D03*
X206200000Y-114400000D03*
D20*
X206200000Y-116900000D03*
D21*
X194505100Y-133500000D03*
X189094900Y-133500000D03*
D22*
X163200000Y-124900000D03*
X163200000Y-122900000D03*
X178600000Y-122900000D03*
X178600000Y-124900000D03*
D23*
X174100000Y-125400000D03*
X176100000Y-125400000D03*
D24*
X124155000Y-131305000D03*
X124155000Y-130035000D03*
X124155000Y-128765000D03*
X124155000Y-127495000D03*
X118845000Y-127495000D03*
X118845000Y-128765000D03*
X118845000Y-130035000D03*
X118845000Y-131305000D03*
D25*
X131650000Y-130900000D03*
X133150000Y-130900000D03*
X133350000Y-141500000D03*
X131850000Y-141500000D03*
X196350000Y-125300000D03*
X194850000Y-125300000D03*
D26*
X189100000Y-128250000D03*
X189100000Y-126750000D03*
D25*
X202350000Y-104200000D03*
X200850000Y-104200000D03*
X202350000Y-105600000D03*
X200850000Y-105600000D03*
D26*
X197600000Y-116550000D03*
X197600000Y-115050000D03*
X197600000Y-112150000D03*
X197600000Y-113650000D03*
X197600000Y-110750000D03*
X197600000Y-109250000D03*
D25*
X200550000Y-109200000D03*
X199050000Y-109200000D03*
X167950000Y-133800000D03*
X169450000Y-133800000D03*
D26*
X175900000Y-130815001D03*
X175900000Y-129315001D03*
X173200000Y-130650000D03*
X173200000Y-129150000D03*
X162000000Y-133850000D03*
X162000000Y-135350000D03*
X139300000Y-125750000D03*
X139300000Y-124250000D03*
D27*
X143400000Y-150200000D03*
X143400000Y-147200000D03*
D28*
X158800000Y-128600000D03*
X160400000Y-128600000D03*
X130000000Y-162100000D03*
X131600000Y-162100000D03*
D29*
X165900000Y-122900000D03*
X166850000Y-124900000D03*
X164950000Y-124900000D03*
D30*
X143550000Y-129700000D03*
X140250000Y-129700000D03*
D28*
X160400000Y-130100000D03*
X158800000Y-130100000D03*
D31*
X197500000Y-156910000D03*
X197500000Y-161090000D03*
X112700000Y-128710000D03*
X112700000Y-132890000D03*
D32*
X208600000Y-152700000D03*
D33*
X203900000Y-155700000D03*
D34*
X203900000Y-149700000D03*
D19*
X207200000Y-144300000D03*
D20*
X207200000Y-141800000D03*
D35*
X136600000Y-159500000D03*
D36*
X138600000Y-159500000D03*
X140600000Y-159500000D03*
X142600000Y-159500000D03*
D20*
X113000000Y-140100000D03*
D19*
X113000000Y-137600000D03*
D34*
X114900000Y-150000000D03*
D33*
X114900000Y-156000000D03*
D32*
X119600000Y-153000000D03*
D20*
X206200000Y-116900000D03*
D19*
X206200000Y-114400000D03*
X206200000Y-111900000D03*
X206200000Y-109400000D03*
D37*
X195700000Y-86700000D03*
D38*
X195700000Y-88700000D03*
D39*
X172300000Y-124900000D03*
X168700000Y-124900000D03*
D28*
X158800000Y-131600000D03*
X160400000Y-131600000D03*
D24*
X130045000Y-125905000D03*
X130045000Y-124635000D03*
X130045000Y-123365000D03*
X130045000Y-122095000D03*
X135355000Y-122095000D03*
X135355000Y-123365000D03*
X135355000Y-124635000D03*
X135355000Y-125905000D03*
X130045000Y-136505000D03*
X130045000Y-135235000D03*
X130045000Y-133965000D03*
X130045000Y-132695000D03*
X135355000Y-132695000D03*
X135355000Y-133965000D03*
X135355000Y-135235000D03*
X135355000Y-136505000D03*
X141245000Y-135805000D03*
X141245000Y-134535000D03*
X141245000Y-133265000D03*
X141245000Y-131995000D03*
X146555000Y-131995000D03*
X146555000Y-133265000D03*
X146555000Y-134535000D03*
X146555000Y-135805000D03*
D29*
X150100000Y-129200000D03*
X149150000Y-126800000D03*
X151050000Y-126800000D03*
D40*
X145100000Y-128150000D03*
X145100000Y-130050000D03*
X147500000Y-129100000D03*
D41*
X144000000Y-155750000D03*
X144000000Y-154250000D03*
X189000000Y-122550000D03*
X189000000Y-124050000D03*
D12*
X187750000Y-125300000D03*
X189250000Y-125300000D03*
D41*
X195000000Y-122550000D03*
X195000000Y-124050000D03*
D12*
X131350000Y-160600000D03*
X129850000Y-160600000D03*
X131350000Y-159100000D03*
X129850000Y-159100000D03*
X204050000Y-124500000D03*
X202550000Y-124500000D03*
X204050000Y-129700000D03*
X202550000Y-129700000D03*
D41*
X200000000Y-130050000D03*
X200000000Y-128550000D03*
X200000000Y-127450000D03*
X200000000Y-125950000D03*
D12*
X144950000Y-125200000D03*
X146450000Y-125200000D03*
X200400000Y-117000000D03*
X198900000Y-117000000D03*
D41*
X195200000Y-102950000D03*
X195200000Y-104450000D03*
D12*
X198900000Y-115500000D03*
X200400000Y-115500000D03*
D41*
X195200000Y-100350000D03*
X195200000Y-101850000D03*
D12*
X200400000Y-114000000D03*
X198900000Y-114000000D03*
D41*
X195200000Y-97750000D03*
X195200000Y-99250000D03*
X195200000Y-95150000D03*
X195200000Y-96650000D03*
D12*
X198900000Y-112400000D03*
X200400000Y-112400000D03*
X202150000Y-94300000D03*
X203650000Y-94300000D03*
X197350000Y-94300000D03*
X198850000Y-94300000D03*
D41*
X203400000Y-91450000D03*
X203400000Y-92950000D03*
X199400000Y-91450000D03*
X199400000Y-92950000D03*
X197900000Y-92950000D03*
X197900000Y-91450000D03*
D12*
X200400000Y-110800000D03*
X198900000Y-110800000D03*
D42*
X207650000Y-105300000D03*
X204750000Y-105300000D03*
D41*
X195200000Y-90750000D03*
X195200000Y-92250000D03*
X182900000Y-134350000D03*
X182900000Y-132850000D03*
D42*
X174050000Y-123300000D03*
X176950000Y-123300000D03*
D12*
X161650000Y-131600000D03*
X163150000Y-131600000D03*
X161650000Y-130100000D03*
X163150000Y-130100000D03*
X163150000Y-128600000D03*
X161650000Y-128600000D03*
D41*
X177400000Y-130750000D03*
X177400000Y-129250000D03*
X173200000Y-131950000D03*
X173200000Y-133450000D03*
D12*
X164750000Y-133800000D03*
X163250000Y-133800000D03*
X164850000Y-135300000D03*
X163350000Y-135300000D03*
D41*
X177400000Y-131850000D03*
X177400000Y-133350000D03*
X173200000Y-136050000D03*
X173200000Y-134550000D03*
X149600000Y-130450000D03*
X149600000Y-131950000D03*
X148100000Y-131950000D03*
X148100000Y-130450000D03*
D12*
X149950000Y-125300000D03*
X151450000Y-125300000D03*
X149950000Y-123800000D03*
X151450000Y-123800000D03*
X146450000Y-123200000D03*
X144950000Y-123200000D03*
D41*
X143600000Y-127950000D03*
X143600000Y-126450000D03*
D12*
X144850000Y-121700000D03*
X143350000Y-121700000D03*
D43*
X127950000Y-157510000D03*
D19*
X126700000Y-160000000D03*
X122200000Y-160000000D03*
D43*
X120940000Y-157510000D03*
D44*
X130174998Y-129574999D03*
X130174998Y-128924998D03*
X130174998Y-128274999D03*
X130174998Y-127624998D03*
X134624999Y-127624998D03*
X134624999Y-128274999D03*
X134624999Y-128924998D03*
X134624999Y-129574999D03*
X134824999Y-140174999D03*
X134824999Y-139524998D03*
X134824999Y-138874999D03*
X134824999Y-138224998D03*
X130374998Y-138224998D03*
X130374998Y-138874999D03*
X130374998Y-139524998D03*
X130374998Y-140174999D03*
D45*
X203800000Y-126150000D03*
X203800000Y-128050000D03*
X201600000Y-128050000D03*
X201600000Y-127100000D03*
X201600000Y-126150000D03*
D46*
X197450000Y-102875000D03*
X197450000Y-102225000D03*
X197450000Y-101575000D03*
X197450000Y-100925000D03*
X197450000Y-100275000D03*
X197450000Y-99625000D03*
X197450000Y-98975000D03*
X197450000Y-98325000D03*
X197450000Y-97675000D03*
X197450000Y-97025000D03*
X197450000Y-96375000D03*
X197450000Y-95725000D03*
X203150000Y-95725000D03*
X203150000Y-96375000D03*
X203150000Y-97025000D03*
X203150000Y-97675000D03*
X203150000Y-98325000D03*
X203150000Y-98975000D03*
X203150000Y-99625000D03*
X203150000Y-100275000D03*
X203150000Y-100925000D03*
X203150000Y-101575000D03*
X203150000Y-102225000D03*
X203150000Y-102875000D03*
D47*
X167950000Y-128250000D03*
X169450000Y-128250000D03*
X167950000Y-132550000D03*
X169450000Y-132550000D03*
D48*
X167050000Y-130150000D03*
X167050000Y-130650000D03*
X167050000Y-131150000D03*
X167050000Y-131650000D03*
X167050000Y-132150000D03*
X167050000Y-129650000D03*
X167050000Y-129150000D03*
X167050000Y-128650000D03*
X170350000Y-130150000D03*
X170350000Y-130650000D03*
X170350000Y-131150000D03*
X170350000Y-131650000D03*
X170350000Y-132150000D03*
X170350000Y-129650000D03*
X170350000Y-129150000D03*
X170350000Y-128650000D03*
D49*
X168700000Y-130400000D03*
D50*
X168700000Y-130925000D03*
X167925000Y-130925000D03*
X169475000Y-130925000D03*
X168700000Y-129875000D03*
X167925000Y-129875000D03*
X169475000Y-129875000D03*
X168700000Y-131675000D03*
X168700000Y-129125000D03*
D51*
X143524999Y-125114999D03*
X143524999Y-124164999D03*
X143524999Y-123214999D03*
X140904999Y-123214999D03*
X140904999Y-124164999D03*
X140904999Y-125114999D03*
D52*
X201880000Y-141700000D03*
X197320000Y-141700000D03*
D53*
X199600000Y-135400000D03*
D54*
X201125000Y-137075000D03*
X198075000Y-133725000D03*
X198075000Y-137075000D03*
X201125000Y-133725000D03*
D55*
X160200000Y-123560000D03*
D56*
X181300000Y-132600000D03*
D55*
X160200000Y-126100000D03*
X181300000Y-126100000D03*
X181300000Y-123560000D03*
D56*
X181300000Y-134600000D03*
D57*
X199600000Y-135400000D03*
X201125000Y-133725000D03*
X198075000Y-133725000D03*
X198075000Y-137075000D03*
X201125000Y-137075000D03*
D58*
X128000000Y-152500000D03*
X129000000Y-152500000D03*
X130000000Y-152500000D03*
X130000000Y-153500000D03*
X129000000Y-153500000D03*
X128000000Y-153500000D03*
X129000000Y-151500000D03*
X128000000Y-151500000D03*
X130000000Y-151500000D03*
X197700000Y-90600000D03*
X190200000Y-127100000D03*
X187400000Y-126400000D03*
X198800000Y-126200000D03*
X177400000Y-134200000D03*
X172200000Y-136000000D03*
X167700000Y-134700000D03*
X165500000Y-133700000D03*
D59*
X161700000Y-122300000D03*
D58*
X148600000Y-125800000D03*
X144900000Y-129100000D03*
X140800000Y-122400000D03*
X206500000Y-90200000D03*
X207800000Y-90200000D03*
X209000000Y-90200000D03*
X209000000Y-89500000D03*
X207800000Y-89500000D03*
X206500000Y-89500000D03*
X149000000Y-124100000D03*
X196200000Y-126300000D03*
X128900000Y-162100000D03*
X143000000Y-154000000D03*
X201100000Y-130100000D03*
X146400000Y-120500000D03*
X197147679Y-124350009D03*
X202100000Y-106500000D03*
X196230428Y-98706027D03*
X198800000Y-99000000D03*
X196600000Y-116200000D03*
X200899990Y-102800924D03*
X195900000Y-113600000D03*
X201039058Y-101737504D03*
X200159755Y-101804611D03*
X196176456Y-106275000D03*
X201500000Y-109200000D03*
X201735971Y-98980342D03*
X172200000Y-129900000D03*
X174100000Y-126800000D03*
X152000000Y-122300000D03*
X170300000Y-133800000D03*
X172263962Y-131856902D03*
X191700000Y-127500000D03*
X194800000Y-126400000D03*
X190100000Y-122500000D03*
X126325001Y-127625001D03*
X202000000Y-96900000D03*
X203300000Y-104200000D03*
X209400000Y-104500000D03*
X202300000Y-93100000D03*
X165200000Y-130500000D03*
X170400000Y-128000000D03*
X164100000Y-129200000D03*
X166900000Y-127900000D03*
X182900000Y-121600000D03*
X122800000Y-123200000D03*
D60*
X197500000Y-151600000D02*
X193360000Y-147460000D01*
X197500000Y-156910000D02*
X197500000Y-151600000D01*
X189094900Y-143194900D02*
X189094900Y-133500000D01*
X193360000Y-147460000D02*
X189094900Y-143194900D01*
D61*
X196790000Y-157620000D02*
X197500000Y-156910000D01*
X193360000Y-157620000D02*
X196790000Y-157620000D01*
D60*
X197700000Y-133500000D02*
X199600000Y-135400000D01*
X194505100Y-133500000D02*
X197700000Y-133500000D01*
D61*
X199600000Y-135400000D02*
X199600000Y-135250000D01*
X199600000Y-135400000D02*
X199600000Y-135550000D01*
D60*
X196161842Y-137075000D02*
X198075000Y-137075000D01*
X193360000Y-139876842D02*
X196161842Y-137075000D01*
X193360000Y-142380000D02*
X193360000Y-139876842D01*
D61*
X131650000Y-129525001D02*
X131650000Y-130900000D01*
X131049997Y-128924998D02*
X131650000Y-129525001D01*
X130174998Y-128924998D02*
X131049997Y-128924998D01*
X133299998Y-130900000D02*
X134624999Y-129574999D01*
X133150000Y-130900000D02*
X133299998Y-130900000D01*
X134824999Y-140174999D02*
X133825001Y-140174999D01*
X133350000Y-140650000D02*
X133350000Y-141500000D01*
X133825001Y-140174999D02*
X133350000Y-140650000D01*
X131249997Y-139524998D02*
X130374998Y-139524998D01*
X131850000Y-140125001D02*
X131249997Y-139524998D01*
X131850000Y-141500000D02*
X131850000Y-140125001D01*
X199400000Y-91450000D02*
X197900000Y-91450000D01*
X197900000Y-90800000D02*
X197700000Y-90600000D01*
X197900000Y-91450000D02*
X197900000Y-90800000D01*
D62*
X178100000Y-125400000D02*
X178600000Y-124900000D01*
X176100000Y-125400000D02*
X178100000Y-125400000D01*
X180100000Y-124900000D02*
X181300000Y-126100000D01*
X178600000Y-124900000D02*
X180100000Y-124900000D01*
D61*
X173200000Y-129150000D02*
X170350000Y-129150000D01*
X170350000Y-129150000D02*
X170350000Y-129650000D01*
X170350000Y-129650000D02*
X170350000Y-130150000D01*
X181550000Y-132850000D02*
X181300000Y-132600000D01*
X182900000Y-132850000D02*
X181550000Y-132850000D01*
X163300000Y-135350000D02*
X163350000Y-135300000D01*
X162000000Y-135350000D02*
X163300000Y-135350000D01*
X163350000Y-135200000D02*
X164750000Y-133800000D01*
X163350000Y-135300000D02*
X163350000Y-135200000D01*
X190488349Y-126811651D02*
X190200000Y-127100000D01*
X190488349Y-126274999D02*
X190488349Y-126811651D01*
X187750000Y-126050000D02*
X187400000Y-126400000D01*
X187750000Y-125300000D02*
X187750000Y-126050000D01*
X201150000Y-127100000D02*
X201600000Y-127100000D01*
X200000000Y-125950000D02*
X201150000Y-127100000D01*
X200000000Y-125950000D02*
X199050000Y-125950000D01*
X199050000Y-125950000D02*
X198800000Y-126200000D01*
X189100000Y-128200000D02*
X190200000Y-127100000D01*
X189100000Y-128250000D02*
X189100000Y-128200000D01*
X177400000Y-133350000D02*
X177400000Y-134200000D01*
X172250000Y-136050000D02*
X172200000Y-136000000D01*
X173200000Y-136050000D02*
X172250000Y-136050000D01*
X167950000Y-134450000D02*
X167700000Y-134700000D01*
X167950000Y-133800000D02*
X167950000Y-134450000D01*
X165400000Y-133800000D02*
X165500000Y-133700000D01*
X164750000Y-133800000D02*
X165400000Y-133800000D01*
D62*
X162600000Y-122300000D02*
X161700000Y-122300000D01*
X163200000Y-122900000D02*
X162600000Y-122300000D01*
X165900000Y-122900000D02*
X163200000Y-122900000D01*
D61*
X149150000Y-126350000D02*
X148600000Y-125800000D01*
X149150000Y-126800000D02*
X149150000Y-126350000D01*
X145100000Y-129300000D02*
X144900000Y-129100000D01*
X145100000Y-130050000D02*
X145100000Y-129300000D01*
X141430001Y-123214999D02*
X140904999Y-123214999D01*
X142380001Y-124164999D02*
X141430001Y-123214999D01*
X143524999Y-124164999D02*
X142380001Y-124164999D01*
X141430001Y-125114999D02*
X142380001Y-124164999D01*
X140904999Y-125114999D02*
X141430001Y-125114999D01*
X140269998Y-125750000D02*
X140904999Y-125114999D01*
X139300000Y-125750000D02*
X140269998Y-125750000D01*
X142419998Y-121700000D02*
X140904999Y-123214999D01*
X143350000Y-121700000D02*
X142419998Y-121700000D01*
X140904999Y-122504999D02*
X140800000Y-122400000D01*
X140904999Y-123214999D02*
X140904999Y-122504999D01*
D60*
X138750300Y-154849700D02*
X136300000Y-154849700D01*
X143199990Y-150400010D02*
X138750300Y-154849700D01*
X129000000Y-153000000D02*
X129000000Y-151500000D01*
X130849700Y-154849700D02*
X129000000Y-153000000D01*
X136300000Y-154849700D02*
X130849700Y-154849700D01*
D63*
X209005000Y-91345000D02*
X206465000Y-91345000D01*
X206465000Y-89535000D02*
X206500000Y-89500000D01*
X206465000Y-91345000D02*
X206465000Y-89535000D01*
X207800000Y-91280000D02*
X207735000Y-91345000D01*
X207800000Y-89500000D02*
X207800000Y-91280000D01*
X209000000Y-91340000D02*
X209005000Y-91345000D01*
X209000000Y-89500000D02*
X209000000Y-91340000D01*
X206500000Y-89500000D02*
X209000000Y-89500000D01*
X209000000Y-90200000D02*
X206500000Y-90200000D01*
D61*
X149300000Y-123800000D02*
X149000000Y-124100000D01*
X149950000Y-123800000D02*
X149300000Y-123800000D01*
X173200000Y-129150000D02*
X176100000Y-126250000D01*
X176100000Y-126250000D02*
X176100000Y-125400000D01*
X167950000Y-132550000D02*
X167950000Y-133800000D01*
X196350000Y-126250000D02*
X196400000Y-126300000D01*
X130000000Y-162100000D02*
X128900000Y-162100000D01*
D60*
X144725487Y-150400010D02*
X143400000Y-150400010D01*
X145125497Y-150000000D02*
X144725487Y-150400010D01*
X147640000Y-150000000D02*
X145125497Y-150000000D01*
D61*
X143250000Y-154250000D02*
X143000000Y-154000000D01*
X144000000Y-154250000D02*
X143250000Y-154250000D01*
X196200000Y-125450000D02*
X196350000Y-125300000D01*
X196200000Y-126300000D02*
X196200000Y-125450000D01*
D60*
X137224999Y-127974999D02*
X137224999Y-125624999D01*
X141245000Y-131995000D02*
X137224999Y-127974999D01*
X136200000Y-124600000D02*
X136100000Y-124600000D01*
X137224999Y-125624999D02*
X136200000Y-124600000D01*
D62*
X135355000Y-123365000D02*
X135355000Y-125905000D01*
D64*
X136874998Y-127624998D02*
X137224999Y-127974999D01*
X134624999Y-127624998D02*
X136874998Y-127624998D01*
D65*
X141245000Y-135805000D02*
X141245000Y-131995000D01*
D61*
X137770001Y-120949999D02*
X135355000Y-123365000D01*
X145340001Y-120949999D02*
X137770001Y-120949999D01*
X146450000Y-122059998D02*
X145340001Y-120949999D01*
X146450000Y-123200000D02*
X146450000Y-122059998D01*
X139385001Y-124164999D02*
X139300000Y-124250000D01*
X140904999Y-124164999D02*
X139385001Y-124164999D01*
X138599998Y-124250000D02*
X137224999Y-125624999D01*
X139300000Y-124250000D02*
X138599998Y-124250000D01*
X145790000Y-120500000D02*
X145340001Y-120949999D01*
X146400000Y-120500000D02*
X145790000Y-120500000D01*
X201050000Y-130050000D02*
X201100000Y-130100000D01*
X200000000Y-130050000D02*
X201050000Y-130050000D01*
X194850000Y-125300000D02*
X194875000Y-125300000D01*
X194875000Y-125300000D02*
X195824991Y-124350009D01*
X195824991Y-124350009D02*
X197147679Y-124350009D01*
X194520000Y-125630000D02*
X194850000Y-125300000D01*
X193310000Y-125630000D02*
X194520000Y-125630000D01*
X190488349Y-125625001D02*
X190074999Y-125625001D01*
X189100000Y-126600000D02*
X189100000Y-126750000D01*
X190074999Y-125625001D02*
X189100000Y-126600000D01*
X202350000Y-103675000D02*
X203150000Y-102875000D01*
X202350000Y-104200000D02*
X202350000Y-103675000D01*
D66*
X198900000Y-117000000D02*
X198499999Y-117400001D01*
X194849999Y-104800001D02*
X195200000Y-104450000D01*
X198499999Y-117400001D02*
X196689999Y-117400001D01*
X196689999Y-117400001D02*
X194849999Y-115560001D01*
X194849999Y-115560001D02*
X194849999Y-104800001D01*
D61*
X195850000Y-104450000D02*
X195200000Y-104450000D01*
X201687000Y-107075004D02*
X198475004Y-107075004D01*
X198475004Y-107075004D02*
X195850000Y-104450000D01*
X201711998Y-107100002D02*
X201687000Y-107075004D01*
X202388002Y-107100002D02*
X201711998Y-107100002D01*
X203200000Y-106288004D02*
X202388002Y-107100002D01*
X202350000Y-104200000D02*
X203200000Y-105050000D01*
X203200000Y-105050000D02*
X203200000Y-106288004D01*
D65*
X207650000Y-107950000D02*
X206200000Y-109400000D01*
X207650000Y-105300000D02*
X207650000Y-107950000D01*
D60*
X207650000Y-107950000D02*
X207650000Y-105525001D01*
X207650000Y-107950000D02*
X206275001Y-109324999D01*
D61*
X203150000Y-97025000D02*
X203150000Y-97675000D01*
X198090002Y-100275000D02*
X197450000Y-100275000D01*
X203150000Y-97675000D02*
X200690002Y-97675000D01*
X195340002Y-99250000D02*
X195200000Y-99250000D01*
X194550000Y-96650000D02*
X195200000Y-96650000D01*
X194449999Y-96750001D02*
X194550000Y-96650000D01*
X194449999Y-98499999D02*
X194449999Y-96750001D01*
X195200000Y-99250000D02*
X194449999Y-98499999D01*
X200850000Y-104200000D02*
X200850000Y-105600000D01*
X207000000Y-107300000D02*
X207650000Y-107950000D01*
D66*
X204800000Y-110800000D02*
X206200000Y-109400000D01*
X200400000Y-110800000D02*
X204800000Y-110800000D01*
X197650000Y-109200000D02*
X197600000Y-109250000D01*
X199050000Y-109200000D02*
X197650000Y-109200000D01*
X201150000Y-110800000D02*
X202250001Y-109699999D01*
X200400000Y-110800000D02*
X201150000Y-110800000D01*
X202250001Y-108839999D02*
X201785001Y-108374999D01*
X202250001Y-109699999D02*
X202250001Y-108839999D01*
X201785001Y-108374999D02*
X199875001Y-108374999D01*
X199875001Y-108374999D02*
X199050000Y-109200000D01*
D61*
X200250000Y-104200000D02*
X200850000Y-104200000D01*
X202153309Y-97675000D02*
X201135969Y-98692340D01*
X198899998Y-102849998D02*
X200250000Y-104200000D01*
X201135969Y-98692340D02*
X201135969Y-98939031D01*
X201135969Y-98939031D02*
X198899998Y-101175002D01*
X203150000Y-97675000D02*
X202153309Y-97675000D01*
X198899998Y-101175002D02*
X198899998Y-102849998D01*
X201750000Y-106500000D02*
X202100000Y-106500000D01*
X200850000Y-105600000D02*
X201750000Y-106500000D01*
X197450000Y-102875000D02*
X197450000Y-102225000D01*
X198874996Y-102875000D02*
X198899998Y-102849998D01*
X197450000Y-102875000D02*
X198874996Y-102875000D01*
X194550000Y-96650000D02*
X194449999Y-96549999D01*
X195950001Y-93160029D02*
X195950001Y-91500001D01*
X194449999Y-96549999D02*
X194449999Y-94660031D01*
X194449999Y-94660031D02*
X195950001Y-93160029D01*
X195950001Y-91500001D02*
X195200000Y-90750000D01*
X196675001Y-89274999D02*
X195200000Y-90750000D01*
X196675001Y-87675001D02*
X196675001Y-89274999D01*
X195700000Y-86700000D02*
X196675001Y-87675001D01*
X195686455Y-99250000D02*
X196230428Y-98706027D01*
X195200000Y-99250000D02*
X195686455Y-99250000D01*
X199032501Y-99232501D02*
X199132501Y-99232501D01*
X199132501Y-99232501D02*
X198090002Y-100275000D01*
X198800000Y-99000000D02*
X199032501Y-99232501D01*
X200690002Y-97675000D02*
X199132501Y-99232501D01*
X203150000Y-102225000D02*
X202400000Y-102225000D01*
X202298279Y-102326721D02*
X202298279Y-103038268D01*
X202400000Y-102225000D02*
X202298279Y-102326721D01*
X201649999Y-103686548D02*
X201649999Y-104899999D01*
X202298279Y-103038268D02*
X201649999Y-103686548D01*
X201649999Y-104899999D02*
X202350000Y-105600000D01*
D66*
X197850000Y-116550000D02*
X198900000Y-115500000D01*
X197600000Y-116550000D02*
X197850000Y-116550000D01*
D61*
X203150000Y-100275000D02*
X203150000Y-100925000D01*
X203150000Y-100925000D02*
X203150000Y-101575000D01*
X197250000Y-116200000D02*
X197600000Y-116550000D01*
X196600000Y-116200000D02*
X197250000Y-116200000D01*
X203150000Y-101575000D02*
X202125914Y-101575000D01*
X202125914Y-101575000D02*
X200899990Y-102800924D01*
X198550000Y-113650000D02*
X198900000Y-114000000D01*
X197600000Y-113650000D02*
X198550000Y-113650000D01*
X197600000Y-113650000D02*
X197600000Y-115050000D01*
X197550000Y-113600000D02*
X197600000Y-113650000D01*
X195900000Y-113600000D02*
X197550000Y-113600000D01*
X203150000Y-99625000D02*
X202528704Y-99625000D01*
X201039058Y-101114646D02*
X201039058Y-101737504D01*
X202528704Y-99625000D02*
X201039058Y-101114646D01*
X197600000Y-110750000D02*
X197600000Y-112150000D01*
X197600000Y-112150000D02*
X198850000Y-112150000D01*
X198900000Y-112200000D02*
X198900000Y-112400000D01*
X198850000Y-112150000D02*
X198900000Y-112200000D01*
X203150000Y-98975000D02*
X202613004Y-98975000D01*
X202613004Y-98975000D02*
X200159755Y-101428249D01*
X200159755Y-101428249D02*
X200159755Y-101804611D01*
X197600000Y-110750000D02*
X197025000Y-110750000D01*
X197025000Y-110750000D02*
X196176456Y-109901456D01*
X196176456Y-109901456D02*
X196176456Y-106275000D01*
X201500000Y-109200000D02*
X200550000Y-109200000D01*
D66*
X198900000Y-110800000D02*
X200000000Y-109700000D01*
X200050000Y-109700000D02*
X200550000Y-109200000D01*
X200000000Y-109700000D02*
X200050000Y-109700000D01*
D61*
X203150000Y-98325000D02*
X202400000Y-98325000D01*
X202400000Y-98325000D02*
X201744658Y-98980342D01*
X201744658Y-98980342D02*
X201735971Y-98980342D01*
D62*
X172800000Y-125400000D02*
X172300000Y-124900000D01*
X174100000Y-125400000D02*
X172800000Y-125400000D01*
X174100000Y-123350000D02*
X174050000Y-123300000D01*
X174100000Y-125400000D02*
X174100000Y-123350000D01*
X172300000Y-124900000D02*
X172300000Y-123700000D01*
X172700000Y-123300000D02*
X174050000Y-123300000D01*
X172300000Y-123700000D02*
X172700000Y-123300000D01*
D61*
X173200000Y-130650000D02*
X170350000Y-130650000D01*
X172950000Y-130650000D02*
X172200000Y-129900000D01*
X173200000Y-130650000D02*
X172950000Y-130650000D01*
X174100000Y-126800000D02*
X174100000Y-125400000D01*
D65*
X206200000Y-116900000D02*
X203500000Y-119600000D01*
X146555000Y-135805000D02*
X146555000Y-133505001D01*
X146555000Y-134535000D02*
X148465000Y-134535000D01*
D60*
X203500000Y-119600000D02*
X206124999Y-116975001D01*
X149126608Y-134535000D02*
X153500000Y-130161608D01*
X153500000Y-124700000D02*
X158600000Y-119600000D01*
X148465000Y-134535000D02*
X149126608Y-134535000D01*
X153500000Y-130161608D02*
X153500000Y-124700000D01*
D65*
X181300000Y-120100000D02*
X180800000Y-119600000D01*
X181300000Y-123560000D02*
X181300000Y-120100000D01*
D60*
X180800000Y-119600000D02*
X203500000Y-119600000D01*
X158600000Y-119600000D02*
X180800000Y-119600000D01*
D66*
X200400000Y-115500000D02*
X200400000Y-117000000D01*
X206100000Y-117000000D02*
X206200000Y-116900000D01*
X200400000Y-117000000D02*
X206100000Y-117000000D01*
D62*
X177350000Y-122900000D02*
X176950000Y-123300000D01*
X178600000Y-122900000D02*
X177350000Y-122900000D01*
X180640000Y-122900000D02*
X181300000Y-123560000D01*
X178600000Y-122900000D02*
X180640000Y-122900000D01*
D61*
X182450001Y-124710001D02*
X181300000Y-123560000D01*
X182450001Y-126652001D02*
X182450001Y-124710001D01*
X179852002Y-129250000D02*
X182450001Y-126652001D01*
X177400000Y-129250000D02*
X179852002Y-129250000D01*
X177334999Y-129315001D02*
X177400000Y-129250000D01*
X175900000Y-129315001D02*
X177334999Y-129315001D01*
X172384998Y-131150000D02*
X170350000Y-131150000D01*
X172584999Y-131350001D02*
X172384998Y-131150000D01*
X175900000Y-129315001D02*
X175900000Y-129340001D01*
X173890000Y-131350001D02*
X172584999Y-131350001D01*
X175900000Y-129340001D02*
X173890000Y-131350001D01*
D60*
X147640000Y-142960000D02*
X143400000Y-147200000D01*
X147640000Y-139840000D02*
X147640000Y-142960000D01*
X137149700Y-147200000D02*
X136300000Y-146350300D01*
X143400000Y-147200000D02*
X137149700Y-147200000D01*
D62*
X135355000Y-133965000D02*
X135355000Y-136505000D01*
D65*
X158997919Y-123560000D02*
X160200000Y-123560000D01*
X158149999Y-124407920D02*
X158997919Y-123560000D01*
X158149999Y-129330001D02*
X158149999Y-124407920D01*
X147640000Y-139840000D02*
X158149999Y-129330001D01*
X163200000Y-126160002D02*
X165500000Y-128460002D01*
X163200000Y-124900000D02*
X163200000Y-126160002D01*
D64*
X165500000Y-129400000D02*
X166439998Y-129400000D01*
X165500000Y-128460002D02*
X165500000Y-129400000D01*
X166439998Y-129400000D02*
X166900000Y-129400000D01*
X167050000Y-129550000D02*
X167050000Y-129629999D01*
X166900000Y-129400000D02*
X167050000Y-129550000D01*
D61*
X166189998Y-129150000D02*
X166169999Y-129130001D01*
X167050000Y-129150000D02*
X166189998Y-129150000D01*
D64*
X166169999Y-129130001D02*
X165500000Y-128460002D01*
X166439998Y-129400000D02*
X166169999Y-129130001D01*
D61*
X165750000Y-129650000D02*
X165500000Y-129400000D01*
X167050000Y-129650000D02*
X165750000Y-129650000D01*
X167050000Y-129150000D02*
X167050000Y-129650000D01*
X165860002Y-128460002D02*
X165500000Y-128460002D01*
X166550000Y-129150000D02*
X165860002Y-128460002D01*
X167050000Y-129150000D02*
X166550000Y-129150000D01*
X158800000Y-131600000D02*
X158800000Y-130100000D01*
X158800000Y-129980002D02*
X158149999Y-129330001D01*
X158800000Y-130100000D02*
X158800000Y-129980002D01*
D65*
X160200000Y-123560000D02*
X160740002Y-124100002D01*
X160740002Y-124100002D02*
X161115000Y-124100002D01*
X161115000Y-124100002D02*
X161914998Y-124900000D01*
X161914998Y-124900000D02*
X163200000Y-124900000D01*
D61*
X151450000Y-125300000D02*
X151450000Y-123800000D01*
X151450000Y-122850000D02*
X152000000Y-122300000D01*
X151450000Y-125300000D02*
X151450000Y-122850000D01*
X134824999Y-137035001D02*
X135355000Y-136505000D01*
X134824999Y-138224998D02*
X134824999Y-137035001D01*
D60*
X136300000Y-146350300D02*
X136300000Y-144280000D01*
X136300000Y-144280000D02*
X137400000Y-143180000D01*
D62*
X136965000Y-133965000D02*
X137400000Y-134400000D01*
X136565000Y-135235000D02*
X137400000Y-134400000D01*
X135355000Y-135235000D02*
X136565000Y-135235000D01*
X137295000Y-136505000D02*
X137400000Y-136400000D01*
D60*
X137400000Y-136400000D02*
X137400000Y-134400000D01*
X137400000Y-143180000D02*
X137400000Y-136400000D01*
D62*
X135865000Y-136235000D02*
X135595000Y-136505000D01*
X135595000Y-136505000D02*
X137295000Y-136505000D01*
X135355000Y-136505000D02*
X135595000Y-136505000D01*
X135865000Y-133965000D02*
X135865000Y-136235000D01*
X135355000Y-133965000D02*
X135865000Y-133965000D01*
X135865000Y-133965000D02*
X136965000Y-133965000D01*
D61*
X169450000Y-133800000D02*
X169450000Y-132550000D01*
X169450000Y-133800000D02*
X170300000Y-133800000D01*
X173106902Y-131856902D02*
X173200000Y-131950000D01*
X172263962Y-131856902D02*
X173106902Y-131856902D01*
X177334999Y-130815001D02*
X177400000Y-130750000D01*
X175900000Y-130815001D02*
X177334999Y-130815001D01*
X177400000Y-130750000D02*
X177400000Y-131850000D01*
X174215000Y-132500001D02*
X175900000Y-130815001D01*
X172019059Y-132500001D02*
X174215000Y-132500001D01*
X171169058Y-131650000D02*
X172019059Y-132500001D01*
X170350000Y-131650000D02*
X171169058Y-131650000D01*
X165244285Y-131500013D02*
X165653691Y-131500013D01*
X166003704Y-131150000D02*
X167050000Y-131150000D01*
X162000000Y-133850000D02*
X162800001Y-133049999D01*
X165653691Y-131500013D02*
X166003704Y-131150000D01*
X163694299Y-133049999D02*
X165244285Y-131500013D01*
X162800001Y-133049999D02*
X163694299Y-133049999D01*
X161650000Y-128600000D02*
X160400000Y-128600000D01*
X131600000Y-160850000D02*
X131350000Y-160600000D01*
X131600000Y-162100000D02*
X131600000Y-160850000D01*
X167950000Y-125650000D02*
X168700000Y-124900000D01*
X169450000Y-125650000D02*
X168700000Y-124900000D01*
X167950000Y-127050000D02*
X167950000Y-125650000D01*
X169450000Y-127050000D02*
X169450000Y-125650000D01*
X169450000Y-127750000D02*
X167950000Y-127750000D01*
X167950000Y-128250000D02*
X167950000Y-127750000D01*
X169450000Y-128250000D02*
X169450000Y-127750000D01*
X169450000Y-127750000D02*
X169450000Y-127650000D01*
X167950000Y-127750000D02*
X167950000Y-127650000D01*
X167950000Y-127650000D02*
X169450000Y-127650000D01*
X169450000Y-127550000D02*
X169450000Y-127350000D01*
X167950000Y-127550000D02*
X169450000Y-127550000D01*
X169450000Y-127650000D02*
X169450000Y-127550000D01*
X167950000Y-127650000D02*
X167950000Y-127550000D01*
X167950000Y-127550000D02*
X167950000Y-127350000D01*
X169450000Y-127350000D02*
X167950000Y-127350000D01*
X169350000Y-127250000D02*
X169450000Y-127350000D01*
X167950000Y-127250000D02*
X169350000Y-127250000D01*
X167950000Y-127350000D02*
X167950000Y-127250000D01*
X167950000Y-127250000D02*
X167950000Y-127050000D01*
X168050000Y-127150000D02*
X167950000Y-127050000D01*
X169450000Y-127150000D02*
X168050000Y-127150000D01*
X169450000Y-127350000D02*
X169450000Y-127150000D01*
X169450000Y-127150000D02*
X169450000Y-127050000D01*
X167950000Y-127050000D02*
X169450000Y-127050000D01*
D62*
X164950000Y-124900000D02*
X166850000Y-124900000D01*
X166850000Y-124900000D02*
X168700000Y-124900000D01*
D61*
X143600000Y-129650000D02*
X143550000Y-129700000D01*
X143600000Y-127950000D02*
X143600000Y-129650000D01*
X160400000Y-130100000D02*
X161650000Y-130100000D01*
D60*
X118790000Y-128710000D02*
X118845000Y-128765000D01*
X112700000Y-128710000D02*
X118790000Y-128710000D01*
X116250000Y-128710000D02*
X112700000Y-128710000D01*
X117520000Y-128710000D02*
X112700000Y-128710000D01*
X118845000Y-130035000D02*
X117520000Y-128710000D01*
X112700000Y-137300000D02*
X112924999Y-137524999D01*
X116400000Y-150000000D02*
X118800000Y-147600000D01*
X118800000Y-147600000D02*
X118800000Y-139400000D01*
X116300000Y-136900000D02*
X112700000Y-136900000D01*
X118800000Y-139400000D02*
X116300000Y-136900000D01*
X112700000Y-136900000D02*
X112700000Y-137300000D01*
X112700000Y-132890000D02*
X112700000Y-136900000D01*
X114900000Y-150000000D02*
X116400000Y-150000000D01*
D61*
X129850000Y-160600000D02*
X129850000Y-159100000D01*
X129850000Y-160600000D02*
X129400000Y-160600000D01*
X129400000Y-160600000D02*
X128424988Y-161575012D01*
X128424988Y-161575012D02*
X115575012Y-161575012D01*
X115575012Y-161575012D02*
X111600000Y-157600000D01*
X111600000Y-157600000D02*
X111600000Y-153300000D01*
X111600000Y-153300000D02*
X114900000Y-150000000D01*
X123375001Y-161175001D02*
X122200000Y-160000000D01*
X127875001Y-160564001D02*
X127264001Y-161175001D01*
X127875001Y-159834997D02*
X127875001Y-160564001D01*
X129359999Y-158349999D02*
X127875001Y-159834997D01*
X127264001Y-161175001D02*
X123375001Y-161175001D01*
X137449999Y-158349999D02*
X129359999Y-158349999D01*
X138600000Y-159500000D02*
X137449999Y-158349999D01*
X193440000Y-126400000D02*
X193310000Y-126270000D01*
X139750010Y-158349990D02*
X138600000Y-159500000D01*
X145569999Y-160947193D02*
X142972796Y-158349990D01*
X145569999Y-161153601D02*
X145569999Y-160947193D01*
X146646399Y-162230001D02*
X145569999Y-161153601D01*
X142972796Y-158349990D02*
X139750010Y-158349990D01*
X156869999Y-162230001D02*
X146646399Y-162230001D01*
X191600000Y-127500000D02*
X156869999Y-162230001D01*
X191700000Y-127500000D02*
X191600000Y-127500000D01*
X194800000Y-126400000D02*
X193440000Y-126400000D01*
X131350000Y-159300000D02*
X131350000Y-159100000D01*
X142099979Y-161050021D02*
X133100021Y-161050021D01*
X142600000Y-160550000D02*
X142099979Y-161050021D01*
X142600000Y-159500000D02*
X142600000Y-160550000D01*
X133100021Y-161050021D02*
X131350000Y-159300000D01*
D66*
X200800000Y-114400000D02*
X200400000Y-114000000D01*
X206200000Y-114400000D02*
X200800000Y-114400000D01*
X200900000Y-111900000D02*
X200400000Y-112400000D01*
X206200000Y-111900000D02*
X200900000Y-111900000D01*
D61*
X194049989Y-99339991D02*
X194509999Y-99800001D01*
X194049989Y-94494342D02*
X194049989Y-99339991D01*
X195200000Y-93344332D02*
X194049989Y-94494342D01*
X195200000Y-92250000D02*
X195200000Y-93344332D01*
X195059998Y-100350000D02*
X194049989Y-99339991D01*
X195200000Y-100350000D02*
X195059998Y-100350000D01*
X194449999Y-91499999D02*
X195200000Y-92250000D01*
X195700000Y-88700000D02*
X194449999Y-89950001D01*
X194449999Y-89950001D02*
X194449999Y-91499999D01*
X196913004Y-98975000D02*
X197450000Y-98975000D01*
X195200000Y-100350000D02*
X195538004Y-100350000D01*
X195538004Y-100350000D02*
X196913004Y-98975000D01*
X173200000Y-133450000D02*
X173200000Y-134550000D01*
X181550000Y-134350000D02*
X181300000Y-134600000D01*
X182900000Y-134350000D02*
X181550000Y-134350000D01*
X171650000Y-133450000D02*
X173200000Y-133450000D01*
X170350000Y-132150000D02*
X171650000Y-133450000D01*
X181300000Y-134600000D02*
X180625001Y-135274999D01*
X180625001Y-135274999D02*
X173474999Y-135274999D01*
X173474999Y-135274999D02*
X173200000Y-135000000D01*
X173200000Y-135000000D02*
X173200000Y-134550000D01*
X201600000Y-125450000D02*
X202550000Y-124500000D01*
X201600000Y-126150000D02*
X201600000Y-125450000D01*
X201154998Y-126150000D02*
X201600000Y-126150000D01*
D66*
X203450001Y-130600001D02*
X202550000Y-129700000D01*
X206499999Y-130600001D02*
X203450001Y-130600001D01*
X206800000Y-130300000D02*
X206499999Y-130600001D01*
X202315002Y-126150000D02*
X201600000Y-126150000D01*
X202580001Y-126414999D02*
X202315002Y-126150000D01*
X202580001Y-129669999D02*
X202580001Y-126414999D01*
X202550000Y-129700000D02*
X202580001Y-129669999D01*
D61*
X195000000Y-122550000D02*
X194955776Y-122505776D01*
D66*
X198639997Y-125249999D02*
X197450013Y-126439983D01*
X201600000Y-126150000D02*
X200699999Y-125249999D01*
X200699999Y-125249999D02*
X198639997Y-125249999D01*
X196589996Y-127300000D02*
X192888501Y-127300000D01*
X198639997Y-125249999D02*
X196589996Y-127300000D01*
D64*
X192299999Y-125709997D02*
X191560002Y-124970000D01*
X192299999Y-126711498D02*
X192299999Y-125709997D01*
X192888501Y-127300000D02*
X192299999Y-126711498D01*
X191560002Y-124970000D02*
X190690000Y-124970000D01*
D61*
X191600001Y-124930001D02*
X191560002Y-124970000D01*
X191600001Y-123802875D02*
X191600001Y-124930001D01*
X192852876Y-122550000D02*
X191600001Y-123802875D01*
X195000000Y-122550000D02*
X192852876Y-122550000D01*
X204550010Y-125399990D02*
X203800000Y-126150000D01*
X207422796Y-125399990D02*
X204550010Y-125399990D01*
X207950010Y-125927204D02*
X207422796Y-125399990D01*
X207950010Y-127149990D02*
X207950010Y-125927204D01*
X206800000Y-128300000D02*
X207950010Y-127149990D01*
X204050000Y-125900000D02*
X203800000Y-126150000D01*
X204050000Y-124500000D02*
X204050000Y-125900000D01*
X205550000Y-126300000D02*
X203800000Y-128050000D01*
X206800000Y-126300000D02*
X205550000Y-126300000D01*
X203800000Y-129450000D02*
X204050000Y-129700000D01*
X203800000Y-128050000D02*
X203800000Y-129450000D01*
X206800000Y-124300000D02*
X206249999Y-123749999D01*
X194720000Y-124330000D02*
X195000000Y-124050000D01*
X193310000Y-124330000D02*
X194720000Y-124330000D01*
X195300001Y-123749999D02*
X206249999Y-123749999D01*
X195000000Y-124050000D02*
X195300001Y-123749999D01*
X161650000Y-131600000D02*
X160400000Y-131600000D01*
D60*
X126325001Y-129165001D02*
X125490002Y-130000000D01*
X130045000Y-122095000D02*
X126325001Y-125814999D01*
X125490002Y-130680002D02*
X130045000Y-135235000D01*
X125490002Y-130000000D02*
X125490002Y-130680002D01*
X127505000Y-124635000D02*
X126325001Y-125814999D01*
X130045000Y-124635000D02*
X127505000Y-124635000D01*
X130045000Y-133965000D02*
X130045000Y-132885000D01*
D62*
X124155000Y-128765000D02*
X124155000Y-131305000D01*
X125925000Y-128765000D02*
X126325001Y-129165001D01*
X124155000Y-128765000D02*
X125925000Y-128765000D01*
X130045000Y-125905000D02*
X128045002Y-125905000D01*
X128045002Y-125905000D02*
X126325001Y-127625001D01*
D60*
X126325001Y-127625001D02*
X126325001Y-129165001D01*
X126325001Y-125814999D02*
X126325001Y-127625001D01*
D61*
X128325001Y-129574999D02*
X127530000Y-130370000D01*
X130174998Y-129574999D02*
X128325001Y-129574999D01*
D60*
X127530000Y-130370000D02*
X126325001Y-129165001D01*
X130045000Y-132885000D02*
X127530000Y-130370000D01*
D61*
X129399989Y-140074989D02*
X129399989Y-137150011D01*
X129499999Y-140174999D02*
X129399989Y-140074989D01*
X129399989Y-137150011D02*
X130045000Y-136505000D01*
X130374998Y-140174999D02*
X129499999Y-140174999D01*
D64*
X124710002Y-124200000D02*
X126325001Y-125814999D01*
X124250000Y-124200000D02*
X124710002Y-124200000D01*
D61*
X190050000Y-122550000D02*
X190100000Y-122500000D01*
X189000000Y-122550000D02*
X190050000Y-122550000D01*
X134082524Y-128924998D02*
X134624999Y-128924998D01*
X133432525Y-128274999D02*
X134082524Y-128924998D01*
X130174998Y-128274999D02*
X133432525Y-128274999D01*
X133649990Y-127407533D02*
X134157523Y-126900000D01*
X135304998Y-122095000D02*
X135355000Y-122095000D01*
X133649990Y-128057534D02*
X133432525Y-128274999D01*
X133649990Y-127407533D02*
X133649990Y-128057534D01*
X134685000Y-122095000D02*
X134300000Y-122480000D01*
X135355000Y-122095000D02*
X134685000Y-122095000D01*
X134300000Y-126757523D02*
X133649990Y-127407533D01*
X134300000Y-122480000D02*
X134300000Y-126757523D01*
X134282524Y-139524998D02*
X134824999Y-139524998D01*
X133632525Y-138874999D02*
X134282524Y-139524998D01*
X130374998Y-138874999D02*
X133632525Y-138874999D01*
X134685000Y-132695000D02*
X134400000Y-132980000D01*
X135355000Y-132695000D02*
X134685000Y-132695000D01*
X134400000Y-132980000D02*
X134400000Y-137600000D01*
X133632525Y-138224998D02*
X133632525Y-138874999D01*
X134257523Y-137600000D02*
X133632525Y-138224998D01*
X134400000Y-137600000D02*
X134257523Y-137600000D01*
D64*
X124100000Y-127440000D02*
X124155000Y-127495000D01*
D61*
X124250000Y-127400000D02*
X124155000Y-127495000D01*
D64*
X124250000Y-125700000D02*
X124250000Y-127400000D01*
D65*
X204750000Y-103800000D02*
X205195000Y-103355000D01*
X204750000Y-105300000D02*
X204750000Y-103800000D01*
X205195000Y-103355000D02*
X206001611Y-103355000D01*
D62*
X206738727Y-103324991D02*
X207735000Y-103324991D01*
X206708718Y-103355000D02*
X206738727Y-103324991D01*
X206465000Y-103355000D02*
X206708718Y-103355000D01*
X205449990Y-104613728D02*
X206738727Y-103324991D01*
X205449990Y-105300000D02*
X205449990Y-104613728D01*
X204750000Y-105300000D02*
X205449990Y-105300000D01*
D61*
X203400000Y-91450000D02*
X202750000Y-91450000D01*
X202750000Y-91450000D02*
X201399999Y-92800001D01*
X201399999Y-92800001D02*
X201399999Y-95374999D01*
X201399999Y-95374999D02*
X202400000Y-96375000D01*
X202400000Y-96375000D02*
X203150000Y-96375000D01*
X202525000Y-96375000D02*
X202000000Y-96900000D01*
X203150000Y-96375000D02*
X202525000Y-96375000D01*
X204350000Y-104200000D02*
X204750000Y-103800000D01*
X203300000Y-104200000D02*
X204350000Y-104200000D01*
X203400000Y-92950000D02*
X203300000Y-92950000D01*
D64*
X209005000Y-103355000D02*
X209005000Y-104105000D01*
X209005000Y-104105000D02*
X209400000Y-104500000D01*
X202450000Y-92950000D02*
X202300000Y-93100000D01*
X203400000Y-92950000D02*
X202450000Y-92950000D01*
X202300000Y-94150000D02*
X202150000Y-94300000D01*
X202300000Y-93100000D02*
X202300000Y-94150000D01*
D65*
X207735000Y-96655000D02*
X207735000Y-98045000D01*
X206465000Y-96655000D02*
X206465000Y-98045000D01*
X205195000Y-96655000D02*
X208774990Y-96655000D01*
X205195000Y-98045000D02*
X208774990Y-98045000D01*
D64*
X198850000Y-93500000D02*
X199400000Y-92950000D01*
X198850000Y-94300000D02*
X198850000Y-93500000D01*
X201550001Y-90799999D02*
X199400000Y-92950000D01*
X204649999Y-90799999D02*
X201550001Y-90799999D01*
X205195000Y-91345000D02*
X204649999Y-90799999D01*
D61*
X148055000Y-131995000D02*
X148100000Y-131950000D01*
X146555000Y-131995000D02*
X148055000Y-131995000D01*
X149950000Y-125700000D02*
X151050000Y-126800000D01*
X149950000Y-125300000D02*
X149950000Y-125700000D01*
X150100000Y-129950000D02*
X149600000Y-130450000D01*
X150100000Y-129200000D02*
X150100000Y-129950000D01*
X149600000Y-130450000D02*
X148100000Y-130450000D01*
X148100000Y-130450000D02*
X148100000Y-129700000D01*
X148100000Y-129700000D02*
X147500000Y-129100000D01*
X144864999Y-125114999D02*
X144950000Y-125200000D01*
X143524999Y-125114999D02*
X144864999Y-125114999D01*
X143524999Y-126374999D02*
X143600000Y-126450000D01*
X143524999Y-125114999D02*
X143524999Y-126374999D01*
X144000000Y-156520000D02*
X144000000Y-155750000D01*
X147640000Y-160160000D02*
X144000000Y-156520000D01*
X190213348Y-124050000D02*
X190488349Y-124325001D01*
X189000000Y-124050000D02*
X190213348Y-124050000D01*
X189000000Y-125050000D02*
X189250000Y-125300000D01*
X189000000Y-124050000D02*
X189000000Y-125050000D01*
X195325000Y-102950000D02*
X195200000Y-102950000D01*
X196700000Y-101575000D02*
X195325000Y-102950000D01*
X197450000Y-101575000D02*
X196700000Y-101575000D01*
X196828704Y-99625000D02*
X197450000Y-99625000D01*
X195200000Y-101850000D02*
X195950001Y-101099999D01*
X195950001Y-101099999D02*
X195950001Y-100503703D01*
X195950001Y-100503703D02*
X196828704Y-99625000D01*
X195200000Y-97750000D02*
X196324737Y-97750000D01*
X196899737Y-98325000D02*
X197450000Y-98325000D01*
X196324737Y-97750000D02*
X196899737Y-98325000D01*
X197450000Y-97675000D02*
X196815437Y-97675000D01*
X195950001Y-95900001D02*
X195200000Y-95150000D01*
X195950001Y-96809564D02*
X195950001Y-95900001D01*
X196815437Y-97675000D02*
X195950001Y-96809564D01*
D64*
X203650000Y-95225000D02*
X203150000Y-95725000D01*
X203650000Y-94300000D02*
X203650000Y-95225000D01*
X197350000Y-95625000D02*
X197450000Y-95725000D01*
X197350000Y-94300000D02*
X197350000Y-95625000D01*
D61*
X196599999Y-93600001D02*
X197250000Y-92950000D01*
X197250000Y-92950000D02*
X197900000Y-92950000D01*
X196599999Y-96274999D02*
X196599999Y-93600001D01*
X196700000Y-96375000D02*
X196599999Y-96274999D01*
X197450000Y-96375000D02*
X196700000Y-96375000D01*
X163649998Y-131100002D02*
X165488002Y-131100002D01*
X165488002Y-131100002D02*
X166438004Y-130150000D01*
X166438004Y-130150000D02*
X167050000Y-130150000D01*
X163150000Y-131600000D02*
X163649998Y-131100002D01*
X164800000Y-130100000D02*
X165200000Y-130500000D01*
X163150000Y-130100000D02*
X164800000Y-130100000D01*
X170400000Y-128600000D02*
X170350000Y-128650000D01*
X170400000Y-128000000D02*
X170400000Y-128600000D01*
X163500000Y-128600000D02*
X164100000Y-129200000D01*
X163150000Y-128600000D02*
X163500000Y-128600000D01*
X166900000Y-128500000D02*
X167050000Y-128650000D01*
X166900000Y-127900000D02*
X166900000Y-128500000D01*
X167050000Y-131650000D02*
X166069404Y-131650000D01*
X163509998Y-133800000D02*
X163250000Y-133800000D01*
X165409974Y-131900024D02*
X163509998Y-133800000D01*
X165819380Y-131900024D02*
X165409974Y-131900024D01*
X166069404Y-131650000D02*
X165819380Y-131900024D01*
X167050000Y-133100000D02*
X167050000Y-132150000D01*
X164850000Y-135300000D02*
X167050000Y-133100000D01*
X144850000Y-123100000D02*
X144950000Y-123200000D01*
X144850000Y-121700000D02*
X144850000Y-123100000D01*
X143539998Y-123200000D02*
X143524999Y-123214999D01*
X144950000Y-123200000D02*
X143539998Y-123200000D01*
D60*
X197500000Y-161090000D02*
X200110000Y-161090000D01*
X203900000Y-157300000D02*
X203900000Y-155700000D01*
X200110000Y-161090000D02*
X203900000Y-157300000D01*
X203900000Y-149700000D02*
X205100000Y-149700000D01*
X205100000Y-149700000D02*
X207200000Y-147600000D01*
X201880000Y-141700000D02*
X197320000Y-141700000D01*
X207200000Y-147600000D02*
X207200000Y-144375001D01*
X204964999Y-144375001D02*
X207200000Y-144375001D01*
X202289998Y-141700000D02*
X204964999Y-144375001D01*
X201880000Y-141700000D02*
X202289998Y-141700000D01*
D61*
X146450000Y-126800000D02*
X145100000Y-128150000D01*
X146450000Y-125200000D02*
X146450000Y-126800000D01*
D64*
X193311651Y-124974999D02*
X192603498Y-124974999D01*
X195370002Y-121600000D02*
X182900000Y-121600000D01*
X195850001Y-122079999D02*
X195370002Y-121600000D01*
X192299999Y-124850001D02*
X192299999Y-123907123D01*
X195850001Y-123120001D02*
X195850001Y-122079999D01*
X192577123Y-123729999D02*
X193107121Y-123200001D01*
X193107121Y-123200001D02*
X195770001Y-123200001D01*
X192477123Y-123729999D02*
X192577123Y-123729999D01*
X192299999Y-123907123D02*
X192477123Y-123729999D01*
X195770001Y-123200001D02*
X195850001Y-123120001D01*
X193310000Y-124970000D02*
X192419998Y-124970000D01*
X192419998Y-124970000D02*
X192299999Y-124850001D01*
X122800000Y-124150000D02*
X122750000Y-124200000D01*
X122800000Y-123200000D02*
X122800000Y-124150000D01*
X122750000Y-124200000D02*
X122750000Y-125700000D01*
D61*
X200000000Y-128550000D02*
X200000000Y-127450000D01*
X200500000Y-128050000D02*
X200000000Y-128550000D01*
X201600000Y-128050000D02*
X200500000Y-128050000D01*
M02*
