G04 #@! TF.GenerationSoftware,KiCad,Pcbnew,(5.1.8)-1*
G04 #@! TF.CreationDate,2020-12-30T11:10:39+09:00*
G04 #@! TF.ProjectId,JetsonXavierNX_UPS,4a657473-6f6e-4586-9176-6965724e585f,rev?*
G04 #@! TF.SameCoordinates,Original*
G04 #@! TF.FileFunction,Soldermask,Bot*
G04 #@! TF.FilePolarity,Negative*
%FSLAX46Y46*%
G04 Gerber Fmt 4.6, Leading zero omitted, Abs format (unit mm)*
G04 Created by KiCad (PCBNEW (5.1.8)-1) date 2020-12-30 11:10:39*
%MOMM*%
%LPD*%
G01*
G04 APERTURE LIST*
%ADD10O,1.700000X1.200000*%
%ADD11R,1.700000X1.200000*%
%ADD12C,3.540000*%
%ADD13C,1.750000*%
%ADD14R,1.750000X1.750000*%
%ADD15O,2.250000X4.500000*%
%ADD16O,4.500000X2.250000*%
%ADD17O,5.000000X2.500000*%
%ADD18R,1.200000X1.700000*%
%ADD19O,1.200000X1.700000*%
%ADD20R,1.350000X1.350000*%
%ADD21O,1.350000X1.350000*%
%ADD22C,2.100000*%
%ADD23C,0.300000*%
%ADD24C,1.700000*%
%ADD25C,1.350000*%
G04 APERTURE END LIST*
D10*
X206800000Y-124300000D03*
X206800000Y-126300000D03*
X206800000Y-128300000D03*
X206800000Y-130300000D03*
D11*
X206800000Y-132300000D03*
D12*
X147640000Y-139840000D03*
X147640000Y-160160000D03*
X147640000Y-150000000D03*
X193360000Y-142380000D03*
X193360000Y-147460000D03*
X193360000Y-157620000D03*
D13*
X206200000Y-109400000D03*
X206200000Y-111900000D03*
X206200000Y-114400000D03*
D14*
X206200000Y-116900000D03*
D15*
X208600000Y-152700000D03*
D16*
X203900000Y-155700000D03*
D17*
X203900000Y-149700000D03*
D13*
X207200000Y-144300000D03*
D14*
X207200000Y-141800000D03*
D18*
X136600000Y-159500000D03*
D19*
X138600000Y-159500000D03*
X140600000Y-159500000D03*
X142600000Y-159500000D03*
D14*
X113000000Y-140100000D03*
D13*
X113000000Y-137600000D03*
D17*
X114900000Y-150000000D03*
D16*
X114900000Y-156000000D03*
D15*
X119600000Y-153000000D03*
D14*
X206200000Y-116900000D03*
D13*
X206200000Y-114400000D03*
X206200000Y-111900000D03*
X206200000Y-109400000D03*
D20*
X195700000Y-86700000D03*
D21*
X195700000Y-88700000D03*
D22*
X127950000Y-157510000D03*
D13*
X126700000Y-160000000D03*
X122200000Y-160000000D03*
D22*
X120940000Y-157510000D03*
D23*
X168700000Y-130925000D03*
X167925000Y-130925000D03*
X169475000Y-130925000D03*
X168700000Y-129875000D03*
X167925000Y-129875000D03*
X169475000Y-129875000D03*
X168700000Y-131675000D03*
X168700000Y-129125000D03*
D24*
X160200000Y-123560000D03*
D25*
X181300000Y-132600000D03*
D24*
X160200000Y-126100000D03*
X181300000Y-126100000D03*
X181300000Y-123560000D03*
D25*
X181300000Y-134600000D03*
M02*
